G04*
G04 #@! TF.GenerationSoftware,Altium Limited,Altium Designer,22.4.2 (48)*
G04*
G04 Layer_Color=16711935*
%FSLAX44Y44*%
%MOMM*%
G71*
G04*
G04 #@! TF.SameCoordinates,0052537D-BEB4-46D3-A19B-1C4CA2F22292*
G04*
G04*
G04 #@! TF.FilePolarity,Negative*
G04*
G01*
G75*
%ADD30C,1.5000*%
G04:AMPARAMS|DCode=31|XSize=1.5mm|YSize=1.5mm|CornerRadius=0.1875mm|HoleSize=0mm|Usage=FLASHONLY|Rotation=270.000|XOffset=0mm|YOffset=0mm|HoleType=Round|Shape=RoundedRectangle|*
%AMROUNDEDRECTD31*
21,1,1.5000,1.1250,0,0,270.0*
21,1,1.1250,1.5000,0,0,270.0*
1,1,0.3750,-0.5625,-0.5625*
1,1,0.3750,-0.5625,0.5625*
1,1,0.3750,0.5625,0.5625*
1,1,0.3750,0.5625,-0.5625*
%
%ADD31ROUNDEDRECTD31*%
G36*
X-178185Y75274D02*
X-166707D01*
Y75274D01*
X-166707D01*
X-166707D01*
D01*
X-166609Y75277D01*
X-166413Y75249D01*
X-166225Y75188D01*
X-166050Y75096D01*
X-165972Y75036D01*
X-165972D01*
X-165905Y74981D01*
X-165790Y74852D01*
X-165697Y74707D01*
X-165627Y74550D01*
X-165605Y74466D01*
X-165605D01*
X-165570Y74342D01*
X-165553Y74084D01*
X-165588Y73828D01*
X-165675Y73585D01*
X-165743Y73474D01*
X-165820Y73355D01*
X-166032Y73163D01*
X-166286Y73032D01*
X-166565Y72972D01*
X-166707Y72978D01*
X-170581D01*
Y70898D01*
X-170581Y70898D01*
X-170581Y70862D01*
X-170582Y70791D01*
X-170584Y70719D01*
X-170588Y70647D01*
X-170590Y70612D01*
X-170592Y70594D01*
X-170594Y70558D01*
X-170597Y70523D01*
X-170600Y70488D01*
X-170602Y70470D01*
X-170604Y70452D01*
X-170607Y70417D01*
X-170611Y70382D01*
X-170615Y70347D01*
X-170617Y70330D01*
X-170619Y70312D01*
X-170623Y70277D01*
X-170628Y70243D01*
X-170633Y70208D01*
X-170635Y70191D01*
X-166340Y68759D01*
Y68759D01*
Y68759D01*
X-166243Y68732D01*
X-166062Y68646D01*
X-165899Y68530D01*
X-165758Y68387D01*
X-165701Y68304D01*
X-165701Y68304D01*
X-165653Y68231D01*
X-165583Y68071D01*
X-165538Y67902D01*
X-165521Y67728D01*
X-165527Y67641D01*
X-165532Y67510D01*
X-165598Y67257D01*
X-165715Y67022D01*
X-165877Y66817D01*
X-165977Y66733D01*
X-165977Y66733D01*
X-165978Y66733D01*
X-166091Y66643D01*
X-166358Y66529D01*
X-166644Y66489D01*
X-166932Y66526D01*
X-167065Y66581D01*
X-171608Y68093D01*
Y68093D01*
X-171907Y67735D01*
X-172644Y67161D01*
X-173485Y66755D01*
X-174393Y66536D01*
X-174860Y66525D01*
X-174872Y66524D01*
X-174897Y66523D01*
X-174921Y66522D01*
X-174946Y66522D01*
X-174958Y66522D01*
X-175385Y66524D01*
X-176223Y66692D01*
X-177012Y67019D01*
X-177724Y67491D01*
X-178332Y68092D01*
X-178812Y68798D01*
X-179147Y69584D01*
X-179325Y70420D01*
X-179332Y70847D01*
X-179332Y70853D01*
X-179333Y70866D01*
X-179333Y70879D01*
X-179333Y70892D01*
Y70898D01*
Y73941D01*
X-179333D01*
X-179334Y73946D01*
X-179335Y73956D01*
X-179337Y73966D01*
X-179338Y73976D01*
X-179338Y73981D01*
X-179339Y73984D01*
X-179339Y73989D01*
X-179340Y73994D01*
X-179340Y73999D01*
X-179340Y74001D01*
Y74001D01*
X-179340Y74004D01*
X-179341Y74009D01*
X-179341Y74014D01*
X-179341Y74019D01*
X-179342Y74022D01*
X-179342Y74024D01*
X-179342Y74029D01*
X-179342Y74034D01*
X-179342Y74040D01*
X-179343Y74042D01*
X-179343Y74062D01*
X-179344Y74083D01*
X-179344Y74103D01*
X-179344Y74123D01*
X-179344Y74144D01*
X-179349D01*
X-179349Y74144D01*
X-179345Y74372D01*
X-179164Y74791D01*
X-178837Y75108D01*
X-178413Y75277D01*
X-178185Y75274D01*
D02*
G37*
G36*
X-129203Y72059D02*
X-128930Y71974D01*
X-128686Y71825D01*
X-128586Y71723D01*
X-128482Y71624D01*
X-128330Y71379D01*
X-128244Y71104D01*
X-128229Y70816D01*
X-128256Y70675D01*
Y51601D01*
X-123665D01*
Y51601D01*
X-123434Y51611D01*
X-123003Y51442D01*
X-122676Y51115D01*
X-122508Y50684D01*
X-122518Y50452D01*
X-122518D01*
X-122517Y50367D01*
X-122540Y50196D01*
X-122587Y50031D01*
X-122656Y49874D01*
X-122701Y49801D01*
X-122701D01*
X-122779Y49681D01*
X-122990Y49490D01*
X-123244Y49359D01*
X-123523Y49299D01*
X-123665Y49305D01*
X-127259D01*
X-122814Y42637D01*
X-122673Y42490D01*
X-122511Y42116D01*
X-122487Y41709D01*
X-122605Y41319D01*
X-122727Y41156D01*
X-122727Y41156D01*
Y41156D01*
X-122820Y41028D01*
X-123070Y40831D01*
X-123364Y40709D01*
X-123680Y40672D01*
X-123837Y40697D01*
X-128257Y40697D01*
Y38617D01*
Y38617D01*
X-128252Y38517D01*
X-128276Y38318D01*
X-128335Y38126D01*
X-128426Y37948D01*
X-128486Y37868D01*
Y37868D01*
X-128486D01*
X-128541Y37799D01*
X-128670Y37682D01*
X-128816Y37587D01*
X-128975Y37515D01*
X-129060Y37493D01*
X-129060Y37493D01*
X-129186Y37457D01*
X-129447Y37439D01*
X-129706Y37476D01*
X-129952Y37565D01*
X-130064Y37633D01*
Y37633D01*
X-130185Y37713D01*
X-130377Y37929D01*
X-130506Y38189D01*
X-130562Y38472D01*
X-130552Y38617D01*
X-130552Y40697D01*
X-134984D01*
Y40697D01*
X-135159Y40672D01*
X-135506Y40727D01*
X-135822Y40885D01*
X-136075Y41129D01*
X-136160Y41284D01*
X-136196Y41350D01*
X-136252Y41490D01*
X-136290Y41637D01*
X-136308Y41787D01*
X-136307Y41862D01*
X-136306Y41966D01*
X-136265Y42169D01*
X-136189Y42362D01*
X-136080Y42538D01*
X-136010Y42614D01*
X-131549Y49305D01*
X-135143D01*
Y49305D01*
Y49305D01*
X-135376Y49302D01*
X-135807Y49477D01*
X-136136Y49806D01*
X-136311Y50238D01*
X-136307Y50471D01*
X-136307D01*
X-136304Y50699D01*
X-136123Y51118D01*
X-135795Y51436D01*
X-135371Y51604D01*
X-135143Y51601D01*
X-130552D01*
Y69750D01*
X-156664D01*
X-156897Y69747D01*
X-157328Y69922D01*
X-157657Y70251D01*
X-157831Y70683D01*
X-157828Y70915D01*
X-157828Y70915D01*
X-157825Y71143D01*
X-157644Y71562D01*
X-157316Y71880D01*
X-156892Y72049D01*
X-156664Y72046D01*
X-129628D01*
X-129488Y72073D01*
X-129203Y72059D01*
D02*
G37*
G36*
X-166576Y61998D02*
X-166577D01*
X-166576Y61998D01*
Y61998D01*
D02*
G37*
G36*
X-166366Y61950D02*
D01*
D01*
D01*
D01*
X-166366Y61950D01*
X-166366Y61950D01*
D02*
G37*
G36*
X-166111Y61836D02*
X-166111Y61836D01*
D01*
X-166111Y61836D01*
D02*
G37*
G36*
X-178185Y62006D02*
X-166707Y62006D01*
X-166704Y62006D01*
X-166701Y62005D01*
X-166699Y62005D01*
X-166697Y62005D01*
X-166696Y62005D01*
X-166696D01*
X-166696Y62005D01*
X-166688Y62005D01*
X-166672Y62004D01*
X-166655Y62004D01*
X-166639Y62003D01*
X-166631Y62002D01*
X-166631D01*
X-166628Y62002D01*
X-166621Y62002D01*
X-166614Y62001D01*
X-166607Y62000D01*
X-166604Y62000D01*
X-166599Y62000D01*
X-166594Y61999D01*
X-166588Y61999D01*
X-166583Y61998D01*
X-166577Y61998D01*
D01*
X-166574Y61997D01*
X-166568Y61997D01*
X-166563Y61996D01*
X-166557Y61995D01*
X-166554Y61995D01*
X-166549Y61994D01*
X-166544Y61993D01*
X-166539Y61992D01*
X-166534Y61991D01*
X-166528Y61990D01*
X-166522Y61989D01*
X-166522Y61989D01*
X-166520Y61989D01*
X-166514Y61988D01*
X-166508Y61987D01*
X-166503Y61986D01*
X-166500Y61985D01*
X-166495Y61984D01*
X-166490Y61983D01*
X-166485Y61982D01*
X-166480Y61981D01*
X-166474Y61980D01*
X-166468Y61979D01*
Y61979D01*
X-166466Y61978D01*
X-166461Y61977D01*
X-166457Y61976D01*
X-166453Y61975D01*
X-166451Y61975D01*
X-166446Y61974D01*
X-166441Y61972D01*
X-166436Y61971D01*
X-166431Y61969D01*
X-166425Y61968D01*
X-166420Y61967D01*
X-166420Y61966D01*
X-166419Y61966D01*
X-166418Y61966D01*
X-166416Y61965D01*
X-166414Y61965D01*
X-166414Y61965D01*
X-166414Y61965D01*
X-166414D01*
X-166414Y61965D01*
Y61965D01*
D01*
X-166411Y61965D01*
X-166407Y61963D01*
X-166403Y61962D01*
X-166399Y61961D01*
X-166396Y61960D01*
X-166391Y61959D01*
X-166387Y61957D01*
X-166382Y61955D01*
X-166376Y61954D01*
X-166371Y61952D01*
X-166371D01*
Y61952D01*
X-166371Y61952D01*
X-166369Y61951D01*
X-166368Y61951D01*
X-166366Y61951D01*
X-166366Y61950D01*
Y61950D01*
X-166365Y61950D01*
X-166363Y61950D01*
X-166362Y61949D01*
X-166360Y61949D01*
X-166359Y61949D01*
X-166359D01*
X-166357Y61948D01*
X-166353Y61947D01*
X-166348Y61946D01*
X-166344Y61944D01*
X-166342Y61943D01*
X-166337Y61941D01*
X-166332Y61940D01*
X-166327Y61938D01*
X-166322Y61936D01*
X-166317Y61934D01*
X-166317D01*
X-166317Y61934D01*
X-166316Y61934D01*
X-166315Y61933D01*
X-166313Y61933D01*
X-166312Y61932D01*
X-166311Y61932D01*
X-166311Y61932D01*
X-166311Y61932D01*
X-166309Y61931D01*
X-166307Y61931D01*
X-166306Y61930D01*
X-166305Y61930D01*
X-166305Y61930D01*
X-166303Y61929D01*
X-166299Y61928D01*
X-166294Y61926D01*
X-166290Y61924D01*
X-166288Y61923D01*
X-166288Y61923D01*
X-166287Y61923D01*
X-166286Y61923D01*
X-166285Y61922D01*
X-166283Y61922D01*
X-166283Y61921D01*
X-166278Y61919D01*
X-166268Y61915D01*
X-166268D01*
X-166267Y61914D01*
X-166266Y61914D01*
X-166265Y61913D01*
X-166263Y61913D01*
X-166263Y61912D01*
Y61912D01*
X-166262Y61912D01*
X-166261Y61911D01*
X-166259Y61911D01*
X-166258Y61910D01*
X-166257Y61910D01*
X-166257Y61910D01*
X-166256Y61910D01*
X-166255Y61909D01*
X-166253Y61908D01*
X-166252Y61908D01*
X-166251Y61908D01*
Y61908D01*
X-166248Y61907D01*
X-166244Y61905D01*
X-166240Y61904D01*
X-166236Y61902D01*
X-166234Y61901D01*
X-166233Y61901D01*
X-166232Y61900D01*
X-166230Y61899D01*
X-166229Y61899D01*
X-166229Y61898D01*
X-166224Y61896D01*
X-166219Y61894D01*
X-166214Y61891D01*
X-166214Y61891D01*
X-166213Y61891D01*
X-166212Y61890D01*
X-166210Y61890D01*
X-166209Y61889D01*
X-166208Y61889D01*
X-166208Y61888D01*
X-166206Y61888D01*
X-166205Y61887D01*
X-166203Y61887D01*
X-166203Y61886D01*
Y61886D01*
X-166202Y61886D01*
X-166200Y61885D01*
X-166199Y61885D01*
X-166197Y61884D01*
X-166196Y61884D01*
X-166194Y61883D01*
X-166190Y61881D01*
X-166185Y61879D01*
X-166181Y61877D01*
X-166179Y61876D01*
X-166179Y61875D01*
X-166177Y61875D01*
X-166176Y61874D01*
X-166175Y61873D01*
X-166174Y61873D01*
X-166169Y61870D01*
X-166164Y61868D01*
X-166159Y61865D01*
Y61865D01*
X-166159Y61865D01*
X-166157Y61864D01*
X-166156Y61863D01*
X-166155Y61862D01*
X-166154Y61862D01*
Y61862D01*
X-166153Y61862D01*
X-166152Y61861D01*
X-166150Y61860D01*
X-166149Y61859D01*
X-166148Y61859D01*
X-166147Y61859D01*
X-166146Y61858D01*
X-166144Y61857D01*
X-166143Y61857D01*
X-166142Y61856D01*
Y61856D01*
X-166141Y61856D01*
X-166139Y61854D01*
X-166137Y61853D01*
X-166136Y61851D01*
X-166134Y61851D01*
X-166134Y61850D01*
X-166133Y61850D01*
X-166132Y61849D01*
X-166131Y61848D01*
X-166130Y61848D01*
X-166125Y61845D01*
X-166120Y61842D01*
X-166115Y61839D01*
X-166115D01*
X-166115Y61839D01*
X-166115Y61839D01*
X-166114Y61838D01*
X-166112Y61838D01*
X-166111Y61837D01*
X-166111Y61836D01*
Y61836D01*
X-166110Y61836D01*
X-166109Y61835D01*
X-166108Y61835D01*
X-166107Y61834D01*
X-166106Y61834D01*
X-166106Y61834D01*
Y61834D01*
X-166106Y61833D01*
X-166105Y61832D01*
X-166104Y61832D01*
X-166103Y61831D01*
X-166102Y61831D01*
Y61831D01*
X-166102Y61830D01*
X-166101Y61830D01*
X-166100Y61829D01*
X-166099Y61828D01*
X-166099Y61828D01*
Y61828D01*
X-166099D01*
X-166096Y61827D01*
X-166092Y61824D01*
X-166088Y61822D01*
X-166084Y61819D01*
X-166082Y61818D01*
Y61818D01*
X-166081Y61818D01*
X-166080Y61817D01*
X-166078Y61816D01*
X-166077Y61815D01*
X-166076Y61815D01*
X-166071Y61812D01*
X-166067Y61808D01*
X-166061Y61805D01*
X-166062D01*
X-166061Y61805D01*
X-166060Y61804D01*
X-166058Y61803D01*
X-166057Y61802D01*
X-166056Y61802D01*
Y61802D01*
X-166056Y61801D01*
X-166054Y61800D01*
X-166053Y61800D01*
X-166051Y61799D01*
X-166051Y61798D01*
Y61798D01*
X-166050Y61798D01*
X-166048Y61797D01*
X-166047Y61796D01*
X-166045Y61795D01*
X-166044Y61795D01*
X-166044Y61795D01*
X-166043Y61794D01*
X-166042Y61792D01*
X-166040Y61791D01*
X-166038Y61789D01*
X-166037Y61788D01*
X-166036Y61788D01*
X-166035Y61787D01*
X-166034Y61786D01*
X-166033Y61786D01*
X-166032Y61785D01*
X-166028Y61782D01*
X-166023Y61778D01*
X-166018Y61775D01*
Y61775D01*
X-166017Y61775D01*
X-166016Y61774D01*
X-166015Y61773D01*
X-166014Y61772D01*
X-166013Y61772D01*
X-166012Y61771D01*
X-166011Y61771D01*
X-166010Y61770D01*
X-166009Y61769D01*
X-166009Y61768D01*
X-166008Y61768D01*
X-166007Y61767D01*
X-166006Y61766D01*
X-166005Y61765D01*
X-166004Y61765D01*
X-166005Y61765D01*
X-166004Y61765D01*
X-166003Y61764D01*
X-166002Y61763D01*
X-166001Y61762D01*
X-166001Y61762D01*
X-166001Y61762D01*
X-166000Y61761D01*
X-165998Y61759D01*
X-165996Y61757D01*
X-165994Y61755D01*
X-165993Y61754D01*
X-165993Y61754D01*
X-165993Y61754D01*
X-165993Y61754D01*
X-165992Y61753D01*
X-165991Y61752D01*
X-165989Y61751D01*
X-165989Y61750D01*
X-165984Y61747D01*
X-165979Y61743D01*
X-165974Y61739D01*
X-165974Y61739D01*
X-165974Y61739D01*
X-165973Y61738D01*
X-165971Y61737D01*
X-165970Y61736D01*
X-165970Y61735D01*
X-165970Y61735D01*
X-165970Y61735D01*
X-165969Y61735D01*
X-165968Y61734D01*
X-165967Y61733D01*
X-165966Y61732D01*
X-165965Y61732D01*
X-165965D01*
X-165965Y61731D01*
X-165963Y61730D01*
X-165963Y61729D01*
X-165961Y61728D01*
X-165961Y61728D01*
X-165961Y61728D01*
X-165961Y61727D01*
X-165960Y61726D01*
X-165959Y61725D01*
X-165958Y61724D01*
X-165958Y61724D01*
X-165958D01*
X-165957Y61723D01*
X-165955Y61721D01*
X-165953Y61719D01*
X-165951Y61717D01*
X-165950Y61716D01*
X-165949Y61716D01*
X-165948Y61715D01*
X-165947Y61714D01*
X-165946Y61713D01*
X-165945Y61713D01*
X-165941Y61709D01*
X-165936Y61706D01*
X-165931Y61702D01*
Y61702D01*
X-165930Y61701D01*
X-165929Y61701D01*
X-165928Y61700D01*
X-165927Y61699D01*
X-165926Y61698D01*
X-165926Y61698D01*
X-165924Y61697D01*
X-165923Y61696D01*
X-165922Y61695D01*
X-165922Y61694D01*
Y61694D01*
X-165921Y61694D01*
X-165920Y61693D01*
X-165919Y61692D01*
X-165918Y61691D01*
X-165918Y61691D01*
X-165917Y61690D01*
X-165916Y61689D01*
X-165915Y61688D01*
X-165914Y61687D01*
X-165914Y61687D01*
X-165914Y61687D01*
X-165913Y61686D01*
X-165911Y61684D01*
X-165909Y61682D01*
X-165907Y61680D01*
X-165906Y61679D01*
Y61679D01*
X-165906Y61678D01*
X-165905Y61677D01*
X-165904Y61676D01*
X-165903Y61675D01*
X-165902Y61675D01*
X-165902D01*
X-165901Y61674D01*
X-165900Y61673D01*
X-165899Y61672D01*
X-165898Y61671D01*
X-165897Y61670D01*
X-165892Y61666D01*
X-165887Y61662D01*
X-165887D01*
X-165887Y61662D01*
X-165886Y61660D01*
X-165884Y61659D01*
X-165883Y61658D01*
X-165883Y61658D01*
X-165883Y61658D01*
X-165882Y61657D01*
X-165881Y61656D01*
X-165880Y61655D01*
X-165879Y61654D01*
X-165878Y61654D01*
X-165878D01*
X-165878Y61653D01*
X-165877Y61652D01*
X-165876Y61651D01*
X-165875Y61650D01*
X-165874Y61649D01*
X-165874Y61649D01*
X-165873Y61648D01*
X-165872Y61647D01*
X-165871Y61646D01*
X-165871Y61645D01*
X-165858Y61628D01*
X-165848Y61615D01*
X-165838Y61602D01*
X-165825Y61585D01*
X-165815Y61571D01*
X-165805Y61557D01*
X-165792Y61539D01*
X-165783Y61525D01*
X-165773Y61511D01*
X-165760Y61493D01*
X-165750Y61478D01*
X-165740Y61464D01*
Y61464D01*
X-165736Y61458D01*
X-165728Y61445D01*
X-165720Y61432D01*
X-165712Y61420D01*
X-165708Y61413D01*
X-165707Y61412D01*
X-165706Y61410D01*
X-165705Y61407D01*
X-165704Y61405D01*
X-165704Y61403D01*
X-165702Y61398D01*
X-165700Y61393D01*
X-165698Y61388D01*
X-165698Y61388D01*
X-165697Y61386D01*
X-165697Y61385D01*
X-165696Y61384D01*
X-165696Y61383D01*
X-165696Y61383D01*
X-165695Y61382D01*
X-165695Y61380D01*
X-165694Y61379D01*
X-165694Y61378D01*
X-165694Y61378D01*
X-165693Y61377D01*
X-165693Y61375D01*
X-165692Y61374D01*
X-165692Y61373D01*
X-165691Y61373D01*
X-165691Y61371D01*
X-165690Y61370D01*
X-165689Y61369D01*
X-165689Y61368D01*
X-165689Y61368D01*
X-165688Y61366D01*
X-165687Y61365D01*
X-165686Y61364D01*
X-165686Y61363D01*
X-165686Y61363D01*
X-165685Y61362D01*
X-165684Y61360D01*
X-165683Y61357D01*
X-165682Y61354D01*
X-165682Y61353D01*
X-165680Y61348D01*
X-165678Y61343D01*
X-165676Y61338D01*
X-165676D01*
Y61338D01*
X-165676Y61337D01*
X-165676Y61336D01*
X-165675Y61335D01*
X-165675Y61333D01*
X-165674Y61333D01*
X-165674Y61333D01*
X-165674Y61333D01*
X-165674Y61332D01*
X-165674Y61331D01*
X-165673Y61329D01*
X-165673Y61328D01*
X-165672Y61327D01*
X-165672Y61327D01*
X-165671Y61325D01*
X-165671Y61324D01*
X-165670Y61323D01*
X-165670Y61322D01*
X-165670Y61322D01*
X-165669Y61320D01*
X-165668Y61319D01*
X-165668Y61318D01*
X-165667Y61317D01*
X-165667Y61316D01*
X-165666Y61315D01*
X-165665Y61314D01*
X-165665Y61312D01*
X-165664Y61312D01*
X-165664Y61312D01*
D01*
X-165664D01*
X-165664D01*
X-165664Y61311D01*
X-165663Y61308D01*
X-165662Y61305D01*
X-165661Y61302D01*
X-165660Y61301D01*
X-165658Y61296D01*
X-165657Y61290D01*
X-165655Y61285D01*
X-165655Y61284D01*
X-165654Y61283D01*
X-165653Y61281D01*
X-165653Y61280D01*
X-165653Y61279D01*
X-165653Y61279D01*
X-165653Y61279D01*
X-165652Y61277D01*
X-165651Y61276D01*
X-165651Y61274D01*
X-165651Y61274D01*
X-165650Y61273D01*
X-165650Y61272D01*
X-165649Y61270D01*
X-165648Y61269D01*
X-165648Y61268D01*
X-165648D01*
X-165648Y61268D01*
X-165647Y61266D01*
X-165647Y61265D01*
X-165646Y61264D01*
X-165646Y61263D01*
X-165645Y61262D01*
X-165644Y61261D01*
X-165644Y61259D01*
X-165643Y61258D01*
X-165643Y61257D01*
X-165643Y61257D01*
X-165642Y61256D01*
X-165641Y61253D01*
X-165640Y61251D01*
X-165639Y61248D01*
X-165639Y61247D01*
X-165637Y61242D01*
X-165635Y61237D01*
X-165633Y61232D01*
X-165633D01*
X-165633Y61231D01*
X-165632Y61230D01*
X-165632Y61228D01*
X-165631Y61227D01*
X-165631Y61226D01*
X-165631Y61226D01*
X-165630Y61224D01*
X-165630Y61223D01*
X-165629Y61222D01*
X-165629Y61221D01*
X-165629D01*
X-165629Y61220D01*
X-165628Y61219D01*
X-165627Y61218D01*
X-165627Y61217D01*
X-165627Y61216D01*
X-165626Y61215D01*
X-165626Y61214D01*
X-165625Y61213D01*
X-165624Y61211D01*
X-165624Y61211D01*
X-165624D01*
X-165623Y61210D01*
X-165623Y61209D01*
X-165622Y61207D01*
X-165621Y61206D01*
X-165621Y61206D01*
X-165621D01*
X-165620Y61204D01*
X-165619Y61201D01*
X-165618Y61198D01*
X-165617Y61196D01*
X-165617Y61194D01*
X-165615Y61188D01*
X-165613Y61183D01*
X-165611Y61177D01*
X-165611Y61177D01*
X-165611Y61176D01*
X-165611Y61175D01*
X-165610Y61173D01*
X-165609Y61172D01*
X-165609Y61171D01*
X-165609Y61170D01*
X-165609Y61169D01*
X-165608Y61167D01*
X-165607Y61166D01*
X-165607Y61165D01*
X-165607D01*
X-165607Y61164D01*
X-165606Y61163D01*
X-165606Y61162D01*
X-165605Y61160D01*
X-165605Y61159D01*
Y61160D01*
X-165604Y61159D01*
X-165604Y61157D01*
X-165603Y61156D01*
X-165602Y61154D01*
X-165602Y61154D01*
X-165602Y61154D01*
X-165602Y61153D01*
X-165601Y61151D01*
X-165600Y61150D01*
X-165599Y61149D01*
X-165599Y61148D01*
X-165597Y61137D01*
X-165596Y61132D01*
X-165595Y61126D01*
X-165594Y61121D01*
X-165592Y61116D01*
X-165591Y61111D01*
X-165590Y61105D01*
X-165589Y61100D01*
X-165588Y61094D01*
X-165586Y61083D01*
X-165585Y61077D01*
X-165584Y61071D01*
X-165582Y61060D01*
X-165581Y61054D01*
X-165579Y61048D01*
X-165578Y61042D01*
X-165577Y61036D01*
X-165577D01*
X-165577Y61035D01*
X-165577Y61032D01*
X-165576Y61029D01*
X-165576Y61026D01*
X-165576Y61025D01*
X-165575Y61019D01*
X-165575Y61013D01*
X-165574Y61007D01*
X-165573Y61002D01*
X-165573Y60996D01*
X-165572Y60990D01*
X-165572D01*
X-165572Y60990D01*
X-165572Y60989D01*
X-165572Y60988D01*
X-165571Y60986D01*
X-165571Y60985D01*
X-165571Y60984D01*
X-165571Y60984D01*
X-165571Y60984D01*
X-165571Y60982D01*
X-165571Y60981D01*
X-165570Y60979D01*
X-165570Y60978D01*
X-165570Y60978D01*
X-165569Y60972D01*
X-165568Y60958D01*
X-165567Y60944D01*
X-165567Y60931D01*
X-165567Y60924D01*
X-165566Y60917D01*
X-165565Y60904D01*
X-165565Y60891D01*
X-165564Y60878D01*
X-165564Y60871D01*
X-165564Y60858D01*
Y55119D01*
X-165561Y55021D01*
X-165589Y54825D01*
X-165650Y54637D01*
X-165742Y54463D01*
X-165802Y54385D01*
X-165857Y54318D01*
X-165986Y54203D01*
X-166131Y54109D01*
X-166289Y54039D01*
X-166372Y54017D01*
Y54017D01*
X-166496Y53982D01*
X-166754Y53965D01*
X-167010Y54001D01*
X-167254Y54088D01*
X-167364Y54155D01*
Y54155D01*
X-167364Y54155D01*
X-167484Y54233D01*
X-167675Y54444D01*
X-167806Y54698D01*
X-167866Y54977D01*
X-167860Y55119D01*
X-167860Y55119D01*
Y59710D01*
X-171303D01*
Y55119D01*
X-171298Y55019D01*
X-171322Y54820D01*
X-171381Y54629D01*
X-171472Y54450D01*
X-171532Y54370D01*
X-171587Y54302D01*
X-171716Y54184D01*
X-171862Y54089D01*
X-172022Y54018D01*
X-172106Y53995D01*
Y53995D01*
X-172232Y53960D01*
X-172493Y53942D01*
X-172752Y53978D01*
X-172999Y54067D01*
X-173110Y54136D01*
X-173231Y54215D01*
X-173423Y54432D01*
X-173552Y54691D01*
X-173608Y54975D01*
X-173598Y55119D01*
X-173598Y59710D01*
X-177042D01*
Y55119D01*
X-177042D01*
X-177034Y54889D01*
X-177204Y54461D01*
X-177531Y54136D01*
X-177960Y53969D01*
X-178190Y53978D01*
X-178276Y53978D01*
X-178445Y54001D01*
X-178610Y54047D01*
X-178767Y54116D01*
X-178840Y54161D01*
X-178959Y54238D01*
X-179150Y54448D01*
X-179281Y54700D01*
X-179343Y54977D01*
X-179338Y55119D01*
Y60673D01*
X-179338D01*
X-179338Y60678D01*
X-179340Y60688D01*
X-179341Y60698D01*
X-179342Y60708D01*
X-179343Y60713D01*
X-179343Y60715D01*
X-179344Y60721D01*
X-179344Y60726D01*
X-179345Y60731D01*
X-179345Y60733D01*
X-179345D01*
X-179345Y60736D01*
X-179345Y60741D01*
X-179346Y60746D01*
X-179346Y60751D01*
X-179346Y60753D01*
Y60753D01*
X-179346Y60756D01*
X-179347Y60761D01*
X-179347Y60766D01*
X-179347Y60771D01*
X-179347Y60774D01*
X-179348Y60794D01*
X-179348Y60814D01*
X-179348Y60835D01*
X-179349Y60855D01*
Y60875D01*
X-179349D01*
X-179349Y60875D01*
X-179345Y61104D01*
X-179164Y61522D01*
X-178837Y61840D01*
X-178413Y62009D01*
X-178185Y62006D01*
D02*
G37*
G36*
X-144713Y61178D02*
X-144713D01*
X-144713D01*
D01*
D02*
G37*
G36*
X-144628Y61137D02*
X-144628D01*
Y61137D01*
X-144628Y61137D01*
D02*
G37*
G36*
X-144113Y60562D02*
Y60562D01*
X-144113Y60562D01*
X-144113Y60562D01*
D02*
G37*
G36*
X-156445Y61283D02*
X-145186D01*
X-145181Y61283D01*
X-145179Y61283D01*
X-145177Y61283D01*
X-145175Y61282D01*
X-145173Y61282D01*
X-145165Y61282D01*
X-145153Y61282D01*
Y61282D01*
Y61282D01*
X-145151Y61282D01*
X-145147Y61281D01*
X-145143Y61281D01*
X-145140Y61281D01*
X-145138Y61281D01*
X-145133Y61281D01*
X-145128Y61280D01*
X-145122Y61280D01*
X-145117Y61280D01*
X-145110Y61279D01*
X-145110D01*
X-145107Y61279D01*
X-145100Y61279D01*
X-145093Y61278D01*
X-145087Y61278D01*
X-145083Y61277D01*
X-145078Y61277D01*
X-145073Y61276D01*
X-145068Y61276D01*
X-145062Y61275D01*
X-145056Y61275D01*
X-145056D01*
Y61275D01*
X-145053Y61274D01*
X-145048Y61274D01*
X-145042Y61273D01*
X-145037Y61272D01*
X-145034Y61272D01*
X-145029Y61271D01*
X-145024Y61270D01*
X-145019Y61269D01*
X-145014Y61268D01*
X-145008Y61267D01*
X-145002Y61266D01*
X-144999Y61266D01*
X-144993Y61265D01*
X-144988Y61264D01*
X-144982Y61263D01*
X-144979Y61262D01*
X-144975Y61261D01*
X-144970Y61260D01*
X-144965Y61259D01*
X-144959Y61258D01*
X-144954Y61257D01*
X-144948Y61256D01*
X-144948Y61256D01*
X-144945Y61255D01*
X-144941Y61255D01*
X-144937Y61253D01*
X-144932Y61252D01*
X-144930Y61252D01*
Y61252D01*
X-144925Y61251D01*
X-144920Y61249D01*
X-144915Y61248D01*
X-144910Y61246D01*
X-144905Y61245D01*
X-144899Y61243D01*
X-144899Y61243D01*
X-144897Y61242D01*
X-144895Y61242D01*
X-144894Y61242D01*
X-144893Y61241D01*
X-144891Y61241D01*
X-144887Y61240D01*
X-144882Y61239D01*
X-144878Y61238D01*
X-144876Y61237D01*
X-144871Y61235D01*
X-144866Y61234D01*
X-144861Y61232D01*
X-144856Y61231D01*
X-144851Y61229D01*
X-144845Y61227D01*
X-144844Y61227D01*
X-144843Y61227D01*
X-144841Y61226D01*
X-144840Y61226D01*
X-144839Y61226D01*
Y61226D01*
X-144839D01*
X-144837Y61225D01*
X-144832Y61224D01*
X-144828Y61223D01*
X-144824Y61221D01*
X-144822Y61220D01*
X-144821Y61220D01*
X-144820Y61220D01*
X-144818Y61219D01*
X-144817Y61219D01*
X-144817Y61218D01*
X-144812Y61216D01*
X-144807Y61214D01*
X-144802Y61213D01*
X-144796Y61210D01*
X-144796Y61210D01*
X-144794Y61210D01*
X-144793Y61209D01*
X-144791Y61209D01*
X-144791Y61209D01*
X-144790Y61208D01*
X-144789Y61208D01*
X-144787Y61207D01*
X-144785Y61207D01*
X-144785Y61206D01*
X-144782Y61206D01*
X-144778Y61204D01*
X-144774Y61203D01*
X-144769Y61201D01*
X-144767Y61200D01*
X-144767Y61200D01*
X-144766Y61199D01*
X-144764Y61199D01*
X-144763Y61198D01*
X-144762Y61198D01*
X-144757Y61196D01*
X-144753Y61194D01*
X-144747Y61192D01*
X-144747Y61191D01*
X-144746Y61191D01*
X-144744Y61190D01*
X-144743Y61190D01*
X-144742Y61189D01*
X-144741Y61189D01*
X-144740Y61189D01*
X-144739Y61188D01*
X-144737Y61188D01*
X-144736Y61187D01*
X-144736D01*
X-144736Y61187D01*
X-144734Y61186D01*
X-144733Y61186D01*
X-144731Y61185D01*
X-144730Y61185D01*
Y61185D01*
X-144728Y61184D01*
X-144724Y61182D01*
X-144719Y61181D01*
X-144715Y61178D01*
X-144713Y61178D01*
X-144713Y61178D01*
X-144712Y61177D01*
X-144711Y61177D01*
X-144710Y61176D01*
X-144709Y61175D01*
X-144708Y61175D01*
X-144703Y61172D01*
X-144698Y61170D01*
X-144693Y61167D01*
X-144693D01*
X-144692Y61167D01*
X-144691Y61166D01*
X-144690Y61166D01*
X-144689Y61165D01*
X-144688Y61165D01*
X-144687Y61164D01*
X-144686Y61164D01*
X-144684Y61163D01*
X-144683Y61162D01*
X-144682Y61162D01*
Y61162D01*
X-144681Y61162D01*
X-144680Y61161D01*
X-144678Y61160D01*
X-144677Y61160D01*
X-144676Y61159D01*
X-144674Y61159D01*
X-144669Y61157D01*
X-144665Y61155D01*
X-144661Y61153D01*
X-144659Y61152D01*
X-144659Y61152D01*
X-144658Y61152D01*
X-144657Y61151D01*
X-144656Y61150D01*
X-144654Y61150D01*
X-144654Y61150D01*
X-144649Y61147D01*
X-144644Y61144D01*
X-144639Y61142D01*
X-144638Y61142D01*
X-144637Y61141D01*
X-144636Y61140D01*
X-144634Y61140D01*
X-144634Y61139D01*
X-144634Y61139D01*
X-144633Y61139D01*
X-144631Y61138D01*
X-144630Y61138D01*
X-144629Y61137D01*
X-144628Y61137D01*
Y61137D01*
X-144627Y61136D01*
X-144626Y61136D01*
X-144624Y61135D01*
X-144622Y61134D01*
X-144622Y61134D01*
X-144622D01*
X-144619Y61133D01*
X-144615Y61131D01*
X-144611Y61129D01*
X-144607Y61126D01*
X-144604Y61125D01*
X-144604Y61125D01*
X-144604Y61125D01*
X-144602Y61124D01*
X-144601Y61123D01*
X-144600Y61122D01*
X-144599Y61122D01*
X-144594Y61119D01*
X-144590Y61116D01*
X-144585Y61113D01*
Y61113D01*
X-144584Y61112D01*
X-144583Y61112D01*
X-144581Y61111D01*
X-144580Y61110D01*
X-144579Y61110D01*
X-144579Y61109D01*
X-144577Y61108D01*
X-144576Y61108D01*
X-144574Y61107D01*
X-144573Y61106D01*
X-144573Y61106D01*
X-144571Y61105D01*
X-144570Y61104D01*
X-144568Y61104D01*
X-144567Y61103D01*
Y61103D01*
X-144566Y61102D01*
X-144565Y61101D01*
X-144563Y61099D01*
X-144561Y61098D01*
X-144560Y61097D01*
X-144559Y61097D01*
X-144558Y61096D01*
X-144557Y61095D01*
X-144556Y61094D01*
X-144555Y61094D01*
X-144551Y61091D01*
X-144546Y61088D01*
X-144541Y61085D01*
X-144541D01*
X-144540Y61084D01*
X-144539Y61083D01*
X-144538Y61083D01*
X-144537Y61082D01*
X-144536Y61082D01*
Y61082D01*
X-144536Y61081D01*
X-144534Y61080D01*
X-144533Y61080D01*
X-144532Y61079D01*
X-144531Y61078D01*
X-144531Y61078D01*
X-144530Y61077D01*
X-144529Y61076D01*
X-144528Y61076D01*
X-144527Y61075D01*
X-144528D01*
X-144527Y61075D01*
X-144526Y61074D01*
X-144525Y61073D01*
X-144524Y61072D01*
X-144524Y61072D01*
X-144523Y61071D01*
X-144521Y61069D01*
X-144519Y61068D01*
X-144517Y61066D01*
X-144516Y61065D01*
X-144516D01*
X-144516Y61065D01*
X-144515Y61064D01*
X-144514Y61063D01*
X-144512Y61062D01*
X-144512Y61062D01*
X-144507Y61059D01*
X-144502Y61055D01*
X-144497Y61052D01*
Y61052D01*
X-144497Y61051D01*
X-144495Y61051D01*
X-144494Y61050D01*
X-144493Y61049D01*
X-144493Y61048D01*
X-144493D01*
X-144493Y61048D01*
X-144492Y61048D01*
X-144491Y61047D01*
X-144490Y61046D01*
X-144489Y61045D01*
X-144488Y61045D01*
X-144488Y61045D01*
X-144488Y61044D01*
X-144487Y61044D01*
X-144486Y61043D01*
X-144485Y61042D01*
X-144484Y61041D01*
X-144484D01*
X-144484Y61041D01*
X-144484Y61041D01*
X-144483Y61040D01*
X-144482Y61039D01*
X-144481Y61038D01*
X-144480Y61038D01*
X-144480D01*
X-144480Y61037D01*
X-144478Y61035D01*
X-144476Y61033D01*
X-144474Y61032D01*
X-144473Y61031D01*
X-144473Y61031D01*
X-144472Y61030D01*
X-144471Y61029D01*
X-144470Y61028D01*
X-144469Y61028D01*
X-144468Y61027D01*
X-144464Y61024D01*
X-144459Y61020D01*
X-144454Y61016D01*
X-144454Y61016D01*
X-144453Y61016D01*
X-144452Y61015D01*
X-144451Y61014D01*
X-144450Y61013D01*
X-144449Y61013D01*
X-144449Y61012D01*
X-144447Y61011D01*
X-144446Y61010D01*
X-144445Y61009D01*
X-144445Y61009D01*
X-144445D01*
X-144444Y61009D01*
X-144443Y61008D01*
X-144442Y61007D01*
X-144441Y61006D01*
X-144441Y61005D01*
Y61005D01*
X-144440Y61005D01*
X-144439Y61004D01*
X-144438Y61003D01*
X-144438Y61002D01*
X-144437Y61002D01*
X-144437Y61002D01*
X-144436Y61000D01*
X-144434Y60999D01*
X-144432Y60997D01*
X-144430Y60995D01*
X-144429Y60994D01*
X-144429D01*
X-144429Y60993D01*
X-144428Y60992D01*
X-144427Y60991D01*
X-144425Y60990D01*
X-144425Y60990D01*
X-144425Y60990D01*
X-144424Y60989D01*
X-144423Y60988D01*
X-144422Y60988D01*
X-144421Y60986D01*
X-144420Y60986D01*
X-144415Y60982D01*
X-144410Y60978D01*
X-144410D01*
X-144410Y60978D01*
X-144410Y60978D01*
X-144409Y60977D01*
X-144408Y60976D01*
X-144406Y60975D01*
X-144406Y60974D01*
X-144405Y60974D01*
X-144404Y60973D01*
X-144403Y60972D01*
X-144402Y60971D01*
X-144401Y60970D01*
X-144401D01*
X-144401Y60970D01*
X-144400Y60969D01*
X-144399Y60968D01*
X-144398Y60967D01*
X-144397Y60966D01*
Y60966D01*
X-144397Y60966D01*
X-144396Y60965D01*
X-144395Y60964D01*
X-144394Y60963D01*
X-144394Y60962D01*
X-144394Y60962D01*
X-144393Y60961D01*
X-144391Y60959D01*
X-144389Y60957D01*
X-144387Y60955D01*
X-144386Y60954D01*
X-144386Y60954D01*
D01*
X-144386D01*
X-144386D01*
X-144385Y60954D01*
X-144384Y60953D01*
X-144383Y60952D01*
X-144382Y60951D01*
X-144381Y60950D01*
X-144377Y60946D01*
X-144372Y60942D01*
X-144367Y60938D01*
X-144366Y60938D01*
X-144365Y60937D01*
X-144364Y60936D01*
X-144363Y60935D01*
X-144362Y60934D01*
X-144362D01*
X-144362Y60934D01*
X-144361Y60933D01*
X-144360Y60932D01*
X-144358Y60931D01*
X-144358Y60930D01*
Y60930D01*
X-144357Y60930D01*
X-144356Y60929D01*
X-144355Y60928D01*
X-144354Y60927D01*
X-144354Y60926D01*
X-144354D01*
X-144353Y60926D01*
X-144352Y60925D01*
X-144351Y60924D01*
X-144351Y60922D01*
X-144350Y60922D01*
X-144350D01*
X-144349Y60921D01*
X-144347Y60919D01*
X-144346Y60917D01*
X-144344Y60914D01*
X-144342Y60914D01*
X-144342Y60913D01*
X-144342Y60913D01*
X-144341Y60912D01*
X-144340Y60911D01*
X-144339Y60910D01*
X-144338Y60909D01*
X-144338D01*
X-144337Y60909D01*
X-144336Y60908D01*
X-144335Y60906D01*
X-144334Y60905D01*
X-144333Y60905D01*
X-144328Y60901D01*
X-144324Y60896D01*
X-144324Y60896D01*
X-144323Y60896D01*
X-144322Y60894D01*
X-144321Y60893D01*
X-144319Y60892D01*
X-144319Y60892D01*
X-144319Y60892D01*
X-144318Y60891D01*
X-144317Y60890D01*
X-144316Y60889D01*
X-144315Y60888D01*
X-144314Y60887D01*
X-144314Y60887D01*
X-144313Y60886D01*
X-144312Y60884D01*
X-144311Y60883D01*
X-144310Y60883D01*
X-144310Y60882D01*
X-144309Y60881D01*
X-144308Y60880D01*
X-144307Y60879D01*
X-144307Y60878D01*
X-144294Y60861D01*
X-144284Y60848D01*
X-144274Y60835D01*
X-144261Y60816D01*
X-144251Y60802D01*
X-144242Y60788D01*
X-144228Y60769D01*
X-144219Y60755D01*
X-144209Y60740D01*
X-144196Y60721D01*
X-144186Y60707D01*
X-144176Y60692D01*
X-144163Y60671D01*
X-144153Y60655D01*
X-144144Y60640D01*
Y60640D01*
X-144143Y60638D01*
X-144142Y60636D01*
X-144141Y60633D01*
X-144140Y60631D01*
X-144140Y60629D01*
X-144138Y60624D01*
X-144136Y60619D01*
X-144134Y60614D01*
X-144134D01*
X-144134Y60614D01*
X-144134Y60613D01*
X-144134Y60612D01*
X-144133Y60611D01*
X-144133Y60610D01*
X-144132Y60609D01*
X-144132Y60609D01*
X-144132Y60608D01*
X-144131Y60607D01*
X-144131Y60606D01*
X-144130Y60605D01*
X-144130Y60604D01*
X-144130Y60604D01*
X-144130Y60603D01*
X-144129Y60602D01*
X-144129Y60601D01*
X-144128Y60599D01*
X-144128Y60599D01*
X-144128Y60599D01*
X-144128Y60598D01*
X-144127Y60597D01*
X-144126Y60596D01*
X-144125Y60594D01*
X-144125Y60594D01*
X-144125Y60594D01*
X-144125Y60593D01*
X-144124Y60592D01*
X-144123Y60591D01*
X-144122Y60589D01*
X-144122Y60589D01*
X-144122Y60587D01*
X-144121Y60585D01*
X-144120Y60582D01*
X-144118Y60579D01*
X-144118Y60578D01*
X-144116Y60573D01*
X-144114Y60567D01*
X-144113Y60562D01*
X-144113Y60562D01*
X-144112Y60561D01*
X-144112Y60560D01*
X-144111Y60559D01*
X-144111Y60557D01*
X-144111Y60557D01*
X-144111Y60557D01*
X-144110Y60556D01*
X-144110Y60554D01*
X-144109Y60553D01*
X-144109Y60552D01*
X-144108Y60551D01*
X-144108Y60551D01*
X-144108Y60550D01*
X-144108Y60549D01*
X-144107Y60548D01*
X-144106Y60546D01*
X-144106Y60546D01*
X-144106Y60545D01*
X-144105Y60544D01*
X-144104Y60542D01*
X-144104Y60541D01*
X-144103Y60540D01*
X-144103Y60540D01*
X-144102Y60538D01*
X-144101Y60537D01*
X-144101Y60535D01*
X-144100Y60535D01*
Y60535D01*
X-144100Y60533D01*
X-144099Y60531D01*
X-144098Y60528D01*
X-144097Y60525D01*
X-144096Y60524D01*
X-144094Y60518D01*
X-144093Y60513D01*
X-144091Y60507D01*
X-144091Y60506D01*
X-144090Y60505D01*
X-144090Y60504D01*
X-144089Y60502D01*
X-144089Y60501D01*
X-144089Y60501D01*
X-144089D01*
X-144089Y60501D01*
X-144088Y60499D01*
X-144087Y60498D01*
X-144087Y60497D01*
X-144087Y60496D01*
X-144086Y60495D01*
X-144086Y60494D01*
X-144085Y60492D01*
X-144085Y60491D01*
X-144084Y60490D01*
X-144084Y60490D01*
X-144083Y60488D01*
X-144083Y60487D01*
X-144082Y60485D01*
X-144082Y60485D01*
X-144082Y60485D01*
X-144081Y60484D01*
X-144080Y60483D01*
X-144080Y60481D01*
X-144079Y60480D01*
X-144079Y60479D01*
X-144076Y60469D01*
X-144075Y60463D01*
X-144074Y60458D01*
X-144073Y60453D01*
X-144072Y60448D01*
X-144071Y60442D01*
X-144070Y60437D01*
X-144069Y60432D01*
X-144068Y60426D01*
X-144066Y60415D01*
X-144065Y60409D01*
X-144063Y60402D01*
X-144062Y60396D01*
X-144061Y60391D01*
X-144060Y60384D01*
X-144059Y60378D01*
X-144058Y60372D01*
X-144057Y60367D01*
X-144055Y60356D01*
X-144054Y60351D01*
X-144052Y60346D01*
X-144052Y60341D01*
X-144050Y60335D01*
X-144049Y60330D01*
X-144048Y60325D01*
X-144047Y60320D01*
X-144046Y60315D01*
X-144046Y60315D01*
X-144046Y60313D01*
X-144045Y60310D01*
X-144045Y60307D01*
X-144045Y60304D01*
X-144045Y60303D01*
X-144044Y60297D01*
X-144043Y60291D01*
X-144043Y60285D01*
X-144042Y60279D01*
X-144041Y60273D01*
X-144041Y60267D01*
X-144041Y60267D01*
X-144041Y60266D01*
X-144040Y60265D01*
X-144040Y60263D01*
X-144040Y60262D01*
X-144040Y60261D01*
X-144040Y60260D01*
X-144039Y60258D01*
X-144039Y60257D01*
X-144039Y60255D01*
X-144039Y60255D01*
X-144039Y60255D01*
X-144038Y60248D01*
X-144037Y60234D01*
X-144036Y60220D01*
X-144035Y60206D01*
X-144035Y60198D01*
X-144035Y60198D01*
Y60198D01*
X-144035Y60192D01*
X-144034Y60179D01*
X-144033Y60167D01*
X-144033Y60154D01*
X-144033Y60147D01*
X-144033Y60135D01*
Y57265D01*
X-144035Y56735D01*
X-144242Y55695D01*
X-144645Y54714D01*
X-145230Y53828D01*
X-145973Y53072D01*
X-146848Y52472D01*
X-147822Y52052D01*
X-148858Y51827D01*
X-149389Y51816D01*
X-149389D01*
X-149401Y51815D01*
X-149425Y51814D01*
X-149450Y51813D01*
X-149474Y51813D01*
X-149487Y51813D01*
X-152356D01*
X-152886Y51815D01*
X-153926Y52022D01*
X-154907Y52425D01*
X-155792Y53009D01*
X-156548Y53753D01*
X-157148Y54627D01*
X-157568Y55601D01*
X-157794Y56637D01*
X-157805Y57167D01*
X-157806Y57177D01*
X-157807Y57197D01*
X-157807Y57216D01*
X-157808Y57236D01*
X-157807Y57246D01*
X-157807Y57265D01*
Y59946D01*
X-157814Y59987D01*
X-157817Y60007D01*
X-157820Y60028D01*
X-157822Y60048D01*
X-157824Y60069D01*
X-157825Y60072D01*
X-157825Y60077D01*
X-157826Y60082D01*
X-157826Y60087D01*
X-157826Y60090D01*
X-157827Y60092D01*
X-157827Y60097D01*
X-157827Y60103D01*
X-157828Y60108D01*
X-157828Y60110D01*
X-157828Y60113D01*
X-157828Y60118D01*
X-157828Y60123D01*
X-157829Y60128D01*
X-157829Y60131D01*
X-157829Y60134D01*
X-157829Y60139D01*
X-157829Y60144D01*
X-157829Y60149D01*
Y60152D01*
X-157828Y60152D01*
X-157827Y60244D01*
X-157795Y60426D01*
X-157734Y60599D01*
X-157646Y60761D01*
X-157589Y60834D01*
X-157493Y60966D01*
X-157234Y61165D01*
X-156930Y61284D01*
X-156605Y61314D01*
X-156445Y61283D01*
D02*
G37*
G36*
X-172145Y48725D02*
X-171899Y48636D01*
X-171788Y48567D01*
X-171788Y48567D01*
X-171667Y48488D01*
X-171474Y48271D01*
X-171346Y48012D01*
X-171289Y47728D01*
X-171299Y47584D01*
X-171299D01*
Y34071D01*
X-166232Y29004D01*
X-136197Y29004D01*
X-136095Y29601D01*
X-135685Y30740D01*
X-135084Y31790D01*
X-134310Y32721D01*
X-133385Y33502D01*
X-132339Y34111D01*
X-131202Y34528D01*
X-130011Y34742D01*
X-129406Y34743D01*
Y34743D01*
X-128954Y34742D01*
X-128060Y34623D01*
X-127189Y34388D01*
X-126356Y34042D01*
X-125575Y33590D01*
X-124859Y33041D01*
X-124221Y32403D01*
X-123671Y31687D01*
X-123219Y30906D01*
X-122873Y30073D01*
X-122638Y29202D01*
X-122518Y28308D01*
X-122517Y27887D01*
X-122517Y27857D01*
X-122517Y27783D01*
X-122518Y27406D01*
X-122638Y26511D01*
X-122873Y25640D01*
X-123219Y24807D01*
X-123671Y24026D01*
X-124221Y23310D01*
X-124859Y22673D01*
X-125574Y22123D01*
X-126355Y21672D01*
X-127189Y21325D01*
X-128060Y21091D01*
X-128954Y20971D01*
X-129405Y20970D01*
X-129405Y20970D01*
X-130010Y20972D01*
X-131202Y21185D01*
X-132338Y21602D01*
X-133385Y22211D01*
X-134309Y22992D01*
X-135084Y23922D01*
X-135685Y24973D01*
X-136095Y26112D01*
X-136197Y26709D01*
Y26709D01*
X-136197Y26709D01*
X-166562D01*
X-166632Y26700D01*
X-166771Y26701D01*
X-166910Y26718D01*
X-167045Y26752D01*
X-167111Y26777D01*
X-167188Y26805D01*
X-167334Y26882D01*
X-167467Y26980D01*
X-167585Y27095D01*
X-167635Y27161D01*
Y27161D01*
X-173115Y32641D01*
X-173190Y32694D01*
X-173320Y32824D01*
X-173427Y32971D01*
X-173510Y33135D01*
X-173538Y33222D01*
X-173554Y33268D01*
X-173579Y33363D01*
X-173595Y33460D01*
X-173603Y33558D01*
X-173603Y33607D01*
X-173605Y33607D01*
X-173605Y33619D01*
X-173605Y33642D01*
X-173604Y33665D01*
X-173602Y33688D01*
X-173601Y33700D01*
X-173601Y33700D01*
X-173601Y33707D01*
X-173599Y33723D01*
X-173598Y33738D01*
X-173596Y33753D01*
X-173595Y33761D01*
X-173595D01*
Y47584D01*
X-173600Y47684D01*
X-173575Y47883D01*
X-173517Y48074D01*
X-173426Y48253D01*
X-173365Y48333D01*
Y48333D01*
X-173311Y48401D01*
X-173182Y48519D01*
X-173036Y48614D01*
X-172876Y48685D01*
X-172792Y48708D01*
X-172792Y48708D01*
X-172666Y48743D01*
X-172405Y48761D01*
X-172145Y48725D01*
D02*
G37*
G36*
X-144784Y39691D02*
X-144784Y39691D01*
D01*
X-144784Y39691D01*
D02*
G37*
G36*
X-144907Y48371D02*
X-144812Y48342D01*
Y48342D01*
X-144729Y48315D01*
X-144575Y48235D01*
X-144435Y48132D01*
X-144313Y48008D01*
X-144263Y47937D01*
Y47937D01*
X-144186Y47832D01*
X-144078Y47595D01*
X-144021Y47341D01*
X-144018Y47081D01*
X-144043Y46953D01*
X-144074Y46813D01*
X-144208Y46558D01*
X-144403Y46346D01*
X-144646Y46193D01*
X-144784Y46150D01*
X-147626Y45085D01*
Y40757D01*
X-144784Y39691D01*
Y39691D01*
X-144689Y39661D01*
X-144512Y39567D01*
X-144354Y39445D01*
X-144220Y39297D01*
X-144167Y39213D01*
X-144122Y39138D01*
X-144058Y38976D01*
X-144020Y38806D01*
X-144010Y38632D01*
X-144018Y38545D01*
X-144029Y38415D01*
X-144104Y38165D01*
X-144229Y37936D01*
X-144398Y37737D01*
X-144501Y37657D01*
X-144501Y37657D01*
X-144617Y37571D01*
X-144887Y37467D01*
X-145173Y37437D01*
X-145458Y37483D01*
X-145590Y37542D01*
X-156934Y41796D01*
Y41796D01*
X-156934D01*
X-157107Y41836D01*
X-157413Y42016D01*
X-157651Y42280D01*
X-157797Y42604D01*
X-157818Y42780D01*
X-157818Y42783D01*
X-157818Y42784D01*
X-157818Y42785D01*
X-157819Y42786D01*
X-157819Y42787D01*
X-157819Y42789D01*
X-157819Y42790D01*
X-157819Y42791D01*
X-157819Y42792D01*
X-157821Y42807D01*
X-157822Y42814D01*
X-157823Y42821D01*
X-157824Y42828D01*
X-157825Y42836D01*
X-157825Y42836D01*
X-157825Y42837D01*
X-157825Y42839D01*
X-157825Y42840D01*
X-157825Y42842D01*
X-157825Y42843D01*
X-157825D01*
X-157825Y42844D01*
X-157826Y42846D01*
X-157826Y42848D01*
X-157826Y42850D01*
X-157826Y42850D01*
X-157826Y42852D01*
X-157826Y42853D01*
X-157826Y42855D01*
X-157826Y42857D01*
X-157826Y42858D01*
X-157826Y42859D01*
X-157826Y42861D01*
X-157826Y42863D01*
Y42864D01*
X-157826Y42865D01*
X-157826Y42868D01*
Y42870D01*
X-157826Y42871D01*
Y42873D01*
X-157826Y42874D01*
Y42876D01*
X-157826Y42877D01*
Y42881D01*
X-157828Y42896D01*
X-157827Y42897D01*
X-157827D01*
X-157827Y42901D01*
X-157827Y42910D01*
X-157827Y42919D01*
X-157827Y42928D01*
X-157827Y42932D01*
X-157827Y42936D01*
X-157827Y42943D01*
X-157826Y42950D01*
X-157826Y42958D01*
X-157826Y42961D01*
X-157825Y42968D01*
X-157825Y42971D01*
X-157825Y42973D01*
X-157825Y42974D01*
X-157825Y42976D01*
X-157825Y42977D01*
X-157825Y42978D01*
X-157825Y42980D01*
X-157825Y42981D01*
X-157825Y42983D01*
D01*
X-157816Y43169D01*
X-157681Y43518D01*
X-157441Y43805D01*
X-157122Y44001D01*
X-156940Y44044D01*
X-145590Y48300D01*
X-145498Y48339D01*
X-145304Y48384D01*
X-145105Y48395D01*
X-144907Y48371D01*
D02*
G37*
G36*
X-122517Y27857D02*
Y27857D01*
Y27857D01*
Y27857D01*
D02*
G37*
G36*
X-74221Y-17915D02*
X-74054Y-17970D01*
X-73888Y-18137D01*
X-73610Y-18526D01*
X-73388Y-18859D01*
X-73277Y-18970D01*
Y-19025D01*
X-72999Y-19692D01*
X-72776Y-20359D01*
X-72610Y-21025D01*
X-72443Y-21581D01*
X-72388Y-22081D01*
X-72332Y-22414D01*
X-72277Y-22692D01*
Y-22747D01*
X-72221Y-23469D01*
X-72277Y-24081D01*
X-72332Y-24636D01*
X-72388Y-25080D01*
X-72499Y-25469D01*
X-72610Y-25747D01*
X-72665Y-25914D01*
Y-25969D01*
X-72776Y-26191D01*
X-72832Y-26358D01*
X-72888Y-26469D01*
Y-26525D01*
X-72999Y-26802D01*
Y-26858D01*
X-72943D01*
X-72832Y-26802D01*
X-72554Y-26691D01*
X-72110Y-26525D01*
X-71666Y-26358D01*
X-71166Y-26136D01*
X-70777Y-25969D01*
X-70499Y-25858D01*
X-70443Y-25803D01*
X-70388D01*
X-69499Y-25414D01*
X-68666Y-25080D01*
X-67888Y-24803D01*
X-67222Y-24525D01*
X-66666Y-24303D01*
X-66277Y-24136D01*
X-65999Y-24025D01*
X-65888Y-23969D01*
X-65166Y-23636D01*
X-64444Y-23358D01*
X-63833Y-23136D01*
X-63278Y-22970D01*
X-62833Y-22803D01*
X-62500Y-22692D01*
X-62278Y-22636D01*
X-62222D01*
X-61000Y-22414D01*
X-60444Y-22303D01*
X-59945Y-22247D01*
X-59500D01*
X-59111Y-22192D01*
X-58889D01*
X-58833D01*
X-58278D01*
X-57778Y-22136D01*
X-57334D01*
X-56945Y-22192D01*
X-56667D01*
X-56445Y-22247D01*
X-56334D01*
X-56278D01*
X-55500Y-22414D01*
X-54778Y-22692D01*
X-54501Y-22803D01*
X-54278Y-22858D01*
X-54167Y-22970D01*
X-54112D01*
X-53501Y-23358D01*
X-52945Y-23803D01*
X-52445Y-24247D01*
X-52056Y-24692D01*
X-51723Y-25136D01*
X-51501Y-25469D01*
X-51334Y-25691D01*
X-51279Y-25747D01*
X-50890Y-26469D01*
X-50612Y-27191D01*
X-50334Y-27913D01*
X-50168Y-28580D01*
X-50057Y-29191D01*
X-49946Y-29636D01*
X-49890Y-29969D01*
Y-30080D01*
X-49834Y-30302D01*
Y-30524D01*
X-49779Y-30747D01*
X-49723Y-30913D01*
X-49557Y-31024D01*
X-49335Y-31191D01*
X-49168Y-31246D01*
X-49057Y-31302D01*
X-48557Y-31524D01*
X-48112Y-31858D01*
X-47779Y-32135D01*
X-47724Y-32191D01*
X-47668Y-32246D01*
X-47168Y-32746D01*
X-46724Y-33302D01*
X-46557Y-33468D01*
X-46446Y-33635D01*
X-46390Y-33746D01*
X-46335Y-33802D01*
X-45835Y-34579D01*
X-45391Y-35357D01*
X-45224Y-35746D01*
X-45057Y-36024D01*
X-45002Y-36190D01*
X-44946Y-36246D01*
X-44668Y-36801D01*
X-44446Y-37301D01*
X-44224Y-37801D01*
X-44057Y-38190D01*
X-43946Y-38468D01*
X-43835Y-38690D01*
X-43780Y-38857D01*
Y-38912D01*
X-43613Y-39468D01*
X-43502Y-39912D01*
X-43446Y-40134D01*
X-43391Y-40190D01*
X-42613Y-40468D01*
X-42057Y-40745D01*
X-41835Y-40801D01*
X-41669Y-40856D01*
X-41613Y-40912D01*
X-41557D01*
X-40224Y-41468D01*
X-39058Y-41968D01*
X-38002Y-42467D01*
X-37114Y-42912D01*
X-36391Y-43356D01*
X-35891Y-43634D01*
X-35558Y-43856D01*
X-35503Y-43912D01*
X-35447D01*
X-34614Y-44467D01*
X-33947Y-44967D01*
X-33392Y-45467D01*
X-32947Y-45912D01*
X-32614Y-46245D01*
X-32447Y-46523D01*
X-32336Y-46689D01*
X-32281Y-46745D01*
X-32114Y-47078D01*
X-32003Y-47300D01*
X-31947Y-47467D01*
X-31892Y-47523D01*
Y-55633D01*
X-31947Y-56188D01*
Y-57410D01*
X-32003Y-57633D01*
Y-57855D01*
X-32058Y-57966D01*
X-32114Y-58133D01*
Y-58188D01*
X-32225Y-58244D01*
X-32336Y-58299D01*
X-32670Y-58355D01*
X-32947D01*
X-33003D01*
X-33058D01*
X-33392D01*
X-33892Y-58410D01*
X-34392D01*
X-34947D01*
X-35447D01*
X-35891D01*
X-36169D01*
X-36280D01*
X-37225D01*
X-38002D01*
X-38669D01*
X-39225D01*
X-39613D01*
X-39947D01*
X-40113D01*
X-40169D01*
X-40113Y-58688D01*
X-40058Y-58855D01*
Y-59466D01*
X-40002Y-59688D01*
Y-61743D01*
X-39113Y-61910D01*
X-38336Y-62021D01*
X-37669Y-62132D01*
X-37114Y-62243D01*
X-36669Y-62299D01*
X-36391Y-62354D01*
X-36169Y-62410D01*
X-36114D01*
X-35058Y-62632D01*
X-34558Y-62743D01*
X-34169Y-62854D01*
X-33836Y-62965D01*
X-33614Y-63021D01*
X-33447Y-63077D01*
X-33392D01*
X-33003Y-63188D01*
X-32670Y-63243D01*
X-32447Y-63299D01*
X-32281Y-63354D01*
X-32225Y-63410D01*
X-32170Y-63465D01*
X-32114D01*
X-32058Y-63576D01*
X-32003Y-63688D01*
X-31947Y-64021D01*
Y-64854D01*
X-31892Y-65409D01*
Y-72353D01*
X-32058Y-72631D01*
X-32225Y-72798D01*
X-32281Y-72853D01*
X-32336Y-72909D01*
X-32781Y-73298D01*
X-32947Y-73409D01*
X-33003Y-73464D01*
X-33281Y-73686D01*
X-33558Y-73853D01*
X-33725Y-73909D01*
X-33781Y-73964D01*
X-34503Y-74242D01*
X-35280Y-74575D01*
X-36114Y-74798D01*
X-36836Y-75020D01*
X-37558Y-75186D01*
X-38058Y-75353D01*
X-38280Y-75409D01*
X-38447D01*
X-38502Y-75464D01*
X-38558D01*
X-39724Y-75686D01*
X-40891Y-75908D01*
X-42057Y-76075D01*
X-43169Y-76186D01*
X-44113Y-76297D01*
X-44502Y-76353D01*
X-44835D01*
X-45113D01*
X-45335Y-76408D01*
X-45446D01*
X-45502D01*
X-45946Y-76464D01*
X-46279Y-76519D01*
X-46501Y-76575D01*
X-46557D01*
X-46668Y-76631D01*
X-46779Y-76686D01*
Y-76908D01*
X-46890Y-77075D01*
X-47057Y-77464D01*
X-47224Y-77797D01*
X-47335Y-77908D01*
Y-77964D01*
X-47724Y-78519D01*
X-48057Y-78908D01*
X-48279Y-79186D01*
X-48390Y-79297D01*
X-48835Y-79630D01*
X-49279Y-80019D01*
X-50334Y-80575D01*
X-50779Y-80852D01*
X-51168Y-81019D01*
X-51390Y-81130D01*
X-51501Y-81186D01*
X-52112Y-81408D01*
X-52612Y-81574D01*
X-53001Y-81686D01*
X-53334Y-81797D01*
X-53612D01*
X-53779Y-81852D01*
X-53890D01*
X-53945D01*
X-54112D01*
X-54223Y-81797D01*
X-54334Y-81741D01*
X-54556Y-81574D01*
X-54667Y-81352D01*
X-54778Y-81186D01*
Y-80852D01*
X-54667Y-80686D01*
X-54556Y-80575D01*
X-54501Y-80519D01*
X-54223Y-80186D01*
X-54001Y-79797D01*
X-53890Y-79519D01*
X-53834Y-79464D01*
Y-79408D01*
X-53723Y-78908D01*
X-53667Y-78408D01*
Y-77908D01*
X-53779Y-77075D01*
X-53890Y-76742D01*
X-53945Y-76408D01*
X-54056Y-76186D01*
X-54167Y-76020D01*
X-54223Y-75908D01*
Y-75853D01*
X-54390Y-75464D01*
X-54612Y-75131D01*
X-55112Y-74409D01*
X-55334Y-74131D01*
X-55556Y-73909D01*
X-55667Y-73742D01*
X-55723Y-73686D01*
X-56611Y-72575D01*
X-57389Y-71409D01*
X-58111Y-70187D01*
X-58667Y-69020D01*
X-59111Y-67965D01*
X-59278Y-67520D01*
X-59445Y-67132D01*
X-59556Y-66798D01*
X-59667Y-66576D01*
X-59722Y-66409D01*
Y-66354D01*
X-60222Y-64632D01*
X-60611Y-62910D01*
X-60833Y-61354D01*
X-61055Y-59910D01*
X-61111Y-59243D01*
X-61167Y-58688D01*
Y-58188D01*
X-61222Y-57744D01*
Y-56910D01*
X-61278Y-56077D01*
X-61333Y-55300D01*
X-61389Y-54577D01*
X-61444Y-54022D01*
X-61556Y-53522D01*
X-61611Y-53189D01*
X-61667Y-52966D01*
Y-52911D01*
X-61889Y-52300D01*
X-62111Y-51689D01*
X-62389Y-51189D01*
X-62667Y-50689D01*
X-62889Y-50300D01*
X-63111Y-50022D01*
X-63222Y-49800D01*
X-63278Y-49745D01*
X-63500Y-49467D01*
X-63722Y-49134D01*
X-63944Y-48967D01*
X-64000Y-48856D01*
X-64333Y-48522D01*
X-64555Y-48245D01*
X-64722Y-48134D01*
X-64777Y-48078D01*
X-65166Y-47856D01*
X-65500Y-47634D01*
X-65722Y-47578D01*
X-65777Y-47523D01*
X-65944Y-47467D01*
X-66166Y-47411D01*
X-66666Y-47245D01*
X-66888Y-47189D01*
X-67055D01*
X-67166Y-47134D01*
X-67222D01*
X-67666Y-47078D01*
X-68110Y-46967D01*
X-68388Y-46912D01*
X-68444D01*
X-68499D01*
X-68833Y-46800D01*
X-69110Y-46689D01*
X-69221Y-46634D01*
X-69277D01*
X-69666Y-46523D01*
X-69888D01*
X-69999Y-46578D01*
Y-46745D01*
X-69888Y-46967D01*
X-69777Y-47245D01*
X-69721Y-47300D01*
Y-47356D01*
X-69388Y-48134D01*
X-69166Y-48967D01*
X-68999Y-49745D01*
X-68888Y-50411D01*
X-68833Y-51078D01*
X-68777Y-51522D01*
Y-51967D01*
X-68833Y-52911D01*
X-68944Y-53800D01*
X-69110Y-54633D01*
X-69332Y-55355D01*
X-69499Y-55966D01*
X-69666Y-56466D01*
X-69777Y-56744D01*
X-69832Y-56855D01*
X-70055Y-57244D01*
X-70110Y-57355D01*
Y-57410D01*
X-70277Y-57577D01*
X-70388Y-57633D01*
X-70443Y-57688D01*
X-70610D01*
X-70888D01*
X-71388Y-57522D01*
X-71666Y-57410D01*
X-71832Y-57355D01*
X-71999Y-57244D01*
X-72054D01*
X-72888Y-56744D01*
X-73554Y-56299D01*
X-73832Y-56077D01*
X-73999Y-55911D01*
X-74110Y-55855D01*
X-74165Y-55799D01*
X-75165Y-54855D01*
X-75554Y-54411D01*
X-75943Y-53966D01*
X-76221Y-53577D01*
X-76498Y-53244D01*
X-76610Y-53022D01*
X-76665Y-52966D01*
X-77109Y-52411D01*
X-77443Y-51855D01*
X-77720Y-51300D01*
X-77943Y-50855D01*
X-78109Y-50467D01*
X-78220Y-50189D01*
X-78331Y-49967D01*
Y-49911D01*
X-78387Y-49633D01*
X-78443Y-49300D01*
X-78498Y-49078D01*
Y-48967D01*
X-78554Y-48578D01*
X-78609Y-48189D01*
X-78665Y-47967D01*
Y-47856D01*
X-78720Y-47300D01*
Y-46523D01*
X-79609Y-47189D01*
X-80331Y-47800D01*
X-80998Y-48300D01*
X-81498Y-48689D01*
X-81887Y-49022D01*
X-82220Y-49245D01*
X-82387Y-49356D01*
X-82442Y-49411D01*
X-83331Y-50189D01*
X-84109Y-50744D01*
X-84664Y-51244D01*
X-85164Y-51578D01*
X-85442Y-51800D01*
X-85664Y-51967D01*
X-85775Y-52078D01*
X-85831D01*
X-86109Y-52244D01*
X-86331Y-52300D01*
X-86664D01*
X-86886Y-52244D01*
X-86942Y-52189D01*
X-87108Y-51911D01*
X-87219Y-51522D01*
X-87275Y-51078D01*
X-87331Y-50633D01*
X-87386Y-50244D01*
Y-48800D01*
X-87331Y-48134D01*
X-87275Y-47523D01*
X-87219Y-47023D01*
X-87108Y-46578D01*
X-87053Y-46300D01*
X-86997Y-46078D01*
Y-46023D01*
X-86886Y-45745D01*
X-86831Y-45523D01*
X-86775Y-45356D01*
Y-45300D01*
X-86664Y-45078D01*
X-86608Y-44967D01*
Y-44912D01*
X-86664Y-44967D01*
X-86720Y-45023D01*
X-86775Y-45078D01*
X-86831D01*
X-87219Y-45467D01*
X-87331Y-45578D01*
X-87386Y-45634D01*
X-87830Y-45967D01*
X-88108Y-46134D01*
X-88219Y-46245D01*
X-88275D01*
X-88442Y-46300D01*
X-88664Y-46245D01*
X-88830Y-46189D01*
X-88886D01*
X-89108Y-45967D01*
X-89275Y-45689D01*
X-89386Y-45300D01*
X-89497Y-44856D01*
Y-44467D01*
X-89553Y-44134D01*
Y-43301D01*
X-89497Y-42856D01*
X-89441Y-42523D01*
Y-42412D01*
X-89330Y-41190D01*
X-89108Y-40134D01*
X-88886Y-39190D01*
X-88664Y-38357D01*
X-88442Y-37746D01*
X-88219Y-37246D01*
X-88108Y-36968D01*
X-88053Y-36857D01*
X-87553Y-35968D01*
X-86997Y-35135D01*
X-86775Y-34802D01*
X-86553Y-34524D01*
X-86442Y-34302D01*
X-86386Y-34246D01*
X-85442Y-33191D01*
X-84998Y-32691D01*
X-84553Y-32246D01*
X-84164Y-31858D01*
X-83886Y-31524D01*
X-83664Y-31302D01*
X-83609Y-31246D01*
X-83164Y-30747D01*
X-82775Y-30358D01*
X-82498Y-30080D01*
X-82276Y-29802D01*
X-82109Y-29636D01*
X-81998Y-29524D01*
X-81942Y-29413D01*
X-81831Y-29191D01*
X-81776Y-28913D01*
X-81720Y-28691D01*
Y-28580D01*
X-81664Y-27636D01*
X-81609Y-27191D01*
X-81498Y-26802D01*
X-81442Y-26414D01*
X-81331Y-26136D01*
X-81276Y-25969D01*
Y-25914D01*
X-80831Y-24858D01*
X-80609Y-24358D01*
X-80387Y-23969D01*
X-80220Y-23636D01*
X-80054Y-23358D01*
X-79998Y-23192D01*
X-79942Y-23136D01*
X-79720Y-22803D01*
X-79387Y-22359D01*
X-78720Y-21581D01*
X-78387Y-21247D01*
X-78109Y-20970D01*
X-77943Y-20747D01*
X-77887Y-20692D01*
X-77332Y-20136D01*
X-76887Y-19692D01*
X-76443Y-19303D01*
X-76109Y-18970D01*
X-75832Y-18748D01*
X-75610Y-18581D01*
X-75498Y-18526D01*
X-75443Y-18470D01*
X-75165Y-18248D01*
X-74943Y-18137D01*
X-74610Y-17915D01*
X-74387Y-17859D01*
X-74332D01*
X-74221Y-17915D01*
D02*
G37*
%LPC*%
G36*
X-172877Y72978D02*
X-177037D01*
Y70898D01*
X-177039Y70693D01*
X-176961Y70289D01*
X-176806Y69909D01*
X-176578Y69567D01*
X-176288Y69277D01*
X-175946Y69049D01*
X-175565Y68893D01*
X-175162Y68816D01*
X-174957Y68818D01*
X-174957Y68818D01*
X-174698Y68816D01*
X-174196Y68940D01*
X-173739Y69184D01*
X-173358Y69533D01*
X-173216Y69749D01*
X-173216Y69749D01*
X-173170Y69828D01*
X-173147Y69868D01*
X-173124Y69909D01*
X-173121Y69915D01*
X-173116Y69925D01*
X-173110Y69935D01*
X-173104Y69946D01*
X-173102Y69951D01*
X-173099Y69956D01*
X-173093Y69967D01*
X-173088Y69978D01*
X-173083Y69989D01*
X-173080Y69994D01*
X-173080D01*
X-173077Y70000D01*
X-173072Y70011D01*
X-173066Y70022D01*
X-173061Y70033D01*
X-173059Y70039D01*
X-173053Y70050D01*
X-173043Y70074D01*
X-173033Y70097D01*
X-173023Y70121D01*
X-173018Y70133D01*
X-173018D01*
X-173016Y70139D01*
X-173011Y70152D01*
X-173006Y70165D01*
X-173002Y70177D01*
X-172999Y70184D01*
X-172999Y70184D01*
X-172982Y70235D01*
X-172952Y70338D01*
X-172926Y70443D01*
X-172906Y70549D01*
X-172898Y70602D01*
X-172898Y70602D01*
X-172893Y70639D01*
X-172885Y70712D01*
X-172879Y70787D01*
X-172877Y70861D01*
Y70898D01*
X-172877Y70898D01*
Y72978D01*
D02*
G37*
G36*
X-129405Y48384D02*
X-132998Y42993D01*
X-125810D01*
X-129405Y48384D01*
D02*
G37*
G36*
X-165931Y61702D02*
X-165931Y61702D01*
D01*
X-165931Y61702D01*
D02*
G37*
G36*
X-165653Y61279D02*
Y61279D01*
D01*
Y61279D01*
D02*
G37*
G36*
X-146334Y58987D02*
X-155516D01*
Y57266D01*
X-155516D01*
X-155516Y57266D01*
Y57266D01*
X-155516D01*
X-155518Y56954D01*
X-155399Y56343D01*
X-155162Y55767D01*
X-154817Y55248D01*
X-154377Y54808D01*
X-153859Y54463D01*
X-153283Y54226D01*
X-152671Y54107D01*
X-152360Y54109D01*
X-149491D01*
X-149491Y54109D01*
X-149179Y54107D01*
X-148568Y54226D01*
X-147992Y54463D01*
X-147474Y54808D01*
X-147034Y55248D01*
X-146688Y55767D01*
X-146452Y56343D01*
X-146333Y56954D01*
X-146334Y57266D01*
Y58987D01*
D02*
G37*
G36*
X-128952Y32449D02*
X-129404Y32447D01*
X-129405D01*
X-129845Y32449D01*
X-130709Y32285D01*
X-131526Y31959D01*
X-132267Y31483D01*
X-132902Y30875D01*
X-133411Y30156D01*
X-133772Y29354D01*
X-133975Y28498D01*
X-133992Y28058D01*
Y28058D01*
Y28058D01*
X-133996Y27963D01*
X-133997Y27923D01*
X-133997Y27887D01*
X-133998Y27852D01*
Y27844D01*
X-133997Y27827D01*
X-133997Y27809D01*
X-133997Y27792D01*
X-133997Y27783D01*
X-133997Y27783D01*
Y27783D01*
X-133996Y27746D01*
X-133994Y27705D01*
X-133992Y27658D01*
X-133992Y27658D01*
X-133975Y27218D01*
X-133774Y26361D01*
X-133413Y25558D01*
X-132905Y24839D01*
X-132269Y24230D01*
X-131528Y23753D01*
X-130710Y23427D01*
X-129845Y23263D01*
X-129405Y23265D01*
X-129405Y23265D01*
X-129404D01*
X-128952Y23263D01*
X-128063Y23437D01*
X-127225Y23782D01*
X-126472Y24284D01*
X-125831Y24925D01*
X-125329Y25678D01*
X-124984Y26515D01*
X-124810Y27404D01*
X-124811Y27857D01*
X-124811Y27857D01*
X-124810Y28309D01*
X-124984Y29198D01*
X-125329Y30035D01*
X-125831Y30788D01*
X-126472Y31428D01*
X-127226Y31931D01*
X-128063Y32275D01*
X-128952Y32449D01*
D02*
G37*
G36*
X-157825Y42983D02*
X-157825D01*
Y42983D01*
X-157825Y42983D01*
D02*
G37*
G36*
X-149921Y44224D02*
X-153395Y42921D01*
X-149921Y41618D01*
Y44224D01*
D02*
G37*
G36*
X-80942Y-30913D02*
X-81109D01*
X-81220Y-30969D01*
X-81331Y-31024D01*
X-81387Y-31080D01*
X-81664Y-31302D01*
X-81942Y-31580D01*
X-82164Y-31802D01*
X-82220Y-31913D01*
X-82664Y-32413D01*
X-83053Y-32746D01*
X-83275Y-32968D01*
X-83331Y-33024D01*
X-83109Y-33413D01*
X-82942Y-33746D01*
X-82887Y-33913D01*
X-82831Y-33968D01*
X-82553Y-34524D01*
X-82387Y-35079D01*
X-82331Y-35357D01*
X-82276Y-35524D01*
X-82220Y-35635D01*
Y-35690D01*
X-82053Y-36302D01*
X-81942Y-36801D01*
X-81887Y-37079D01*
Y-37690D01*
X-81553Y-37357D01*
X-81331Y-37135D01*
X-81220Y-37024D01*
X-81165Y-36968D01*
X-80776Y-36524D01*
X-80609Y-36357D01*
X-80554Y-36302D01*
X-80331Y-36024D01*
X-80220Y-35857D01*
X-80165Y-35746D01*
Y-35690D01*
X-79998Y-35302D01*
X-79887Y-34857D01*
X-79831Y-34524D01*
X-79776Y-34413D01*
Y-34357D01*
X-79720Y-33802D01*
X-79776Y-33357D01*
X-79831Y-33135D01*
Y-33024D01*
X-79998Y-32635D01*
X-80165Y-32191D01*
X-80331Y-31858D01*
X-80387Y-31802D01*
Y-31746D01*
X-80498Y-31524D01*
X-80665Y-31302D01*
X-80831Y-31080D01*
X-80887Y-30969D01*
X-80942Y-30913D01*
D02*
G37*
G36*
X-74610Y-19970D02*
X-74776D01*
X-75054Y-20081D01*
X-75387Y-20359D01*
X-75721Y-20692D01*
X-76109Y-21025D01*
X-76387Y-21359D01*
X-76610Y-21525D01*
X-76665Y-21636D01*
X-77276Y-22359D01*
X-77832Y-23025D01*
X-78276Y-23581D01*
X-78609Y-24025D01*
X-78887Y-24414D01*
X-79054Y-24692D01*
X-79165Y-24858D01*
X-79220Y-24914D01*
X-79498Y-25580D01*
X-79720Y-26136D01*
X-79887Y-26636D01*
X-79998Y-27080D01*
X-80109Y-27413D01*
Y-27691D01*
X-80165Y-27858D01*
Y-27913D01*
X-80109Y-28358D01*
X-80054Y-28858D01*
X-79942Y-29247D01*
X-79776Y-29636D01*
X-79609Y-29969D01*
X-79498Y-30247D01*
X-79443Y-30413D01*
X-79387Y-30469D01*
X-78943Y-31246D01*
X-78665Y-31858D01*
X-78554Y-32080D01*
X-78498Y-32246D01*
X-78443Y-32302D01*
Y-32357D01*
X-78276Y-33024D01*
Y-34246D01*
X-78331Y-34746D01*
X-78387Y-35135D01*
X-78443Y-35357D01*
Y-35468D01*
X-78554Y-35801D01*
X-78665Y-36135D01*
X-78776Y-36357D01*
X-78832Y-36468D01*
X-78998Y-36913D01*
X-79054Y-37190D01*
X-79109Y-37301D01*
Y-37468D01*
X-79054Y-37579D01*
X-78998Y-37690D01*
X-78943D01*
X-78609Y-37912D01*
X-78331Y-38190D01*
X-78109Y-38357D01*
X-77998Y-38468D01*
X-77665Y-38912D01*
X-77443Y-39301D01*
X-77276Y-39523D01*
X-77221Y-39634D01*
X-77109Y-40023D01*
X-76998Y-40357D01*
X-76943Y-40579D01*
Y-44856D01*
X-76998Y-45689D01*
Y-48633D01*
X-76943Y-49078D01*
X-76832Y-49467D01*
X-76721Y-49800D01*
X-76665Y-49856D01*
Y-49911D01*
X-76387Y-50633D01*
X-75998Y-51300D01*
X-75832Y-51578D01*
X-75665Y-51800D01*
X-75610Y-51911D01*
X-75554Y-51967D01*
X-74943Y-52744D01*
X-74387Y-53355D01*
X-74165Y-53633D01*
X-73999Y-53800D01*
X-73888Y-53911D01*
X-73832Y-53966D01*
X-73332Y-54466D01*
X-72832Y-54855D01*
X-72665Y-55022D01*
X-72499Y-55133D01*
X-72388Y-55244D01*
X-72332D01*
X-72054Y-55466D01*
X-71832Y-55633D01*
X-71443Y-55855D01*
X-71277Y-55911D01*
X-71221D01*
X-71110Y-55799D01*
X-70999Y-55633D01*
X-70943Y-55466D01*
Y-55355D01*
X-70832Y-54855D01*
X-70666Y-54355D01*
X-70610Y-54133D01*
Y-53911D01*
X-70554Y-53800D01*
Y-53744D01*
X-70443Y-52855D01*
X-70388Y-51967D01*
Y-51133D01*
X-70499Y-50467D01*
X-70554Y-49856D01*
X-70666Y-49356D01*
X-70721Y-49078D01*
X-70777Y-48967D01*
X-71110Y-48078D01*
X-71499Y-47300D01*
X-71943Y-46578D01*
X-72388Y-45912D01*
X-72832Y-45412D01*
X-73165Y-45023D01*
X-73388Y-44801D01*
X-73443Y-44689D01*
X-73832Y-44301D01*
X-74054Y-44023D01*
X-74165Y-43801D01*
X-74221Y-43745D01*
X-74276Y-43467D01*
X-74221Y-43245D01*
X-74110Y-43078D01*
X-74054Y-43023D01*
X-73832Y-42912D01*
X-73665Y-42856D01*
X-73443D01*
X-73388D01*
X-72999Y-43023D01*
X-72610Y-43301D01*
X-72277Y-43467D01*
X-72221Y-43579D01*
X-72165D01*
X-71554Y-43967D01*
X-70888Y-44356D01*
X-70610Y-44467D01*
X-70443Y-44578D01*
X-70277Y-44689D01*
X-70221D01*
X-69332Y-45023D01*
X-68610Y-45300D01*
X-68277Y-45356D01*
X-68055Y-45412D01*
X-67888Y-45467D01*
X-67833D01*
X-67333Y-45578D01*
X-66833Y-45689D01*
X-65777Y-45745D01*
X-65277Y-45800D01*
X-64889D01*
X-64666D01*
X-64555D01*
X-63777D01*
X-63111Y-45745D01*
X-62555Y-45689D01*
X-62055Y-45634D01*
X-61667Y-45578D01*
X-61389Y-45523D01*
X-61222Y-45467D01*
X-61167D01*
X-59889Y-45078D01*
X-59278Y-44912D01*
X-58778Y-44689D01*
X-58334Y-44467D01*
X-57945Y-44356D01*
X-57723Y-44245D01*
X-57667Y-44190D01*
X-56445Y-43579D01*
X-55889Y-43245D01*
X-55389Y-42912D01*
X-55001Y-42634D01*
X-54723Y-42467D01*
X-54501Y-42301D01*
X-54445Y-42245D01*
X-54167Y-42079D01*
X-53945Y-41912D01*
X-53779Y-41801D01*
X-53723Y-41745D01*
X-53501Y-41690D01*
X-53334Y-41634D01*
X-53279D01*
X-53168D01*
X-53001Y-41690D01*
X-52890Y-41745D01*
X-52834D01*
X-52501Y-42134D01*
X-52390Y-42245D01*
X-52334Y-42301D01*
X-52001Y-42579D01*
X-51668Y-42912D01*
X-51390Y-43134D01*
X-51334Y-43190D01*
X-51279D01*
X-51001Y-43356D01*
X-50612Y-43523D01*
X-49890Y-43912D01*
X-49557Y-44078D01*
X-49279Y-44245D01*
X-49057Y-44301D01*
X-49001Y-44356D01*
X-48224Y-44745D01*
X-47557Y-45023D01*
X-47335Y-45134D01*
X-47168Y-45245D01*
X-47057Y-45300D01*
X-47001D01*
X-46724Y-45412D01*
X-46557Y-45523D01*
X-46335Y-45578D01*
X-46224Y-45634D01*
Y-45300D01*
X-46279Y-45078D01*
X-46335Y-44801D01*
X-46390Y-44634D01*
Y-44523D01*
X-46557Y-44078D01*
X-46724Y-43634D01*
X-46835Y-43301D01*
X-46890Y-43245D01*
Y-43190D01*
X-47112Y-42634D01*
X-47335Y-42079D01*
X-47390Y-41856D01*
X-47501Y-41690D01*
X-47557Y-41579D01*
Y-41523D01*
X-47835Y-41023D01*
X-48057Y-40579D01*
X-48224Y-40190D01*
X-48335Y-39912D01*
X-48446Y-39634D01*
Y-39468D01*
X-48501Y-39357D01*
Y-39301D01*
X-48557Y-38857D01*
X-48501Y-38579D01*
X-48446Y-38357D01*
X-48390Y-38301D01*
X-48112Y-38190D01*
X-47835Y-38135D01*
X-47613D01*
X-47557D01*
X-47501D01*
X-47001Y-38190D01*
X-46613Y-38246D01*
X-46335Y-38301D01*
X-46224Y-38357D01*
X-45890Y-38579D01*
X-45835Y-38635D01*
X-45779D01*
X-45613D01*
X-45557D01*
X-45502D01*
X-45557Y-38468D01*
X-45668Y-38190D01*
X-45779Y-37912D01*
X-46002Y-37579D01*
X-46168Y-37246D01*
X-46279Y-36968D01*
X-46390Y-36746D01*
X-46446Y-36690D01*
X-46779Y-36079D01*
X-47057Y-35635D01*
X-47279Y-35190D01*
X-47501Y-34913D01*
X-47613Y-34690D01*
X-47724Y-34524D01*
X-47835Y-34468D01*
Y-34413D01*
X-48168Y-33968D01*
X-48557Y-33579D01*
X-48779Y-33357D01*
X-48890Y-33246D01*
X-49279Y-32913D01*
X-49501Y-32746D01*
X-49668Y-32691D01*
X-49723D01*
Y-32746D01*
X-49779Y-32968D01*
Y-33191D01*
X-49834Y-33524D01*
X-49890Y-33913D01*
Y-34746D01*
X-49946Y-35135D01*
X-50001Y-35413D01*
Y-35635D01*
X-50057Y-35801D01*
X-50112Y-35968D01*
Y-36024D01*
X-50279Y-36302D01*
X-50501Y-36413D01*
X-50668Y-36468D01*
X-50723D01*
X-51057Y-36413D01*
X-51223Y-36357D01*
X-51334Y-36246D01*
Y-36190D01*
X-51445Y-35913D01*
X-51501Y-35524D01*
X-51445Y-35246D01*
Y-34746D01*
X-51390Y-34302D01*
X-51334Y-33968D01*
Y-30858D01*
X-51390Y-30524D01*
Y-29969D01*
X-51445Y-29802D01*
Y-29691D01*
X-51501Y-29191D01*
X-51612Y-28802D01*
X-51723Y-28469D01*
X-51779Y-28413D01*
Y-28358D01*
X-51945Y-27802D01*
X-52168Y-27247D01*
X-52334Y-26802D01*
X-52556Y-26469D01*
X-52667Y-26136D01*
X-52834Y-25914D01*
X-52890Y-25803D01*
X-52945Y-25747D01*
X-53612Y-25136D01*
X-54278Y-24636D01*
X-54556Y-24469D01*
X-54778Y-24358D01*
X-54945Y-24247D01*
X-55001D01*
X-55723Y-23969D01*
X-56500Y-23803D01*
X-57278Y-23692D01*
X-57945Y-23636D01*
X-58556D01*
X-59056D01*
X-59389Y-23692D01*
X-59445D01*
X-59500D01*
X-60500Y-23858D01*
X-61500Y-24081D01*
X-62500Y-24358D01*
X-63444Y-24636D01*
X-64222Y-24914D01*
X-64833Y-25192D01*
X-65055Y-25303D01*
X-65222Y-25358D01*
X-65333Y-25414D01*
X-65388D01*
X-66111Y-25691D01*
X-66833Y-26025D01*
X-67111Y-26136D01*
X-67333Y-26247D01*
X-67499Y-26302D01*
X-67555D01*
X-68444Y-26691D01*
X-69221Y-27025D01*
X-69555Y-27136D01*
X-69777Y-27247D01*
X-69943Y-27302D01*
X-69999D01*
X-70832Y-27636D01*
X-71666Y-27969D01*
X-72388Y-28247D01*
X-73054Y-28469D01*
X-73554Y-28691D01*
X-73999Y-28858D01*
X-74221Y-28913D01*
X-74332Y-28969D01*
X-74998Y-29247D01*
X-75498Y-29413D01*
X-75887Y-29580D01*
X-76165Y-29636D01*
X-76332Y-29691D01*
X-76443Y-29747D01*
X-76498D01*
X-76776D01*
X-76943Y-29636D01*
X-77109Y-29580D01*
X-77165Y-29469D01*
X-77221Y-29247D01*
Y-29135D01*
X-77165Y-28913D01*
X-77109Y-28747D01*
X-76832Y-28358D01*
X-76498Y-28136D01*
X-76443Y-28024D01*
X-76387D01*
X-75887Y-27691D01*
X-75498Y-27302D01*
X-75165Y-26969D01*
X-74887Y-26636D01*
X-74665Y-26358D01*
X-74499Y-26136D01*
X-74443Y-25969D01*
X-74387Y-25914D01*
X-74165Y-25414D01*
X-74054Y-24858D01*
X-73943Y-24358D01*
X-73888Y-23914D01*
X-73832Y-23525D01*
Y-22914D01*
X-73943Y-22303D01*
X-74054Y-21692D01*
X-74110Y-21470D01*
Y-21303D01*
X-74165Y-21192D01*
Y-21136D01*
X-74276Y-20803D01*
X-74332Y-20581D01*
X-74387Y-20359D01*
X-74499Y-20192D01*
X-74554Y-20025D01*
X-74610Y-19970D01*
D02*
G37*
G36*
X-83831Y-33579D02*
X-84053Y-33857D01*
X-84220Y-34024D01*
X-84275Y-34135D01*
X-84331Y-34191D01*
X-84497Y-34413D01*
X-84720Y-34635D01*
X-84831Y-34857D01*
X-84886Y-34913D01*
X-85109Y-35190D01*
X-85331Y-35468D01*
X-85442Y-35635D01*
X-85497Y-35690D01*
X-85775Y-36079D01*
X-85997Y-36357D01*
X-86109Y-36524D01*
X-86164Y-36579D01*
X-85942Y-36913D01*
X-85720Y-37135D01*
X-85664Y-37301D01*
X-85609Y-37357D01*
X-85331Y-37801D01*
X-85109Y-38246D01*
X-84942Y-38635D01*
X-84886Y-38690D01*
Y-38746D01*
X-84720Y-39357D01*
X-84609Y-39801D01*
X-84553Y-40023D01*
Y-40523D01*
X-84331Y-40301D01*
X-84109Y-40134D01*
X-84053Y-40023D01*
X-83998Y-39968D01*
X-83831Y-39801D01*
X-83664Y-39634D01*
X-83498Y-39468D01*
X-83442Y-39412D01*
X-83275Y-39190D01*
X-83109Y-39023D01*
X-83053Y-38912D01*
X-82998Y-38857D01*
X-82887Y-38635D01*
X-82775Y-38468D01*
X-82720Y-38357D01*
X-82664Y-38301D01*
X-82553Y-38079D01*
X-82498Y-37912D01*
Y-37801D01*
X-82609Y-37246D01*
X-82664Y-36690D01*
X-82720Y-36524D01*
X-82775Y-36357D01*
Y-36190D01*
X-82942Y-35579D01*
X-83164Y-35079D01*
X-83275Y-34690D01*
X-83331Y-34635D01*
Y-34579D01*
X-83553Y-34135D01*
X-83664Y-33802D01*
X-83775Y-33635D01*
X-83831Y-33579D01*
D02*
G37*
G36*
X-86497Y-37468D02*
X-86553D01*
X-86608Y-37524D01*
X-86720Y-37635D01*
X-86831Y-37801D01*
X-86886Y-38024D01*
X-86942Y-38079D01*
X-87108Y-38523D01*
X-87275Y-39079D01*
X-87553Y-40190D01*
X-87608Y-40690D01*
X-87719Y-41079D01*
X-87775Y-41357D01*
Y-41468D01*
X-87942Y-42245D01*
X-87997Y-42801D01*
X-88053Y-43245D01*
Y-43523D01*
X-87997Y-43690D01*
Y-43745D01*
X-87942Y-43801D01*
X-87886Y-43745D01*
X-87719Y-43634D01*
X-87553Y-43467D01*
X-87497Y-43412D01*
X-87164Y-43078D01*
X-86886Y-42801D01*
X-86664Y-42579D01*
X-86553Y-42467D01*
X-86220Y-42134D01*
X-85942Y-41856D01*
X-85720Y-41579D01*
X-85553Y-41412D01*
X-85386Y-41134D01*
X-85331Y-41079D01*
X-85275Y-40912D01*
Y-40190D01*
X-85331Y-39912D01*
Y-39579D01*
X-85497Y-39135D01*
X-85664Y-38746D01*
X-85775Y-38468D01*
X-85831Y-38412D01*
Y-38357D01*
X-86053Y-37968D01*
X-86220Y-37690D01*
X-86331Y-37579D01*
X-86386Y-37524D01*
X-86497Y-37468D01*
D02*
G37*
G36*
X-80220Y-38746D02*
X-80331D01*
X-80442D01*
X-80554Y-38801D01*
X-80665Y-38912D01*
X-80942Y-39190D01*
X-81220Y-39468D01*
X-81276Y-39523D01*
X-81331Y-39579D01*
X-81720Y-39968D01*
X-82053Y-40190D01*
X-82220Y-40357D01*
X-82276Y-40412D01*
X-81998Y-40745D01*
X-81831Y-40968D01*
X-81720Y-41079D01*
X-81664Y-41134D01*
X-81220Y-41690D01*
X-80887Y-42190D01*
X-80776Y-42412D01*
X-80665Y-42523D01*
X-80609Y-42634D01*
Y-42690D01*
X-80387Y-43356D01*
X-80220Y-43967D01*
Y-44190D01*
X-80165Y-44356D01*
Y-44856D01*
X-80109Y-45078D01*
X-80054Y-45189D01*
Y-45523D01*
X-79998Y-45578D01*
X-79942Y-45523D01*
X-79831Y-45467D01*
X-79720Y-45356D01*
X-79665Y-45300D01*
X-79331Y-45023D01*
X-79165Y-44912D01*
X-79109Y-44856D01*
X-78832Y-44578D01*
X-78609Y-44356D01*
X-78498Y-44245D01*
X-78443Y-44190D01*
X-78387Y-43579D01*
X-78331Y-43190D01*
Y-42301D01*
X-78387Y-41856D01*
Y-41412D01*
X-78498Y-41023D01*
X-78554Y-40745D01*
X-78609Y-40523D01*
X-78665Y-40412D01*
Y-40357D01*
X-78832Y-39968D01*
X-79054Y-39634D01*
X-79276Y-39412D01*
X-79498Y-39190D01*
X-79831Y-38912D01*
X-79942Y-38857D01*
X-79998D01*
X-80220Y-38746D01*
D02*
G37*
G36*
X-82775Y-41134D02*
X-83053Y-41523D01*
X-83275Y-41856D01*
X-83386Y-42023D01*
X-83442Y-42079D01*
X-83664Y-42412D01*
X-83831Y-42690D01*
X-83942Y-42912D01*
X-83998Y-43023D01*
X-84220Y-43412D01*
X-84386Y-43690D01*
X-84442Y-43856D01*
X-84497Y-43912D01*
X-84664Y-44245D01*
X-84775Y-44523D01*
X-84886Y-44634D01*
Y-44689D01*
X-84664Y-44912D01*
X-84497Y-45023D01*
X-84442Y-45134D01*
X-84386D01*
X-84164Y-45467D01*
X-83942Y-45800D01*
X-83775Y-46078D01*
X-83720Y-46134D01*
Y-46189D01*
X-83498Y-46689D01*
X-83386Y-47023D01*
X-83331Y-47245D01*
Y-47523D01*
X-83220Y-47689D01*
X-83164Y-47745D01*
X-83053Y-47800D01*
X-82942D01*
X-82887Y-47745D01*
X-82831D01*
X-82609Y-47578D01*
X-82276Y-47300D01*
X-81998Y-47134D01*
X-81942Y-47023D01*
X-81887D01*
X-81387Y-46689D01*
X-81053Y-46411D01*
X-80831Y-46245D01*
X-80776Y-46189D01*
Y-45245D01*
X-80831Y-44467D01*
X-80998Y-43801D01*
X-81053Y-43523D01*
X-81109Y-43356D01*
X-81165Y-43245D01*
Y-43190D01*
X-81498Y-42579D01*
X-81887Y-42079D01*
X-82164Y-41745D01*
X-82220Y-41690D01*
X-82276Y-41634D01*
X-82498Y-41412D01*
X-82664Y-41245D01*
X-82720Y-41190D01*
X-82775Y-41134D01*
D02*
G37*
G36*
X-46557Y-39912D02*
X-46613Y-39968D01*
Y-40079D01*
X-46557Y-40190D01*
X-46390Y-40523D01*
X-46335Y-40579D01*
Y-40634D01*
X-46224Y-40801D01*
X-46057Y-41079D01*
X-46002Y-41245D01*
X-45946Y-41357D01*
X-45779Y-41745D01*
X-45613Y-42134D01*
X-45502Y-42356D01*
X-45446Y-42467D01*
X-45224Y-42967D01*
X-45057Y-43356D01*
X-45002Y-43579D01*
X-44946Y-43634D01*
X-44335Y-43967D01*
X-43780Y-44190D01*
X-43335Y-44412D01*
X-42946Y-44634D01*
X-42668Y-44745D01*
X-42446Y-44856D01*
X-42335Y-44912D01*
X-42280D01*
X-41335Y-45356D01*
X-40391Y-45800D01*
X-39613Y-46189D01*
X-38891Y-46523D01*
X-38336Y-46856D01*
X-37891Y-47078D01*
X-37613Y-47245D01*
X-37502Y-47300D01*
X-36780Y-47745D01*
X-36114Y-48134D01*
X-35558Y-48467D01*
X-35114Y-48800D01*
X-34725Y-49078D01*
X-34447Y-49245D01*
X-34281Y-49356D01*
X-34225Y-49411D01*
X-33947Y-49633D01*
X-33892Y-49745D01*
X-33836D01*
X-33725Y-49800D01*
X-33670D01*
X-33614D01*
X-33558Y-49745D01*
Y-49411D01*
X-33503Y-49134D01*
X-33447Y-48856D01*
Y-47189D01*
X-33892Y-46800D01*
X-34225Y-46523D01*
X-34447Y-46411D01*
X-34503Y-46356D01*
X-34947Y-45967D01*
X-35336Y-45634D01*
X-35614Y-45412D01*
X-35669Y-45300D01*
X-35725D01*
X-36003Y-45134D01*
X-36391Y-44967D01*
X-37114Y-44578D01*
X-37447Y-44412D01*
X-37725Y-44245D01*
X-37891Y-44190D01*
X-37947Y-44134D01*
X-38780Y-43745D01*
X-39613Y-43356D01*
X-39891Y-43245D01*
X-40169Y-43134D01*
X-40335Y-43023D01*
X-40391D01*
X-41280Y-42634D01*
X-41669Y-42523D01*
X-42002Y-42356D01*
X-42280Y-42245D01*
X-42446Y-42190D01*
X-42557Y-42134D01*
X-42613D01*
X-43280Y-41856D01*
X-43780Y-41634D01*
X-44002Y-41579D01*
X-44168Y-41523D01*
X-44224Y-41468D01*
X-44279D01*
X-44668Y-41245D01*
X-44946Y-41079D01*
X-45057Y-41023D01*
X-45113Y-40968D01*
X-45502Y-40634D01*
X-45835Y-40412D01*
X-46057Y-40245D01*
X-46168Y-40190D01*
X-46446Y-39968D01*
X-46557Y-39912D01*
D02*
G37*
G36*
X-85053Y-45412D02*
X-85109D01*
X-85164Y-45467D01*
X-85220Y-45523D01*
X-85275Y-45578D01*
Y-45634D01*
X-85331Y-45800D01*
X-85386Y-46023D01*
X-85442Y-46189D01*
Y-46245D01*
X-85664Y-46912D01*
X-85775Y-47523D01*
Y-47800D01*
X-85831Y-48022D01*
Y-48245D01*
X-85886Y-48633D01*
Y-48967D01*
X-85942Y-49189D01*
Y-49411D01*
X-85886Y-49689D01*
Y-49745D01*
X-85831Y-50078D01*
X-85775Y-50133D01*
Y-50189D01*
X-85331Y-49800D01*
X-85053Y-49578D01*
X-84886Y-49411D01*
X-84831Y-49356D01*
X-84553Y-49134D01*
X-84331Y-48911D01*
X-84164Y-48745D01*
X-84109Y-48689D01*
X-83942Y-48578D01*
X-83831Y-48467D01*
X-83775Y-48411D01*
X-83886Y-47800D01*
X-84053Y-47245D01*
X-84164Y-46967D01*
X-84275Y-46745D01*
X-84331Y-46634D01*
Y-46578D01*
X-84553Y-46189D01*
X-84664Y-45912D01*
X-84831Y-45689D01*
X-84942Y-45578D01*
X-85053Y-45412D01*
D02*
G37*
G36*
X-53390Y-43523D02*
X-53834Y-43801D01*
X-54112Y-43967D01*
X-54278Y-44078D01*
X-54334Y-44134D01*
X-55612Y-44912D01*
X-56223Y-45245D01*
X-56778Y-45523D01*
X-57278Y-45745D01*
X-57667Y-45912D01*
X-57889Y-45967D01*
X-58000Y-46023D01*
X-58778Y-46300D01*
X-59445Y-46578D01*
X-60111Y-46745D01*
X-60667Y-46912D01*
X-61111Y-47023D01*
X-61500Y-47078D01*
X-61722Y-47134D01*
X-61778D01*
X-62167Y-47189D01*
X-62444Y-47245D01*
X-62667Y-47300D01*
X-62722D01*
X-62944Y-47356D01*
X-63055D01*
X-63111D01*
Y-47467D01*
X-63055Y-47578D01*
X-63000Y-47634D01*
X-62944Y-47689D01*
X-62667Y-48078D01*
X-62555Y-48189D01*
X-62500Y-48245D01*
X-61944Y-48911D01*
X-61500Y-49578D01*
X-61333Y-49911D01*
X-61167Y-50133D01*
X-61111Y-50300D01*
X-61055Y-50356D01*
X-60667Y-51300D01*
X-60500Y-51744D01*
X-60389Y-52133D01*
X-60333Y-52466D01*
X-60278Y-52689D01*
X-60222Y-52855D01*
Y-52911D01*
X-60111Y-53411D01*
X-60000Y-53966D01*
X-59945Y-54188D01*
Y-54355D01*
X-59889Y-54466D01*
Y-54522D01*
X-59833Y-55355D01*
X-59778Y-56077D01*
X-59722Y-56410D01*
Y-56855D01*
X-59667Y-57688D01*
Y-58466D01*
X-59611Y-59132D01*
X-59556Y-59743D01*
X-59500Y-60243D01*
X-59445Y-60577D01*
X-59389Y-60855D01*
Y-60910D01*
X-59167Y-62243D01*
X-59056Y-62854D01*
X-59000Y-63410D01*
X-58889Y-63910D01*
X-58778Y-64243D01*
X-58722Y-64521D01*
Y-64576D01*
X-58445Y-65521D01*
X-58167Y-66465D01*
X-57834Y-67243D01*
X-57556Y-67965D01*
X-57334Y-68520D01*
X-57112Y-68965D01*
X-57000Y-69187D01*
X-56945Y-69298D01*
X-56556Y-70020D01*
X-56167Y-70687D01*
X-55778Y-71298D01*
X-55389Y-71742D01*
X-55112Y-72131D01*
X-54834Y-72464D01*
X-54667Y-72631D01*
X-54612Y-72687D01*
X-54056Y-73186D01*
X-53501Y-73631D01*
X-53001Y-73964D01*
X-52556Y-74186D01*
X-52168Y-74353D01*
X-51890Y-74520D01*
X-51668Y-74575D01*
X-51612D01*
X-51279Y-74631D01*
X-50946Y-74686D01*
X-50112Y-74798D01*
X-49223Y-74853D01*
X-48279Y-74909D01*
X-47446D01*
X-47057D01*
X-46724D01*
X-46446D01*
X-46224D01*
X-46113D01*
X-46057D01*
X-45057Y-74853D01*
X-44168Y-74798D01*
X-43335Y-74742D01*
X-42613Y-74686D01*
X-42002Y-74631D01*
X-41557Y-74575D01*
X-41280Y-74520D01*
X-41169D01*
X-39613Y-74297D01*
X-38947Y-74131D01*
X-38280Y-74020D01*
X-37780Y-73853D01*
X-37336Y-73798D01*
X-37114Y-73686D01*
X-37002D01*
X-36169Y-73464D01*
X-35447Y-73186D01*
X-35114Y-73075D01*
X-34892Y-73020D01*
X-34780Y-72909D01*
X-34725D01*
X-34392Y-72742D01*
X-34114Y-72575D01*
X-33892Y-72464D01*
X-33781Y-72353D01*
X-33614Y-72187D01*
Y-72076D01*
X-33558Y-71964D01*
Y-71353D01*
X-33503Y-70853D01*
X-33447Y-70353D01*
Y-67798D01*
X-34225D01*
X-34836Y-67743D01*
X-35391D01*
X-35836D01*
X-36169D01*
X-36447D01*
X-36558D01*
X-36614D01*
X-37447Y-67687D01*
X-38169D01*
X-38780Y-67632D01*
X-39336D01*
X-39836D01*
X-40280Y-67576D01*
X-40669D01*
X-40946Y-67520D01*
X-41446D01*
X-41724Y-67465D01*
X-41835D01*
X-41891D01*
X-42335Y-67354D01*
X-42613Y-67243D01*
X-42724Y-67076D01*
X-42780Y-67021D01*
Y-66854D01*
X-42724Y-66687D01*
X-42668Y-66576D01*
Y-66521D01*
X-42557Y-66132D01*
X-42502Y-65965D01*
X-42446Y-65910D01*
X-42224Y-65409D01*
X-42057Y-64798D01*
X-41891Y-64132D01*
X-41780Y-63521D01*
X-41669Y-62965D01*
X-41613Y-62521D01*
X-41557Y-62243D01*
Y-60521D01*
X-41613Y-59855D01*
X-41669Y-59299D01*
X-41724Y-58855D01*
X-41780Y-58521D01*
X-41835Y-58299D01*
Y-58244D01*
X-42057Y-57522D01*
X-42335Y-56910D01*
X-42446Y-56688D01*
X-42557Y-56522D01*
X-42613Y-56410D01*
Y-56355D01*
X-43002Y-55688D01*
X-43391Y-55244D01*
X-43613Y-54911D01*
X-43724Y-54855D01*
Y-54799D01*
X-44113Y-54300D01*
X-44335Y-53966D01*
X-44446Y-53744D01*
Y-53689D01*
X-44391Y-53355D01*
X-44224Y-53133D01*
X-44057Y-53022D01*
X-44002Y-52966D01*
X-43724Y-52911D01*
X-43668D01*
X-43613D01*
X-43335Y-52966D01*
X-43280Y-53022D01*
X-43224D01*
X-42891Y-53355D01*
X-42502Y-53744D01*
X-42224Y-54077D01*
X-42169Y-54188D01*
X-42113Y-54244D01*
X-41724Y-54855D01*
X-41391Y-55355D01*
X-41335Y-55577D01*
X-41224Y-55744D01*
X-41169Y-55855D01*
Y-55911D01*
X-41002Y-56299D01*
X-40835Y-56633D01*
X-40780Y-56799D01*
X-40724Y-56855D01*
X-40058D01*
X-39447D01*
X-39225D01*
X-39058D01*
X-38947D01*
X-38891D01*
X-38280D01*
X-37669D01*
X-37447D01*
X-37225D01*
X-37114D01*
X-37058D01*
X-36225D01*
X-35503D01*
X-34892D01*
X-34392D01*
X-34003D01*
X-33670D01*
X-33503D01*
X-33447D01*
Y-52022D01*
X-33781Y-51689D01*
X-34003Y-51466D01*
X-34114Y-51355D01*
X-34169Y-51300D01*
X-34503Y-50967D01*
X-34947Y-50633D01*
X-35891Y-49967D01*
X-36336Y-49689D01*
X-36669Y-49467D01*
X-36891Y-49300D01*
X-37002Y-49245D01*
X-37836Y-48800D01*
X-38669Y-48300D01*
X-39502Y-47856D01*
X-40280Y-47467D01*
X-40946Y-47134D01*
X-41502Y-46856D01*
X-41724Y-46745D01*
X-41891Y-46689D01*
X-41946Y-46634D01*
X-42002D01*
X-42724Y-46300D01*
X-43280Y-46078D01*
X-43724Y-45912D01*
X-44057Y-45800D01*
X-44224Y-45689D01*
X-44391Y-45634D01*
X-44446D01*
X-44557Y-45689D01*
X-44613Y-45745D01*
X-44724Y-46023D01*
X-44835Y-46245D01*
Y-46356D01*
X-44890Y-46800D01*
X-45002Y-47189D01*
X-45057Y-47411D01*
X-45113Y-47523D01*
X-45335Y-47745D01*
X-45502Y-47856D01*
X-45613Y-47911D01*
X-45668D01*
X-45835D01*
X-46002Y-47856D01*
X-46168Y-47800D01*
X-46224Y-47745D01*
X-46501Y-47578D01*
X-46724Y-47411D01*
X-46890Y-47245D01*
X-46946Y-47189D01*
X-47446Y-46856D01*
X-47890Y-46634D01*
X-48168Y-46411D01*
X-48279Y-46356D01*
X-48557Y-46189D01*
X-48946Y-46023D01*
X-49723Y-45689D01*
X-50112Y-45523D01*
X-50445Y-45356D01*
X-50668Y-45300D01*
X-50723Y-45245D01*
X-51057Y-45078D01*
X-51390Y-44912D01*
X-51668Y-44745D01*
X-51779Y-44689D01*
X-52168Y-44467D01*
X-52390Y-44301D01*
X-52556Y-44190D01*
X-52612Y-44134D01*
X-52945Y-43856D01*
X-53223Y-43690D01*
X-53334Y-43579D01*
X-53390Y-43523D01*
D02*
G37*
G36*
X-39780Y-63299D02*
X-39836D01*
X-39947Y-63354D01*
X-40002Y-63465D01*
X-40058Y-63576D01*
Y-63632D01*
X-40169Y-63854D01*
X-40280Y-64132D01*
X-40391Y-64354D01*
Y-64465D01*
X-40502Y-64798D01*
X-40558Y-65076D01*
X-40613Y-65298D01*
Y-65354D01*
X-40669Y-65576D01*
X-40724Y-65743D01*
Y-65854D01*
X-40669D01*
X-40391Y-65910D01*
X-40169Y-65965D01*
X-40113D01*
X-40058D01*
X-39780Y-66021D01*
X-39447D01*
X-38669Y-66076D01*
X-38336D01*
X-38058D01*
X-37836D01*
X-37780D01*
X-36947Y-66132D01*
X-36225D01*
X-35891D01*
X-35669D01*
X-35558D01*
X-35503D01*
X-35114Y-66187D01*
X-34836D01*
X-34614Y-66243D01*
X-34447D01*
X-34225D01*
X-34169D01*
X-33836Y-66298D01*
X-33614D01*
X-33503D01*
X-33447D01*
Y-65132D01*
X-33503Y-64965D01*
X-33558Y-64854D01*
Y-64798D01*
X-33614Y-64576D01*
X-33670Y-64465D01*
X-33725D01*
X-33892Y-64410D01*
X-34281Y-64354D01*
X-34780Y-64243D01*
X-35336Y-64132D01*
X-35891Y-64021D01*
X-36336Y-63965D01*
X-36669Y-63854D01*
X-36725D01*
X-36780D01*
X-37280Y-63743D01*
X-37725Y-63688D01*
X-38114Y-63576D01*
X-38502Y-63521D01*
X-39002Y-63410D01*
X-39391Y-63354D01*
X-39613D01*
X-39780Y-63299D01*
D02*
G37*
G36*
X-52056Y-76075D02*
X-52223D01*
X-52279D01*
X-52334D01*
Y-76186D01*
X-52279Y-76353D01*
X-52223Y-76519D01*
Y-77020D01*
X-52168Y-77242D01*
Y-79797D01*
X-51945Y-79686D01*
X-51723Y-79630D01*
X-51668Y-79575D01*
X-51612D01*
X-51057Y-79297D01*
X-50501Y-79019D01*
X-50334Y-78908D01*
X-50168Y-78797D01*
X-50057Y-78741D01*
X-50001Y-78686D01*
X-49501Y-78297D01*
X-49168Y-77908D01*
X-48946Y-77686D01*
X-48890Y-77575D01*
X-48612Y-77242D01*
X-48557Y-77131D01*
X-48501Y-77075D01*
X-48446Y-76908D01*
X-48390Y-76797D01*
Y-76686D01*
X-48446Y-76631D01*
X-48612D01*
X-48779Y-76575D01*
X-48835D01*
X-49223Y-76519D01*
X-49612Y-76464D01*
X-49946Y-76408D01*
X-50057D01*
X-50112D01*
X-50612Y-76353D01*
X-51057Y-76297D01*
X-51334Y-76242D01*
X-51445D01*
X-51779Y-76186D01*
X-51945Y-76131D01*
X-52056Y-76075D01*
D02*
G37*
%LPD*%
G36*
X-67944Y-27302D02*
X-67722Y-27358D01*
X-67333Y-27580D01*
X-67111Y-27802D01*
X-67055Y-27913D01*
X-66944Y-28247D01*
X-66888Y-28524D01*
Y-28802D01*
X-66999Y-29080D01*
X-67166Y-29302D01*
X-67333Y-29469D01*
X-67388Y-29524D01*
X-67666Y-29747D01*
X-67944Y-29858D01*
X-68166Y-29913D01*
X-68222D01*
X-68555Y-29858D01*
X-68833Y-29747D01*
X-69055Y-29636D01*
X-69110Y-29580D01*
X-69332Y-29358D01*
X-69499Y-29080D01*
X-69555Y-28913D01*
Y-28802D01*
X-69610Y-28524D01*
X-69555Y-28247D01*
X-69499Y-28080D01*
X-69443Y-28024D01*
X-69277Y-27802D01*
X-69055Y-27580D01*
X-68666Y-27358D01*
X-68333Y-27247D01*
X-68277D01*
X-68222D01*
X-67944Y-27302D01*
D02*
G37*
G36*
X-57334Y-26580D02*
X-57278Y-26636D01*
X-57223Y-26691D01*
X-57167Y-26747D01*
X-57112Y-26858D01*
X-57056Y-26913D01*
Y-26969D01*
X-56889Y-27469D01*
X-56667Y-27913D01*
X-56445Y-28247D01*
X-56389Y-28302D01*
Y-28358D01*
X-56000Y-28802D01*
X-55612Y-29080D01*
X-55389Y-29247D01*
X-55278Y-29302D01*
X-55001Y-29413D01*
X-54889Y-29524D01*
X-54834D01*
X-54723Y-29580D01*
X-54667Y-29636D01*
X-54612Y-29691D01*
X-54501Y-29747D01*
Y-29969D01*
X-54612Y-30135D01*
X-54723Y-30191D01*
X-54834Y-30247D01*
X-55056D01*
X-55334Y-30135D01*
X-55778Y-29913D01*
X-56167Y-29691D01*
X-56223Y-29636D01*
X-56278Y-29580D01*
X-56723Y-29080D01*
X-57056Y-28580D01*
X-57167Y-28413D01*
X-57278Y-28247D01*
X-57334Y-28136D01*
Y-28080D01*
X-57611Y-27580D01*
X-57723Y-27191D01*
X-57778Y-26969D01*
Y-26913D01*
X-57723Y-26691D01*
X-57611Y-26580D01*
X-57500Y-26525D01*
X-57445D01*
X-57334Y-26580D01*
D02*
G37*
G36*
X-53945Y-32357D02*
X-53890Y-32413D01*
X-53834Y-32524D01*
X-53945Y-32691D01*
X-54056Y-32857D01*
X-54167Y-32968D01*
X-54223Y-33024D01*
X-54612Y-33413D01*
X-54834Y-33802D01*
X-55001Y-34135D01*
X-55056Y-34191D01*
Y-34246D01*
X-55278Y-34857D01*
X-55334Y-35413D01*
X-55389Y-35635D01*
Y-36246D01*
X-55445Y-36468D01*
Y-36635D01*
X-55500Y-36746D01*
X-55612Y-36801D01*
X-55667D01*
X-55723D01*
X-55834Y-36746D01*
X-55945Y-36635D01*
X-56056Y-36357D01*
X-56112Y-36024D01*
Y-35857D01*
X-56056Y-35079D01*
X-55945Y-34468D01*
X-55834Y-34191D01*
X-55778Y-34024D01*
X-55723Y-33913D01*
Y-33857D01*
X-55445Y-33413D01*
X-55167Y-33024D01*
X-54945Y-32802D01*
X-54834Y-32691D01*
X-54667Y-32524D01*
X-54501Y-32413D01*
X-54223Y-32302D01*
X-54112D01*
X-54056D01*
X-53945Y-32357D01*
D02*
G37*
G36*
X-66388Y-39746D02*
X-66222Y-39912D01*
X-66111Y-39968D01*
X-65944Y-40134D01*
X-65833Y-40301D01*
X-65722Y-40579D01*
Y-40912D01*
X-65777Y-41245D01*
X-65944Y-41579D01*
X-66111Y-41801D01*
X-66166Y-41856D01*
X-66499Y-42023D01*
X-66610Y-42079D01*
X-66666D01*
X-66833Y-42190D01*
X-66944Y-42245D01*
X-67055D01*
X-67333Y-42190D01*
X-67666Y-42023D01*
X-67888Y-41801D01*
X-67944Y-41745D01*
X-68222Y-41412D01*
X-68333Y-41190D01*
X-68388Y-40968D01*
Y-40745D01*
X-68333Y-40579D01*
X-68277Y-40468D01*
X-68222Y-40412D01*
X-68166Y-40245D01*
X-68055Y-40134D01*
X-67999Y-40023D01*
X-67944Y-39968D01*
X-67610Y-39746D01*
X-67277Y-39634D01*
X-67055Y-39579D01*
X-66999D01*
X-66833D01*
X-66722D01*
X-66388Y-39746D01*
D02*
G37*
%LPC*%
G36*
X-68166Y-28469D02*
X-68222D01*
X-68333D01*
X-68388Y-28580D01*
Y-28691D01*
X-68333Y-28747D01*
X-68277Y-28802D01*
X-68222D01*
X-68166D01*
Y-28747D01*
X-68110Y-28636D01*
X-68166Y-28524D01*
Y-28469D01*
D02*
G37*
G36*
X-67055Y-40634D02*
X-67166Y-40745D01*
X-67222D01*
Y-40912D01*
X-67166Y-41023D01*
X-67111Y-41079D01*
X-67055D01*
X-66999D01*
X-66944Y-41023D01*
X-66888Y-40968D01*
Y-40801D01*
X-66944Y-40745D01*
X-66999D01*
X-67055Y-40634D01*
D02*
G37*
%LPD*%
D30*
X-310500Y-12700D02*
D03*
X-335900D02*
D03*
X-310500Y12700D02*
D03*
X-335900D02*
D03*
X-310500Y63500D02*
D03*
X-335900Y38100D02*
D03*
X-310500D02*
D03*
X-335900Y-38100D02*
D03*
Y-63500D02*
D03*
X-310500Y-38100D02*
D03*
Y-63500D02*
D03*
D31*
X-335900Y63500D02*
D03*
M02*
