G04*
G04 #@! TF.GenerationSoftware,Altium Limited,Altium Designer,22.4.2 (48)*
G04*
G04 Layer_Physical_Order=2*
G04 Layer_Color=36540*
%FSLAX44Y44*%
%MOMM*%
G71*
G04*
G04 #@! TF.SameCoordinates,1FDE6782-7AC4-437E-A2E8-A07863582D05*
G04*
G04*
G04 #@! TF.FilePolarity,Positive*
G04*
G01*
G75*
%ADD28C,1.5000*%
G04:AMPARAMS|DCode=29|XSize=1.5mm|YSize=1.5mm|CornerRadius=0.375mm|HoleSize=0mm|Usage=FLASHONLY|Rotation=270.000|XOffset=0mm|YOffset=0mm|HoleType=Round|Shape=RoundedRectangle|*
%AMROUNDEDRECTD29*
21,1,1.5000,0.7500,0,0,270.0*
21,1,0.7500,1.5000,0,0,270.0*
1,1,0.7500,-0.3750,-0.3750*
1,1,0.7500,-0.3750,0.3750*
1,1,0.7500,0.3750,0.3750*
1,1,0.7500,0.3750,-0.3750*
%
%ADD29ROUNDEDRECTD29*%
%ADD31C,0.6000*%
G36*
X-63000Y68000D02*
X-58250Y63250D01*
X-58019Y15010D01*
X-39000Y5500D01*
X-37510Y-5500D01*
X-2549D01*
Y-85000D01*
Y-86719D01*
X-3219Y-90090D01*
X-4535Y-93266D01*
X-6445Y-96125D01*
X-8875Y-98555D01*
X-11734Y-100465D01*
X-14910Y-101781D01*
X-18281Y-102451D01*
X-341719D01*
X-345090Y-101781D01*
X-348266Y-100465D01*
X-351125Y-98555D01*
X-353555Y-96125D01*
X-355465Y-93266D01*
X-356781Y-90090D01*
X-357451Y-86719D01*
Y-85000D01*
Y-23750D01*
Y85000D01*
Y86719D01*
X-356781Y90090D01*
X-355465Y93266D01*
X-353555Y96125D01*
X-351125Y98555D01*
X-348266Y100465D01*
X-345090Y101781D01*
X-341474Y102500D01*
X-258431D01*
X-258185Y102451D01*
X-257200D01*
X-102800Y102451D01*
X-101815D01*
X-101569Y102500D01*
X-93304D01*
X-63000Y68000D01*
D02*
G37*
%LPC*%
G36*
X-252153Y91500D02*
X-253247D01*
X-254258Y91081D01*
X-255031Y90308D01*
X-255450Y89297D01*
Y88203D01*
X-255031Y87192D01*
X-254258Y86419D01*
X-253247Y86000D01*
X-252153D01*
X-251142Y86419D01*
X-250369Y87192D01*
X-249950Y88203D01*
Y89297D01*
X-250369Y90308D01*
X-251142Y91081D01*
X-252153Y91500D01*
D02*
G37*
G36*
X-274753D02*
X-275847D01*
X-276858Y91081D01*
X-277631Y90308D01*
X-278050Y89297D01*
Y88203D01*
X-277631Y87192D01*
X-276858Y86419D01*
X-275847Y86000D01*
X-274753D01*
X-273742Y86419D01*
X-272969Y87192D01*
X-272550Y88203D01*
Y89297D01*
X-272969Y90308D01*
X-273742Y91081D01*
X-274753Y91500D01*
D02*
G37*
G36*
X-102103Y89526D02*
X-103197D01*
X-104208Y89107D01*
X-104981Y88334D01*
X-105400Y87323D01*
Y86229D01*
X-104981Y85218D01*
X-104208Y84445D01*
X-103197Y84026D01*
X-102103D01*
X-101092Y84445D01*
X-100319Y85218D01*
X-99900Y86229D01*
Y87323D01*
X-100319Y88334D01*
X-101092Y89107D01*
X-102103Y89526D01*
D02*
G37*
G36*
X-179753Y86050D02*
X-180847D01*
X-181858Y85631D01*
X-182631Y84858D01*
X-183050Y83847D01*
Y82753D01*
X-182631Y81742D01*
X-181858Y80969D01*
X-180847Y80550D01*
X-179753D01*
X-178742Y80969D01*
X-177969Y81742D01*
X-177550Y82753D01*
Y83847D01*
X-177969Y84858D01*
X-178742Y85631D01*
X-179753Y86050D01*
D02*
G37*
G36*
X-189153D02*
X-190247D01*
X-191258Y85631D01*
X-192031Y84858D01*
X-192450Y83847D01*
Y82753D01*
X-192031Y81742D01*
X-191258Y80969D01*
X-190247Y80550D01*
X-189153D01*
X-188142Y80969D01*
X-187369Y81742D01*
X-186950Y82753D01*
Y83847D01*
X-187369Y84858D01*
X-188142Y85631D01*
X-189153Y86050D01*
D02*
G37*
G36*
X-252153Y79750D02*
X-253247D01*
X-254258Y79331D01*
X-255031Y78558D01*
X-255450Y77547D01*
Y76453D01*
X-255031Y75442D01*
X-254258Y74669D01*
X-253247Y74250D01*
X-252153D01*
X-251142Y74669D01*
X-250369Y75442D01*
X-249950Y76453D01*
Y77547D01*
X-250369Y78558D01*
X-251142Y79331D01*
X-252153Y79750D01*
D02*
G37*
G36*
X-274753D02*
X-275847D01*
X-276858Y79331D01*
X-277631Y78558D01*
X-278050Y77547D01*
Y76453D01*
X-277631Y75442D01*
X-276858Y74669D01*
X-275847Y74250D01*
X-274753D01*
X-273742Y74669D01*
X-272969Y75442D01*
X-272550Y76453D01*
Y77547D01*
X-272969Y78558D01*
X-273742Y79331D01*
X-274753Y79750D01*
D02*
G37*
G36*
X-125671Y70644D02*
X-126666D01*
X-127584Y70263D01*
X-128288Y69560D01*
X-128668Y68641D01*
Y67646D01*
X-128288Y66728D01*
X-127584Y66024D01*
X-126666Y65644D01*
X-125671D01*
X-124752Y66024D01*
X-124049Y66728D01*
X-123668Y67646D01*
Y68641D01*
X-124049Y69560D01*
X-124752Y70263D01*
X-125671Y70644D01*
D02*
G37*
G36*
X-311678Y73540D02*
X-311730D01*
Y64770D01*
X-302960D01*
Y64822D01*
X-303644Y67375D01*
X-304966Y69665D01*
X-306835Y71534D01*
X-309125Y72856D01*
X-311678Y73540D01*
D02*
G37*
G36*
X-334650Y73663D02*
X-337130D01*
Y64770D01*
X-328237D01*
Y67250D01*
X-328725Y69704D01*
X-330115Y71785D01*
X-332196Y73175D01*
X-334650Y73663D01*
D02*
G37*
G36*
X-314270Y73540D02*
X-314322D01*
X-316875Y72856D01*
X-319165Y71534D01*
X-321034Y69665D01*
X-322356Y67375D01*
X-323040Y64822D01*
Y64770D01*
X-314270D01*
Y73540D01*
D02*
G37*
G36*
X-339670Y73663D02*
X-342150D01*
X-344604Y73175D01*
X-346685Y71785D01*
X-348075Y69704D01*
X-348563Y67250D01*
Y64770D01*
X-339670D01*
Y73663D01*
D02*
G37*
G36*
X-252153Y68000D02*
X-253247D01*
X-254258Y67581D01*
X-255031Y66808D01*
X-255450Y65797D01*
Y64703D01*
X-255031Y63692D01*
X-254258Y62919D01*
X-253247Y62500D01*
X-252153D01*
X-251142Y62919D01*
X-250369Y63692D01*
X-249950Y64703D01*
Y65797D01*
X-250369Y66808D01*
X-251142Y67581D01*
X-252153Y68000D01*
D02*
G37*
G36*
X-274753D02*
X-275847D01*
X-276858Y67581D01*
X-277631Y66808D01*
X-278050Y65797D01*
Y64703D01*
X-277631Y63692D01*
X-276858Y62919D01*
X-275847Y62500D01*
X-274753D01*
X-273742Y62919D01*
X-272969Y63692D01*
X-272550Y64703D01*
Y65797D01*
X-272969Y66808D01*
X-273742Y67581D01*
X-274753Y68000D01*
D02*
G37*
G36*
X-100453Y67950D02*
X-101547D01*
X-102558Y67531D01*
X-103331Y66758D01*
X-103750Y65747D01*
Y64653D01*
X-103331Y63642D01*
X-102558Y62869D01*
X-101547Y62450D01*
X-100453D01*
X-99442Y62869D01*
X-98669Y63642D01*
X-98250Y64653D01*
Y65747D01*
X-98669Y66758D01*
X-99442Y67531D01*
X-100453Y67950D01*
D02*
G37*
G36*
X-119153Y66250D02*
X-120247D01*
X-121258Y65831D01*
X-122031Y65058D01*
X-122450Y64047D01*
Y62953D01*
X-122031Y61942D01*
X-121258Y61169D01*
X-120247Y60750D01*
X-119153D01*
X-118142Y61169D01*
X-117369Y61942D01*
X-116950Y62953D01*
Y64047D01*
X-117369Y65058D01*
X-118142Y65831D01*
X-119153Y66250D01*
D02*
G37*
G36*
X-302960Y62230D02*
X-311730D01*
Y53460D01*
X-311678D01*
X-309125Y54144D01*
X-306835Y55466D01*
X-304966Y57335D01*
X-303644Y59625D01*
X-302960Y62178D01*
Y62230D01*
D02*
G37*
G36*
X-314270D02*
X-323040D01*
Y62178D01*
X-322356Y59625D01*
X-321034Y57335D01*
X-319165Y55466D01*
X-316875Y54144D01*
X-314322Y53460D01*
X-314270D01*
Y62230D01*
D02*
G37*
G36*
X-328237D02*
X-337130D01*
Y53337D01*
X-334650D01*
X-332196Y53825D01*
X-330115Y55215D01*
X-328725Y57296D01*
X-328237Y59750D01*
Y62230D01*
D02*
G37*
G36*
X-339670D02*
X-348563D01*
Y59750D01*
X-348075Y57296D01*
X-346685Y55215D01*
X-344604Y53825D01*
X-342150Y53337D01*
X-339670D01*
Y62230D01*
D02*
G37*
G36*
X-68753Y56450D02*
X-69847D01*
X-70858Y56031D01*
X-71631Y55258D01*
X-72050Y54247D01*
Y53153D01*
X-71631Y52142D01*
X-70858Y51369D01*
X-69847Y50950D01*
X-68753D01*
X-67742Y51369D01*
X-66969Y52142D01*
X-66550Y53153D01*
Y54247D01*
X-66969Y55258D01*
X-67742Y56031D01*
X-68753Y56450D01*
D02*
G37*
G36*
X-119153Y47050D02*
X-120247D01*
X-121258Y46631D01*
X-122031Y45858D01*
X-122450Y44847D01*
Y43753D01*
X-122031Y42742D01*
X-121258Y41969D01*
X-120247Y41550D01*
X-119153D01*
X-118142Y41969D01*
X-117369Y42742D01*
X-116950Y43753D01*
Y44847D01*
X-117369Y45858D01*
X-118142Y46631D01*
X-119153Y47050D01*
D02*
G37*
G36*
X-68753Y37250D02*
X-69847D01*
X-70858Y36831D01*
X-71631Y36058D01*
X-72050Y35047D01*
Y34899D01*
X-72607Y34629D01*
X-73320Y34509D01*
X-73942Y35131D01*
X-74953Y35550D01*
X-76047D01*
X-77058Y35131D01*
X-77831Y34358D01*
X-78250Y33347D01*
Y32253D01*
X-77831Y31242D01*
X-77058Y30469D01*
X-76047Y30050D01*
X-74953D01*
X-73942Y30469D01*
X-73169Y31242D01*
X-72750Y32253D01*
Y32402D01*
X-72193Y32671D01*
X-71480Y32791D01*
X-70858Y32169D01*
X-69847Y31750D01*
X-68753D01*
X-67742Y32169D01*
X-66969Y32942D01*
X-66550Y33953D01*
Y35047D01*
X-66969Y36058D01*
X-67742Y36831D01*
X-68753Y37250D01*
D02*
G37*
G36*
X-311727Y44500D02*
X-314273D01*
X-316625Y43526D01*
X-318426Y41725D01*
X-319400Y39373D01*
Y36827D01*
X-318426Y34475D01*
X-316625Y32674D01*
X-314273Y31700D01*
X-311727D01*
X-309375Y32674D01*
X-307574Y34475D01*
X-306600Y36827D01*
Y39373D01*
X-307574Y41725D01*
X-309375Y43526D01*
X-311727Y44500D01*
D02*
G37*
G36*
X-337127D02*
X-339673D01*
X-342025Y43526D01*
X-343826Y41725D01*
X-344800Y39373D01*
Y36827D01*
X-343826Y34475D01*
X-342025Y32674D01*
X-339673Y31700D01*
X-337127D01*
X-334775Y32674D01*
X-332974Y34475D01*
X-332000Y36827D01*
Y39373D01*
X-332974Y41725D01*
X-334775Y43526D01*
X-337127Y44500D01*
D02*
G37*
G36*
X-144000Y67500D02*
X-162000D01*
X-174000Y57500D01*
Y40500D01*
X-162000Y31500D01*
X-144000D01*
X-134500Y40500D01*
Y58500D01*
X-144000Y67500D01*
D02*
G37*
G36*
X-68653Y29250D02*
X-69747D01*
X-70758Y28831D01*
X-71531Y28058D01*
X-71950Y27047D01*
Y25953D01*
X-71531Y24942D01*
X-70758Y24169D01*
X-69747Y23750D01*
X-68653D01*
X-67642Y24169D01*
X-66869Y24942D01*
X-66450Y25953D01*
Y27047D01*
X-66869Y28058D01*
X-67642Y28831D01*
X-68653Y29250D01*
D02*
G37*
G36*
X-97500Y32325D02*
X-104500D01*
Y13500D01*
X-97500D01*
Y32325D01*
D02*
G37*
G36*
X-179753Y17450D02*
X-180847D01*
X-181858Y17031D01*
X-182631Y16258D01*
X-183050Y15247D01*
Y14153D01*
X-182631Y13142D01*
X-181858Y12369D01*
X-180847Y11950D01*
X-179753D01*
X-178742Y12369D01*
X-177969Y13142D01*
X-177550Y14153D01*
Y15247D01*
X-177969Y16258D01*
X-178742Y17031D01*
X-179753Y17450D01*
D02*
G37*
G36*
X-189153D02*
X-190247D01*
X-191258Y17031D01*
X-192031Y16258D01*
X-192450Y15247D01*
Y14153D01*
X-192031Y13142D01*
X-191258Y12369D01*
X-190247Y11950D01*
X-189153D01*
X-188142Y12369D01*
X-187369Y13142D01*
X-186950Y14153D01*
Y15247D01*
X-187369Y16258D01*
X-188142Y17031D01*
X-189153Y17450D01*
D02*
G37*
G36*
X-311727Y19100D02*
X-314273D01*
X-316625Y18126D01*
X-318426Y16325D01*
X-319400Y13973D01*
Y11427D01*
X-318426Y9075D01*
X-316625Y7274D01*
X-314273Y6300D01*
X-311727D01*
X-309375Y7274D01*
X-307574Y9075D01*
X-306600Y11427D01*
Y13973D01*
X-307574Y16325D01*
X-309375Y18126D01*
X-311727Y19100D01*
D02*
G37*
G36*
X-337127D02*
X-339673D01*
X-342025Y18126D01*
X-343826Y16325D01*
X-344800Y13973D01*
Y11427D01*
X-343826Y9075D01*
X-342025Y7274D01*
X-339673Y6300D01*
X-337127D01*
X-334775Y7274D01*
X-332974Y9075D01*
X-332000Y11427D01*
Y13973D01*
X-332974Y16325D01*
X-334775Y18126D01*
X-337127Y19100D01*
D02*
G37*
G36*
X-69653Y8250D02*
X-70747D01*
X-71758Y7831D01*
X-72531Y7058D01*
X-72950Y6047D01*
Y4953D01*
X-72531Y3942D01*
X-71758Y3169D01*
X-70747Y2750D01*
X-69653D01*
X-68642Y3169D01*
X-67869Y3942D01*
X-67450Y4953D01*
Y6047D01*
X-67869Y7058D01*
X-68642Y7831D01*
X-69653Y8250D01*
D02*
G37*
G36*
X-224453Y2750D02*
X-225547D01*
X-226558Y2331D01*
X-227331Y1558D01*
X-227750Y547D01*
Y-547D01*
X-227331Y-1558D01*
X-226558Y-2331D01*
X-225547Y-2750D01*
X-224453D01*
X-223442Y-2331D01*
X-222669Y-1558D01*
X-222250Y-547D01*
Y547D01*
X-222669Y1558D01*
X-223442Y2331D01*
X-224453Y2750D01*
D02*
G37*
G36*
X-241953D02*
X-243047D01*
X-244058Y2331D01*
X-244831Y1558D01*
X-245250Y547D01*
Y-547D01*
X-244831Y-1558D01*
X-244058Y-2331D01*
X-243047Y-2750D01*
X-241953D01*
X-240942Y-2331D01*
X-240169Y-1558D01*
X-239750Y-547D01*
Y547D01*
X-240169Y1558D01*
X-240942Y2331D01*
X-241953Y2750D01*
D02*
G37*
G36*
X-311678Y-2660D02*
X-311730D01*
Y-11430D01*
X-302960D01*
Y-11378D01*
X-303644Y-8825D01*
X-304966Y-6535D01*
X-306835Y-4666D01*
X-309125Y-3344D01*
X-311678Y-2660D01*
D02*
G37*
G36*
X-337078D02*
X-337130D01*
Y-11430D01*
X-328360D01*
Y-11378D01*
X-329044Y-8825D01*
X-330366Y-6535D01*
X-332235Y-4666D01*
X-334525Y-3344D01*
X-337078Y-2660D01*
D02*
G37*
G36*
X-314270D02*
X-314322D01*
X-316875Y-3344D01*
X-319165Y-4666D01*
X-321034Y-6535D01*
X-322356Y-8825D01*
X-323040Y-11378D01*
Y-11430D01*
X-314270D01*
Y-2660D01*
D02*
G37*
G36*
X-339670D02*
X-339722D01*
X-342275Y-3344D01*
X-344565Y-4666D01*
X-346434Y-6535D01*
X-347756Y-8825D01*
X-348440Y-11378D01*
Y-11430D01*
X-339670D01*
Y-2660D01*
D02*
G37*
G36*
X-179753Y-11950D02*
X-180847D01*
X-181858Y-12369D01*
X-182631Y-13142D01*
X-183050Y-14153D01*
Y-15247D01*
X-182631Y-16258D01*
X-181858Y-17031D01*
X-180847Y-17450D01*
X-179753D01*
X-178742Y-17031D01*
X-177969Y-16258D01*
X-177550Y-15247D01*
Y-14153D01*
X-177969Y-13142D01*
X-178742Y-12369D01*
X-179753Y-11950D01*
D02*
G37*
G36*
X-189153D02*
X-190247D01*
X-191258Y-12369D01*
X-192031Y-13142D01*
X-192450Y-14153D01*
Y-15247D01*
X-192031Y-16258D01*
X-191258Y-17031D01*
X-190247Y-17450D01*
X-189153D01*
X-188142Y-17031D01*
X-187369Y-16258D01*
X-186950Y-15247D01*
Y-14153D01*
X-187369Y-13142D01*
X-188142Y-12369D01*
X-189153Y-11950D01*
D02*
G37*
G36*
X-302960Y-13970D02*
X-311730D01*
Y-22740D01*
X-311678D01*
X-309125Y-22056D01*
X-306835Y-20734D01*
X-304966Y-18865D01*
X-303644Y-16575D01*
X-302960Y-14022D01*
Y-13970D01*
D02*
G37*
G36*
X-314270D02*
X-323040D01*
Y-14022D01*
X-322356Y-16575D01*
X-321034Y-18865D01*
X-319165Y-20734D01*
X-316875Y-22056D01*
X-314322Y-22740D01*
X-314270D01*
Y-13970D01*
D02*
G37*
G36*
X-328360D02*
X-337130D01*
Y-22740D01*
X-337078D01*
X-334525Y-22056D01*
X-332235Y-20734D01*
X-330366Y-18865D01*
X-329044Y-16575D01*
X-328360Y-14022D01*
Y-13970D01*
D02*
G37*
G36*
X-339670D02*
X-348440D01*
Y-14022D01*
X-347756Y-16575D01*
X-346434Y-18865D01*
X-344565Y-20734D01*
X-342275Y-22056D01*
X-339722Y-22740D01*
X-339670D01*
Y-13970D01*
D02*
G37*
G36*
X-53812Y-12150D02*
X-84137D01*
Y-36000D01*
X-53812D01*
Y-12150D01*
D02*
G37*
G36*
X-104500D02*
X-134825D01*
Y-36000D01*
X-104500D01*
Y-12150D01*
D02*
G37*
G36*
X-311727Y-31700D02*
X-314273D01*
X-316625Y-32674D01*
X-318426Y-34475D01*
X-319400Y-36827D01*
Y-39373D01*
X-318426Y-41725D01*
X-316625Y-43526D01*
X-314273Y-44500D01*
X-311727D01*
X-309375Y-43526D01*
X-307574Y-41725D01*
X-306600Y-39373D01*
Y-36827D01*
X-307574Y-34475D01*
X-309375Y-32674D01*
X-311727Y-31700D01*
D02*
G37*
G36*
X-337127D02*
X-339673D01*
X-342025Y-32674D01*
X-343826Y-34475D01*
X-344800Y-36827D01*
Y-39373D01*
X-343826Y-41725D01*
X-342025Y-43526D01*
X-339673Y-44500D01*
X-337127D01*
X-334775Y-43526D01*
X-332974Y-41725D01*
X-332000Y-39373D01*
Y-36827D01*
X-332974Y-34475D01*
X-334775Y-32674D01*
X-337127Y-31700D01*
D02*
G37*
G36*
X-144000Y-30500D02*
X-162000D01*
X-174000Y-40500D01*
Y-57500D01*
X-162000Y-66500D01*
X-144000D01*
X-134500Y-57500D01*
Y-39500D01*
X-144000Y-30500D01*
D02*
G37*
G36*
X-252153Y-62500D02*
X-253247D01*
X-254258Y-62919D01*
X-255031Y-63692D01*
X-255450Y-64703D01*
Y-65797D01*
X-255031Y-66808D01*
X-254258Y-67581D01*
X-253247Y-68000D01*
X-252153D01*
X-251142Y-67581D01*
X-250369Y-66808D01*
X-249950Y-65797D01*
Y-64703D01*
X-250369Y-63692D01*
X-251142Y-62919D01*
X-252153Y-62500D01*
D02*
G37*
G36*
X-274753D02*
X-275847D01*
X-276858Y-62919D01*
X-277631Y-63692D01*
X-278050Y-64703D01*
Y-65797D01*
X-277631Y-66808D01*
X-276858Y-67581D01*
X-275847Y-68000D01*
X-274753D01*
X-273742Y-67581D01*
X-272969Y-66808D01*
X-272550Y-65797D01*
Y-64703D01*
X-272969Y-63692D01*
X-273742Y-62919D01*
X-274753Y-62500D01*
D02*
G37*
G36*
X-311727Y-57100D02*
X-314273D01*
X-316625Y-58074D01*
X-318426Y-59875D01*
X-319400Y-62227D01*
Y-64773D01*
X-318426Y-67125D01*
X-316625Y-68926D01*
X-314273Y-69900D01*
X-311727D01*
X-309375Y-68926D01*
X-307574Y-67125D01*
X-306600Y-64773D01*
Y-62227D01*
X-307574Y-59875D01*
X-309375Y-58074D01*
X-311727Y-57100D01*
D02*
G37*
G36*
X-337127D02*
X-339673D01*
X-342025Y-58074D01*
X-343826Y-59875D01*
X-344800Y-62227D01*
Y-64773D01*
X-343826Y-67125D01*
X-342025Y-68926D01*
X-339673Y-69900D01*
X-337127D01*
X-334775Y-68926D01*
X-332974Y-67125D01*
X-332000Y-64773D01*
Y-62227D01*
X-332974Y-59875D01*
X-334775Y-58074D01*
X-337127Y-57100D01*
D02*
G37*
G36*
X-252153Y-74250D02*
X-253247D01*
X-254258Y-74669D01*
X-255031Y-75442D01*
X-255450Y-76453D01*
Y-77547D01*
X-255031Y-78558D01*
X-254258Y-79331D01*
X-253247Y-79750D01*
X-252153D01*
X-251142Y-79331D01*
X-250369Y-78558D01*
X-249950Y-77547D01*
Y-76453D01*
X-250369Y-75442D01*
X-251142Y-74669D01*
X-252153Y-74250D01*
D02*
G37*
G36*
X-274753D02*
X-275847D01*
X-276858Y-74669D01*
X-277631Y-75442D01*
X-278050Y-76453D01*
Y-77547D01*
X-277631Y-78558D01*
X-276858Y-79331D01*
X-275847Y-79750D01*
X-274753D01*
X-273742Y-79331D01*
X-272969Y-78558D01*
X-272550Y-77547D01*
Y-76453D01*
X-272969Y-75442D01*
X-273742Y-74669D01*
X-274753Y-74250D01*
D02*
G37*
G36*
X-29064Y-64500D02*
X-30936D01*
X-32771Y-64865D01*
X-34500Y-65581D01*
X-36056Y-66621D01*
X-37379Y-67944D01*
X-38419Y-69500D01*
X-39135Y-71229D01*
X-39500Y-73064D01*
Y-74936D01*
X-39135Y-76771D01*
X-38419Y-78500D01*
X-37379Y-80056D01*
X-36056Y-81379D01*
X-34500Y-82419D01*
X-32771Y-83135D01*
X-30936Y-83500D01*
X-29064D01*
X-27229Y-83135D01*
X-25500Y-82419D01*
X-23944Y-81379D01*
X-22621Y-80056D01*
X-21581Y-78500D01*
X-20865Y-76771D01*
X-20500Y-74936D01*
Y-73064D01*
X-20865Y-71229D01*
X-21581Y-69500D01*
X-22621Y-67944D01*
X-23944Y-66621D01*
X-25500Y-65581D01*
X-27229Y-64865D01*
X-29064Y-64500D01*
D02*
G37*
G36*
X-54300Y-62150D02*
X-84625D01*
Y-86000D01*
X-54300D01*
Y-62150D01*
D02*
G37*
G36*
X-104500D02*
X-134825D01*
Y-86000D01*
X-104500D01*
Y-62150D01*
D02*
G37*
G36*
X-179753Y-80550D02*
X-180847D01*
X-181858Y-80969D01*
X-182631Y-81742D01*
X-183050Y-82753D01*
Y-83847D01*
X-182631Y-84858D01*
X-181858Y-85631D01*
X-180847Y-86050D01*
X-179753D01*
X-178742Y-85631D01*
X-177969Y-84858D01*
X-177550Y-83847D01*
Y-82753D01*
X-177969Y-81742D01*
X-178742Y-80969D01*
X-179753Y-80550D01*
D02*
G37*
G36*
X-189153D02*
X-190247D01*
X-191258Y-80969D01*
X-192031Y-81742D01*
X-192450Y-82753D01*
Y-83847D01*
X-192031Y-84858D01*
X-191258Y-85631D01*
X-190247Y-86050D01*
X-189153D01*
X-188142Y-85631D01*
X-187369Y-84858D01*
X-186950Y-83847D01*
Y-82753D01*
X-187369Y-81742D01*
X-188142Y-80969D01*
X-189153Y-80550D01*
D02*
G37*
G36*
X-252153Y-86000D02*
X-253247D01*
X-254258Y-86419D01*
X-255031Y-87192D01*
X-255450Y-88203D01*
Y-89297D01*
X-255031Y-90308D01*
X-254258Y-91081D01*
X-253247Y-91500D01*
X-252153D01*
X-251142Y-91081D01*
X-250369Y-90308D01*
X-249950Y-89297D01*
Y-88203D01*
X-250369Y-87192D01*
X-251142Y-86419D01*
X-252153Y-86000D01*
D02*
G37*
G36*
X-274753D02*
X-275847D01*
X-276858Y-86419D01*
X-277631Y-87192D01*
X-278050Y-88203D01*
Y-89297D01*
X-277631Y-90308D01*
X-276858Y-91081D01*
X-275847Y-91500D01*
X-274753D01*
X-273742Y-91081D01*
X-272969Y-90308D01*
X-272550Y-89297D01*
Y-88203D01*
X-272969Y-87192D01*
X-273742Y-86419D01*
X-274753Y-86000D01*
D02*
G37*
%LPD*%
D28*
X-313000Y-12700D02*
D03*
X-338400D02*
D03*
X-313000Y63500D02*
D03*
D29*
X-338400D02*
D03*
D31*
X-212550Y78765D02*
D03*
X-156500Y99000D02*
D03*
X-213500Y99000D02*
D03*
X-213500Y-99000D02*
D03*
X-156500Y-99000D02*
D03*
Y7500D02*
D03*
X-213500Y7500D02*
D03*
X-213500Y-7500D02*
D03*
X-156500Y-7500D02*
D03*
X-59000D02*
D03*
X-69500D02*
D03*
X-42500Y3000D02*
D03*
X-55500Y9500D02*
D03*
X-79000Y-4000D02*
D03*
X-192883Y-49000D02*
D03*
X-38000Y-39000D02*
D03*
X-22000D02*
D03*
X-15250Y-38500D02*
D03*
Y-9500D02*
D03*
X-44750D02*
D03*
Y-38500D02*
D03*
X-192883Y49000D02*
D03*
X-199300Y-83300D02*
D03*
X-205600Y-77000D02*
D03*
X-212500Y-19950D02*
D03*
X-199300Y-14700D02*
D03*
X-205600Y-21000D02*
D03*
X-199500Y14700D02*
D03*
X-199300Y83300D02*
D03*
X-205800Y21000D02*
D03*
X-170700Y14700D02*
D03*
Y83300D02*
D03*
X-164400Y77000D02*
D03*
X-170700Y-83300D02*
D03*
X-164400Y-77000D02*
D03*
X-164400Y-21000D02*
D03*
X-170700Y-14700D02*
D03*
X-252700Y32750D02*
D03*
Y21000D02*
D03*
Y9250D02*
D03*
X-275300Y32750D02*
D03*
Y21000D02*
D03*
Y9250D02*
D03*
Y-32750D02*
D03*
Y-21000D02*
D03*
Y-9250D02*
D03*
X-252700Y-32750D02*
D03*
Y-21000D02*
D03*
Y-9250D02*
D03*
X-126000Y88800D02*
D03*
X-118600Y92500D02*
D03*
X-119700Y53700D02*
D03*
X-126000Y28200D02*
D03*
X-132300Y34700D02*
D03*
X-86500Y-800D02*
D03*
X-63000Y9200D02*
D03*
X-69300Y44500D02*
D03*
Y63300D02*
D03*
M02*
