G04*
G04 #@! TF.GenerationSoftware,Altium Limited,Altium Designer,22.4.2 (48)*
G04*
G04 Layer_Physical_Order=4*
G04 Layer_Color=16711680*
%FSLAX44Y44*%
%MOMM*%
G71*
G04*
G04 #@! TF.SameCoordinates,0052537D-BEB4-46D3-A19B-1C4CA2F22292*
G04*
G04*
G04 #@! TF.FilePolarity,Positive*
G04*
G01*
G75*
%ADD10C,0.5000*%
%ADD30C,1.5000*%
G04:AMPARAMS|DCode=31|XSize=1.5mm|YSize=1.5mm|CornerRadius=0.1875mm|HoleSize=0mm|Usage=FLASHONLY|Rotation=270.000|XOffset=0mm|YOffset=0mm|HoleType=Round|Shape=RoundedRectangle|*
%AMROUNDEDRECTD31*
21,1,1.5000,1.1250,0,0,270.0*
21,1,1.1250,1.5000,0,0,270.0*
1,1,0.3750,-0.5625,-0.5625*
1,1,0.3750,-0.5625,0.5625*
1,1,0.3750,0.5625,0.5625*
1,1,0.3750,0.5625,-0.5625*
%
%ADD31ROUNDEDRECTD31*%
%ADD33C,0.6000*%
%ADD34C,0.5000*%
G36*
X-29000Y68000D02*
Y54828D01*
Y43312D01*
Y36815D01*
X-29000Y24222D01*
Y13450D01*
X-29845D01*
X-31407Y12803D01*
X-32603Y11608D01*
X-33250Y10045D01*
Y8355D01*
X-32603Y6793D01*
X-31407Y5597D01*
X-29845Y4950D01*
X-29000D01*
Y-6051D01*
X-29250Y-6655D01*
Y-8345D01*
X-29000Y-8949D01*
X-29000Y-102451D01*
X-118281D01*
X-118803Y-101181D01*
X-118250Y-99845D01*
Y-98155D01*
X-118897Y-96593D01*
X-120093Y-95397D01*
X-121655Y-94750D01*
X-123345D01*
X-124907Y-95397D01*
X-126103Y-96593D01*
X-126750Y-98155D01*
Y-99845D01*
X-126197Y-101181D01*
X-126719Y-102451D01*
X-175281D01*
X-175803Y-101181D01*
X-175250Y-99845D01*
Y-98155D01*
X-175897Y-96593D01*
X-177093Y-95397D01*
X-178655Y-94750D01*
X-180345D01*
X-181907Y-95397D01*
X-183103Y-96593D01*
X-183750Y-98155D01*
Y-99845D01*
X-183197Y-101181D01*
X-183719Y-102451D01*
X-339219D01*
X-342590Y-101781D01*
X-345766Y-100465D01*
X-348625Y-98555D01*
X-351055Y-96125D01*
X-352965Y-93266D01*
X-354281Y-90090D01*
X-354951Y-86719D01*
Y-85000D01*
Y-23750D01*
Y85000D01*
Y86719D01*
X-354281Y90090D01*
X-352965Y93266D01*
X-351055Y96125D01*
X-348625Y98555D01*
X-345766Y100465D01*
X-342590Y101781D01*
X-338974Y102500D01*
X-183670D01*
X-183176Y101230D01*
X-183750Y99845D01*
Y98155D01*
X-183103Y96593D01*
X-181907Y95397D01*
X-180345Y94750D01*
X-179400D01*
X-179015Y93480D01*
X-179556Y93118D01*
X-193204Y79471D01*
X-194032Y78230D01*
X-194324Y76767D01*
Y56084D01*
X-200384Y50023D01*
X-201460Y50743D01*
X-201000Y51855D01*
Y53545D01*
X-201647Y55107D01*
X-202843Y56303D01*
X-204405Y56950D01*
X-206095D01*
X-207657Y56303D01*
X-208853Y55107D01*
X-209500Y53545D01*
Y51855D01*
X-208853Y50293D01*
X-207657Y49097D01*
X-206095Y48450D01*
X-204405D01*
X-203293Y48910D01*
X-202573Y47834D01*
X-212880Y37527D01*
X-214150Y38053D01*
Y38945D01*
X-214797Y40507D01*
X-215993Y41703D01*
X-217555Y42350D01*
X-219245D01*
X-220807Y41703D01*
X-222003Y40507D01*
X-222650Y38945D01*
Y37255D01*
X-222003Y35693D01*
X-220807Y34497D01*
X-219245Y33850D01*
X-218353D01*
X-217827Y32580D01*
X-223084Y27324D01*
X-231602D01*
X-232631Y27750D01*
X-234322D01*
X-235352Y27324D01*
X-237613D01*
X-238643Y27750D01*
X-240334D01*
X-241896Y27103D01*
X-243091Y25907D01*
X-243738Y24345D01*
Y22655D01*
X-243091Y21093D01*
X-241896Y19897D01*
X-240334Y19250D01*
X-238643D01*
X-237613Y19677D01*
X-235352D01*
X-234322Y19250D01*
X-232631D01*
X-231602Y19677D01*
X-221500D01*
X-220037Y19968D01*
X-218796Y20796D01*
X-212807Y26786D01*
X-211730Y26067D01*
X-211982Y25457D01*
Y23766D01*
X-211335Y22204D01*
X-210140Y21009D01*
X-208578Y20362D01*
X-206887D01*
X-205325Y21009D01*
X-204130Y22204D01*
X-203482Y23766D01*
Y25457D01*
X-204130Y27019D01*
X-205325Y28215D01*
X-206887Y28862D01*
X-208578D01*
X-209188Y28609D01*
X-209907Y29686D01*
X-187796Y51796D01*
X-186968Y53037D01*
X-186677Y54500D01*
Y75183D01*
X-181982Y79877D01*
X-180527Y79537D01*
X-180162Y78656D01*
X-179219Y77712D01*
X-179321Y76553D01*
X-179429Y76277D01*
X-179530Y76178D01*
X-179780Y76079D01*
X-180107Y75761D01*
X-180214Y75514D01*
X-180406Y75327D01*
X-180587Y74908D01*
X-180592Y74640D01*
X-180698Y74393D01*
X-180702Y74165D01*
X-180698Y74154D01*
X-180702Y74144D01*
X-180697Y74132D01*
Y74122D01*
X-180696Y74120D01*
X-180697Y74118D01*
X-180697Y74098D01*
X-180695Y74094D01*
X-180697Y74089D01*
X-180697Y74069D01*
X-180694Y74063D01*
X-180696Y74057D01*
X-180696Y74037D01*
X-180692Y74028D01*
X-180695Y74018D01*
X-180695Y73998D01*
X-180693Y73993D01*
X-180695Y73988D01*
X-180694Y73985D01*
X-180693Y73982D01*
X-180694Y73979D01*
X-180694Y73974D01*
X-180692Y73970D01*
X-180694Y73967D01*
X-180693Y73962D01*
X-180692Y73959D01*
X-180693Y73956D01*
X-180693Y73955D01*
X-180693Y73955D01*
X-180693Y73950D01*
X-180691Y73946D01*
X-180692Y73941D01*
X-180692Y73939D01*
X-180692Y73938D01*
X-180692Y73938D01*
X-180692Y73933D01*
X-180689Y73926D01*
X-180691Y73920D01*
X-180690Y73915D01*
X-180690Y73914D01*
X-180690Y73914D01*
X-180690Y73909D01*
X-180687Y73903D01*
X-180689Y73896D01*
X-180689Y73891D01*
X-180687Y73888D01*
X-180688Y73884D01*
X-180688Y73879D01*
X-180686Y73876D01*
Y73875D01*
X-180687Y73872D01*
X-180687Y73867D01*
X-180686Y73866D01*
Y70892D01*
X-180683Y70884D01*
X-180686Y70876D01*
X-180686Y70863D01*
X-180682Y70854D01*
X-180685Y70844D01*
X-180685Y70831D01*
X-180684Y70828D01*
X-180685Y70826D01*
X-180684Y70816D01*
X-180685Y70815D01*
X-180684Y70807D01*
X-180678Y70399D01*
X-180623Y70273D01*
X-180648Y70138D01*
X-180471Y69303D01*
X-180393Y69190D01*
X-180392Y69053D01*
X-180056Y68267D01*
X-179959Y68171D01*
X-179931Y68037D01*
X-179450Y67331D01*
X-179336Y67256D01*
X-179283Y67130D01*
X-178675Y66529D01*
X-178549Y66477D01*
X-178472Y66364D01*
X-177760Y65891D01*
X-177626Y65865D01*
X-177529Y65768D01*
X-176740Y65442D01*
X-176603Y65442D01*
X-176489Y65366D01*
X-175651Y65198D01*
X-175517Y65224D01*
X-175391Y65171D01*
X-174972Y65169D01*
X-174968Y65169D01*
X-174968Y65169D01*
X-174964Y65169D01*
X-174952Y65174D01*
X-174940Y65169D01*
X-174916Y65169D01*
X-174901Y65175D01*
X-174886Y65170D01*
X-174862Y65170D01*
X-174847Y65177D01*
X-174832Y65171D01*
X-174808Y65173D01*
X-174807Y65173D01*
X-174361Y65183D01*
X-174224Y65244D01*
X-174076Y65221D01*
X-173168Y65440D01*
X-173047Y65528D01*
X-172897Y65536D01*
X-172056Y65942D01*
X-171956Y66054D01*
X-171812Y66094D01*
X-171235Y66543D01*
X-167538Y65312D01*
X-167448Y65276D01*
X-167263Y65276D01*
X-167103Y65184D01*
X-166815Y65147D01*
X-166637Y65196D01*
X-166458Y65149D01*
X-166171Y65189D01*
X-166012Y65283D01*
X-165827Y65285D01*
X-165560Y65398D01*
X-165444Y65517D01*
X-165372Y65522D01*
X-165344Y65555D01*
X-165253Y65581D01*
X-165139Y65671D01*
X-165130Y65688D01*
X-165111Y65694D01*
X-165010Y65778D01*
X-164942Y65907D01*
X-164815Y65978D01*
X-164653Y66184D01*
X-164613Y66325D01*
X-164503Y66421D01*
X-164386Y66655D01*
X-164376Y66801D01*
X-164288Y66918D01*
X-164223Y67171D01*
X-164243Y67316D01*
X-164181Y67448D01*
X-164175Y67569D01*
X-164171Y67646D01*
X-164207Y67753D01*
X-164175Y67861D01*
X-164192Y68035D01*
X-164245Y68134D01*
X-164230Y68246D01*
X-164274Y68415D01*
X-164342Y68505D01*
X-164345Y68618D01*
X-164416Y68778D01*
X-164497Y68856D01*
X-164518Y68967D01*
X-164565Y69040D01*
X-164583Y69052D01*
X-164588Y69073D01*
X-164645Y69156D01*
X-164721Y69205D01*
X-164744Y69261D01*
X-164744Y69261D01*
X-164768Y69271D01*
X-164794Y69337D01*
X-164935Y69480D01*
X-165049Y69528D01*
X-165114Y69632D01*
X-165278Y69748D01*
X-165398Y69776D01*
X-165481Y69868D01*
X-165662Y69954D01*
X-165734Y69957D01*
X-165959Y70171D01*
X-166291Y71620D01*
X-166276Y71650D01*
X-165997Y71711D01*
X-165848Y71814D01*
X-165667Y71829D01*
X-165413Y71960D01*
X-165295Y72099D01*
X-165124Y72160D01*
X-164912Y72351D01*
X-164834Y72516D01*
X-164685Y72619D01*
X-164607Y72739D01*
X-164604Y72757D01*
X-164589Y72768D01*
X-164522Y72878D01*
X-164499Y73021D01*
X-164401Y73129D01*
X-164314Y73372D01*
X-164321Y73517D01*
X-164248Y73642D01*
X-164212Y73898D01*
X-164249Y74038D01*
X-164202Y74176D01*
X-164220Y74433D01*
X-164284Y74563D01*
X-164267Y74707D01*
X-164299Y74821D01*
X-164319Y74897D01*
X-164387Y74985D01*
X-164390Y75097D01*
X-164459Y75255D01*
X-164540Y75332D01*
X-164560Y75441D01*
X-164653Y75586D01*
X-164745Y75650D01*
X-164782Y75755D01*
X-164897Y75883D01*
X-164989Y75927D01*
X-165016Y75992D01*
X-165035Y76000D01*
X-165050Y76030D01*
X-165117Y76084D01*
X-165136Y76090D01*
X-165146Y76107D01*
X-165224Y76167D01*
X-165342Y76199D01*
X-165419Y76293D01*
X-165594Y76385D01*
X-165715Y76396D01*
X-165807Y76475D01*
X-165995Y76536D01*
X-166117Y76526D01*
X-166221Y76588D01*
X-166416Y76616D01*
X-166534Y76586D01*
X-166648Y76629D01*
X-166726Y76627D01*
X-173189D01*
X-173715Y77897D01*
X-172956Y78656D01*
X-172309Y80218D01*
Y81909D01*
X-172956Y83471D01*
X-174152Y84666D01*
X-174436Y86159D01*
X-174093Y86591D01*
X-169678D01*
X-169063Y85321D01*
X-169550Y84145D01*
Y82455D01*
X-168903Y80893D01*
X-167707Y79697D01*
X-166145Y79050D01*
X-164455D01*
X-162893Y79697D01*
X-161697Y80893D01*
X-161345Y81742D01*
X-159877Y82070D01*
X-159729Y81922D01*
X-159303Y80893D01*
X-158107Y79697D01*
X-156545Y79050D01*
X-154855D01*
X-153825Y79476D01*
X-148175D01*
X-147145Y79050D01*
X-145455D01*
X-143893Y79697D01*
X-142697Y80893D01*
X-142135Y82249D01*
X-141972Y82278D01*
X-141028D01*
X-140865Y82249D01*
X-140303Y80893D01*
X-139107Y79697D01*
X-137545Y79050D01*
X-135855D01*
X-135458Y79214D01*
X-134486Y78242D01*
X-134650Y77845D01*
Y76155D01*
X-134003Y74593D01*
X-133960Y74549D01*
X-134486Y73279D01*
X-156678D01*
X-157589Y73098D01*
X-158362Y72582D01*
X-158878Y71809D01*
X-159060Y70897D01*
X-158878Y69986D01*
X-158362Y69213D01*
X-157589Y68697D01*
X-156678Y68516D01*
X-131809D01*
Y54357D01*
X-131783Y54224D01*
X-132711Y52954D01*
X-135136D01*
X-135353Y52957D01*
X-135603Y52858D01*
X-135871Y52861D01*
X-136295Y52693D01*
X-136488Y52505D01*
X-136738Y52406D01*
X-137065Y52088D01*
X-137172Y51841D01*
X-137365Y51654D01*
X-137546Y51235D01*
X-137550Y50966D01*
X-137656Y50720D01*
X-137660Y50491D01*
X-137660Y50491D01*
X-137664Y50259D01*
X-137563Y50004D01*
X-137565Y49730D01*
X-137390Y49299D01*
X-137198Y49103D01*
X-137093Y48850D01*
X-136764Y48521D01*
X-136511Y48416D01*
X-136316Y48224D01*
X-135885Y48049D01*
X-135611Y48050D01*
X-135554Y48027D01*
X-134857Y46783D01*
X-137079Y43449D01*
X-137080Y43448D01*
X-137081Y43447D01*
X-137135Y43365D01*
X-137146Y43312D01*
X-137228Y43253D01*
X-137337Y43077D01*
X-137358Y42951D01*
X-137447Y42860D01*
X-137523Y42667D01*
X-137521Y42539D01*
X-137592Y42433D01*
X-137633Y42229D01*
X-137608Y42104D01*
X-137659Y41987D01*
X-137660Y41883D01*
X-137658Y41878D01*
X-137660Y41873D01*
X-137661Y41797D01*
X-137626Y41712D01*
X-137651Y41623D01*
X-137633Y41473D01*
X-137587Y41393D01*
X-137601Y41302D01*
X-137563Y41155D01*
X-137508Y41082D01*
X-137509Y40990D01*
X-137453Y40849D01*
X-137389Y40783D01*
X-137378Y40691D01*
X-137345Y40631D01*
X-137263Y40482D01*
X-137099Y40349D01*
X-137015Y40155D01*
X-136761Y39911D01*
X-136564Y39833D01*
X-136426Y39674D01*
X-136111Y39517D01*
X-135900Y39502D01*
X-135720Y39391D01*
X-135372Y39335D01*
X-135167Y39385D01*
X-134962Y39333D01*
X-134885Y39344D01*
X-132877D01*
X-132351Y38920D01*
X-131889Y38209D01*
X-131833Y37925D01*
X-131730Y37771D01*
X-131718Y37587D01*
X-131589Y37327D01*
X-131449Y37206D01*
X-131432Y37155D01*
X-131421Y36906D01*
X-131652Y36016D01*
X-131810Y35738D01*
X-131974Y35694D01*
X-132048Y35637D01*
X-132141Y35637D01*
X-132974Y35291D01*
X-133040Y35225D01*
X-133132Y35213D01*
X-133913Y34761D01*
X-133970Y34687D01*
X-134060Y34663D01*
X-134775Y34114D01*
X-134822Y34033D01*
X-134908Y33997D01*
X-135546Y33359D01*
X-135582Y33273D01*
X-135662Y33227D01*
X-136212Y32511D01*
X-136236Y32421D01*
X-136310Y32365D01*
X-136762Y31584D01*
X-136774Y31491D01*
X-136840Y31426D01*
X-137121Y30751D01*
X-137816Y30223D01*
X-138340Y30038D01*
X-139251Y30219D01*
X-165736D01*
X-170117Y34600D01*
Y47645D01*
X-170298Y48556D01*
X-170814Y49329D01*
X-171587Y49845D01*
X-172499Y50026D01*
X-173410Y49845D01*
X-174183Y49329D01*
X-174699Y48556D01*
X-174881Y47645D01*
Y33613D01*
X-174699Y32702D01*
X-174183Y31929D01*
X-168407Y26153D01*
X-167634Y25636D01*
X-166723Y25455D01*
X-139251D01*
X-138340Y25636D01*
X-138203Y25593D01*
X-137108Y24932D01*
X-136840Y24288D01*
X-136774Y24222D01*
X-136762Y24129D01*
X-136310Y23349D01*
X-136236Y23292D01*
X-136212Y23202D01*
X-135662Y22486D01*
X-135582Y22440D01*
X-135546Y22354D01*
X-134908Y21716D01*
X-134822Y21680D01*
X-134775Y21599D01*
X-134060Y21050D01*
X-133970Y21026D01*
X-133913Y20952D01*
X-133132Y20500D01*
X-133040Y20488D01*
X-132974Y20422D01*
X-132141Y20076D01*
X-132048Y20076D01*
X-131974Y20019D01*
X-131103Y19784D01*
X-131010Y19796D01*
X-130930Y19749D01*
X-130035Y19630D01*
X-129945Y19654D01*
X-129859Y19618D01*
X-129408Y19617D01*
X-129405Y19618D01*
X-129402Y19617D01*
X-128951Y19618D01*
X-128865Y19654D01*
X-128775Y19630D01*
X-127880Y19749D01*
X-127800Y19796D01*
X-127708Y19784D01*
X-126836Y20019D01*
X-126763Y20076D01*
X-126669Y20076D01*
X-125836Y20422D01*
X-125770Y20488D01*
X-125678Y20500D01*
X-124897Y20952D01*
X-124840Y21026D01*
X-124750Y21050D01*
X-124035Y21599D01*
X-123988Y21680D01*
X-123902Y21716D01*
X-123264Y22354D01*
X-123228Y22440D01*
X-123148Y22486D01*
X-122598Y23202D01*
X-122574Y23292D01*
X-122500Y23349D01*
X-122048Y24129D01*
X-122036Y24222D01*
X-121970Y24288D01*
X-121623Y25121D01*
X-121623Y25214D01*
X-121566Y25288D01*
X-121331Y26159D01*
X-121343Y26251D01*
X-121297Y26332D01*
X-121177Y27226D01*
X-121201Y27316D01*
X-121165Y27402D01*
X-121164Y27780D01*
X-121164Y27780D01*
X-121164Y27780D01*
X-121164Y27853D01*
X-121165Y27855D01*
X-121164Y27857D01*
X-121165Y27858D01*
X-121164Y27860D01*
X-121165Y28311D01*
X-121201Y28397D01*
X-121177Y28487D01*
X-121297Y29381D01*
X-121343Y29462D01*
X-121331Y29554D01*
X-121566Y30426D01*
X-121623Y30499D01*
X-121623Y30593D01*
X-121970Y31426D01*
X-122036Y31492D01*
X-122048Y31584D01*
X-122500Y32365D01*
X-122574Y32422D01*
X-122598Y32511D01*
X-123148Y33227D01*
X-123229Y33274D01*
X-123264Y33360D01*
X-123902Y33998D01*
X-123988Y34033D01*
X-124035Y34114D01*
X-124751Y34663D01*
X-124841Y34688D01*
X-124897Y34762D01*
X-125678Y35213D01*
X-125771Y35225D01*
X-125837Y35291D01*
X-126670Y35638D01*
X-126763Y35638D01*
X-126837Y35694D01*
X-126950Y35725D01*
X-127159Y36055D01*
X-127272Y36330D01*
X-127345Y37134D01*
X-127314Y37253D01*
X-127220Y37334D01*
X-127129Y37512D01*
X-127120Y37635D01*
X-127041Y37730D01*
X-126982Y37922D01*
X-126994Y38045D01*
X-126933Y38152D01*
X-126909Y38351D01*
X-126452Y38938D01*
X-125934Y39344D01*
X-123944D01*
X-123893Y39336D01*
X-123859Y39344D01*
X-123837D01*
X-123837Y39344D01*
X-123807Y39357D01*
X-123707Y39381D01*
X-123522Y39328D01*
X-123206Y39365D01*
X-123039Y39459D01*
X-122847Y39459D01*
X-122553Y39581D01*
X-122417Y39716D01*
X-122233Y39768D01*
X-121983Y39965D01*
X-121889Y40132D01*
X-121799Y40188D01*
X-121770Y40200D01*
X-121770Y40200D01*
X-121767Y40207D01*
X-121726Y40233D01*
X-121640Y40350D01*
X-121522Y40507D01*
X-121475Y40692D01*
X-121443Y40729D01*
X-121446Y40762D01*
X-121309Y40929D01*
X-121192Y41319D01*
X-121216Y41560D01*
X-121136Y41789D01*
X-121160Y42195D01*
X-121266Y42413D01*
X-121270Y42655D01*
X-121432Y43029D01*
X-121606Y43197D01*
X-121693Y43423D01*
X-121753Y43485D01*
X-123944Y46772D01*
X-123902Y46912D01*
X-123573Y47653D01*
X-123235Y47976D01*
X-122956Y48037D01*
X-122807Y48141D01*
X-122626Y48156D01*
X-122372Y48286D01*
X-122254Y48425D01*
X-122083Y48486D01*
X-121871Y48678D01*
X-121804Y48819D01*
X-121745Y48844D01*
X-121726Y48888D01*
X-121643Y48946D01*
X-121566Y49065D01*
X-121563Y49079D01*
X-121552Y49087D01*
X-121507Y49160D01*
X-121490Y49259D01*
X-121418Y49328D01*
X-121349Y49485D01*
X-121346Y49585D01*
X-121285Y49664D01*
X-121238Y49830D01*
X-121250Y49929D01*
X-121199Y50016D01*
X-121176Y50186D01*
X-121202Y50283D01*
X-121164Y50376D01*
X-121165Y50428D01*
X-121156Y50627D01*
X-121253Y50892D01*
X-121247Y51175D01*
X-121415Y51606D01*
X-121611Y51810D01*
X-121719Y52071D01*
X-122046Y52398D01*
X-122307Y52507D01*
X-122510Y52702D01*
X-122941Y52871D01*
X-123224Y52865D01*
X-123489Y52962D01*
X-123693Y52954D01*
X-126144D01*
X-127072Y54224D01*
X-127045Y54357D01*
Y70913D01*
X-127227Y71824D01*
X-127499Y72232D01*
X-127713Y72737D01*
X-127456Y73933D01*
X-126797Y74593D01*
X-126150Y76155D01*
Y77845D01*
X-126797Y79408D01*
X-127993Y80603D01*
X-129555Y81250D01*
X-131245D01*
X-131642Y81086D01*
X-132614Y82058D01*
X-132450Y82455D01*
Y84145D01*
X-133097Y85707D01*
X-134293Y86903D01*
X-135855Y87550D01*
X-137545D01*
X-139107Y86903D01*
X-140303Y85707D01*
X-140865Y84351D01*
X-141028Y84322D01*
X-141972D01*
X-142135Y84351D01*
X-142697Y85707D01*
X-143893Y86903D01*
X-145455Y87550D01*
X-147145D01*
X-148175Y87123D01*
X-153825D01*
X-154322Y87330D01*
X-160111Y93118D01*
X-161352Y93947D01*
X-162815Y94238D01*
X-176592D01*
X-176974Y95122D01*
X-177021Y95468D01*
X-175897Y96593D01*
X-175250Y98155D01*
Y99845D01*
X-175823Y101230D01*
X-175330Y102500D01*
X-126670D01*
X-126177Y101230D01*
X-126750Y99845D01*
Y98155D01*
X-126103Y96593D01*
X-124907Y95397D01*
X-123345Y94750D01*
X-121655D01*
X-120092Y95397D01*
X-118897Y96593D01*
X-118250Y98155D01*
Y99845D01*
X-118823Y101230D01*
X-118330Y102500D01*
X-63500D01*
X-29000Y68000D01*
D02*
G37*
G36*
X-178185Y75274D02*
X-166707D01*
Y75274D01*
X-166707D01*
X-166707D01*
D01*
X-166609Y75277D01*
X-166413Y75249D01*
X-166225Y75188D01*
X-166050Y75096D01*
X-165972Y75036D01*
X-165972D01*
X-165905Y74981D01*
X-165790Y74852D01*
X-165697Y74707D01*
X-165627Y74550D01*
X-165605Y74466D01*
X-165605D01*
X-165570Y74342D01*
X-165553Y74084D01*
X-165588Y73828D01*
X-165675Y73585D01*
X-165743Y73474D01*
X-165820Y73355D01*
X-166032Y73163D01*
X-166286Y73032D01*
X-166565Y72972D01*
X-166707Y72978D01*
X-170581D01*
Y70898D01*
X-170581Y70898D01*
X-170581Y70862D01*
X-170582Y70791D01*
X-170584Y70719D01*
X-170588Y70647D01*
X-170590Y70612D01*
X-170592Y70594D01*
X-170594Y70558D01*
X-170597Y70523D01*
X-170600Y70488D01*
X-170602Y70470D01*
X-170604Y70452D01*
X-170607Y70417D01*
X-170611Y70382D01*
X-170615Y70347D01*
X-170617Y70330D01*
X-170619Y70312D01*
X-170623Y70277D01*
X-170628Y70243D01*
X-170633Y70208D01*
X-170635Y70191D01*
X-166340Y68759D01*
Y68759D01*
Y68759D01*
X-166243Y68732D01*
X-166062Y68646D01*
X-165899Y68530D01*
X-165758Y68387D01*
X-165701Y68304D01*
X-165701Y68304D01*
X-165653Y68231D01*
X-165583Y68071D01*
X-165538Y67902D01*
X-165521Y67728D01*
X-165527Y67641D01*
X-165532Y67510D01*
X-165598Y67257D01*
X-165715Y67022D01*
X-165877Y66817D01*
X-165977Y66733D01*
X-165977Y66733D01*
X-165978Y66733D01*
X-166091Y66643D01*
X-166358Y66529D01*
X-166644Y66489D01*
X-166932Y66526D01*
X-167065Y66581D01*
X-171608Y68093D01*
Y68093D01*
X-171907Y67735D01*
X-172644Y67161D01*
X-173485Y66755D01*
X-174393Y66536D01*
X-174860Y66525D01*
X-174872Y66524D01*
X-174897Y66523D01*
X-174921Y66522D01*
X-174946Y66522D01*
X-174958Y66522D01*
X-175385Y66524D01*
X-176223Y66692D01*
X-177012Y67019D01*
X-177724Y67491D01*
X-178332Y68092D01*
X-178812Y68798D01*
X-179147Y69584D01*
X-179325Y70420D01*
X-179332Y70847D01*
X-179332Y70853D01*
X-179333Y70866D01*
X-179333Y70879D01*
X-179333Y70892D01*
Y70898D01*
Y73941D01*
X-179333D01*
X-179334Y73946D01*
X-179335Y73956D01*
X-179337Y73966D01*
X-179338Y73976D01*
X-179338Y73981D01*
X-179339Y73984D01*
X-179339Y73989D01*
X-179340Y73994D01*
X-179340Y73999D01*
X-179340Y74001D01*
Y74001D01*
X-179340Y74004D01*
X-179341Y74009D01*
X-179341Y74014D01*
X-179341Y74019D01*
X-179342Y74022D01*
X-179342Y74024D01*
X-179342Y74029D01*
X-179342Y74034D01*
X-179342Y74040D01*
X-179343Y74042D01*
X-179343Y74062D01*
X-179344Y74083D01*
X-179344Y74103D01*
X-179344Y74123D01*
X-179344Y74144D01*
X-179349D01*
X-179349Y74144D01*
X-179345Y74372D01*
X-179164Y74791D01*
X-178837Y75108D01*
X-178413Y75277D01*
X-178185Y75274D01*
D02*
G37*
G36*
X-123003Y51442D02*
X-122676Y51115D01*
X-122508Y50684D01*
X-122518Y50452D01*
X-122518D01*
X-122517Y50367D01*
X-122540Y50196D01*
X-122587Y50031D01*
X-122656Y49874D01*
X-122701Y49801D01*
Y49801D01*
X-122779Y49681D01*
X-122990Y49490D01*
X-123244Y49359D01*
X-123523Y49299D01*
X-123665Y49305D01*
X-127259D01*
X-122814Y42637D01*
X-122673Y42490D01*
X-122511Y42116D01*
X-122487Y41709D01*
X-122605Y41319D01*
X-122727Y41156D01*
X-122727Y41156D01*
X-122820Y41028D01*
X-123070Y40831D01*
X-123364Y40709D01*
X-123680Y40672D01*
X-123837Y40697D01*
Y40697D01*
X-128257D01*
Y38617D01*
X-128252Y38517D01*
X-128276Y38318D01*
X-128335Y38126D01*
X-128426Y37948D01*
X-128486Y37868D01*
Y37868D01*
X-128540Y37799D01*
X-128670Y37682D01*
X-128816Y37587D01*
X-128975Y37515D01*
X-129060Y37493D01*
X-129060Y37493D01*
X-129186Y37457D01*
X-129447Y37439D01*
X-129706Y37476D01*
X-129952Y37565D01*
X-130064Y37633D01*
X-130185Y37713D01*
X-130377Y37929D01*
X-130506Y38189D01*
X-130562Y38472D01*
X-130552Y38617D01*
X-130552Y38617D01*
Y40697D01*
X-134984Y40697D01*
X-135159Y40672D01*
X-135506Y40727D01*
X-135822Y40885D01*
X-136075Y41129D01*
X-136160Y41284D01*
X-136196Y41350D01*
X-136252Y41490D01*
X-136290Y41637D01*
X-136308Y41787D01*
X-136307Y41862D01*
Y41862D01*
X-136307Y41862D01*
X-136306Y41966D01*
X-136265Y42169D01*
X-136189Y42362D01*
X-136079Y42538D01*
X-136010Y42614D01*
Y42614D01*
X-131549Y49305D01*
X-135143D01*
Y49305D01*
X-135376Y49302D01*
X-135807Y49477D01*
X-136136Y49806D01*
X-136311Y50238D01*
X-136307Y50471D01*
X-136307Y50471D01*
X-136304Y50699D01*
X-136123Y51118D01*
X-135795Y51436D01*
X-135371Y51604D01*
X-135143Y51601D01*
X-135143D01*
Y51601D01*
X-123665Y51601D01*
X-123434Y51611D01*
X-123003Y51442D01*
D02*
G37*
G36*
X-122727Y41156D02*
X-122727Y41156D01*
D01*
D01*
D01*
D01*
D01*
X-122727Y41156D01*
D02*
G37*
G36*
X-122517Y27857D02*
Y27857D01*
Y27857D01*
Y27857D01*
D02*
G37*
G36*
X-136293Y27857D02*
Y27857D01*
Y27857D01*
Y27857D01*
D02*
G37*
G36*
X-129406Y34743D02*
X-128954Y34742D01*
X-128060Y34623D01*
X-127189Y34388D01*
X-126356Y34042D01*
X-125575Y33590D01*
X-124859Y33041D01*
X-124221Y32403D01*
X-123671Y31687D01*
X-123219Y30906D01*
X-122873Y30073D01*
X-122638Y29202D01*
X-122518Y28308D01*
X-122517Y27887D01*
X-122517Y27857D01*
X-122517Y27783D01*
X-122518Y27406D01*
X-122638Y26511D01*
X-122873Y25640D01*
X-123219Y24807D01*
X-123671Y24026D01*
X-124221Y23310D01*
X-124859Y22673D01*
X-125574Y22123D01*
X-126355Y21672D01*
X-127189Y21325D01*
X-128060Y21091D01*
X-128954Y20971D01*
X-129405Y20970D01*
X-129856Y20971D01*
X-130751Y21091D01*
X-131622Y21325D01*
X-132455Y21672D01*
X-133236Y22123D01*
X-133952Y22673D01*
X-134590Y23310D01*
X-135139Y24026D01*
X-135591Y24807D01*
X-135937Y25640D01*
X-136172Y26511D01*
X-136292Y27406D01*
X-136293Y27857D01*
Y27857D01*
X-136292Y28308D01*
X-136172Y29202D01*
X-135937Y30073D01*
X-135591Y30906D01*
X-135139Y31687D01*
X-134590Y32403D01*
X-133952Y33041D01*
X-133236Y33590D01*
X-132455Y34042D01*
X-131622Y34388D01*
X-130751Y34623D01*
X-129856Y34742D01*
X-129405Y34743D01*
X-129406Y34743D01*
D02*
G37*
%LPC*%
G36*
X-83755Y96750D02*
X-85445D01*
X-87007Y96103D01*
X-88203Y94908D01*
X-88850Y93345D01*
Y93320D01*
X-90120Y92621D01*
X-91155Y93050D01*
X-92845D01*
X-94407Y92403D01*
X-95603Y91207D01*
X-96250Y89645D01*
Y87955D01*
X-95603Y86393D01*
X-94407Y85197D01*
X-92845Y84550D01*
X-91155D01*
X-89593Y85197D01*
X-88397Y86393D01*
X-87750Y87955D01*
Y87980D01*
X-86480Y88679D01*
X-85445Y88250D01*
X-83755D01*
X-82192Y88897D01*
X-80997Y90093D01*
X-80350Y91655D01*
Y93345D01*
X-80997Y94908D01*
X-82192Y96103D01*
X-83755Y96750D01*
D02*
G37*
G36*
X-67805Y91026D02*
X-69495D01*
X-71057Y90379D01*
X-72253Y89183D01*
X-72900Y87621D01*
Y85931D01*
X-72253Y84368D01*
X-71057Y83173D01*
X-69495Y82526D01*
X-67805D01*
X-66243Y83173D01*
X-65047Y84368D01*
X-64400Y85931D01*
Y87621D01*
X-65047Y89183D01*
X-66243Y90379D01*
X-67805Y91026D01*
D02*
G37*
G36*
X-204405Y79550D02*
X-206095D01*
X-207657Y78903D01*
X-208853Y77708D01*
X-209500Y76145D01*
Y74455D01*
X-208853Y72893D01*
X-207657Y71697D01*
X-206095Y71050D01*
X-204405D01*
X-202843Y71697D01*
X-201647Y72893D01*
X-201000Y74455D01*
Y76145D01*
X-201647Y77708D01*
X-202843Y78903D01*
X-204405Y79550D01*
D02*
G37*
G36*
X-216155D02*
X-217845D01*
X-219407Y78903D01*
X-220603Y77708D01*
X-221250Y76145D01*
Y74455D01*
X-220603Y72893D01*
X-219407Y71697D01*
X-217845Y71050D01*
X-216155D01*
X-214592Y71697D01*
X-213397Y72893D01*
X-212750Y74455D01*
Y76145D01*
X-213397Y77708D01*
X-214592Y78903D01*
X-216155Y79550D01*
D02*
G37*
G36*
X-227905D02*
X-229595D01*
X-231157Y78903D01*
X-232353Y77708D01*
X-233000Y76145D01*
Y74455D01*
X-232353Y72893D01*
X-231157Y71697D01*
X-229595Y71050D01*
X-227905D01*
X-226343Y71697D01*
X-225147Y72893D01*
X-224500Y74455D01*
Y76145D01*
X-225147Y77708D01*
X-226343Y78903D01*
X-227905Y79550D01*
D02*
G37*
G36*
X-178395Y63362D02*
X-178645Y63262D01*
X-178913Y63266D01*
X-179337Y63097D01*
X-179530Y62910D01*
X-179780Y62811D01*
X-180107Y62493D01*
X-180214Y62246D01*
X-180406Y62059D01*
X-180587Y61640D01*
X-180592Y61371D01*
X-180698Y61125D01*
X-180702Y60897D01*
X-180698Y60886D01*
X-180702Y60875D01*
X-180702Y60874D01*
Y60855D01*
X-180700Y60853D01*
X-180702Y60850D01*
X-180701Y60830D01*
X-180699Y60825D01*
X-180701Y60820D01*
X-180701Y60799D01*
X-180699Y60794D01*
X-180701Y60789D01*
X-180701Y60769D01*
X-180697Y60760D01*
X-180699Y60753D01*
X-180699Y60753D01*
X-180700Y60750D01*
X-180699Y60730D01*
X-180697Y60725D01*
X-180699Y60720D01*
X-180699Y60717D01*
X-180697Y60714D01*
X-180699Y60710D01*
X-180698Y60705D01*
X-180697Y60702D01*
X-180698Y60699D01*
X-180698Y60693D01*
X-180697Y60691D01*
X-180697Y60688D01*
X-180697Y60687D01*
X-180697Y60687D01*
X-180697Y60682D01*
X-180695Y60677D01*
X-180697Y60672D01*
X-180696Y60664D01*
X-180693Y60659D01*
X-180695Y60653D01*
X-180695Y60652D01*
X-180695Y60651D01*
X-180695Y60646D01*
X-180695Y60646D01*
X-180695Y60646D01*
X-180695Y60641D01*
X-180692Y60634D01*
X-180694Y60628D01*
X-180693Y60625D01*
X-180691Y60621D01*
X-180693Y60616D01*
X-180692Y60610D01*
X-180691Y60607D01*
Y60607D01*
X-180692Y60604D01*
X-180691Y60599D01*
X-180691Y60598D01*
Y55146D01*
X-180695Y55030D01*
X-180632Y54860D01*
X-180664Y54682D01*
X-180602Y54405D01*
X-180497Y54257D01*
X-180482Y54076D01*
X-180351Y53824D01*
X-180212Y53708D01*
X-180151Y53537D01*
X-179960Y53327D01*
X-179796Y53250D01*
X-179693Y53101D01*
X-179573Y53024D01*
X-179560Y53022D01*
X-179552Y53011D01*
X-179480Y52966D01*
X-179381Y52950D01*
X-179311Y52877D01*
X-179155Y52808D01*
X-179055Y52806D01*
X-178976Y52744D01*
X-178812Y52698D01*
X-178712Y52710D01*
X-178626Y52660D01*
X-178456Y52637D01*
X-178360Y52662D01*
X-178267Y52625D01*
X-178213Y52625D01*
X-178015Y52617D01*
X-177751Y52714D01*
X-177470Y52708D01*
X-177040Y52875D01*
X-176837Y53069D01*
X-176577Y53176D01*
X-176250Y53501D01*
X-176142Y53760D01*
X-175989Y53918D01*
X-175677Y53961D01*
X-174635Y53830D01*
X-174496Y53709D01*
X-174435Y53534D01*
X-174243Y53317D01*
X-174077Y53236D01*
X-173973Y53084D01*
X-173852Y53004D01*
X-173833Y53001D01*
X-173821Y52985D01*
X-173710Y52916D01*
X-173566Y52893D01*
X-173458Y52794D01*
X-173211Y52705D01*
X-173066Y52712D01*
X-172940Y52638D01*
X-172680Y52602D01*
X-172539Y52639D01*
X-172401Y52592D01*
X-172140Y52610D01*
X-172009Y52675D01*
X-171864Y52658D01*
X-171745Y52691D01*
X-171674Y52710D01*
X-171583Y52779D01*
X-171470Y52782D01*
X-171311Y52853D01*
X-171233Y52935D01*
X-171122Y52956D01*
X-170976Y53052D01*
X-170912Y53145D01*
X-170806Y53183D01*
X-170677Y53300D01*
X-170629Y53402D01*
X-170530Y53457D01*
X-170476Y53525D01*
X-170470Y53546D01*
X-170451Y53556D01*
X-170391Y53636D01*
X-170360Y53756D01*
X-170266Y53836D01*
X-170235Y53898D01*
X-169723Y53973D01*
X-169120Y53919D01*
X-168888Y53843D01*
X-168878Y53825D01*
X-168739Y53708D01*
X-168678Y53536D01*
X-168487Y53325D01*
X-168345Y53258D01*
X-168321Y53198D01*
X-168276Y53180D01*
X-168219Y53097D01*
X-168099Y53019D01*
X-168081Y53016D01*
X-168070Y53001D01*
X-167960Y52934D01*
X-167817Y52911D01*
X-167710Y52814D01*
X-167466Y52727D01*
X-167321Y52734D01*
X-167196Y52660D01*
X-166940Y52625D01*
X-166800Y52661D01*
X-166663Y52615D01*
X-166405Y52632D01*
X-166275Y52697D01*
X-166131Y52680D01*
X-166014Y52712D01*
X-165942Y52731D01*
X-165853Y52799D01*
X-165741Y52802D01*
X-165583Y52872D01*
X-165507Y52952D01*
X-165397Y52972D01*
X-165252Y53066D01*
X-165189Y53157D01*
X-165084Y53194D01*
X-164955Y53309D01*
X-164907Y53410D01*
X-164809Y53462D01*
X-164755Y53529D01*
X-164749Y53548D01*
X-164731Y53558D01*
X-164671Y53636D01*
X-164639Y53754D01*
X-164546Y53831D01*
X-164454Y54006D01*
X-164442Y54127D01*
X-164363Y54219D01*
X-164302Y54407D01*
X-164312Y54528D01*
X-164250Y54633D01*
X-164222Y54828D01*
X-164252Y54946D01*
X-164209Y55060D01*
X-164211Y55139D01*
Y60858D01*
X-164216Y60871D01*
X-164211Y60884D01*
X-164211Y60897D01*
X-164214Y60903D01*
X-164212Y60908D01*
X-164212Y60915D01*
X-164214Y60920D01*
X-164212Y60925D01*
X-164212Y60938D01*
X-164216Y60946D01*
X-164213Y60954D01*
X-164214Y60967D01*
X-164217Y60974D01*
X-164214Y60982D01*
X-164215Y60996D01*
X-164216Y60998D01*
X-164216Y61000D01*
X-164216Y61014D01*
X-164216Y61015D01*
X-164217Y61018D01*
X-164221Y61025D01*
X-164217Y61034D01*
X-164218Y61048D01*
X-164221Y61054D01*
X-164219Y61061D01*
X-164220Y61074D01*
X-164225Y61083D01*
X-164222Y61092D01*
X-164222Y61099D01*
X-164234Y61122D01*
X-164230Y61137D01*
X-164228Y61144D01*
X-164228Y61150D01*
X-164228Y61150D01*
X-164230Y61152D01*
X-164229Y61155D01*
X-164229Y61155D01*
X-164229Y61156D01*
X-164230Y61161D01*
X-164230Y61162D01*
X-164230Y61166D01*
X-164230Y61166D01*
X-164231Y61172D01*
X-164232Y61174D01*
X-164232Y61175D01*
X-164232Y61177D01*
X-164233Y61179D01*
X-164232Y61181D01*
X-164233Y61181D01*
X-164234Y61184D01*
X-164233Y61190D01*
X-164233Y61191D01*
X-164233Y61192D01*
X-164233Y61192D01*
X-164234Y61195D01*
X-164236Y61200D01*
X-164235Y61206D01*
X-164235Y61209D01*
X-164238Y61213D01*
X-164238Y61213D01*
X-164238Y61217D01*
X-164237Y61222D01*
X-164237Y61224D01*
X-164241Y61230D01*
X-164241Y61231D01*
X-164241Y61231D01*
X-164243Y61235D01*
X-164241Y61246D01*
X-164241Y61247D01*
X-164248Y61258D01*
X-164247Y61262D01*
X-164247Y61263D01*
X-164251Y61269D01*
X-164248Y61286D01*
X-164251Y61302D01*
X-164251Y61303D01*
X-164251Y61304D01*
X-164254Y61321D01*
X-164256Y61324D01*
X-164255Y61327D01*
X-164257Y61339D01*
X-164265Y61351D01*
X-164263Y61365D01*
X-164264Y61371D01*
X-164264Y61371D01*
X-164264Y61371D01*
X-164265Y61373D01*
X-164265Y61375D01*
X-164266Y61381D01*
X-164266Y61382D01*
X-164266Y61383D01*
X-164268Y61391D01*
X-164268Y61392D01*
X-164268Y61393D01*
X-164270Y61403D01*
X-164270Y61403D01*
X-164270Y61403D01*
X-164273Y61408D01*
X-164272Y61413D01*
X-164275Y61424D01*
X-164330Y61506D01*
X-164323Y61591D01*
X-164324Y61595D01*
X-164326Y61599D01*
X-164327Y61600D01*
X-164326Y61601D01*
X-164327Y61601D01*
Y61602D01*
X-164327Y61603D01*
X-164328Y61603D01*
X-164327Y61604D01*
X-164329Y61610D01*
X-164329Y61610D01*
X-164330Y61611D01*
X-164330Y61611D01*
X-164330Y61611D01*
X-164331Y61613D01*
X-164332Y61614D01*
X-164332Y61617D01*
X-164332Y61617D01*
Y61617D01*
X-164332Y61618D01*
X-164332Y61618D01*
X-164332Y61618D01*
X-164333Y61619D01*
X-164333Y61620D01*
X-164333Y61621D01*
X-164335Y61623D01*
X-164335Y61627D01*
X-164336Y61630D01*
X-164338Y61632D01*
X-164338Y61634D01*
X-164338Y61635D01*
X-164345Y61642D01*
X-164344Y61653D01*
X-164345Y61656D01*
X-164348Y61659D01*
Y61659D01*
X-164348Y61660D01*
Y61660D01*
X-164348Y61661D01*
X-164349Y61661D01*
Y61662D01*
X-164349Y61662D01*
X-164349Y61666D01*
X-164350Y61669D01*
X-164354Y61673D01*
X-164353Y61679D01*
X-164354Y61680D01*
X-164358Y61685D01*
Y61685D01*
X-164359Y61688D01*
X-164360Y61689D01*
X-164360Y61691D01*
X-164362Y61696D01*
X-164363Y61697D01*
X-164363Y61697D01*
X-164363Y61699D01*
X-164364Y61700D01*
X-164364Y61702D01*
X-164365Y61703D01*
X-164365Y61703D01*
X-164367Y61708D01*
X-164368Y61710D01*
X-164368Y61711D01*
X-164368Y61712D01*
X-164372Y61716D01*
X-164372Y61721D01*
X-164372Y61722D01*
X-164375Y61726D01*
X-164375Y61732D01*
X-164376Y61734D01*
X-164378Y61736D01*
X-164378Y61738D01*
X-164379Y61741D01*
X-164382Y61745D01*
X-164383Y61748D01*
X-164383Y61748D01*
X-164384Y61749D01*
X-164384Y61750D01*
X-164384Y61751D01*
X-164386Y61753D01*
X-164386Y61754D01*
X-164386Y61755D01*
X-164387Y61756D01*
X-164387Y61759D01*
X-164387Y61760D01*
X-164387Y61762D01*
X-164388Y61765D01*
X-164391Y61767D01*
X-164391Y61768D01*
X-164391Y61770D01*
Y61771D01*
X-164391Y61773D01*
X-164395Y61776D01*
X-164395Y61777D01*
X-164398Y61779D01*
X-164398Y61780D01*
X-164398Y61780D01*
X-164401Y61784D01*
X-164401Y61790D01*
X-164401Y61791D01*
X-164402Y61791D01*
X-164402Y61792D01*
X-164402Y61793D01*
X-164402Y61800D01*
X-164403Y61803D01*
X-164406Y61805D01*
X-164406Y61809D01*
X-164406Y61810D01*
X-164410Y61814D01*
X-164410Y61815D01*
X-164412Y61821D01*
X-164414Y61823D01*
X-164414Y61825D01*
X-164415Y61827D01*
X-164415Y61828D01*
X-164416Y61828D01*
X-164416Y61829D01*
X-164416Y61831D01*
X-164417Y61833D01*
X-164418Y61834D01*
X-164418Y61835D01*
X-164418Y61835D01*
X-164419Y61836D01*
X-164422Y61839D01*
Y61843D01*
X-164423Y61847D01*
X-164423Y61849D01*
X-164424Y61851D01*
X-164426Y61853D01*
Y61854D01*
X-164426Y61855D01*
X-164430Y61858D01*
X-164430Y61860D01*
X-164432Y61865D01*
X-164432Y61865D01*
X-164432Y61866D01*
X-164433Y61866D01*
X-164433Y61873D01*
X-164434Y61875D01*
X-164438Y61879D01*
X-164438Y61880D01*
X-164438Y61881D01*
X-164438Y61886D01*
X-164438Y61887D01*
X-164443Y61891D01*
X-164443Y61894D01*
X-164444Y61896D01*
X-164446Y61899D01*
Y61899D01*
X-164447Y61900D01*
X-164447Y61901D01*
Y61904D01*
X-164447Y61904D01*
X-164448Y61904D01*
X-164448Y61905D01*
X-164450Y61908D01*
X-164450Y61908D01*
X-164450Y61908D01*
X-164450Y61908D01*
X-164452Y61910D01*
X-164452Y61911D01*
X-164452Y61918D01*
X-164453Y61921D01*
X-164456Y61923D01*
Y61923D01*
X-164456Y61924D01*
X-164460Y61928D01*
X-164460Y61936D01*
X-164461Y61939D01*
X-164464Y61942D01*
X-164465Y61943D01*
X-164467Y61946D01*
X-164468Y61954D01*
X-164468Y61956D01*
X-164472Y61960D01*
X-164473Y61961D01*
X-164483Y61969D01*
X-164484Y61971D01*
X-164485Y61974D01*
X-164485Y61975D01*
X-164488Y61978D01*
X-164490Y61994D01*
X-164491Y61997D01*
X-164501Y62005D01*
X-164502Y62018D01*
X-164502Y62018D01*
X-164504Y62020D01*
X-164504Y62022D01*
X-164505Y62023D01*
X-164508Y62025D01*
X-164508Y62029D01*
X-164508Y62029D01*
X-164511Y62032D01*
X-164512Y62035D01*
X-164513Y62036D01*
X-164519Y62042D01*
X-164520Y62050D01*
X-164521Y62051D01*
X-164531Y62058D01*
X-164533Y62070D01*
X-164533Y62072D01*
X-164542Y62078D01*
X-164544Y62088D01*
X-164545Y62090D01*
X-164546Y62091D01*
X-164546Y62093D01*
X-164547Y62093D01*
X-164557Y62100D01*
X-164563Y62134D01*
X-164567Y62140D01*
X-164569Y62142D01*
X-164569Y62145D01*
X-164578Y62157D01*
X-164580Y62159D01*
X-164581Y62162D01*
X-164589Y62175D01*
X-164592Y62177D01*
X-164592Y62180D01*
X-164600Y62193D01*
X-164603Y62195D01*
X-164603Y62198D01*
X-164608Y62204D01*
X-164620Y62212D01*
X-164622Y62227D01*
X-164632Y62241D01*
X-164636Y62243D01*
X-164636Y62247D01*
X-164646Y62261D01*
X-164650Y62263D01*
X-164651Y62268D01*
X-164663Y62285D01*
Y62285D01*
X-164673Y62299D01*
X-164676Y62301D01*
X-164677Y62305D01*
X-164687Y62319D01*
X-164690Y62321D01*
X-164691Y62325D01*
X-164713Y62357D01*
X-164717Y62359D01*
X-164718Y62363D01*
X-164728Y62377D01*
X-164732Y62379D01*
X-164733Y62383D01*
X-164746Y62401D01*
X-164755Y62407D01*
X-164758Y62417D01*
X-164768Y62430D01*
X-164772Y62433D01*
X-164774Y62438D01*
X-164783Y62451D01*
X-164786Y62453D01*
X-164788Y62456D01*
X-164800Y62473D01*
X-164807Y62477D01*
X-164810Y62485D01*
X-164811Y62486D01*
X-164827Y62495D01*
X-164832Y62513D01*
X-164833Y62514D01*
X-164843Y62519D01*
X-164846Y62529D01*
X-164847Y62530D01*
X-164854Y62533D01*
X-164856Y62540D01*
X-164857Y62541D01*
X-164869Y62547D01*
X-164873Y62559D01*
X-164874Y62560D01*
X-164882Y62564D01*
X-164885Y62572D01*
X-164886Y62574D01*
X-164892Y62576D01*
X-164895Y62583D01*
X-164896Y62584D01*
X-164898Y62585D01*
X-164900Y62588D01*
X-164900Y62588D01*
X-164914Y62594D01*
X-164920Y62609D01*
X-164921Y62610D01*
X-164921Y62610D01*
X-164921Y62610D01*
X-164925Y62612D01*
X-164926Y62614D01*
X-164926Y62615D01*
X-164930Y62616D01*
X-164931Y62619D01*
X-164940Y62623D01*
X-164945Y62633D01*
X-164947Y62635D01*
X-164955Y62638D01*
X-164956Y62639D01*
X-164957Y62644D01*
X-164958Y62644D01*
X-164959Y62646D01*
X-164960Y62647D01*
X-164964Y62649D01*
X-164965Y62651D01*
X-164968Y62653D01*
X-164970Y62656D01*
X-164972Y62659D01*
X-164973Y62659D01*
X-164974Y62660D01*
X-164975Y62661D01*
X-164980Y62663D01*
X-164981Y62666D01*
X-164982Y62667D01*
X-164983Y62668D01*
X-164984Y62669D01*
X-164985Y62670D01*
X-164986Y62672D01*
X-164986Y62672D01*
X-164989Y62673D01*
X-164989Y62673D01*
X-164990Y62674D01*
X-164994Y62675D01*
X-164996Y62680D01*
X-164997Y62681D01*
X-164999Y62682D01*
X-165000Y62683D01*
X-165001Y62684D01*
X-165002Y62684D01*
X-165002Y62685D01*
X-165007Y62690D01*
X-165008Y62690D01*
X-165008Y62691D01*
X-165009Y62692D01*
X-165010Y62692D01*
X-165011Y62693D01*
X-165011Y62693D01*
X-165011Y62693D01*
X-165012Y62693D01*
X-165014Y62698D01*
X-165015Y62699D01*
X-165023Y62701D01*
X-165023Y62702D01*
X-165025Y62703D01*
X-165028Y62705D01*
X-165030Y62709D01*
X-165031Y62710D01*
X-165035Y62712D01*
X-165040Y62720D01*
X-165041Y62721D01*
X-165041Y62721D01*
X-165041Y62722D01*
X-165049Y62724D01*
X-165053Y62731D01*
X-165054Y62732D01*
X-165056Y62733D01*
X-165057Y62734D01*
X-165057Y62734D01*
X-165057Y62735D01*
X-165058Y62736D01*
X-165064Y62737D01*
X-165065Y62740D01*
X-165065Y62741D01*
X-165066Y62741D01*
X-165068Y62744D01*
X-165069Y62745D01*
X-165074Y62747D01*
X-165074Y62747D01*
X-165076Y62748D01*
X-165079Y62753D01*
X-165080Y62754D01*
X-165083Y62755D01*
X-165085Y62759D01*
X-165085Y62759D01*
X-165089Y62761D01*
X-165090Y62762D01*
X-165091Y62763D01*
X-165091Y62763D01*
X-165092Y62763D01*
X-165092Y62764D01*
X-165093Y62765D01*
X-165095Y62768D01*
X-165096Y62769D01*
X-165096Y62769D01*
X-165097Y62769D01*
X-165102Y62771D01*
X-165104Y62775D01*
X-165106Y62776D01*
X-165107Y62777D01*
X-165108Y62779D01*
X-165110Y62780D01*
X-165111Y62780D01*
X-165112Y62782D01*
X-165113Y62783D01*
X-165118Y62784D01*
X-165120Y62787D01*
X-165120Y62788D01*
X-165121Y62789D01*
X-165122Y62790D01*
X-165126Y62791D01*
X-165128Y62796D01*
X-165131Y62798D01*
X-165135Y62799D01*
X-165136Y62801D01*
X-165137Y62802D01*
X-165139Y62802D01*
X-165140Y62804D01*
X-165140Y62805D01*
X-165142Y62805D01*
X-165142Y62806D01*
X-165147Y62810D01*
X-165147Y62810D01*
X-165150Y62812D01*
X-165152Y62816D01*
X-165152Y62816D01*
X-165156Y62817D01*
X-165159Y62821D01*
X-165160Y62822D01*
X-165168Y62825D01*
X-165169Y62827D01*
X-165171Y62828D01*
X-165180Y62831D01*
X-165188Y62844D01*
X-165189Y62845D01*
X-165194Y62846D01*
X-165197Y62851D01*
X-165201Y62854D01*
X-165207Y62856D01*
X-165209Y62859D01*
X-165209Y62859D01*
X-165213Y62860D01*
X-165217Y62866D01*
X-165217Y62866D01*
X-165222Y62867D01*
X-165225Y62872D01*
X-165226Y62873D01*
X-165227Y62873D01*
X-165227Y62873D01*
X-165229Y62874D01*
X-165230Y62874D01*
X-165230Y62875D01*
X-165231Y62876D01*
X-165232Y62876D01*
X-165235Y62877D01*
X-165237Y62880D01*
X-165238Y62881D01*
X-165239Y62881D01*
X-165240Y62882D01*
X-165248Y62884D01*
X-165252Y62891D01*
X-165257Y62894D01*
X-165257D01*
X-165264Y62899D01*
X-165266Y62899D01*
X-165267Y62901D01*
X-165267Y62901D01*
X-165285Y62905D01*
X-165290Y62913D01*
X-165291Y62913D01*
X-165302Y62916D01*
X-165309Y62926D01*
X-165311Y62928D01*
X-165313Y62928D01*
X-165317Y62935D01*
X-165325Y62940D01*
X-165325Y62940D01*
X-165327Y62941D01*
X-165330Y62942D01*
X-165332Y62944D01*
X-165333Y62945D01*
X-165333Y62945D01*
X-165335Y62946D01*
X-165335Y62946D01*
X-165336Y62947D01*
X-165337Y62947D01*
X-165338Y62949D01*
X-165340Y62950D01*
X-165344Y62951D01*
X-165345Y62952D01*
X-165346Y62952D01*
X-165346Y62952D01*
X-165348Y62955D01*
X-165349Y62956D01*
X-165350Y62956D01*
X-165352Y62957D01*
X-165352Y62958D01*
X-165354Y62958D01*
X-165354Y62958D01*
X-165357Y62959D01*
X-165359Y62962D01*
X-165360Y62963D01*
X-165363Y62963D01*
X-165364Y62965D01*
X-165366Y62966D01*
X-165366Y62966D01*
X-165367Y62967D01*
X-165368Y62968D01*
X-165369Y62968D01*
X-165369Y62968D01*
X-165374Y62969D01*
X-165377Y62973D01*
X-165379Y62975D01*
X-165380Y62975D01*
X-165380Y62975D01*
X-165380Y62975D01*
X-165381Y62975D01*
X-165382Y62976D01*
X-165383Y62977D01*
X-165383Y62977D01*
X-165384Y62977D01*
X-165384Y62978D01*
X-165384Y62978D01*
X-165385Y62978D01*
X-165388Y62979D01*
X-165388Y62979D01*
X-165389Y62980D01*
X-165390Y62980D01*
X-165391Y62982D01*
X-165392Y62983D01*
X-165397Y62983D01*
X-165399Y62986D01*
X-165403Y62989D01*
X-165404Y62989D01*
X-165404Y62990D01*
X-165405Y62990D01*
X-165407Y62991D01*
X-165408Y62992D01*
X-165408Y62992D01*
X-165415Y62993D01*
X-165419Y62999D01*
X-165420Y63000D01*
X-165421Y63000D01*
X-165421Y63001D01*
X-165422Y63001D01*
X-165424Y63001D01*
X-165424Y63002D01*
X-165425Y63003D01*
X-165426Y63003D01*
X-165427Y63004D01*
X-165432Y63007D01*
X-165433Y63007D01*
X-165433Y63008D01*
X-165434Y63008D01*
X-165434Y63008D01*
X-165434Y63008D01*
X-165439Y63011D01*
X-165464Y63014D01*
X-165476Y63029D01*
X-165480Y63031D01*
X-165487Y63032D01*
X-165498Y63045D01*
X-165498Y63045D01*
X-165500Y63046D01*
X-165502Y63047D01*
X-165506Y63050D01*
X-165507D01*
X-165510Y63052D01*
X-165511Y63052D01*
X-165513Y63053D01*
X-165513Y63054D01*
X-165513D01*
X-165514Y63054D01*
X-165515Y63054D01*
X-165516Y63055D01*
X-165517Y63056D01*
X-165517Y63056D01*
X-165518Y63056D01*
X-165518Y63056D01*
X-165518Y63056D01*
X-165523Y63059D01*
X-165524Y63059D01*
X-165524Y63059D01*
X-165525Y63060D01*
X-165528Y63060D01*
X-165530Y63062D01*
X-165531Y63063D01*
X-165531D01*
X-165531Y63063D01*
X-165532Y63064D01*
X-165539Y63064D01*
X-165540Y63066D01*
X-165543Y63070D01*
X-165544Y63071D01*
X-165545Y63071D01*
X-165546Y63071D01*
X-165548Y63072D01*
X-165550Y63073D01*
X-165552Y63074D01*
X-165553Y63075D01*
X-165559Y63076D01*
X-165561Y63078D01*
X-165563Y63079D01*
X-165564Y63079D01*
X-165565Y63080D01*
X-165567Y63081D01*
X-165569Y63081D01*
X-165570Y63082D01*
X-165571Y63083D01*
X-165575Y63083D01*
X-165578Y63086D01*
X-165579Y63087D01*
X-165580Y63087D01*
X-165580Y63087D01*
X-165582Y63088D01*
X-165582D01*
X-165585Y63091D01*
X-165589Y63094D01*
X-165605Y63095D01*
X-165615Y63106D01*
X-165620Y63108D01*
X-165627Y63108D01*
X-165631Y63112D01*
X-165636Y63115D01*
X-165639Y63115D01*
X-165641Y63117D01*
X-165643Y63118D01*
X-165643Y63118D01*
X-165644Y63119D01*
X-165644D01*
X-165644Y63119D01*
X-165649Y63121D01*
X-165652Y63121D01*
X-165653Y63123D01*
X-165653Y63123D01*
X-165654Y63123D01*
X-165655Y63124D01*
X-165656Y63124D01*
X-165657Y63125D01*
X-165658Y63125D01*
X-165659Y63125D01*
X-165659Y63125D01*
X-165663Y63127D01*
X-165664D01*
X-165665Y63128D01*
X-165666Y63129D01*
X-165669Y63129D01*
X-165670Y63131D01*
X-165672Y63132D01*
X-165675Y63132D01*
X-165675Y63132D01*
X-165677Y63132D01*
X-165678Y63134D01*
X-165680Y63134D01*
X-165682Y63134D01*
X-165684Y63136D01*
X-165686Y63137D01*
X-165686D01*
X-165689Y63138D01*
X-165696Y63138D01*
X-165700Y63143D01*
X-165701Y63143D01*
X-165702Y63143D01*
X-165703Y63144D01*
X-165705Y63144D01*
X-165709Y63148D01*
X-165713Y63150D01*
X-165716Y63150D01*
X-165721Y63152D01*
X-165726Y63152D01*
X-165730Y63156D01*
X-165734Y63158D01*
X-165735Y63159D01*
X-165739Y63161D01*
X-165739D01*
X-165741Y63161D01*
X-165744Y63161D01*
X-165745Y63162D01*
X-165748Y63163D01*
X-165750D01*
X-165753Y63166D01*
X-165754Y63167D01*
X-165764Y63167D01*
X-165770Y63172D01*
X-165774Y63174D01*
X-165774D01*
X-165776Y63175D01*
X-165777Y63175D01*
X-165777Y63175D01*
X-165779Y63176D01*
X-165781Y63176D01*
X-165785Y63179D01*
X-165785Y63180D01*
X-165785Y63180D01*
X-165788Y63181D01*
X-165788D01*
X-165789Y63181D01*
X-165793Y63183D01*
X-165809Y63183D01*
X-165816Y63189D01*
X-165817Y63189D01*
X-165817D01*
X-165822Y63194D01*
X-165826Y63196D01*
X-165832Y63195D01*
X-165835Y63198D01*
X-165840Y63200D01*
X-165840D01*
X-165845Y63202D01*
X-165850Y63201D01*
X-165854Y63205D01*
X-165857Y63207D01*
X-165857Y63207D01*
X-165861Y63208D01*
X-165871Y63208D01*
X-165877Y63213D01*
X-165879Y63214D01*
X-165879Y63214D01*
X-165880Y63214D01*
X-165882Y63215D01*
X-165882Y63215D01*
X-165884Y63217D01*
X-165889Y63218D01*
X-165894Y63218D01*
X-165895Y63219D01*
X-165896Y63220D01*
X-165897Y63219D01*
X-165898Y63220D01*
X-165900Y63221D01*
X-165902Y63221D01*
X-165903Y63222D01*
X-165905Y63222D01*
X-165910Y63222D01*
X-165916Y63228D01*
X-165921Y63229D01*
X-165933Y63228D01*
X-165939Y63232D01*
X-165939Y63232D01*
X-165944Y63236D01*
X-165948Y63238D01*
X-165953Y63237D01*
X-165956Y63240D01*
X-165962Y63242D01*
X-165965Y63241D01*
X-165969Y63244D01*
X-165973Y63246D01*
X-165974Y63246D01*
X-165977Y63247D01*
X-165979Y63246D01*
X-165980Y63247D01*
X-165984Y63249D01*
X-165986Y63249D01*
X-165987Y63250D01*
X-165992Y63252D01*
X-165994Y63251D01*
X-165995Y63252D01*
X-165995Y63252D01*
X-165996Y63253D01*
X-165998Y63253D01*
X-166001Y63253D01*
X-166001Y63253D01*
X-166005Y63253D01*
X-166008Y63255D01*
X-166010Y63256D01*
X-166019Y63254D01*
X-166029Y63263D01*
X-166033Y63264D01*
X-166041Y63263D01*
X-166047Y63268D01*
X-166052Y63269D01*
X-166056Y63268D01*
X-166057Y63270D01*
X-166062Y63271D01*
X-166066Y63271D01*
X-166070Y63273D01*
X-166075Y63275D01*
X-166079Y63274D01*
X-166082Y63277D01*
X-166082Y63277D01*
X-166082Y63277D01*
X-166087Y63278D01*
X-166090Y63278D01*
X-166091Y63279D01*
X-166096Y63280D01*
X-166096Y63280D01*
X-166098Y63281D01*
X-166103Y63282D01*
X-166111Y63281D01*
X-166116Y63285D01*
X-166116Y63285D01*
X-166119Y63285D01*
X-166121Y63286D01*
X-166122Y63286D01*
X-166127Y63285D01*
X-166134Y63290D01*
X-166137Y63291D01*
X-166137Y63291D01*
X-166140Y63292D01*
X-166151Y63290D01*
X-166160Y63296D01*
X-166165Y63298D01*
X-166174Y63296D01*
X-166181Y63301D01*
X-166185Y63302D01*
X-166193Y63300D01*
X-166199Y63305D01*
X-166204Y63306D01*
X-166208Y63305D01*
X-166212Y63307D01*
X-166215Y63308D01*
X-166216Y63308D01*
X-166220Y63309D01*
X-166221Y63309D01*
X-166221Y63309D01*
X-166222Y63309D01*
X-166223Y63309D01*
X-166229Y63310D01*
X-166229Y63310D01*
X-166230Y63311D01*
X-166235Y63312D01*
X-166248Y63309D01*
X-166260Y63317D01*
X-166265Y63318D01*
X-166271Y63316D01*
X-166277Y63320D01*
X-166283Y63321D01*
X-166291Y63319D01*
X-166297Y63323D01*
X-166302Y63324D01*
X-166303Y63324D01*
X-166303Y63324D01*
X-166303Y63324D01*
X-166308Y63325D01*
X-166308Y63325D01*
X-166312Y63326D01*
X-166312Y63326D01*
X-166318Y63327D01*
X-166319Y63326D01*
X-166321Y63327D01*
X-166327Y63328D01*
X-166333Y63327D01*
X-166337Y63329D01*
X-166339Y63330D01*
X-166344Y63328D01*
X-166350Y63332D01*
X-166355Y63333D01*
X-166365Y63331D01*
X-166373Y63335D01*
X-166379Y63336D01*
X-166388Y63334D01*
X-166397Y63339D01*
X-166402Y63340D01*
X-166415Y63336D01*
X-166427Y63342D01*
X-166430Y63343D01*
X-166443Y63339D01*
X-166455Y63345D01*
X-166461Y63346D01*
X-166461Y63346D01*
X-166462Y63346D01*
X-166462Y63346D01*
X-166467Y63346D01*
X-166471Y63347D01*
X-166472Y63347D01*
X-166472Y63347D01*
X-166477Y63347D01*
X-166485Y63345D01*
X-166493Y63349D01*
X-166496Y63349D01*
X-166499Y63348D01*
X-166501Y63349D01*
X-166508Y63350D01*
X-166516Y63347D01*
X-166523Y63351D01*
X-166530Y63351D01*
X-166532Y63351D01*
X-166534Y63352D01*
X-166539Y63352D01*
X-166540Y63352D01*
X-166546Y63352D01*
X-166553Y63350D01*
X-166559Y63353D01*
X-166575Y63354D01*
X-166582Y63352D01*
X-166585Y63353D01*
X-166587Y63354D01*
X-166589Y63353D01*
X-166594Y63355D01*
X-166611Y63356D01*
X-166620Y63352D01*
X-166630Y63357D01*
X-166646Y63357D01*
X-166656Y63353D01*
X-166667Y63358D01*
X-166675Y63358D01*
X-166686Y63354D01*
X-166696Y63358D01*
X-166700Y63356D01*
X-166707Y63359D01*
X-178176Y63359D01*
X-178395Y63362D01*
D02*
G37*
G36*
X-156729Y62661D02*
X-157054Y62631D01*
X-157228Y62540D01*
X-157424Y62544D01*
X-157728Y62424D01*
X-157870Y62288D01*
X-158060Y62237D01*
X-158318Y62038D01*
X-158416Y61867D01*
X-158584Y61765D01*
X-158669Y61649D01*
X-158714Y61591D01*
X-158745Y61480D01*
X-158834Y61408D01*
X-158922Y61246D01*
X-158934Y61132D01*
X-159011Y61047D01*
X-159072Y60873D01*
X-159065Y60758D01*
X-159127Y60662D01*
X-159159Y60480D01*
X-159134Y60368D01*
X-159180Y60262D01*
X-159181Y60170D01*
X-159178Y60162D01*
X-159182Y60152D01*
Y60149D01*
X-159181Y60146D01*
X-159182Y60143D01*
X-159182Y60138D01*
X-159179Y60131D01*
X-159182Y60124D01*
X-159182Y60119D01*
X-159180Y60115D01*
X-159181Y60111D01*
X-159180Y60109D01*
X-159181Y60106D01*
X-159181Y60101D01*
X-159180Y60097D01*
X-159181Y60094D01*
X-159181Y60092D01*
X-159178Y60084D01*
X-159181Y60076D01*
X-159180Y60071D01*
X-159179Y60067D01*
X-159180Y60064D01*
X-159180Y60058D01*
X-159178Y60055D01*
X-159180Y60052D01*
X-159179Y60047D01*
X-159176Y60040D01*
X-159179Y60033D01*
X-159178Y60028D01*
X-159177Y60025D01*
X-159178Y60022D01*
X-159178Y60016D01*
X-159176Y60013D01*
X-159177Y60010D01*
X-159177Y60005D01*
X-159175Y60002D01*
X-159176Y59998D01*
X-159176Y59993D01*
X-159174Y59990D01*
X-159175Y59986D01*
X-159175Y59984D01*
X-159173Y59979D01*
X-159174Y59975D01*
X-159174Y59968D01*
X-159171Y59963D01*
X-159173Y59956D01*
X-159172Y59951D01*
X-159172Y59951D01*
X-159172Y59951D01*
X-159172Y59945D01*
X-159167Y59936D01*
X-159170Y59926D01*
X-159170Y59924D01*
X-159169Y59923D01*
X-159169Y59922D01*
X-159167Y59901D01*
X-159162Y59891D01*
X-159165Y59880D01*
X-159162Y59859D01*
X-159160Y59856D01*
Y57269D01*
X-159160Y57256D01*
X-159159Y57253D01*
X-159160Y57249D01*
X-159160Y57239D01*
X-159155Y57226D01*
X-159160Y57213D01*
X-159160Y57193D01*
X-159155Y57182D01*
X-159159Y57171D01*
X-159159Y57151D01*
X-159156Y57144D01*
X-159157Y57139D01*
X-159157Y57128D01*
X-159158Y57126D01*
X-159157Y57113D01*
X-159146Y56609D01*
X-159092Y56484D01*
X-159116Y56350D01*
X-158890Y55313D01*
X-158812Y55201D01*
X-158810Y55065D01*
X-158575Y54520D01*
X-159126Y53414D01*
X-159257Y53294D01*
X-159334Y53250D01*
X-159729D01*
X-161291Y52603D01*
X-162486Y51407D01*
X-163134Y49845D01*
Y48155D01*
X-162486Y46593D01*
X-161291Y45397D01*
X-159887Y44815D01*
X-159644Y44609D01*
X-159077Y43660D01*
X-159072Y43436D01*
X-159168Y43233D01*
X-159177Y43046D01*
X-159176Y43046D01*
X-159176Y43045D01*
X-159176Y43045D01*
X-159176Y43045D01*
X-159177Y43038D01*
X-159175Y43034D01*
X-159177Y43030D01*
X-159177Y43026D01*
X-159177Y43026D01*
X-159177Y43025D01*
X-159177Y43023D01*
X-159177Y43021D01*
X-159178Y43020D01*
X-159178Y43020D01*
X-159178Y43020D01*
X-159178Y43013D01*
X-159176Y43007D01*
X-159178Y43003D01*
X-159178Y43001D01*
X-159178Y43000D01*
X-159178Y43000D01*
Y42999D01*
X-159178Y42998D01*
X-159179Y42991D01*
X-159178Y42989D01*
X-159179Y42986D01*
X-159179Y42979D01*
X-159176Y42972D01*
X-159179Y42965D01*
X-159180Y42959D01*
X-159178Y42955D01*
X-159180Y42951D01*
X-159180Y42942D01*
X-159178Y42936D01*
X-159180Y42930D01*
X-159180Y42922D01*
X-159177Y42914D01*
X-159180Y42906D01*
X-159180Y42897D01*
X-159180Y42897D01*
X-159180Y42897D01*
X-159179Y42895D01*
X-159180Y42893D01*
X-159180Y42889D01*
X-159178Y42884D01*
X-159179Y42881D01*
Y42880D01*
X-159179Y42880D01*
X-159179Y42876D01*
X-159179Y42876D01*
X-159179Y42876D01*
Y42874D01*
X-159179Y42874D01*
X-159179Y42873D01*
Y42871D01*
X-159179Y42871D01*
X-159179Y42870D01*
Y42868D01*
X-159178Y42866D01*
X-159179Y42864D01*
Y42863D01*
X-159176Y42853D01*
X-159179Y42844D01*
X-159179Y42842D01*
X-159177Y42837D01*
X-159178Y42836D01*
X-159177Y42833D01*
X-159179Y42828D01*
X-159179Y42827D01*
X-159178Y42825D01*
X-159179Y42823D01*
X-159179Y42821D01*
X-159179Y42821D01*
X-159179Y42820D01*
X-159177Y42817D01*
X-159178Y42814D01*
X-159178Y42813D01*
X-159176Y42807D01*
X-159178Y42801D01*
X-159178Y42800D01*
X-159178Y42799D01*
X-159178Y42799D01*
X-159178Y42797D01*
X-159175Y42791D01*
X-159176Y42787D01*
X-159176Y42782D01*
X-159177Y42778D01*
X-159177Y42776D01*
X-159177Y42775D01*
X-159177Y42775D01*
X-159177Y42773D01*
X-159176Y42770D01*
X-159176Y42768D01*
X-159176Y42767D01*
X-159173Y42762D01*
X-159176Y42755D01*
X-159176Y42754D01*
X-159171Y42744D01*
X-159174Y42733D01*
X-159174Y42731D01*
X-159173Y42730D01*
X-159174Y42730D01*
X-159173Y42728D01*
X-159169Y42720D01*
X-159172Y42711D01*
X-159172Y42709D01*
X-159171Y42709D01*
X-159172Y42708D01*
X-159171Y42706D01*
X-159169Y42701D01*
X-159169Y42700D01*
X-159169Y42699D01*
X-159169Y42699D01*
X-159169Y42698D01*
X-159169Y42697D01*
X-159169Y42697D01*
X-159170Y42692D01*
X-159170Y42687D01*
X-159170Y42687D01*
X-159170Y42686D01*
X-159170Y42686D01*
X-159169Y42684D01*
X-159167Y42680D01*
X-159167Y42679D01*
X-159167Y42677D01*
X-159167Y42676D01*
X-159167Y42675D01*
X-159167Y42674D01*
X-159166Y42672D01*
X-159167Y42670D01*
X-159166Y42669D01*
X-159165Y42666D01*
X-159167Y42661D01*
X-159166Y42654D01*
X-159163Y42649D01*
X-159164Y42644D01*
X-159163Y42637D01*
X-159162Y42635D01*
X-159163Y42632D01*
X-159162Y42625D01*
X-159162Y42625D01*
X-159162Y42625D01*
X-159162Y42622D01*
X-159162Y42621D01*
X-159141Y42445D01*
X-159037Y42259D01*
X-159030Y42046D01*
X-158884Y41723D01*
X-158728Y41577D01*
X-158657Y41376D01*
X-158420Y41112D01*
X-158228Y41020D01*
X-158100Y40850D01*
X-157793Y40670D01*
X-157583Y40640D01*
X-157409Y40517D01*
X-157324Y40497D01*
X-146106Y36290D01*
X-146014Y36249D01*
X-145829Y36243D01*
X-145672Y36147D01*
X-145387Y36101D01*
X-145208Y36144D01*
X-145032Y36091D01*
X-144745Y36122D01*
X-144583Y36210D01*
X-144399Y36205D01*
X-144130Y36309D01*
X-143996Y36437D01*
X-143817Y36480D01*
X-143701Y36566D01*
X-143691Y36582D01*
X-143672Y36587D01*
X-143569Y36667D01*
X-143552Y36697D01*
X-143544Y36700D01*
X-143528Y36739D01*
X-143497Y36794D01*
X-143367Y36860D01*
X-143198Y37059D01*
X-143153Y37198D01*
X-143040Y37290D01*
X-142915Y37519D01*
X-142900Y37664D01*
X-142808Y37777D01*
X-142733Y38027D01*
X-142748Y38172D01*
X-142681Y38302D01*
X-142671Y38421D01*
X-142663Y38499D01*
X-142696Y38607D01*
X-142659Y38713D01*
X-142670Y38887D01*
X-142719Y38988D01*
X-142699Y39099D01*
X-142737Y39269D01*
X-142802Y39361D01*
X-142800Y39474D01*
X-142864Y39636D01*
X-142942Y39716D01*
X-142958Y39828D01*
X-143003Y39903D01*
X-143020Y39915D01*
X-143023Y39936D01*
X-143077Y40020D01*
X-143177Y40091D01*
X-143219Y40207D01*
X-143353Y40355D01*
X-143464Y40407D01*
X-143525Y40514D01*
X-143683Y40636D01*
X-143801Y40669D01*
X-143880Y40763D01*
X-144057Y40857D01*
X-144147Y40865D01*
X-144179Y40901D01*
X-144179Y40902D01*
X-144222Y40905D01*
X-144273Y40948D01*
X-144338Y40969D01*
X-146273Y41695D01*
Y44147D01*
X-144347Y44869D01*
X-144248Y44900D01*
X-144106Y45017D01*
X-143925Y45048D01*
X-143682Y45201D01*
X-143576Y45351D01*
X-143409Y45428D01*
X-143214Y45640D01*
X-143150Y45812D01*
X-143009Y45930D01*
X-142876Y46185D01*
X-142859Y46368D01*
X-142754Y46518D01*
X-142722Y46658D01*
X-142725Y46677D01*
X-142715Y46693D01*
X-142690Y46821D01*
X-142719Y46964D01*
X-142665Y47099D01*
X-142668Y47359D01*
X-142726Y47493D01*
X-142701Y47636D01*
X-142758Y47891D01*
X-142841Y48010D01*
X-142846Y48155D01*
X-142954Y48392D01*
X-143061Y48492D01*
X-143095Y48633D01*
X-143167Y48730D01*
X-143211Y48793D01*
X-143283Y48838D01*
X-143306Y48894D01*
X-143327Y48903D01*
X-143349Y48957D01*
X-143470Y49081D01*
X-143574Y49124D01*
X-143632Y49221D01*
X-143771Y49324D01*
X-143880Y49351D01*
X-143953Y49437D01*
X-144107Y49517D01*
X-144219Y49526D01*
X-144304Y49599D01*
X-144387Y49627D01*
X-144407Y49625D01*
X-144423Y49638D01*
X-144518Y49667D01*
X-144640Y49655D01*
X-144747Y49715D01*
X-144945Y49738D01*
X-145063Y49705D01*
X-145179Y49746D01*
X-145378Y49735D01*
X-145488Y49682D01*
X-145609Y49702D01*
X-145803Y49657D01*
X-145903Y49586D01*
X-146025Y49585D01*
X-146091Y49557D01*
X-153889Y46633D01*
X-154852Y47628D01*
X-154633Y48155D01*
Y49580D01*
X-153935Y50316D01*
X-153559Y50569D01*
X-153150Y50488D01*
X-153017Y50514D01*
X-152891Y50462D01*
X-152360Y50460D01*
X-152358Y50461D01*
X-152356Y50460D01*
X-149498D01*
X-149497Y50460D01*
X-149497Y50460D01*
X-149487D01*
X-149478Y50464D01*
X-149469Y50460D01*
X-149444Y50460D01*
X-149430Y50466D01*
X-149415Y50460D01*
X-149390Y50461D01*
X-149376Y50467D01*
X-149362Y50462D01*
X-149338Y50463D01*
X-149337Y50463D01*
X-148830Y50474D01*
X-148705Y50529D01*
X-148571Y50504D01*
X-147535Y50730D01*
X-147422Y50808D01*
X-147286Y50810D01*
X-146312Y51230D01*
X-146217Y51328D01*
X-146083Y51356D01*
X-145208Y51956D01*
X-145134Y52070D01*
X-145008Y52123D01*
X-144264Y52880D01*
X-144213Y53006D01*
X-144100Y53083D01*
X-143516Y53968D01*
X-143490Y54102D01*
X-143394Y54199D01*
X-142991Y55180D01*
X-142991Y55317D01*
X-142915Y55430D01*
X-142708Y56470D01*
X-142734Y56604D01*
X-142682Y56730D01*
X-142680Y57261D01*
X-142681Y57263D01*
X-142680Y57265D01*
Y60135D01*
X-142684Y60144D01*
X-142680Y60153D01*
X-142680Y60166D01*
X-142682Y60170D01*
X-142680Y60174D01*
X-142680Y60181D01*
X-142684Y60189D01*
X-142681Y60197D01*
X-142681Y60210D01*
X-142685Y60217D01*
X-142682Y60226D01*
X-142682Y60238D01*
X-142685Y60245D01*
X-142683Y60252D01*
X-142684Y60265D01*
X-142686Y60269D01*
X-142684Y60274D01*
X-142685Y60288D01*
X-142685Y60289D01*
X-142685Y60290D01*
X-142689Y60298D01*
X-142686Y60307D01*
X-142687Y60321D01*
X-142690Y60327D01*
X-142688Y60334D01*
X-142689Y60348D01*
X-142693Y60356D01*
X-142690Y60365D01*
X-142691Y60372D01*
X-142701Y60392D01*
X-142695Y60410D01*
X-142697Y60422D01*
X-142698Y60425D01*
X-142697Y60428D01*
X-142698Y60434D01*
X-142698Y60435D01*
X-142698Y60438D01*
X-142699Y60440D01*
X-142699Y60442D01*
X-142699Y60443D01*
X-142700Y60445D01*
X-142699Y60446D01*
X-142700Y60452D01*
X-142703Y60458D01*
X-142701Y60464D01*
X-142701Y60467D01*
X-142704Y60472D01*
X-142703Y60478D01*
X-142703Y60481D01*
X-142705Y60485D01*
X-142706Y60486D01*
X-142706Y60487D01*
X-142705Y60493D01*
X-142705Y60496D01*
X-142711Y60506D01*
X-142708Y60517D01*
X-142709Y60519D01*
X-142714Y60528D01*
X-142714Y60529D01*
X-142714Y60530D01*
X-142725Y60546D01*
X-142727Y60550D01*
X-142720Y60586D01*
X-142722Y60591D01*
X-142724Y60594D01*
X-142723Y60598D01*
X-142724Y60603D01*
X-142724Y60603D01*
X-142725Y60608D01*
X-142725Y60608D01*
X-142725Y60609D01*
X-142729Y60625D01*
X-142729Y60625D01*
X-142729Y60627D01*
X-142730Y60633D01*
X-142730Y60633D01*
X-142731Y60634D01*
X-142730Y60634D01*
X-142731Y60637D01*
X-142732Y60644D01*
X-142732Y60644D01*
X-142732Y60645D01*
X-142733Y60651D01*
X-142734Y60651D01*
X-142734Y60652D01*
X-142737Y60670D01*
X-142744Y60681D01*
X-142741Y60694D01*
X-142744Y60705D01*
X-142746Y60708D01*
X-142745Y60712D01*
X-142747Y60721D01*
X-142747Y60722D01*
X-142748Y60726D01*
X-142749Y60727D01*
X-142749Y60729D01*
X-142750Y60733D01*
X-142750Y60733D01*
X-142753Y60751D01*
X-142809Y60834D01*
X-142802Y60921D01*
X-142803Y60921D01*
X-142806Y60925D01*
X-142805Y60929D01*
X-142806Y60930D01*
X-142809Y60941D01*
X-142810Y60942D01*
X-142810Y60943D01*
X-142812Y60948D01*
X-142815Y60952D01*
X-142814Y60956D01*
X-142815Y60957D01*
X-142815Y60957D01*
X-142815Y60958D01*
X-142816Y60960D01*
X-142818Y60962D01*
X-142818Y60965D01*
X-142818Y60966D01*
X-142819Y60967D01*
X-142819Y60971D01*
X-142820Y60973D01*
X-142823Y60977D01*
X-142823Y60979D01*
X-142824Y60982D01*
X-142824Y60984D01*
X-142825Y60986D01*
X-142827Y60989D01*
X-142827Y60990D01*
X-142828Y60991D01*
X-142833Y60997D01*
X-142832Y61007D01*
X-142833Y61010D01*
X-142837Y61014D01*
Y61014D01*
X-142838Y61017D01*
X-142838Y61017D01*
X-142839Y61019D01*
X-142839Y61019D01*
X-142839Y61024D01*
X-142839Y61025D01*
X-142844Y61031D01*
Y61031D01*
X-142844Y61034D01*
X-142846Y61038D01*
X-142850Y61043D01*
X-142849Y61047D01*
X-142850Y61048D01*
X-142851Y61049D01*
X-142851Y61052D01*
X-142852Y61054D01*
X-142853Y61054D01*
X-142853Y61057D01*
X-142854Y61060D01*
X-142859Y61066D01*
Y61070D01*
X-142860Y61072D01*
X-142860Y61072D01*
X-142860Y61077D01*
X-142861Y61079D01*
X-142865Y61084D01*
X-142866Y61085D01*
X-142866Y61086D01*
X-142867Y61089D01*
X-142867Y61094D01*
X-142867Y61095D01*
X-142874Y61102D01*
X-142874Y61104D01*
X-142874Y61106D01*
X-142876Y61107D01*
X-142875Y61111D01*
X-142876Y61114D01*
X-142878Y61115D01*
Y61116D01*
X-142878Y61117D01*
X-142880Y61118D01*
Y61121D01*
X-142880Y61122D01*
X-142884Y61126D01*
X-142884Y61131D01*
X-142885Y61132D01*
X-142887Y61134D01*
X-142887Y61140D01*
X-142888Y61143D01*
X-142890Y61145D01*
X-142890Y61149D01*
X-142891Y61151D01*
X-142894Y61154D01*
X-142894Y61155D01*
X-142896Y61156D01*
X-142896Y61158D01*
X-142896Y61160D01*
X-142898Y61161D01*
X-142898Y61163D01*
X-142898Y61163D01*
X-142900Y61164D01*
X-142900Y61171D01*
X-142900Y61172D01*
X-142904Y61177D01*
X-142905Y61177D01*
X-142907Y61179D01*
X-142909Y61181D01*
X-142909Y61186D01*
X-142909Y61188D01*
X-142917Y61194D01*
X-142917Y61203D01*
X-142918Y61204D01*
X-142921Y61207D01*
X-142921Y61211D01*
X-142922Y61213D01*
X-142925Y61216D01*
X-142926Y61220D01*
X-142926Y61221D01*
X-142934Y61227D01*
X-142935Y61237D01*
X-142936Y61238D01*
X-142943Y61245D01*
X-142945Y61255D01*
X-142945Y61255D01*
X-142947Y61257D01*
X-142948Y61260D01*
X-142949Y61262D01*
X-142952Y61265D01*
X-142953Y61269D01*
X-142953Y61270D01*
X-142956Y61272D01*
X-142957Y61276D01*
X-142958Y61278D01*
X-142970Y61287D01*
X-142972Y61302D01*
X-142973Y61303D01*
X-142981Y61309D01*
X-142982Y61318D01*
X-142983Y61318D01*
X-142985Y61320D01*
X-142989Y61344D01*
X-142999Y61361D01*
X-143002Y61363D01*
X-143003Y61368D01*
X-143013Y61383D01*
X-143016Y61385D01*
X-143016Y61389D01*
X-143029Y61410D01*
X-143047Y61422D01*
X-143051Y61444D01*
X-143061Y61458D01*
X-143066Y61461D01*
X-143067Y61467D01*
X-143076Y61481D01*
X-143079Y61483D01*
X-143080Y61486D01*
X-143090Y61501D01*
X-143097Y61512D01*
X-143100Y61513D01*
X-143100Y61516D01*
X-143110Y61530D01*
X-143114Y61533D01*
X-143115Y61538D01*
X-143125Y61552D01*
X-143132Y61562D01*
X-143136Y61565D01*
X-143137Y61570D01*
X-143147Y61584D01*
X-143150Y61586D01*
X-143151Y61589D01*
X-143164Y61608D01*
X-143183Y61621D01*
X-143189Y61643D01*
X-143198Y61656D01*
X-143203Y61659D01*
X-143204Y61664D01*
X-143214Y61677D01*
X-143218Y61679D01*
X-143219Y61684D01*
X-143232Y61701D01*
X-143237Y61704D01*
X-143239Y61709D01*
X-143240Y61711D01*
X-143247Y61715D01*
X-143249Y61722D01*
X-143250Y61723D01*
X-143259Y61728D01*
X-143262Y61738D01*
X-143263Y61739D01*
X-143277Y61747D01*
X-143282Y61763D01*
X-143283Y61763D01*
X-143287Y61765D01*
X-143288Y61769D01*
X-143289Y61771D01*
X-143302Y61777D01*
X-143302Y61778D01*
X-143303Y61779D01*
X-143304Y61779D01*
X-143309Y61793D01*
X-143310Y61793D01*
X-143314Y61795D01*
X-143315Y61800D01*
X-143316Y61800D01*
X-143320Y61802D01*
X-143321Y61806D01*
X-143322Y61807D01*
X-143323Y61807D01*
X-143323Y61808D01*
X-143324Y61809D01*
X-143339Y61816D01*
X-143342Y61824D01*
X-143344Y61826D01*
X-143346Y61827D01*
X-143347Y61830D01*
X-143348Y61831D01*
X-143353Y61833D01*
X-143357Y61843D01*
X-143358Y61844D01*
X-143358Y61844D01*
X-143358Y61845D01*
X-143359Y61846D01*
X-143360Y61846D01*
X-143360Y61847D01*
X-143362Y61848D01*
X-143362Y61848D01*
X-143362Y61848D01*
X-143366Y61850D01*
X-143367Y61853D01*
X-143369Y61854D01*
X-143370Y61857D01*
X-143371Y61858D01*
X-143374Y61859D01*
X-143374Y61859D01*
X-143375Y61860D01*
X-143380Y61862D01*
X-143381Y61866D01*
X-143384Y61867D01*
X-143385Y61870D01*
X-143386Y61870D01*
X-143386Y61870D01*
X-143386Y61870D01*
X-143387Y61873D01*
X-143388Y61873D01*
X-143392Y61875D01*
X-143393Y61879D01*
X-143394Y61879D01*
X-143395Y61880D01*
X-143396Y61881D01*
X-143396Y61881D01*
X-143397Y61882D01*
X-143397Y61883D01*
X-143397Y61883D01*
X-143400Y61884D01*
X-143401Y61887D01*
X-143404Y61888D01*
X-143404Y61888D01*
X-143405Y61888D01*
X-143406Y61891D01*
X-143408Y61892D01*
X-143408Y61893D01*
X-143410Y61894D01*
X-143411Y61894D01*
X-143411Y61894D01*
X-143412Y61895D01*
X-143412Y61895D01*
X-143412Y61896D01*
X-143414Y61897D01*
X-143415Y61899D01*
X-143417Y61900D01*
X-143420Y61901D01*
X-143421Y61904D01*
X-143422Y61905D01*
X-143424Y61909D01*
X-143425Y61910D01*
X-143430Y61912D01*
X-143431Y61913D01*
X-143432Y61913D01*
X-143432Y61914D01*
X-143434Y61915D01*
X-143436Y61916D01*
X-143437Y61919D01*
X-143439Y61920D01*
X-143440Y61922D01*
X-143440Y61923D01*
X-143440Y61923D01*
X-143441Y61923D01*
X-143441Y61923D01*
X-143442Y61925D01*
X-143444Y61925D01*
X-143444Y61927D01*
X-143446Y61928D01*
X-143448Y61931D01*
X-143452Y61935D01*
X-143454Y61936D01*
X-143454Y61937D01*
X-143455Y61938D01*
X-143461Y61940D01*
X-143463Y61943D01*
X-143464Y61945D01*
X-143465Y61945D01*
X-143467Y61949D01*
X-143468Y61950D01*
X-143472Y61952D01*
X-143474Y61955D01*
X-143474Y61955D01*
X-143474Y61955D01*
X-143475Y61956D01*
X-143476Y61957D01*
X-143478Y61957D01*
X-143479Y61959D01*
X-143479Y61959D01*
X-143479Y61959D01*
X-143480Y61961D01*
X-143481Y61962D01*
X-143485Y61964D01*
X-143486Y61964D01*
X-143487Y61965D01*
X-143487Y61966D01*
X-143488Y61967D01*
X-143488Y61967D01*
X-143490Y61968D01*
X-143491Y61969D01*
X-143493Y61973D01*
X-143493Y61974D01*
X-143500Y61976D01*
X-143501Y61978D01*
X-143502Y61978D01*
X-143503Y61979D01*
X-143505Y61984D01*
X-143506Y61985D01*
X-143509Y61986D01*
X-143510Y61987D01*
X-143510Y61987D01*
X-143515Y61989D01*
X-143518Y61995D01*
X-143519Y61996D01*
X-143520Y61997D01*
X-143521Y61998D01*
X-143521Y61998D01*
X-143522Y61999D01*
X-143522Y61999D01*
X-143524Y62001D01*
X-143529Y62003D01*
X-143531Y62007D01*
X-143532Y62008D01*
X-143539Y62010D01*
X-143541Y62014D01*
X-143542Y62015D01*
X-143542Y62015D01*
X-143543Y62016D01*
X-143544Y62017D01*
X-143546Y62019D01*
X-143547Y62019D01*
X-143548Y62021D01*
X-143549Y62021D01*
X-143549Y62021D01*
X-143550Y62024D01*
X-143552Y62025D01*
X-143557Y62027D01*
X-143558Y62029D01*
X-143558Y62029D01*
X-143560Y62033D01*
X-143561Y62033D01*
X-143565Y62035D01*
X-143571Y62039D01*
X-143571Y62039D01*
X-143571Y62040D01*
X-143573Y62040D01*
X-143575Y62046D01*
X-143577Y62047D01*
X-143577Y62047D01*
X-143578Y62048D01*
X-143584Y62050D01*
X-143586Y62052D01*
X-143588Y62054D01*
X-143589Y62055D01*
X-143592Y62059D01*
X-143592Y62060D01*
X-143593Y62060D01*
X-143593Y62060D01*
X-143593Y62060D01*
X-143595Y62061D01*
X-143596Y62062D01*
X-143600Y62063D01*
X-143602Y62068D01*
X-143603Y62069D01*
X-143606Y62070D01*
X-143608Y62072D01*
X-143608Y62073D01*
X-143610Y62073D01*
X-143611Y62075D01*
X-143612Y62076D01*
X-143612Y62076D01*
X-143612Y62076D01*
X-143615Y62077D01*
X-143615Y62078D01*
X-143616Y62079D01*
X-143616D01*
X-143617Y62080D01*
X-143619Y62080D01*
X-143619Y62081D01*
X-143620Y62082D01*
X-143625Y62083D01*
X-143626Y62084D01*
X-143628Y62087D01*
X-143628Y62087D01*
X-143628Y62088D01*
X-143630Y62090D01*
X-143631Y62092D01*
X-143632Y62092D01*
X-143636Y62094D01*
X-143638Y62098D01*
X-143639Y62098D01*
X-143643Y62100D01*
X-143653Y62107D01*
X-143655Y62107D01*
X-143659Y62114D01*
X-143659Y62114D01*
X-143661Y62115D01*
X-143661Y62116D01*
X-143665Y62119D01*
X-143677Y62122D01*
X-143682Y62132D01*
X-143684Y62133D01*
X-143685Y62133D01*
X-143686Y62134D01*
X-143686Y62135D01*
X-143687Y62135D01*
X-143688Y62136D01*
X-143688Y62136D01*
X-143689Y62137D01*
X-143690Y62138D01*
X-143691Y62139D01*
X-143697Y62140D01*
X-143700Y62146D01*
X-143701Y62147D01*
X-143709Y62149D01*
X-143712Y62152D01*
X-143714Y62156D01*
X-143715Y62157D01*
X-143718Y62158D01*
X-143724Y62162D01*
X-143725Y62162D01*
X-143725Y62163D01*
X-143734Y62169D01*
X-143736Y62173D01*
X-143737Y62174D01*
X-143748Y62176D01*
X-143754Y62186D01*
X-143756Y62187D01*
X-143761Y62188D01*
X-143763Y62192D01*
X-143764Y62193D01*
X-143767Y62193D01*
X-143767Y62193D01*
X-143768Y62194D01*
X-143771Y62195D01*
X-143773Y62199D01*
X-143774Y62199D01*
X-143780Y62201D01*
X-143783Y62206D01*
X-143784Y62206D01*
X-143788Y62207D01*
X-143790Y62210D01*
X-143790Y62210D01*
X-143791Y62211D01*
X-143792Y62211D01*
X-143794Y62213D01*
X-143795Y62213D01*
X-143796Y62214D01*
X-143801Y62215D01*
X-143804Y62220D01*
X-143809Y62223D01*
X-143813Y62224D01*
X-143815Y62227D01*
X-143820Y62230D01*
X-143820D01*
X-143821Y62230D01*
X-143826Y62231D01*
X-143829Y62235D01*
X-143829Y62236D01*
X-143845Y62239D01*
X-143855Y62252D01*
X-143855Y62252D01*
X-143865Y62254D01*
X-143871Y62262D01*
X-143876Y62265D01*
X-143877Y62266D01*
X-143878Y62267D01*
X-143883Y62270D01*
X-143886Y62270D01*
X-143887Y62272D01*
X-143888Y62273D01*
X-143889Y62273D01*
X-143890Y62274D01*
X-143891Y62274D01*
X-143893Y62275D01*
X-143895Y62277D01*
X-143896Y62278D01*
X-143898Y62278D01*
X-143898Y62279D01*
X-143899Y62280D01*
X-143902Y62280D01*
X-143904Y62283D01*
X-143905Y62283D01*
X-143907Y62284D01*
X-143907Y62284D01*
X-143908Y62285D01*
X-143908Y62285D01*
X-143916Y62286D01*
X-143919Y62291D01*
X-143922Y62292D01*
X-143922Y62292D01*
X-143924Y62294D01*
X-143925Y62295D01*
X-143930Y62296D01*
X-143933Y62300D01*
X-143935Y62301D01*
X-143940Y62302D01*
X-143941Y62302D01*
X-143944Y62304D01*
X-143945Y62304D01*
X-143948Y62308D01*
X-143953Y62311D01*
X-143971Y62313D01*
X-143978Y62321D01*
X-143979Y62322D01*
X-143983Y62322D01*
X-143991Y62332D01*
X-143996Y62334D01*
X-144010Y62335D01*
X-144017Y62343D01*
X-144022Y62346D01*
X-144024Y62346D01*
X-144027Y62349D01*
X-144031Y62351D01*
X-144033Y62352D01*
X-144034Y62352D01*
X-144034D01*
X-144034Y62352D01*
X-144035Y62352D01*
X-144035Y62352D01*
X-144036Y62353D01*
X-144041Y62356D01*
X-144043Y62356D01*
X-144044Y62357D01*
X-144045Y62358D01*
X-144048Y62358D01*
X-144049Y62360D01*
X-144050Y62360D01*
X-144051Y62361D01*
X-144052Y62361D01*
X-144054Y62361D01*
X-144055Y62362D01*
X-144056Y62363D01*
X-144057Y62363D01*
X-144059Y62365D01*
X-144060Y62366D01*
X-144063Y62366D01*
X-144063Y62366D01*
X-144064Y62366D01*
X-144065Y62366D01*
X-144066Y62368D01*
X-144068Y62369D01*
X-144069Y62369D01*
X-144071Y62371D01*
X-144073Y62372D01*
X-144077Y62372D01*
X-144077Y62372D01*
X-144079Y62373D01*
X-144081Y62373D01*
X-144083Y62375D01*
X-144088Y62378D01*
X-144091Y62378D01*
X-144092Y62379D01*
X-144093Y62379D01*
X-144094Y62381D01*
X-144095Y62381D01*
X-144097Y62381D01*
X-144098Y62382D01*
X-144100Y62383D01*
X-144100Y62383D01*
X-144101Y62384D01*
X-144102Y62384D01*
X-144103Y62386D01*
X-144108Y62388D01*
X-144109Y62388D01*
X-144110Y62388D01*
X-144112Y62388D01*
X-144113Y62390D01*
X-144115Y62390D01*
X-144115D01*
X-144116Y62391D01*
X-144117Y62391D01*
X-144117Y62392D01*
X-144118Y62392D01*
X-144121Y62392D01*
X-144124Y62396D01*
X-144126Y62396D01*
X-144126D01*
X-144128Y62397D01*
X-144132Y62398D01*
X-144132Y62398D01*
X-144134Y62399D01*
X-144134D01*
X-144135Y62400D01*
X-144139Y62402D01*
X-144143Y62402D01*
X-144149Y62407D01*
X-144153Y62409D01*
X-144165Y62410D01*
X-144170Y62414D01*
X-144174Y62416D01*
X-144181Y62416D01*
X-144192Y62426D01*
X-144196Y62428D01*
X-144198Y62428D01*
X-144199Y62429D01*
X-144202Y62429D01*
X-144203Y62430D01*
X-144208Y62433D01*
X-144211Y62433D01*
X-144212Y62434D01*
X-144217Y62436D01*
X-144217D01*
X-144220Y62438D01*
X-144220D01*
X-144220Y62438D01*
X-144222D01*
X-144224Y62440D01*
X-144228Y62441D01*
X-144231Y62441D01*
X-144233Y62443D01*
X-144234Y62444D01*
X-144237Y62444D01*
X-144239Y62446D01*
X-144240Y62446D01*
X-144241D01*
X-144242Y62447D01*
X-144242Y62447D01*
X-144244D01*
X-144245Y62448D01*
X-144246D01*
X-144246Y62448D01*
X-144246Y62448D01*
X-144247Y62449D01*
X-144249Y62450D01*
X-144254D01*
X-144256Y62452D01*
X-144256Y62452D01*
X-144256Y62452D01*
X-144257Y62453D01*
X-144257D01*
X-144258Y62453D01*
X-144259Y62453D01*
X-144262Y62455D01*
X-144263Y62456D01*
X-144264D01*
X-144264Y62456D01*
X-144265Y62456D01*
X-144270Y62456D01*
X-144272Y62458D01*
X-144274Y62459D01*
X-144274Y62458D01*
X-144275Y62459D01*
X-144277Y62460D01*
X-144281Y62459D01*
X-144288Y62466D01*
X-144292Y62467D01*
X-144298Y62467D01*
X-144301Y62470D01*
X-144302Y62470D01*
X-144304Y62470D01*
X-144306Y62471D01*
X-144311Y62473D01*
X-144311D01*
X-144311Y62473D01*
X-144313Y62474D01*
X-144314Y62475D01*
X-144319Y62477D01*
X-144320Y62477D01*
X-144323Y62478D01*
X-144323D01*
X-144324Y62478D01*
X-144324Y62478D01*
X-144325Y62479D01*
X-144325D01*
X-144329Y62480D01*
X-144330Y62480D01*
X-144331Y62481D01*
X-144332Y62481D01*
X-144332D01*
X-144333Y62482D01*
X-144335Y62482D01*
X-144336Y62483D01*
X-144336Y62483D01*
X-144337Y62483D01*
X-144338Y62484D01*
X-144339Y62484D01*
X-144339Y62484D01*
X-144342Y62484D01*
X-144344Y62485D01*
X-144345Y62486D01*
X-144347Y62486D01*
X-144348Y62487D01*
X-144350Y62488D01*
X-144350D01*
X-144350Y62488D01*
X-144352Y62488D01*
X-144353Y62490D01*
X-144355Y62490D01*
X-144358Y62490D01*
X-144360Y62492D01*
X-144361Y62492D01*
X-144362Y62492D01*
X-144363Y62493D01*
X-144363Y62493D01*
X-144366Y62493D01*
X-144367Y62493D01*
X-144368Y62493D01*
X-144369Y62494D01*
X-144370Y62494D01*
X-144379Y62494D01*
X-144389Y62502D01*
X-144393Y62504D01*
X-144400Y62503D01*
X-144404Y62507D01*
X-144405Y62507D01*
X-144411Y62507D01*
X-144416Y62511D01*
X-144421Y62513D01*
X-144434Y62512D01*
X-144443Y62519D01*
X-144445Y62520D01*
X-144446Y62520D01*
X-144450Y62522D01*
X-144451Y62522D01*
X-144454Y62523D01*
X-144457Y62523D01*
X-144458Y62524D01*
X-144463Y62526D01*
X-144466Y62525D01*
X-144467Y62527D01*
X-144468Y62527D01*
X-144468D01*
X-144468Y62527D01*
X-144469Y62527D01*
X-144469Y62527D01*
X-144471Y62528D01*
X-144471D01*
X-144474Y62529D01*
X-144476Y62528D01*
X-144479Y62530D01*
X-144484Y62532D01*
X-144492Y62531D01*
X-144496Y62535D01*
X-144498Y62535D01*
X-144500Y62535D01*
X-144501Y62536D01*
X-144501Y62536D01*
X-144504Y62536D01*
X-144508Y62539D01*
X-144510Y62540D01*
X-144512Y62540D01*
X-144514Y62541D01*
X-144518Y62542D01*
X-144523Y62541D01*
X-144526Y62543D01*
X-144530Y62545D01*
X-144535Y62546D01*
X-144536Y62546D01*
X-144537Y62547D01*
X-144543Y62548D01*
X-144543Y62549D01*
X-144548Y62550D01*
X-144548Y62550D01*
X-144548Y62550D01*
X-144549Y62550D01*
X-144550Y62550D01*
X-144550Y62550D01*
X-144550Y62550D01*
X-144551Y62550D01*
X-144552Y62550D01*
X-144554Y62551D01*
X-144555Y62552D01*
X-144557Y62551D01*
X-144559Y62553D01*
X-144564Y62554D01*
X-144568Y62554D01*
X-144570Y62555D01*
X-144572Y62556D01*
X-144573Y62557D01*
X-144575Y62557D01*
X-144588Y62556D01*
X-144594Y62560D01*
X-144599Y62564D01*
X-144603Y62565D01*
X-144615Y62563D01*
X-144625Y62570D01*
X-144629Y62571D01*
X-144642Y62569D01*
X-144653Y62577D01*
X-144658Y62578D01*
X-144671Y62575D01*
X-144683Y62583D01*
X-144685Y62583D01*
X-144686Y62583D01*
X-144687Y62583D01*
X-144695Y62585D01*
X-144696Y62585D01*
X-144697Y62585D01*
X-144701Y62586D01*
X-144702Y62586D01*
X-144703Y62587D01*
X-144703Y62587D01*
X-144706Y62587D01*
X-144707Y62587D01*
X-144712Y62589D01*
X-144727Y62586D01*
X-144739Y62594D01*
X-144745Y62595D01*
X-144754Y62593D01*
X-144762Y62598D01*
X-144768Y62599D01*
X-144774Y62597D01*
X-144779Y62600D01*
X-144789Y62602D01*
X-144789Y62602D01*
X-144789Y62602D01*
X-144792Y62603D01*
X-144792Y62603D01*
X-144797Y62604D01*
X-144799Y62603D01*
X-144802Y62604D01*
X-144804Y62605D01*
X-144807Y62604D01*
X-144809Y62606D01*
X-144814Y62607D01*
X-144816Y62606D01*
X-144816Y62606D01*
X-144819Y62607D01*
X-144823Y62606D01*
X-144829Y62609D01*
X-144835Y62610D01*
X-144844Y62607D01*
X-144853Y62613D01*
X-144858Y62613D01*
X-144868Y62611D01*
X-144876Y62616D01*
X-144882Y62617D01*
X-144888Y62615D01*
X-144895Y62618D01*
X-144897Y62618D01*
X-144914Y62614D01*
X-144930Y62622D01*
X-144936Y62622D01*
X-144936Y62622D01*
X-144936Y62622D01*
X-144944Y62623D01*
X-144944Y62623D01*
X-144945Y62623D01*
X-144950Y62624D01*
X-144951Y62623D01*
X-144953Y62624D01*
X-144958Y62625D01*
X-144967Y62622D01*
X-144976Y62626D01*
X-144982Y62627D01*
X-144990Y62624D01*
X-144997Y62628D01*
X-145004Y62628D01*
X-145012Y62626D01*
X-145019Y62629D01*
X-145026Y62630D01*
X-145027Y62629D01*
X-145028Y62630D01*
X-145034Y62630D01*
X-145036Y62629D01*
X-145039Y62630D01*
X-145044Y62631D01*
X-145045Y62630D01*
X-145047Y62631D01*
X-145047Y62631D01*
X-145048Y62631D01*
X-145049Y62631D01*
X-145059Y62628D01*
X-145067Y62632D01*
X-145071Y62632D01*
X-145071Y62632D01*
X-145075Y62632D01*
X-145077Y62632D01*
X-145080Y62633D01*
X-145084Y62633D01*
X-145089Y62631D01*
X-145093Y62633D01*
X-145099Y62634D01*
X-145101Y62633D01*
X-145103Y62634D01*
X-145105Y62634D01*
X-145107Y62633D01*
X-145109Y62634D01*
X-145111Y62634D01*
X-145112Y62634D01*
X-145112Y62634D01*
X-145121Y62634D01*
X-145122Y62634D01*
X-145123Y62635D01*
X-145124Y62635D01*
X-145124Y62635D01*
X-145124Y62635D01*
X-145126Y62635D01*
X-145133Y62632D01*
X-145140Y62635D01*
X-145146Y62635D01*
X-145150Y62634D01*
X-145153Y62635D01*
X-145168Y62628D01*
X-145186Y62636D01*
X-156315D01*
X-156348Y62642D01*
X-156379Y62636D01*
X-156445D01*
X-156509Y62610D01*
X-156541Y62603D01*
X-156729Y62661D01*
D02*
G37*
G36*
X-66155Y69450D02*
X-67845D01*
X-69407Y68803D01*
X-70603Y67607D01*
X-71250Y66045D01*
Y64355D01*
X-70603Y62793D01*
X-69407Y61597D01*
X-67845Y60950D01*
X-66155D01*
X-64592Y61597D01*
X-63397Y62793D01*
X-62750Y64355D01*
Y66045D01*
X-63397Y67607D01*
X-64592Y68803D01*
X-66155Y69450D01*
D02*
G37*
G36*
X-91323Y72394D02*
X-93014D01*
X-94576Y71747D01*
X-95771Y70551D01*
X-96418Y68989D01*
Y67298D01*
X-95771Y65736D01*
X-94576Y64541D01*
X-93014Y63894D01*
X-91323D01*
X-91220Y63936D01*
X-89950Y63088D01*
Y62655D01*
X-89303Y61093D01*
X-88107Y59897D01*
X-86545Y59250D01*
X-84855D01*
X-83293Y59897D01*
X-82097Y61093D01*
X-81450Y62655D01*
Y64345D01*
X-82097Y65908D01*
X-83293Y67103D01*
X-84855Y67750D01*
X-86545D01*
X-86648Y67707D01*
X-87918Y68556D01*
Y68989D01*
X-88565Y70551D01*
X-89761Y71747D01*
X-91323Y72394D01*
D02*
G37*
G36*
X-34455Y67550D02*
X-36145D01*
X-37707Y66903D01*
X-38903Y65708D01*
X-39550Y64145D01*
Y62455D01*
X-38903Y60893D01*
X-37707Y59697D01*
X-36145Y59050D01*
X-34455D01*
X-32892Y59697D01*
X-31697Y60893D01*
X-31050Y62455D01*
Y64145D01*
X-31697Y65708D01*
X-32892Y66903D01*
X-34455Y67550D01*
D02*
G37*
G36*
X-309348Y72250D02*
X-311652D01*
X-313878Y71654D01*
X-315873Y70502D01*
X-317502Y68873D01*
X-318654Y66877D01*
X-319250Y64652D01*
Y62348D01*
X-318654Y60123D01*
X-317502Y58127D01*
X-315873Y56498D01*
X-313878Y55346D01*
X-311652Y54750D01*
X-309348D01*
X-307123Y55346D01*
X-305127Y56498D01*
X-303498Y58127D01*
X-302346Y60123D01*
X-301750Y62348D01*
Y64652D01*
X-302346Y66877D01*
X-303498Y68873D01*
X-305127Y70502D01*
X-307123Y71654D01*
X-309348Y72250D01*
D02*
G37*
G36*
X-330275Y72311D02*
X-341525D01*
X-342744Y72069D01*
X-343778Y71378D01*
X-344469Y70344D01*
X-344711Y69125D01*
Y57875D01*
X-344469Y56656D01*
X-343778Y55622D01*
X-342744Y54931D01*
X-341525Y54689D01*
X-330275D01*
X-329056Y54931D01*
X-328022Y55622D01*
X-327331Y56656D01*
X-327089Y57875D01*
Y69125D01*
X-327331Y70344D01*
X-328022Y71378D01*
X-329056Y72069D01*
X-330275Y72311D01*
D02*
G37*
G36*
X-216155Y56950D02*
X-217845D01*
X-219407Y56303D01*
X-220603Y55107D01*
X-221250Y53545D01*
Y51855D01*
X-220603Y50293D01*
X-219407Y49097D01*
X-217845Y48450D01*
X-216155D01*
X-214592Y49097D01*
X-213397Y50293D01*
X-212750Y51855D01*
Y53545D01*
X-213397Y55107D01*
X-214592Y56303D01*
X-216155Y56950D01*
D02*
G37*
G36*
X-227905D02*
X-229595D01*
X-231157Y56303D01*
X-232353Y55107D01*
X-233000Y53545D01*
Y51855D01*
X-232353Y50293D01*
X-231157Y49097D01*
X-229595Y48450D01*
X-227905D01*
X-226343Y49097D01*
X-225147Y50293D01*
X-224500Y51855D01*
Y53545D01*
X-225147Y55107D01*
X-226343Y56303D01*
X-227905Y56950D01*
D02*
G37*
G36*
X-34455Y48750D02*
X-36145D01*
X-37707Y48103D01*
X-38903Y46907D01*
X-39550Y45345D01*
Y43655D01*
X-38903Y42093D01*
X-37707Y40897D01*
X-36145Y40250D01*
X-34455D01*
X-32892Y40897D01*
X-31697Y42093D01*
X-31050Y43655D01*
Y45345D01*
X-31697Y46907D01*
X-32892Y48103D01*
X-34455Y48750D01*
D02*
G37*
G36*
X-84855Y57950D02*
X-86545D01*
X-88107Y57303D01*
X-89303Y56108D01*
X-89950Y54545D01*
Y52855D01*
X-89303Y51293D01*
X-88107Y50097D01*
X-87118Y49687D01*
Y48313D01*
X-88107Y47903D01*
X-89303Y46708D01*
X-89950Y45145D01*
Y43455D01*
X-89303Y41893D01*
X-88107Y40697D01*
X-86545Y40050D01*
X-84855D01*
X-83293Y40697D01*
X-82097Y41893D01*
X-81450Y43455D01*
Y45145D01*
X-82097Y46708D01*
X-83293Y47903D01*
X-84282Y48313D01*
Y49687D01*
X-83293Y50097D01*
X-82097Y51293D01*
X-81450Y52855D01*
Y54545D01*
X-82097Y56108D01*
X-83293Y57303D01*
X-84855Y57950D01*
D02*
G37*
G36*
X-309348Y46850D02*
X-311652D01*
X-313878Y46254D01*
X-315873Y45102D01*
X-317502Y43473D01*
X-318654Y41477D01*
X-319250Y39252D01*
Y36948D01*
X-318654Y34723D01*
X-317502Y32727D01*
X-315873Y31098D01*
X-313878Y29946D01*
X-311652Y29350D01*
X-309348D01*
X-307123Y29946D01*
X-305127Y31098D01*
X-303498Y32727D01*
X-302346Y34723D01*
X-301750Y36948D01*
Y39252D01*
X-302346Y41477D01*
X-303498Y43473D01*
X-305127Y45102D01*
X-307123Y46254D01*
X-309348Y46850D01*
D02*
G37*
G36*
X-334748D02*
X-337052D01*
X-339277Y46254D01*
X-341273Y45102D01*
X-342902Y43473D01*
X-344054Y41477D01*
X-344650Y39252D01*
Y36948D01*
X-344054Y34723D01*
X-342902Y32727D01*
X-341273Y31098D01*
X-339277Y29946D01*
X-337052Y29350D01*
X-334748D01*
X-332523Y29946D01*
X-330527Y31098D01*
X-328898Y32727D01*
X-327746Y34723D01*
X-327150Y36948D01*
Y39252D01*
X-327746Y41477D01*
X-328898Y43473D01*
X-330527Y45102D01*
X-332523Y46254D01*
X-334748Y46850D01*
D02*
G37*
G36*
X-187155Y36250D02*
X-188845D01*
X-190407Y35603D01*
X-191603Y34407D01*
X-192250Y32845D01*
Y31155D01*
X-191603Y29593D01*
X-190407Y28397D01*
X-188845Y27750D01*
X-187155D01*
X-185593Y28397D01*
X-184397Y29593D01*
X-183750Y31155D01*
Y32845D01*
X-184397Y34407D01*
X-185593Y35603D01*
X-187155Y36250D01*
D02*
G37*
G36*
X-254394Y33991D02*
X-256084D01*
X-257646Y33344D01*
X-258842Y32148D01*
X-259489Y30586D01*
Y28895D01*
X-259384Y28643D01*
X-260356Y27671D01*
X-260695Y27811D01*
X-262386D01*
X-263948Y27164D01*
X-265144Y25969D01*
X-265791Y24406D01*
Y22716D01*
X-265144Y21154D01*
X-265083Y21093D01*
X-265157Y20581D01*
X-265508Y19722D01*
X-266827Y19176D01*
X-268023Y17981D01*
X-268670Y16418D01*
Y14728D01*
X-268023Y13166D01*
X-266827Y11970D01*
X-265265Y11323D01*
X-263575D01*
X-262013Y11970D01*
X-260817Y13166D01*
X-260170Y14728D01*
Y16418D01*
X-260817Y17981D01*
X-260878Y18041D01*
X-260804Y18553D01*
X-260452Y19412D01*
X-259133Y19958D01*
X-257938Y21154D01*
X-257291Y22716D01*
Y24406D01*
X-257395Y24659D01*
X-256423Y25631D01*
X-256084Y25491D01*
X-254394D01*
X-252831Y26138D01*
X-251636Y27333D01*
X-250989Y28895D01*
Y30586D01*
X-251636Y32148D01*
X-252831Y33344D01*
X-254394Y33991D01*
D02*
G37*
G36*
X-289059Y35352D02*
X-290750D01*
X-292312Y34705D01*
X-293507Y33509D01*
X-294154Y31947D01*
Y30256D01*
X-293507Y28694D01*
X-292312Y27499D01*
X-290750Y26852D01*
X-289059D01*
X-287497Y27499D01*
X-286301Y28694D01*
X-285654Y30256D01*
Y31947D01*
X-286301Y33509D01*
X-287497Y34705D01*
X-289059Y35352D01*
D02*
G37*
G36*
X-97455Y38950D02*
X-99145D01*
X-100707Y38303D01*
X-101903Y37107D01*
X-102550Y35545D01*
Y33855D01*
X-101903Y32293D01*
X-100707Y31097D01*
X-99145Y30450D01*
X-97455D01*
X-96958Y30656D01*
X-95985Y29684D01*
X-96250Y29045D01*
Y27355D01*
X-95603Y25793D01*
X-94407Y24597D01*
X-92845Y23950D01*
X-91155D01*
X-89593Y24597D01*
X-88397Y25793D01*
X-87750Y27355D01*
Y29045D01*
X-88397Y30608D01*
X-89593Y31803D01*
X-91155Y32450D01*
X-92845D01*
X-93342Y32244D01*
X-94314Y33216D01*
X-94050Y33855D01*
Y35545D01*
X-94697Y37107D01*
X-95892Y38303D01*
X-97455Y38950D01*
D02*
G37*
G36*
X-334578Y22740D02*
X-334630D01*
Y13970D01*
X-325860D01*
Y14022D01*
X-326544Y16575D01*
X-327866Y18865D01*
X-329735Y20734D01*
X-332025Y22056D01*
X-334578Y22740D01*
D02*
G37*
G36*
X-337170D02*
X-337222D01*
X-339775Y22056D01*
X-342065Y20734D01*
X-343934Y18865D01*
X-345256Y16575D01*
X-345940Y14022D01*
Y13970D01*
X-337170D01*
Y22740D01*
D02*
G37*
G36*
X-273655Y20750D02*
X-275345D01*
X-276907Y20103D01*
X-278103Y18907D01*
X-278750Y17345D01*
Y15655D01*
X-278103Y14093D01*
X-276907Y12897D01*
X-275345Y12250D01*
X-273655D01*
X-272093Y12897D01*
X-270897Y14093D01*
X-270250Y15655D01*
Y17345D01*
X-270897Y18907D01*
X-272093Y20103D01*
X-273655Y20750D01*
D02*
G37*
G36*
X-283144Y23744D02*
X-284834D01*
X-286397Y23097D01*
X-287592Y21902D01*
X-288239Y20340D01*
Y19416D01*
X-288922Y18960D01*
X-290613D01*
X-292175Y18313D01*
X-293370Y17118D01*
X-294017Y15555D01*
Y13865D01*
X-293370Y12303D01*
X-292175Y11107D01*
X-290613Y10460D01*
X-288922D01*
X-287360Y11107D01*
X-286164Y12303D01*
X-285517Y13865D01*
Y14788D01*
X-284834Y15244D01*
X-283144D01*
X-281582Y15891D01*
X-280386Y17087D01*
X-279739Y18649D01*
Y20340D01*
X-280386Y21902D01*
X-281582Y23097D01*
X-283144Y23744D01*
D02*
G37*
G36*
X-170955Y25250D02*
X-172645D01*
X-174207Y24603D01*
X-175403Y23407D01*
X-176050Y21845D01*
Y20155D01*
X-175403Y18593D01*
X-174207Y17397D01*
X-172645Y16750D01*
X-170955D01*
X-170558Y16914D01*
X-169586Y15942D01*
X-169750Y15545D01*
Y13855D01*
X-169103Y12293D01*
X-167907Y11097D01*
X-166917Y10687D01*
X-166530Y9277D01*
X-172512Y3295D01*
X-175898D01*
X-176425Y4565D01*
X-175897Y5093D01*
X-175250Y6655D01*
Y8345D01*
X-175897Y9908D01*
X-177093Y11103D01*
X-178655Y11750D01*
X-180345D01*
X-181907Y11103D01*
X-183103Y9908D01*
X-183750Y8345D01*
Y6655D01*
X-183103Y5093D01*
X-182575Y4565D01*
X-183102Y3295D01*
X-189028D01*
X-190492Y3004D01*
X-191732Y2175D01*
X-213584Y-19677D01*
X-231602D01*
X-232631Y-19250D01*
X-234322D01*
X-235352Y-19677D01*
X-237613D01*
X-238643Y-19250D01*
X-240334D01*
X-241896Y-19897D01*
X-243091Y-21093D01*
X-243738Y-22655D01*
Y-24345D01*
X-243091Y-25907D01*
X-241896Y-27103D01*
X-240334Y-27750D01*
X-238643D01*
X-237613Y-27324D01*
X-235352D01*
X-234322Y-27750D01*
X-232631D01*
X-231602Y-27324D01*
X-212000D01*
X-210537Y-27032D01*
X-209296Y-26204D01*
X-187445Y-4352D01*
X-184022D01*
X-183322Y-5622D01*
X-183750Y-6655D01*
Y-8345D01*
X-183103Y-9907D01*
X-181907Y-11103D01*
X-180345Y-11750D01*
X-178655D01*
X-177092Y-11103D01*
X-175897Y-9907D01*
X-175250Y-8345D01*
Y-6655D01*
X-175678Y-5622D01*
X-174978Y-4352D01*
X-170928D01*
X-169465Y-4061D01*
X-168225Y-3232D01*
X-154322Y10670D01*
X-153825Y10877D01*
X-148175D01*
X-147145Y10450D01*
X-145455D01*
X-143893Y11097D01*
X-142697Y12293D01*
X-142135Y13649D01*
X-141972Y13678D01*
X-141028D01*
X-140865Y13649D01*
X-140303Y12293D01*
X-139107Y11097D01*
X-137545Y10450D01*
X-135855D01*
X-134293Y11097D01*
X-133097Y12293D01*
X-132450Y13855D01*
Y15545D01*
X-133097Y17107D01*
X-134293Y18303D01*
X-135855Y18950D01*
X-137545D01*
X-139107Y18303D01*
X-140303Y17107D01*
X-140865Y15751D01*
X-141028Y15723D01*
X-141972D01*
X-142135Y15751D01*
X-142697Y17107D01*
X-143893Y18303D01*
X-145455Y18950D01*
X-147145D01*
X-148175Y18523D01*
X-153825D01*
X-154855Y18950D01*
X-156545D01*
X-158107Y18303D01*
X-159303Y17107D01*
X-159729Y16078D01*
X-160077Y15731D01*
X-161487Y16117D01*
X-161897Y17107D01*
X-163093Y18303D01*
X-164655Y18950D01*
X-166345D01*
X-166742Y18786D01*
X-167714Y19758D01*
X-167550Y20155D01*
Y21845D01*
X-168197Y23407D01*
X-169393Y24603D01*
X-170955Y25250D01*
D02*
G37*
G36*
X-249754Y13250D02*
X-251246D01*
X-252624Y12679D01*
X-253679Y11624D01*
X-254250Y10246D01*
Y8754D01*
X-253679Y7376D01*
X-252624Y6321D01*
X-251246Y5750D01*
X-249754D01*
X-248376Y6321D01*
X-247321Y7376D01*
X-246750Y8754D01*
Y10246D01*
X-247321Y11624D01*
X-248376Y12679D01*
X-249754Y13250D01*
D02*
G37*
G36*
X-309348Y21450D02*
X-311652D01*
X-313878Y20854D01*
X-315873Y19702D01*
X-317502Y18073D01*
X-318654Y16077D01*
X-319250Y13852D01*
Y11548D01*
X-318654Y9323D01*
X-317502Y7327D01*
X-315873Y5698D01*
X-313878Y4546D01*
X-311652Y3950D01*
X-309348D01*
X-307123Y4546D01*
X-305127Y5698D01*
X-303498Y7327D01*
X-302346Y9323D01*
X-301750Y11548D01*
Y13852D01*
X-302346Y16077D01*
X-303498Y18073D01*
X-305127Y19702D01*
X-307123Y20854D01*
X-309348Y21450D01*
D02*
G37*
G36*
X-121655Y11750D02*
X-123345D01*
X-124907Y11103D01*
X-126103Y9907D01*
X-126750Y8345D01*
Y6655D01*
X-126103Y5093D01*
X-124907Y3897D01*
X-123345Y3250D01*
X-121655D01*
X-120093Y3897D01*
X-118897Y5093D01*
X-118250Y6655D01*
Y8345D01*
X-118897Y9907D01*
X-120093Y11103D01*
X-121655Y11750D01*
D02*
G37*
G36*
X-325860Y11430D02*
X-334630D01*
Y2660D01*
X-334578D01*
X-332025Y3344D01*
X-329735Y4666D01*
X-327866Y6535D01*
X-326544Y8825D01*
X-325860Y11378D01*
Y11430D01*
D02*
G37*
G36*
X-337170D02*
X-345940D01*
Y11378D01*
X-345256Y8825D01*
X-343934Y6535D01*
X-342065Y4666D01*
X-339775Y3344D01*
X-337222Y2660D01*
X-337170D01*
Y11430D01*
D02*
G37*
G36*
X-244004Y3750D02*
X-245496D01*
X-246874Y3179D01*
X-247929Y2124D01*
X-248500Y746D01*
Y-746D01*
X-247929Y-2124D01*
X-246874Y-3179D01*
X-245496Y-3750D01*
X-244004D01*
X-242626Y-3179D01*
X-241571Y-2124D01*
X-241000Y-746D01*
Y746D01*
X-241571Y2124D01*
X-242626Y3179D01*
X-244004Y3750D01*
D02*
G37*
G36*
X-255504D02*
X-256996D01*
X-258374Y3179D01*
X-259429Y2124D01*
X-260000Y746D01*
Y-746D01*
X-259429Y-2124D01*
X-258374Y-3179D01*
X-256996Y-3750D01*
X-255504D01*
X-254126Y-3179D01*
X-253071Y-2124D01*
X-252500Y-746D01*
Y746D01*
X-253071Y2124D01*
X-254126Y3179D01*
X-255504Y3750D01*
D02*
G37*
G36*
X-51655Y3450D02*
X-53345D01*
X-54907Y2803D01*
X-56103Y1608D01*
X-56750Y45D01*
Y-1645D01*
X-56103Y-3207D01*
X-54907Y-4403D01*
X-53345Y-5050D01*
X-51655D01*
X-50520Y-4580D01*
X-49650Y-4762D01*
X-49100Y-5207D01*
X-48603Y-6407D01*
X-47407Y-7603D01*
X-45845Y-8250D01*
X-44155D01*
X-42593Y-7603D01*
X-41397Y-6407D01*
X-40750Y-4845D01*
Y-3155D01*
X-41397Y-1593D01*
X-42593Y-397D01*
X-44155Y250D01*
X-45845D01*
X-46980Y-220D01*
X-47850Y-38D01*
X-48400Y407D01*
X-48897Y1608D01*
X-50093Y2803D01*
X-51655Y3450D01*
D02*
G37*
G36*
X-34655Y-3250D02*
X-36345D01*
X-37907Y-3897D01*
X-39103Y-5092D01*
X-39750Y-6655D01*
Y-8345D01*
X-39103Y-9907D01*
X-37907Y-11103D01*
X-36345Y-11750D01*
X-34655D01*
X-33093Y-11103D01*
X-31897Y-9907D01*
X-31250Y-8345D01*
Y-6655D01*
X-31897Y-5092D01*
X-33093Y-3897D01*
X-34655Y-3250D01*
D02*
G37*
G36*
X-121655D02*
X-123345D01*
X-124907Y-3897D01*
X-126103Y-5092D01*
X-126750Y-6655D01*
Y-8345D01*
X-126103Y-9907D01*
X-124907Y-11103D01*
X-123345Y-11750D01*
X-121655D01*
X-120092Y-11103D01*
X-118897Y-9907D01*
X-118250Y-8345D01*
Y-6655D01*
X-118897Y-5092D01*
X-120092Y-3897D01*
X-121655Y-3250D01*
D02*
G37*
G36*
X-249754Y-5750D02*
X-251246D01*
X-252624Y-6321D01*
X-253679Y-7376D01*
X-254250Y-8754D01*
Y-10246D01*
X-253679Y-11624D01*
X-252624Y-12679D01*
X-251246Y-13250D01*
X-249754D01*
X-248376Y-12679D01*
X-247321Y-11624D01*
X-246750Y-10246D01*
Y-8754D01*
X-247321Y-7376D01*
X-248376Y-6321D01*
X-249754Y-5750D01*
D02*
G37*
G36*
X-135855Y-10450D02*
X-137545D01*
X-139107Y-11097D01*
X-140303Y-12293D01*
X-140865Y-13649D01*
X-141028Y-13678D01*
X-141972D01*
X-142135Y-13649D01*
X-142697Y-12293D01*
X-143893Y-11097D01*
X-145455Y-10450D01*
X-147145D01*
X-148707Y-11097D01*
X-149903Y-12293D01*
X-150313Y-13282D01*
X-151687D01*
X-152097Y-12293D01*
X-153293Y-11097D01*
X-154855Y-10450D01*
X-156545D01*
X-158107Y-11097D01*
X-159303Y-12293D01*
X-159865Y-13649D01*
X-160028Y-13678D01*
X-160972D01*
X-161135Y-13649D01*
X-161697Y-12293D01*
X-162892Y-11097D01*
X-164455Y-10450D01*
X-166145D01*
X-167707Y-11097D01*
X-168903Y-12293D01*
X-169550Y-13855D01*
Y-15545D01*
X-169386Y-15942D01*
X-170357Y-16914D01*
X-170755Y-16750D01*
X-172445D01*
X-173645Y-17247D01*
X-174897Y-17543D01*
X-176093Y-16347D01*
X-177655Y-15700D01*
X-179345D01*
X-180907Y-16347D01*
X-182103Y-17543D01*
X-182750Y-19105D01*
Y-20795D01*
X-182103Y-22357D01*
X-180907Y-23553D01*
X-179345Y-24200D01*
X-177655D01*
X-176455Y-23703D01*
X-175203Y-23407D01*
X-174007Y-24603D01*
X-172445Y-25250D01*
X-170755D01*
X-169193Y-24603D01*
X-167997Y-23407D01*
X-167350Y-21845D01*
Y-20155D01*
X-167514Y-19758D01*
X-166542Y-18786D01*
X-166145Y-18950D01*
X-164455D01*
X-162892Y-18303D01*
X-161697Y-17107D01*
X-161135Y-15751D01*
X-160972Y-15722D01*
X-160028D01*
X-159865Y-15751D01*
X-159303Y-17107D01*
X-158107Y-18303D01*
X-156545Y-18950D01*
X-154855D01*
X-153293Y-18303D01*
X-152097Y-17107D01*
X-151687Y-16118D01*
X-150313D01*
X-149903Y-17107D01*
X-148707Y-18303D01*
X-147145Y-18950D01*
X-145455D01*
X-143893Y-18303D01*
X-142697Y-17107D01*
X-142135Y-15751D01*
X-141972Y-15722D01*
X-141028D01*
X-140865Y-15751D01*
X-140303Y-17107D01*
X-139107Y-18303D01*
X-137545Y-18950D01*
X-135855D01*
X-135458Y-18786D01*
X-134486Y-19758D01*
X-134650Y-20155D01*
Y-21845D01*
X-134003Y-23407D01*
X-132808Y-24603D01*
X-131245Y-25250D01*
X-129555D01*
X-127993Y-24603D01*
X-126797Y-23407D01*
X-126150Y-21845D01*
Y-20155D01*
X-126797Y-18592D01*
X-127993Y-17397D01*
X-129555Y-16750D01*
X-131245D01*
X-131642Y-16914D01*
X-132614Y-15942D01*
X-132450Y-15545D01*
Y-13855D01*
X-133097Y-12293D01*
X-134293Y-11097D01*
X-135855Y-10450D01*
D02*
G37*
G36*
X-309348Y-3950D02*
X-311652D01*
X-313878Y-4546D01*
X-315873Y-5698D01*
X-317502Y-7327D01*
X-318654Y-9323D01*
X-319250Y-11548D01*
Y-13852D01*
X-318654Y-16077D01*
X-317502Y-18073D01*
X-315873Y-19702D01*
X-313878Y-20854D01*
X-311652Y-21450D01*
X-309348D01*
X-307123Y-20854D01*
X-305127Y-19702D01*
X-303498Y-18073D01*
X-302346Y-16077D01*
X-301750Y-13852D01*
Y-11548D01*
X-302346Y-9323D01*
X-303498Y-7327D01*
X-305127Y-5698D01*
X-307123Y-4546D01*
X-309348Y-3950D01*
D02*
G37*
G36*
X-334748D02*
X-337052D01*
X-339277Y-4546D01*
X-341273Y-5698D01*
X-342902Y-7327D01*
X-344054Y-9323D01*
X-344650Y-11548D01*
Y-13852D01*
X-344054Y-16077D01*
X-342902Y-18073D01*
X-341273Y-19702D01*
X-339277Y-20854D01*
X-337052Y-21450D01*
X-334748D01*
X-332523Y-20854D01*
X-330527Y-19702D01*
X-328898Y-18073D01*
X-327746Y-16077D01*
X-327150Y-13852D01*
Y-11548D01*
X-327746Y-9323D01*
X-328898Y-7327D01*
X-330527Y-5698D01*
X-332523Y-4546D01*
X-334748Y-3950D01*
D02*
G37*
G36*
X-289520Y-5689D02*
X-291211D01*
X-292773Y-6336D01*
X-293969Y-7531D01*
X-294616Y-9093D01*
Y-10784D01*
X-293969Y-12346D01*
X-293572Y-12743D01*
X-293107Y-13955D01*
X-293374Y-14600D01*
X-293754Y-15517D01*
Y-17208D01*
X-293107Y-18770D01*
X-292754Y-19123D01*
X-293053Y-20621D01*
X-293616Y-20854D01*
X-294812Y-22050D01*
X-295459Y-23612D01*
Y-25303D01*
X-294812Y-26865D01*
X-293616Y-28060D01*
X-292054Y-28707D01*
X-290363D01*
X-288801Y-28060D01*
X-287606Y-26865D01*
X-286959Y-25303D01*
Y-23612D01*
X-287606Y-22050D01*
X-287958Y-21697D01*
X-287660Y-20199D01*
X-287097Y-19966D01*
X-285901Y-18770D01*
X-285254Y-17208D01*
Y-15517D01*
X-285901Y-13955D01*
X-286298Y-13558D01*
X-286763Y-12346D01*
X-286496Y-11702D01*
X-286496Y-11701D01*
X-286399Y-11467D01*
X-286116Y-10784D01*
Y-9093D01*
X-286763Y-7531D01*
X-287958Y-6336D01*
X-289520Y-5689D01*
D02*
G37*
G36*
X-260895Y-19189D02*
X-262586D01*
X-264148Y-19836D01*
X-265344Y-21031D01*
X-265991Y-22594D01*
Y-24284D01*
X-265344Y-25846D01*
X-264148Y-27042D01*
X-262586Y-27689D01*
X-260895D01*
X-260401Y-27484D01*
X-259429Y-28456D01*
X-259611Y-28895D01*
Y-30586D01*
X-258964Y-32148D01*
X-257769Y-33344D01*
X-256206Y-33991D01*
X-254516D01*
X-252954Y-33344D01*
X-251758Y-32148D01*
X-251111Y-30586D01*
Y-28895D01*
X-251758Y-27333D01*
X-252954Y-26138D01*
X-254516Y-25491D01*
X-256206D01*
X-256701Y-25696D01*
X-257673Y-24723D01*
X-257491Y-24284D01*
Y-22594D01*
X-258138Y-21031D01*
X-259333Y-19836D01*
X-260895Y-19189D01*
D02*
G37*
G36*
X-309348Y-29350D02*
X-311652D01*
X-313878Y-29946D01*
X-315873Y-31098D01*
X-317502Y-32727D01*
X-318654Y-34723D01*
X-319250Y-36948D01*
Y-39252D01*
X-318654Y-41477D01*
X-317502Y-43473D01*
X-315873Y-45102D01*
X-313878Y-46254D01*
X-311652Y-46850D01*
X-309348D01*
X-307123Y-46254D01*
X-305127Y-45102D01*
X-303498Y-43473D01*
X-302346Y-41477D01*
X-301750Y-39252D01*
Y-36948D01*
X-302346Y-34723D01*
X-303498Y-32727D01*
X-305127Y-31098D01*
X-307123Y-29946D01*
X-309348Y-29350D01*
D02*
G37*
G36*
X-334748D02*
X-337052D01*
X-339277Y-29946D01*
X-341273Y-31098D01*
X-342902Y-32727D01*
X-344054Y-34723D01*
X-344650Y-36948D01*
Y-39252D01*
X-344054Y-41477D01*
X-342902Y-43473D01*
X-341273Y-45102D01*
X-339277Y-46254D01*
X-337052Y-46850D01*
X-334748D01*
X-332523Y-46254D01*
X-330527Y-45102D01*
X-328898Y-43473D01*
X-327746Y-41477D01*
X-327150Y-39252D01*
Y-36948D01*
X-327746Y-34723D01*
X-328898Y-32727D01*
X-330527Y-31098D01*
X-332523Y-29946D01*
X-334748Y-29350D01*
D02*
G37*
G36*
X-158038Y-44750D02*
X-159729D01*
X-161291Y-45397D01*
X-162486Y-46593D01*
X-163134Y-48155D01*
Y-49845D01*
X-162486Y-51407D01*
X-161291Y-52603D01*
X-159729Y-53250D01*
X-158038D01*
X-156476Y-52603D01*
X-155281Y-51407D01*
X-154633Y-49845D01*
Y-48155D01*
X-155281Y-46593D01*
X-156476Y-45397D01*
X-158038Y-44750D01*
D02*
G37*
G36*
X-309348Y-54750D02*
X-311652D01*
X-313878Y-55346D01*
X-315873Y-56498D01*
X-317502Y-58127D01*
X-318654Y-60123D01*
X-319250Y-62348D01*
Y-64652D01*
X-318654Y-66877D01*
X-317502Y-68873D01*
X-315873Y-70502D01*
X-313878Y-71654D01*
X-311652Y-72250D01*
X-309348D01*
X-307123Y-71654D01*
X-305127Y-70502D01*
X-303498Y-68873D01*
X-302346Y-66877D01*
X-301750Y-64652D01*
Y-62348D01*
X-302346Y-60123D01*
X-303498Y-58127D01*
X-305127Y-56498D01*
X-307123Y-55346D01*
X-309348Y-54750D01*
D02*
G37*
G36*
X-334748D02*
X-337052D01*
X-339277Y-55346D01*
X-341273Y-56498D01*
X-342902Y-58127D01*
X-344054Y-60123D01*
X-344650Y-62348D01*
Y-64652D01*
X-344054Y-66877D01*
X-342902Y-68873D01*
X-341273Y-70502D01*
X-339277Y-71654D01*
X-337052Y-72250D01*
X-334748D01*
X-332523Y-71654D01*
X-330527Y-70502D01*
X-328898Y-68873D01*
X-327746Y-66877D01*
X-327150Y-64652D01*
Y-62348D01*
X-327746Y-60123D01*
X-328898Y-58127D01*
X-330527Y-56498D01*
X-332523Y-55346D01*
X-334748Y-54750D01*
D02*
G37*
G36*
X-129555Y-72750D02*
X-131245D01*
X-132808Y-73397D01*
X-134003Y-74592D01*
X-134650Y-76155D01*
Y-77845D01*
X-134486Y-78242D01*
X-135458Y-79214D01*
X-135855Y-79050D01*
X-137545D01*
X-139108Y-79697D01*
X-140303Y-80892D01*
X-140865Y-82249D01*
X-141028Y-82277D01*
X-141972D01*
X-142135Y-82249D01*
X-142697Y-80892D01*
X-143893Y-79697D01*
X-145455Y-79050D01*
X-147146D01*
X-148708Y-79697D01*
X-149903Y-80892D01*
X-150313Y-81882D01*
X-151687D01*
X-152097Y-80892D01*
X-153293Y-79697D01*
X-154855Y-79050D01*
X-156545D01*
X-158107Y-79697D01*
X-159303Y-80892D01*
X-159865Y-82249D01*
X-160028Y-82277D01*
X-160972D01*
X-161135Y-82249D01*
X-161697Y-80892D01*
X-162892Y-79697D01*
X-164455Y-79050D01*
X-166145D01*
X-166542Y-79214D01*
X-167514Y-78242D01*
X-167350Y-77845D01*
Y-76155D01*
X-167997Y-74592D01*
X-169193Y-73397D01*
X-170755Y-72750D01*
X-172445D01*
X-174007Y-73397D01*
X-175203Y-74592D01*
X-175850Y-76155D01*
Y-77845D01*
X-175203Y-79407D01*
X-174007Y-80603D01*
X-172445Y-81250D01*
X-170755D01*
X-170357Y-81086D01*
X-169386Y-82058D01*
X-169550Y-82455D01*
Y-84145D01*
X-168903Y-85707D01*
X-167707Y-86903D01*
X-166145Y-87550D01*
X-164455D01*
X-162892Y-86903D01*
X-161697Y-85707D01*
X-161135Y-84351D01*
X-160972Y-84322D01*
X-160028D01*
X-159865Y-84351D01*
X-159303Y-85707D01*
X-158107Y-86903D01*
X-156545Y-87550D01*
X-154855D01*
X-153293Y-86903D01*
X-152097Y-85707D01*
X-151687Y-84718D01*
X-150313D01*
X-149903Y-85707D01*
X-148708Y-86903D01*
X-147146Y-87550D01*
X-145455D01*
X-143893Y-86903D01*
X-142697Y-85707D01*
X-142135Y-84351D01*
X-141972Y-84322D01*
X-141028D01*
X-140865Y-84351D01*
X-140303Y-85707D01*
X-139108Y-86903D01*
X-137545Y-87550D01*
X-135855D01*
X-134293Y-86903D01*
X-133097Y-85707D01*
X-132450Y-84145D01*
Y-82455D01*
X-132614Y-82058D01*
X-131643Y-81086D01*
X-131245Y-81250D01*
X-129555D01*
X-127993Y-80603D01*
X-126797Y-79407D01*
X-126150Y-77845D01*
Y-76155D01*
X-126797Y-74592D01*
X-127993Y-73397D01*
X-129555Y-72750D01*
D02*
G37*
G36*
X-204405Y-71050D02*
X-206095D01*
X-207657Y-71697D01*
X-208853Y-72893D01*
X-209500Y-74455D01*
Y-76146D01*
X-208853Y-77708D01*
X-207657Y-78903D01*
X-206095Y-79550D01*
X-204405D01*
X-202843Y-78903D01*
X-201647Y-77708D01*
X-201000Y-76146D01*
Y-74455D01*
X-201647Y-72893D01*
X-202843Y-71697D01*
X-204405Y-71050D01*
D02*
G37*
G36*
X-216155D02*
X-217845D01*
X-219407Y-71697D01*
X-220603Y-72893D01*
X-221250Y-74455D01*
Y-76146D01*
X-220603Y-77708D01*
X-219407Y-78903D01*
X-217845Y-79550D01*
X-216155D01*
X-214592Y-78903D01*
X-213397Y-77708D01*
X-212750Y-76146D01*
Y-74455D01*
X-213397Y-72893D01*
X-214592Y-71697D01*
X-216155Y-71050D01*
D02*
G37*
G36*
X-227905D02*
X-229595D01*
X-231157Y-71697D01*
X-232353Y-72893D01*
X-233000Y-74455D01*
Y-76146D01*
X-232353Y-77708D01*
X-231157Y-78903D01*
X-229595Y-79550D01*
X-227905D01*
X-226343Y-78903D01*
X-225147Y-77708D01*
X-224500Y-76146D01*
Y-74455D01*
X-225147Y-72893D01*
X-226343Y-71697D01*
X-227905Y-71050D01*
D02*
G37*
G36*
X-260405D02*
X-262095D01*
X-263657Y-71697D01*
X-264853Y-72893D01*
X-265500Y-74455D01*
Y-76146D01*
X-264853Y-77708D01*
X-263657Y-78903D01*
X-262095Y-79550D01*
X-260405D01*
X-258843Y-78903D01*
X-257647Y-77708D01*
X-257000Y-76146D01*
Y-74455D01*
X-257647Y-72893D01*
X-258843Y-71697D01*
X-260405Y-71050D01*
D02*
G37*
G36*
X-272155D02*
X-273845D01*
X-275407Y-71697D01*
X-276603Y-72893D01*
X-277250Y-74455D01*
Y-76146D01*
X-276603Y-77708D01*
X-275407Y-78903D01*
X-273845Y-79550D01*
X-272155D01*
X-270592Y-78903D01*
X-269397Y-77708D01*
X-268750Y-76146D01*
Y-74455D01*
X-269397Y-72893D01*
X-270592Y-71697D01*
X-272155Y-71050D01*
D02*
G37*
G36*
X-283905D02*
X-285595D01*
X-287157Y-71697D01*
X-288353Y-72893D01*
X-289000Y-74455D01*
Y-76146D01*
X-288353Y-77708D01*
X-287157Y-78903D01*
X-285595Y-79550D01*
X-283905D01*
X-282342Y-78903D01*
X-281147Y-77708D01*
X-280500Y-76146D01*
Y-74455D01*
X-281147Y-72893D01*
X-282342Y-71697D01*
X-283905Y-71050D01*
D02*
G37*
%LPD*%
G36*
X-166576Y61998D02*
X-166577D01*
X-166576Y61998D01*
Y61998D01*
D02*
G37*
G36*
X-166366Y61950D02*
D01*
D01*
D01*
D01*
X-166366Y61950D01*
X-166366Y61950D01*
D02*
G37*
G36*
X-166111Y61836D02*
X-166111Y61836D01*
D01*
X-166111Y61836D01*
D02*
G37*
G36*
X-178185Y62006D02*
X-166707Y62006D01*
X-166704Y62006D01*
X-166701Y62005D01*
X-166699Y62005D01*
X-166697Y62005D01*
X-166696Y62005D01*
X-166696D01*
X-166696Y62005D01*
X-166688Y62005D01*
X-166672Y62004D01*
X-166655Y62004D01*
X-166639Y62003D01*
X-166631Y62002D01*
X-166631D01*
X-166628Y62002D01*
X-166621Y62002D01*
X-166614Y62001D01*
X-166607Y62000D01*
X-166604Y62000D01*
X-166599Y62000D01*
X-166594Y61999D01*
X-166588Y61999D01*
X-166583Y61998D01*
X-166577Y61998D01*
D01*
X-166574Y61997D01*
X-166568Y61997D01*
X-166563Y61996D01*
X-166557Y61995D01*
X-166554Y61995D01*
X-166549Y61994D01*
X-166544Y61993D01*
X-166539Y61992D01*
X-166534Y61991D01*
X-166528Y61990D01*
X-166522Y61989D01*
X-166522Y61989D01*
X-166520Y61989D01*
X-166514Y61988D01*
X-166508Y61987D01*
X-166503Y61986D01*
X-166500Y61985D01*
X-166495Y61984D01*
X-166490Y61983D01*
X-166485Y61982D01*
X-166480Y61981D01*
X-166474Y61980D01*
X-166468Y61979D01*
Y61979D01*
X-166466Y61978D01*
X-166461Y61977D01*
X-166457Y61976D01*
X-166453Y61975D01*
X-166451Y61975D01*
X-166446Y61974D01*
X-166441Y61972D01*
X-166436Y61971D01*
X-166431Y61969D01*
X-166425Y61968D01*
X-166420Y61967D01*
X-166420Y61966D01*
X-166419Y61966D01*
X-166418Y61966D01*
X-166416Y61965D01*
X-166414Y61965D01*
X-166414Y61965D01*
X-166414Y61965D01*
X-166414D01*
X-166414Y61965D01*
Y61965D01*
D01*
X-166411Y61965D01*
X-166407Y61963D01*
X-166403Y61962D01*
X-166399Y61961D01*
X-166396Y61960D01*
X-166391Y61959D01*
X-166387Y61957D01*
X-166382Y61955D01*
X-166376Y61954D01*
X-166371Y61952D01*
X-166371D01*
Y61952D01*
X-166371Y61952D01*
X-166369Y61951D01*
X-166368Y61951D01*
X-166366Y61951D01*
X-166366Y61950D01*
Y61950D01*
X-166365Y61950D01*
X-166363Y61950D01*
X-166362Y61949D01*
X-166360Y61949D01*
X-166359Y61949D01*
X-166359D01*
X-166357Y61948D01*
X-166353Y61947D01*
X-166348Y61946D01*
X-166344Y61944D01*
X-166342Y61943D01*
X-166337Y61941D01*
X-166332Y61940D01*
X-166327Y61938D01*
X-166322Y61936D01*
X-166317Y61934D01*
X-166317D01*
X-166317Y61934D01*
X-166316Y61934D01*
X-166315Y61933D01*
X-166313Y61933D01*
X-166312Y61932D01*
X-166311Y61932D01*
X-166311Y61932D01*
X-166311Y61932D01*
X-166309Y61931D01*
X-166307Y61931D01*
X-166306Y61930D01*
X-166305Y61930D01*
X-166305Y61930D01*
X-166303Y61929D01*
X-166299Y61928D01*
X-166294Y61926D01*
X-166290Y61924D01*
X-166288Y61923D01*
X-166288Y61923D01*
X-166287Y61923D01*
X-166286Y61923D01*
X-166285Y61922D01*
X-166283Y61922D01*
X-166283Y61921D01*
X-166278Y61919D01*
X-166268Y61915D01*
X-166268D01*
X-166267Y61914D01*
X-166266Y61914D01*
X-166265Y61913D01*
X-166263Y61913D01*
X-166263Y61912D01*
Y61912D01*
X-166262Y61912D01*
X-166261Y61911D01*
X-166259Y61911D01*
X-166258Y61910D01*
X-166257Y61910D01*
X-166257Y61910D01*
X-166256Y61910D01*
X-166255Y61909D01*
X-166253Y61908D01*
X-166252Y61908D01*
X-166251Y61908D01*
Y61908D01*
X-166248Y61907D01*
X-166244Y61905D01*
X-166240Y61904D01*
X-166236Y61902D01*
X-166234Y61901D01*
X-166233Y61901D01*
X-166232Y61900D01*
X-166230Y61899D01*
X-166229Y61899D01*
X-166229Y61898D01*
X-166224Y61896D01*
X-166219Y61894D01*
X-166214Y61891D01*
X-166214Y61891D01*
X-166213Y61891D01*
X-166212Y61890D01*
X-166210Y61890D01*
X-166209Y61889D01*
X-166208Y61889D01*
X-166208Y61888D01*
X-166206Y61888D01*
X-166205Y61887D01*
X-166203Y61887D01*
X-166203Y61886D01*
Y61886D01*
X-166202Y61886D01*
X-166200Y61885D01*
X-166199Y61885D01*
X-166197Y61884D01*
X-166196Y61884D01*
X-166194Y61883D01*
X-166190Y61881D01*
X-166185Y61879D01*
X-166181Y61877D01*
X-166179Y61876D01*
X-166179Y61875D01*
X-166177Y61875D01*
X-166176Y61874D01*
X-166175Y61873D01*
X-166174Y61873D01*
X-166169Y61870D01*
X-166164Y61868D01*
X-166159Y61865D01*
Y61865D01*
X-166159Y61865D01*
X-166157Y61864D01*
X-166156Y61863D01*
X-166155Y61862D01*
X-166154Y61862D01*
Y61862D01*
X-166153Y61862D01*
X-166152Y61861D01*
X-166150Y61860D01*
X-166149Y61859D01*
X-166148Y61859D01*
X-166147Y61859D01*
X-166146Y61858D01*
X-166144Y61857D01*
X-166143Y61857D01*
X-166142Y61856D01*
Y61856D01*
X-166141Y61856D01*
X-166139Y61854D01*
X-166137Y61853D01*
X-166136Y61851D01*
X-166134Y61851D01*
X-166134Y61850D01*
X-166133Y61850D01*
X-166132Y61849D01*
X-166131Y61848D01*
X-166130Y61848D01*
X-166125Y61845D01*
X-166120Y61842D01*
X-166115Y61839D01*
X-166115D01*
X-166115Y61839D01*
X-166115Y61839D01*
X-166114Y61838D01*
X-166112Y61838D01*
X-166111Y61837D01*
X-166111Y61836D01*
Y61836D01*
X-166110Y61836D01*
X-166109Y61835D01*
X-166108Y61835D01*
X-166107Y61834D01*
X-166106Y61834D01*
X-166106Y61834D01*
Y61834D01*
X-166106Y61833D01*
X-166105Y61832D01*
X-166104Y61832D01*
X-166103Y61831D01*
X-166102Y61831D01*
Y61831D01*
X-166102Y61830D01*
X-166101Y61830D01*
X-166100Y61829D01*
X-166099Y61828D01*
X-166099Y61828D01*
Y61828D01*
X-166099D01*
X-166096Y61827D01*
X-166092Y61824D01*
X-166088Y61822D01*
X-166084Y61819D01*
X-166082Y61818D01*
Y61818D01*
X-166081Y61818D01*
X-166080Y61817D01*
X-166078Y61816D01*
X-166077Y61815D01*
X-166076Y61815D01*
X-166071Y61812D01*
X-166067Y61808D01*
X-166061Y61805D01*
X-166062D01*
X-166061Y61805D01*
X-166060Y61804D01*
X-166058Y61803D01*
X-166057Y61802D01*
X-166056Y61802D01*
Y61802D01*
X-166056Y61801D01*
X-166054Y61800D01*
X-166053Y61800D01*
X-166051Y61799D01*
X-166051Y61798D01*
Y61798D01*
X-166050Y61798D01*
X-166048Y61797D01*
X-166047Y61796D01*
X-166045Y61795D01*
X-166044Y61795D01*
X-166044Y61795D01*
X-166043Y61794D01*
X-166042Y61792D01*
X-166040Y61791D01*
X-166038Y61789D01*
X-166037Y61788D01*
X-166036Y61788D01*
X-166035Y61787D01*
X-166034Y61786D01*
X-166033Y61786D01*
X-166032Y61785D01*
X-166028Y61782D01*
X-166023Y61778D01*
X-166018Y61775D01*
Y61775D01*
X-166017Y61775D01*
X-166016Y61774D01*
X-166015Y61773D01*
X-166014Y61772D01*
X-166013Y61772D01*
X-166012Y61771D01*
X-166011Y61771D01*
X-166010Y61770D01*
X-166009Y61769D01*
X-166009Y61768D01*
X-166008Y61768D01*
X-166007Y61767D01*
X-166006Y61766D01*
X-166005Y61765D01*
X-166004Y61765D01*
X-166005Y61765D01*
X-166004Y61765D01*
X-166003Y61764D01*
X-166002Y61763D01*
X-166001Y61762D01*
X-166001Y61762D01*
X-166001Y61762D01*
X-166000Y61761D01*
X-165998Y61759D01*
X-165996Y61757D01*
X-165994Y61755D01*
X-165993Y61754D01*
X-165993Y61754D01*
X-165993Y61754D01*
X-165993Y61754D01*
X-165992Y61753D01*
X-165991Y61752D01*
X-165989Y61751D01*
X-165989Y61750D01*
X-165984Y61747D01*
X-165979Y61743D01*
X-165974Y61739D01*
X-165974Y61739D01*
X-165974Y61739D01*
X-165973Y61738D01*
X-165971Y61737D01*
X-165970Y61736D01*
X-165970Y61735D01*
X-165970Y61735D01*
X-165970Y61735D01*
X-165969Y61735D01*
X-165968Y61734D01*
X-165967Y61733D01*
X-165966Y61732D01*
X-165965Y61732D01*
X-165965D01*
X-165965Y61731D01*
X-165963Y61730D01*
X-165963Y61729D01*
X-165961Y61728D01*
X-165961Y61728D01*
X-165961Y61728D01*
X-165961Y61727D01*
X-165960Y61726D01*
X-165959Y61725D01*
X-165958Y61724D01*
X-165958Y61724D01*
X-165958D01*
X-165957Y61723D01*
X-165955Y61721D01*
X-165953Y61719D01*
X-165951Y61717D01*
X-165950Y61716D01*
X-165949Y61716D01*
X-165948Y61715D01*
X-165947Y61714D01*
X-165946Y61713D01*
X-165945Y61713D01*
X-165941Y61709D01*
X-165936Y61706D01*
X-165931Y61702D01*
Y61702D01*
X-165930Y61701D01*
X-165929Y61701D01*
X-165928Y61700D01*
X-165927Y61699D01*
X-165926Y61698D01*
X-165926Y61698D01*
X-165924Y61697D01*
X-165923Y61696D01*
X-165922Y61695D01*
X-165922Y61694D01*
Y61694D01*
X-165921Y61694D01*
X-165920Y61693D01*
X-165919Y61692D01*
X-165918Y61691D01*
X-165918Y61691D01*
X-165917Y61690D01*
X-165916Y61689D01*
X-165915Y61688D01*
X-165914Y61687D01*
X-165914Y61687D01*
X-165914Y61687D01*
X-165913Y61686D01*
X-165911Y61684D01*
X-165909Y61682D01*
X-165907Y61680D01*
X-165906Y61679D01*
Y61679D01*
X-165906Y61678D01*
X-165905Y61677D01*
X-165904Y61676D01*
X-165903Y61675D01*
X-165902Y61675D01*
X-165902D01*
X-165901Y61674D01*
X-165900Y61673D01*
X-165899Y61672D01*
X-165898Y61671D01*
X-165897Y61670D01*
X-165892Y61666D01*
X-165887Y61662D01*
X-165887D01*
X-165887Y61662D01*
X-165886Y61660D01*
X-165884Y61659D01*
X-165883Y61658D01*
X-165883Y61658D01*
X-165883Y61658D01*
X-165882Y61657D01*
X-165881Y61656D01*
X-165880Y61655D01*
X-165879Y61654D01*
X-165878Y61654D01*
X-165878D01*
X-165878Y61653D01*
X-165877Y61652D01*
X-165876Y61651D01*
X-165875Y61650D01*
X-165874Y61649D01*
X-165874Y61649D01*
X-165873Y61648D01*
X-165872Y61647D01*
X-165871Y61646D01*
X-165871Y61645D01*
X-165858Y61628D01*
X-165848Y61615D01*
X-165838Y61602D01*
X-165825Y61585D01*
X-165815Y61571D01*
X-165805Y61557D01*
X-165792Y61539D01*
X-165783Y61525D01*
X-165773Y61511D01*
X-165760Y61493D01*
X-165750Y61478D01*
X-165740Y61464D01*
Y61464D01*
X-165736Y61458D01*
X-165728Y61445D01*
X-165720Y61432D01*
X-165712Y61420D01*
X-165708Y61413D01*
X-165707Y61412D01*
X-165706Y61410D01*
X-165705Y61407D01*
X-165704Y61405D01*
X-165704Y61403D01*
X-165702Y61398D01*
X-165700Y61393D01*
X-165698Y61388D01*
X-165698Y61388D01*
X-165697Y61386D01*
X-165697Y61385D01*
X-165696Y61384D01*
X-165696Y61383D01*
X-165696Y61383D01*
X-165695Y61382D01*
X-165695Y61380D01*
X-165694Y61379D01*
X-165694Y61378D01*
X-165694Y61378D01*
X-165693Y61377D01*
X-165693Y61375D01*
X-165692Y61374D01*
X-165692Y61373D01*
X-165691Y61373D01*
X-165691Y61371D01*
X-165690Y61370D01*
X-165689Y61369D01*
X-165689Y61368D01*
X-165689Y61368D01*
X-165688Y61366D01*
X-165687Y61365D01*
X-165686Y61364D01*
X-165686Y61363D01*
X-165686Y61363D01*
X-165685Y61362D01*
X-165684Y61360D01*
X-165683Y61357D01*
X-165682Y61354D01*
X-165682Y61353D01*
X-165680Y61348D01*
X-165678Y61343D01*
X-165676Y61338D01*
X-165676D01*
Y61338D01*
X-165676Y61337D01*
X-165676Y61336D01*
X-165675Y61335D01*
X-165675Y61333D01*
X-165674Y61333D01*
X-165674Y61333D01*
X-165674Y61333D01*
X-165674Y61332D01*
X-165674Y61331D01*
X-165673Y61329D01*
X-165673Y61328D01*
X-165672Y61327D01*
X-165672Y61327D01*
X-165671Y61325D01*
X-165671Y61324D01*
X-165670Y61323D01*
X-165670Y61322D01*
X-165670Y61322D01*
X-165669Y61320D01*
X-165668Y61319D01*
X-165668Y61318D01*
X-165667Y61317D01*
X-165667Y61316D01*
X-165666Y61315D01*
X-165665Y61314D01*
X-165665Y61312D01*
X-165664Y61312D01*
X-165664Y61312D01*
D01*
X-165664D01*
X-165664D01*
X-165664Y61311D01*
X-165663Y61308D01*
X-165662Y61305D01*
X-165661Y61302D01*
X-165660Y61301D01*
X-165658Y61296D01*
X-165657Y61290D01*
X-165655Y61285D01*
X-165655Y61284D01*
X-165654Y61283D01*
X-165653Y61281D01*
X-165653Y61280D01*
X-165653Y61279D01*
X-165653Y61279D01*
X-165653Y61279D01*
X-165652Y61277D01*
X-165651Y61276D01*
X-165651Y61274D01*
X-165651Y61274D01*
X-165650Y61273D01*
X-165650Y61272D01*
X-165649Y61270D01*
X-165648Y61269D01*
X-165648Y61268D01*
X-165648D01*
X-165648Y61268D01*
X-165647Y61266D01*
X-165647Y61265D01*
X-165646Y61264D01*
X-165646Y61263D01*
X-165645Y61262D01*
X-165644Y61261D01*
X-165644Y61259D01*
X-165643Y61258D01*
X-165643Y61257D01*
X-165643Y61257D01*
X-165642Y61256D01*
X-165641Y61253D01*
X-165640Y61251D01*
X-165639Y61248D01*
X-165639Y61247D01*
X-165637Y61242D01*
X-165635Y61237D01*
X-165633Y61232D01*
X-165633D01*
X-165633Y61231D01*
X-165632Y61230D01*
X-165632Y61228D01*
X-165631Y61227D01*
X-165631Y61226D01*
X-165631Y61226D01*
X-165630Y61224D01*
X-165630Y61223D01*
X-165629Y61222D01*
X-165629Y61221D01*
X-165629D01*
X-165629Y61220D01*
X-165628Y61219D01*
X-165627Y61218D01*
X-165627Y61217D01*
X-165627Y61216D01*
X-165626Y61215D01*
X-165626Y61214D01*
X-165625Y61213D01*
X-165624Y61211D01*
X-165624Y61211D01*
X-165624D01*
X-165623Y61210D01*
X-165623Y61209D01*
X-165622Y61207D01*
X-165621Y61206D01*
X-165621Y61206D01*
X-165621D01*
X-165620Y61204D01*
X-165619Y61201D01*
X-165618Y61198D01*
X-165617Y61196D01*
X-165617Y61194D01*
X-165615Y61188D01*
X-165613Y61183D01*
X-165611Y61177D01*
X-165611Y61177D01*
X-165611Y61176D01*
X-165611Y61175D01*
X-165610Y61173D01*
X-165609Y61172D01*
X-165609Y61171D01*
X-165609Y61170D01*
X-165609Y61169D01*
X-165608Y61167D01*
X-165607Y61166D01*
X-165607Y61165D01*
X-165607D01*
X-165607Y61164D01*
X-165606Y61163D01*
X-165606Y61162D01*
X-165605Y61160D01*
X-165605Y61159D01*
Y61160D01*
X-165604Y61159D01*
X-165604Y61157D01*
X-165603Y61156D01*
X-165602Y61154D01*
X-165602Y61154D01*
X-165602Y61154D01*
X-165602Y61153D01*
X-165601Y61151D01*
X-165600Y61150D01*
X-165599Y61149D01*
X-165599Y61148D01*
X-165597Y61137D01*
X-165596Y61132D01*
X-165595Y61126D01*
X-165594Y61121D01*
X-165592Y61116D01*
X-165591Y61111D01*
X-165590Y61105D01*
X-165589Y61100D01*
X-165588Y61094D01*
X-165586Y61083D01*
X-165585Y61077D01*
X-165584Y61071D01*
X-165582Y61060D01*
X-165581Y61054D01*
X-165579Y61048D01*
X-165578Y61042D01*
X-165577Y61036D01*
X-165577D01*
X-165577Y61035D01*
X-165577Y61032D01*
X-165576Y61029D01*
X-165576Y61026D01*
X-165576Y61025D01*
X-165575Y61019D01*
X-165575Y61013D01*
X-165574Y61007D01*
X-165573Y61002D01*
X-165573Y60996D01*
X-165572Y60990D01*
X-165572D01*
X-165572Y60990D01*
X-165572Y60989D01*
X-165572Y60988D01*
X-165571Y60986D01*
X-165571Y60985D01*
X-165571Y60984D01*
X-165571Y60984D01*
X-165571Y60984D01*
X-165571Y60982D01*
X-165571Y60981D01*
X-165570Y60979D01*
X-165570Y60978D01*
X-165570Y60978D01*
X-165569Y60972D01*
X-165568Y60958D01*
X-165567Y60944D01*
X-165567Y60931D01*
X-165567Y60924D01*
X-165566Y60917D01*
X-165565Y60904D01*
X-165565Y60891D01*
X-165564Y60878D01*
X-165564Y60871D01*
X-165564Y60858D01*
Y55119D01*
X-165561Y55021D01*
X-165589Y54825D01*
X-165650Y54637D01*
X-165742Y54463D01*
X-165802Y54385D01*
X-165857Y54318D01*
X-165986Y54203D01*
X-166131Y54109D01*
X-166289Y54039D01*
X-166372Y54017D01*
Y54017D01*
X-166496Y53982D01*
X-166754Y53965D01*
X-167010Y54001D01*
X-167254Y54088D01*
X-167364Y54155D01*
Y54155D01*
X-167364Y54155D01*
X-167484Y54233D01*
X-167675Y54444D01*
X-167806Y54698D01*
X-167866Y54977D01*
X-167860Y55119D01*
X-167860Y55119D01*
Y59710D01*
X-171303D01*
Y55119D01*
X-171298Y55019D01*
X-171322Y54820D01*
X-171381Y54629D01*
X-171472Y54450D01*
X-171532Y54370D01*
X-171587Y54302D01*
X-171716Y54184D01*
X-171862Y54089D01*
X-172022Y54018D01*
X-172106Y53995D01*
Y53995D01*
X-172232Y53960D01*
X-172493Y53942D01*
X-172752Y53978D01*
X-172999Y54067D01*
X-173110Y54136D01*
X-173231Y54215D01*
X-173423Y54432D01*
X-173552Y54691D01*
X-173608Y54975D01*
X-173598Y55119D01*
X-173598Y59710D01*
X-177042D01*
Y55119D01*
X-177042D01*
X-177034Y54889D01*
X-177204Y54461D01*
X-177531Y54136D01*
X-177960Y53969D01*
X-178190Y53978D01*
X-178276Y53978D01*
X-178445Y54001D01*
X-178610Y54047D01*
X-178767Y54116D01*
X-178840Y54161D01*
X-178959Y54238D01*
X-179150Y54448D01*
X-179281Y54700D01*
X-179343Y54977D01*
X-179338Y55119D01*
Y60673D01*
X-179338D01*
X-179338Y60678D01*
X-179340Y60688D01*
X-179341Y60698D01*
X-179342Y60708D01*
X-179343Y60713D01*
X-179343Y60715D01*
X-179344Y60721D01*
X-179344Y60726D01*
X-179345Y60731D01*
X-179345Y60733D01*
X-179345D01*
X-179345Y60736D01*
X-179345Y60741D01*
X-179346Y60746D01*
X-179346Y60751D01*
X-179346Y60753D01*
Y60753D01*
X-179346Y60756D01*
X-179347Y60761D01*
X-179347Y60766D01*
X-179347Y60771D01*
X-179347Y60774D01*
X-179348Y60794D01*
X-179348Y60814D01*
X-179348Y60835D01*
X-179349Y60855D01*
Y60875D01*
X-179349D01*
X-179349Y60875D01*
X-179345Y61104D01*
X-179164Y61522D01*
X-178837Y61840D01*
X-178413Y62009D01*
X-178185Y62006D01*
D02*
G37*
%LPC*%
G36*
X-165931Y61702D02*
X-165931Y61702D01*
D01*
X-165931Y61702D01*
D02*
G37*
G36*
X-165653Y61279D02*
Y61279D01*
D01*
Y61279D01*
D02*
G37*
%LPD*%
G36*
X-144713Y61178D02*
X-144713D01*
X-144713D01*
D01*
D02*
G37*
G36*
X-144628Y61137D02*
X-144628D01*
Y61137D01*
X-144628Y61137D01*
D02*
G37*
G36*
X-144113Y60562D02*
Y60562D01*
X-144113Y60562D01*
X-144113Y60562D01*
D02*
G37*
G36*
X-156445Y61283D02*
X-145186D01*
X-145181Y61283D01*
X-145179Y61283D01*
X-145177Y61283D01*
X-145175Y61282D01*
X-145173Y61282D01*
X-145165Y61282D01*
X-145153Y61282D01*
Y61282D01*
Y61282D01*
X-145151Y61282D01*
X-145147Y61281D01*
X-145143Y61281D01*
X-145140Y61281D01*
X-145138Y61281D01*
X-145133Y61281D01*
X-145128Y61280D01*
X-145122Y61280D01*
X-145117Y61280D01*
X-145110Y61279D01*
X-145110D01*
X-145107Y61279D01*
X-145100Y61279D01*
X-145093Y61278D01*
X-145087Y61278D01*
X-145083Y61277D01*
X-145078Y61277D01*
X-145073Y61276D01*
X-145068Y61276D01*
X-145062Y61275D01*
X-145056Y61275D01*
X-145056D01*
Y61275D01*
X-145053Y61274D01*
X-145048Y61274D01*
X-145042Y61273D01*
X-145037Y61272D01*
X-145034Y61272D01*
X-145029Y61271D01*
X-145024Y61270D01*
X-145019Y61269D01*
X-145014Y61268D01*
X-145008Y61267D01*
X-145002Y61266D01*
X-144999Y61266D01*
X-144993Y61265D01*
X-144988Y61264D01*
X-144982Y61263D01*
X-144979Y61262D01*
X-144975Y61261D01*
X-144970Y61260D01*
X-144965Y61259D01*
X-144959Y61258D01*
X-144954Y61257D01*
X-144948Y61256D01*
X-144948Y61256D01*
X-144945Y61255D01*
X-144941Y61255D01*
X-144937Y61253D01*
X-144932Y61252D01*
X-144930Y61252D01*
Y61252D01*
X-144925Y61251D01*
X-144920Y61249D01*
X-144915Y61248D01*
X-144910Y61246D01*
X-144905Y61245D01*
X-144899Y61243D01*
X-144899Y61243D01*
X-144897Y61242D01*
X-144895Y61242D01*
X-144894Y61242D01*
X-144893Y61241D01*
X-144891Y61241D01*
X-144887Y61240D01*
X-144882Y61239D01*
X-144878Y61238D01*
X-144876Y61237D01*
X-144871Y61235D01*
X-144866Y61234D01*
X-144861Y61232D01*
X-144856Y61231D01*
X-144851Y61229D01*
X-144845Y61227D01*
X-144844Y61227D01*
X-144843Y61227D01*
X-144841Y61226D01*
X-144840Y61226D01*
X-144839Y61226D01*
Y61226D01*
X-144839D01*
X-144837Y61225D01*
X-144832Y61224D01*
X-144828Y61223D01*
X-144824Y61221D01*
X-144822Y61220D01*
X-144821Y61220D01*
X-144820Y61220D01*
X-144818Y61219D01*
X-144817Y61219D01*
X-144817Y61218D01*
X-144812Y61216D01*
X-144807Y61214D01*
X-144802Y61213D01*
X-144796Y61210D01*
X-144796Y61210D01*
X-144794Y61210D01*
X-144793Y61209D01*
X-144791Y61209D01*
X-144791Y61209D01*
X-144790Y61208D01*
X-144789Y61208D01*
X-144787Y61207D01*
X-144785Y61207D01*
X-144785Y61206D01*
X-144782Y61206D01*
X-144778Y61204D01*
X-144774Y61203D01*
X-144769Y61201D01*
X-144767Y61200D01*
X-144767Y61200D01*
X-144766Y61199D01*
X-144764Y61199D01*
X-144763Y61198D01*
X-144762Y61198D01*
X-144757Y61196D01*
X-144753Y61194D01*
X-144747Y61192D01*
X-144747Y61191D01*
X-144746Y61191D01*
X-144744Y61190D01*
X-144743Y61190D01*
X-144742Y61189D01*
X-144741Y61189D01*
X-144740Y61189D01*
X-144739Y61188D01*
X-144737Y61188D01*
X-144736Y61187D01*
X-144736D01*
X-144736Y61187D01*
X-144734Y61186D01*
X-144733Y61186D01*
X-144731Y61185D01*
X-144730Y61185D01*
Y61185D01*
X-144728Y61184D01*
X-144724Y61182D01*
X-144719Y61181D01*
X-144715Y61178D01*
X-144713Y61178D01*
X-144713Y61178D01*
X-144712Y61177D01*
X-144711Y61177D01*
X-144710Y61176D01*
X-144709Y61175D01*
X-144708Y61175D01*
X-144703Y61172D01*
X-144698Y61170D01*
X-144693Y61167D01*
X-144693D01*
X-144692Y61167D01*
X-144691Y61166D01*
X-144690Y61166D01*
X-144689Y61165D01*
X-144688Y61165D01*
X-144687Y61164D01*
X-144686Y61164D01*
X-144684Y61163D01*
X-144683Y61162D01*
X-144682Y61162D01*
Y61162D01*
X-144681Y61162D01*
X-144680Y61161D01*
X-144678Y61160D01*
X-144677Y61160D01*
X-144676Y61159D01*
X-144674Y61159D01*
X-144669Y61157D01*
X-144665Y61155D01*
X-144661Y61153D01*
X-144659Y61152D01*
X-144659Y61152D01*
X-144658Y61152D01*
X-144657Y61151D01*
X-144656Y61150D01*
X-144654Y61150D01*
X-144654Y61150D01*
X-144649Y61147D01*
X-144644Y61144D01*
X-144639Y61142D01*
X-144638Y61142D01*
X-144637Y61141D01*
X-144636Y61140D01*
X-144634Y61140D01*
X-144634Y61139D01*
X-144634Y61139D01*
X-144633Y61139D01*
X-144631Y61138D01*
X-144630Y61138D01*
X-144629Y61137D01*
X-144628Y61137D01*
Y61137D01*
X-144627Y61136D01*
X-144626Y61136D01*
X-144624Y61135D01*
X-144622Y61134D01*
X-144622Y61134D01*
X-144622D01*
X-144619Y61133D01*
X-144615Y61131D01*
X-144611Y61129D01*
X-144607Y61126D01*
X-144604Y61125D01*
X-144604Y61125D01*
X-144604Y61125D01*
X-144602Y61124D01*
X-144601Y61123D01*
X-144600Y61122D01*
X-144599Y61122D01*
X-144594Y61119D01*
X-144590Y61116D01*
X-144585Y61113D01*
Y61113D01*
X-144584Y61112D01*
X-144583Y61112D01*
X-144581Y61111D01*
X-144580Y61110D01*
X-144579Y61110D01*
X-144579Y61109D01*
X-144577Y61108D01*
X-144576Y61108D01*
X-144574Y61107D01*
X-144573Y61106D01*
X-144573Y61106D01*
X-144571Y61105D01*
X-144570Y61104D01*
X-144568Y61104D01*
X-144567Y61103D01*
Y61103D01*
X-144566Y61102D01*
X-144565Y61101D01*
X-144563Y61099D01*
X-144561Y61098D01*
X-144560Y61097D01*
X-144559Y61097D01*
X-144558Y61096D01*
X-144557Y61095D01*
X-144556Y61094D01*
X-144555Y61094D01*
X-144551Y61091D01*
X-144546Y61088D01*
X-144541Y61085D01*
X-144541D01*
X-144540Y61084D01*
X-144539Y61083D01*
X-144538Y61083D01*
X-144537Y61082D01*
X-144536Y61082D01*
Y61082D01*
X-144536Y61081D01*
X-144534Y61080D01*
X-144533Y61080D01*
X-144532Y61079D01*
X-144531Y61078D01*
X-144531Y61078D01*
X-144530Y61077D01*
X-144529Y61076D01*
X-144528Y61076D01*
X-144527Y61075D01*
X-144528D01*
X-144527Y61075D01*
X-144526Y61074D01*
X-144525Y61073D01*
X-144524Y61072D01*
X-144524Y61072D01*
X-144523Y61071D01*
X-144521Y61069D01*
X-144519Y61068D01*
X-144517Y61066D01*
X-144516Y61065D01*
X-144516D01*
X-144516Y61065D01*
X-144515Y61064D01*
X-144514Y61063D01*
X-144512Y61062D01*
X-144512Y61062D01*
X-144507Y61059D01*
X-144502Y61055D01*
X-144497Y61052D01*
Y61052D01*
X-144497Y61051D01*
X-144495Y61051D01*
X-144494Y61050D01*
X-144493Y61049D01*
X-144493Y61048D01*
X-144493D01*
X-144493Y61048D01*
X-144492Y61048D01*
X-144491Y61047D01*
X-144490Y61046D01*
X-144489Y61045D01*
X-144488Y61045D01*
X-144488Y61045D01*
X-144488Y61044D01*
X-144487Y61044D01*
X-144486Y61043D01*
X-144485Y61042D01*
X-144484Y61041D01*
X-144484D01*
X-144484Y61041D01*
X-144484Y61041D01*
X-144483Y61040D01*
X-144482Y61039D01*
X-144481Y61038D01*
X-144480Y61038D01*
X-144480D01*
X-144480Y61037D01*
X-144478Y61035D01*
X-144476Y61033D01*
X-144474Y61032D01*
X-144473Y61031D01*
X-144473Y61031D01*
X-144472Y61030D01*
X-144471Y61029D01*
X-144470Y61028D01*
X-144469Y61028D01*
X-144468Y61027D01*
X-144464Y61024D01*
X-144459Y61020D01*
X-144454Y61016D01*
X-144454Y61016D01*
X-144453Y61016D01*
X-144452Y61015D01*
X-144451Y61014D01*
X-144450Y61013D01*
X-144449Y61013D01*
X-144449Y61012D01*
X-144447Y61011D01*
X-144446Y61010D01*
X-144445Y61009D01*
X-144445Y61009D01*
X-144445D01*
X-144444Y61009D01*
X-144443Y61008D01*
X-144442Y61007D01*
X-144441Y61006D01*
X-144441Y61005D01*
Y61005D01*
X-144440Y61005D01*
X-144439Y61004D01*
X-144438Y61003D01*
X-144438Y61002D01*
X-144437Y61002D01*
X-144437Y61002D01*
X-144436Y61000D01*
X-144434Y60999D01*
X-144432Y60997D01*
X-144430Y60995D01*
X-144429Y60994D01*
X-144429D01*
X-144429Y60993D01*
X-144428Y60992D01*
X-144427Y60991D01*
X-144425Y60990D01*
X-144425Y60990D01*
X-144425Y60990D01*
X-144424Y60989D01*
X-144423Y60988D01*
X-144422Y60988D01*
X-144421Y60986D01*
X-144420Y60986D01*
X-144415Y60982D01*
X-144410Y60978D01*
X-144410D01*
X-144410Y60978D01*
X-144410Y60978D01*
X-144409Y60977D01*
X-144408Y60976D01*
X-144406Y60975D01*
X-144406Y60974D01*
X-144405Y60974D01*
X-144404Y60973D01*
X-144403Y60972D01*
X-144402Y60971D01*
X-144401Y60970D01*
X-144401D01*
X-144401Y60970D01*
X-144400Y60969D01*
X-144399Y60968D01*
X-144398Y60967D01*
X-144397Y60966D01*
Y60966D01*
X-144397Y60966D01*
X-144396Y60965D01*
X-144395Y60964D01*
X-144394Y60963D01*
X-144394Y60962D01*
X-144394Y60962D01*
X-144393Y60961D01*
X-144391Y60959D01*
X-144389Y60957D01*
X-144387Y60955D01*
X-144386Y60954D01*
X-144386Y60954D01*
D01*
X-144386D01*
X-144386D01*
X-144385Y60954D01*
X-144384Y60953D01*
X-144383Y60952D01*
X-144382Y60951D01*
X-144381Y60950D01*
X-144377Y60946D01*
X-144372Y60942D01*
X-144367Y60938D01*
X-144366Y60938D01*
X-144365Y60937D01*
X-144364Y60936D01*
X-144363Y60935D01*
X-144362Y60934D01*
X-144362D01*
X-144362Y60934D01*
X-144361Y60933D01*
X-144360Y60932D01*
X-144358Y60931D01*
X-144358Y60930D01*
Y60930D01*
X-144357Y60930D01*
X-144356Y60929D01*
X-144355Y60928D01*
X-144354Y60927D01*
X-144354Y60926D01*
X-144354D01*
X-144353Y60926D01*
X-144352Y60925D01*
X-144351Y60924D01*
X-144351Y60922D01*
X-144350Y60922D01*
X-144350D01*
X-144349Y60921D01*
X-144347Y60919D01*
X-144346Y60917D01*
X-144344Y60914D01*
X-144342Y60914D01*
X-144342Y60913D01*
X-144342Y60913D01*
X-144341Y60912D01*
X-144340Y60911D01*
X-144339Y60910D01*
X-144338Y60909D01*
X-144338D01*
X-144337Y60909D01*
X-144336Y60908D01*
X-144335Y60906D01*
X-144334Y60905D01*
X-144333Y60905D01*
X-144328Y60901D01*
X-144324Y60896D01*
X-144324Y60896D01*
X-144323Y60896D01*
X-144322Y60894D01*
X-144321Y60893D01*
X-144319Y60892D01*
X-144319Y60892D01*
X-144319Y60892D01*
X-144318Y60891D01*
X-144317Y60890D01*
X-144316Y60889D01*
X-144315Y60888D01*
X-144314Y60887D01*
X-144314Y60887D01*
X-144313Y60886D01*
X-144312Y60884D01*
X-144311Y60883D01*
X-144310Y60883D01*
X-144310Y60882D01*
X-144309Y60881D01*
X-144308Y60880D01*
X-144307Y60879D01*
X-144307Y60878D01*
X-144294Y60861D01*
X-144284Y60848D01*
X-144274Y60835D01*
X-144261Y60816D01*
X-144251Y60802D01*
X-144242Y60788D01*
X-144228Y60769D01*
X-144219Y60755D01*
X-144209Y60740D01*
X-144196Y60721D01*
X-144186Y60707D01*
X-144176Y60692D01*
X-144163Y60671D01*
X-144153Y60655D01*
X-144144Y60640D01*
Y60640D01*
X-144143Y60638D01*
X-144142Y60636D01*
X-144141Y60633D01*
X-144140Y60631D01*
X-144140Y60629D01*
X-144138Y60624D01*
X-144136Y60619D01*
X-144134Y60614D01*
X-144134D01*
X-144134Y60614D01*
X-144134Y60613D01*
X-144134Y60612D01*
X-144133Y60611D01*
X-144133Y60610D01*
X-144132Y60609D01*
X-144132Y60609D01*
X-144132Y60608D01*
X-144131Y60607D01*
X-144131Y60606D01*
X-144130Y60605D01*
X-144130Y60604D01*
X-144130Y60604D01*
X-144130Y60603D01*
X-144129Y60602D01*
X-144129Y60601D01*
X-144128Y60599D01*
X-144128Y60599D01*
X-144128Y60599D01*
X-144128Y60598D01*
X-144127Y60597D01*
X-144126Y60596D01*
X-144125Y60594D01*
X-144125Y60594D01*
X-144125Y60594D01*
X-144125Y60593D01*
X-144124Y60592D01*
X-144123Y60591D01*
X-144122Y60589D01*
X-144122Y60589D01*
X-144122Y60587D01*
X-144121Y60585D01*
X-144120Y60582D01*
X-144118Y60579D01*
X-144118Y60578D01*
X-144116Y60573D01*
X-144114Y60567D01*
X-144113Y60562D01*
X-144113Y60562D01*
X-144112Y60561D01*
X-144112Y60560D01*
X-144111Y60559D01*
X-144111Y60557D01*
X-144111Y60557D01*
X-144111Y60557D01*
X-144110Y60556D01*
X-144110Y60554D01*
X-144109Y60553D01*
X-144109Y60552D01*
X-144108Y60551D01*
X-144108Y60551D01*
X-144108Y60550D01*
X-144108Y60549D01*
X-144107Y60548D01*
X-144106Y60546D01*
X-144106Y60546D01*
X-144106Y60545D01*
X-144105Y60544D01*
X-144104Y60542D01*
X-144104Y60541D01*
X-144103Y60540D01*
X-144103Y60540D01*
X-144102Y60538D01*
X-144101Y60537D01*
X-144101Y60535D01*
X-144100Y60535D01*
Y60535D01*
X-144100Y60533D01*
X-144099Y60531D01*
X-144098Y60528D01*
X-144097Y60525D01*
X-144096Y60524D01*
X-144094Y60518D01*
X-144093Y60513D01*
X-144091Y60507D01*
X-144091Y60506D01*
X-144090Y60505D01*
X-144090Y60504D01*
X-144089Y60502D01*
X-144089Y60501D01*
X-144089Y60501D01*
X-144089D01*
X-144089Y60501D01*
X-144088Y60499D01*
X-144087Y60498D01*
X-144087Y60497D01*
X-144087Y60496D01*
X-144086Y60495D01*
X-144086Y60494D01*
X-144085Y60492D01*
X-144085Y60491D01*
X-144084Y60490D01*
X-144084Y60490D01*
X-144083Y60488D01*
X-144083Y60487D01*
X-144082Y60485D01*
X-144082Y60485D01*
X-144082Y60485D01*
X-144081Y60484D01*
X-144080Y60483D01*
X-144080Y60481D01*
X-144079Y60480D01*
X-144079Y60479D01*
X-144076Y60469D01*
X-144075Y60463D01*
X-144074Y60458D01*
X-144073Y60453D01*
X-144072Y60448D01*
X-144071Y60442D01*
X-144070Y60437D01*
X-144069Y60432D01*
X-144068Y60426D01*
X-144066Y60415D01*
X-144065Y60409D01*
X-144063Y60402D01*
X-144062Y60396D01*
X-144061Y60391D01*
X-144060Y60384D01*
X-144059Y60378D01*
X-144058Y60372D01*
X-144057Y60367D01*
X-144055Y60356D01*
X-144054Y60351D01*
X-144052Y60346D01*
X-144052Y60341D01*
X-144050Y60335D01*
X-144049Y60330D01*
X-144048Y60325D01*
X-144047Y60320D01*
X-144046Y60315D01*
X-144046Y60315D01*
X-144046Y60313D01*
X-144045Y60310D01*
X-144045Y60307D01*
X-144045Y60304D01*
X-144045Y60303D01*
X-144044Y60297D01*
X-144043Y60291D01*
X-144043Y60285D01*
X-144042Y60279D01*
X-144041Y60273D01*
X-144041Y60267D01*
X-144041Y60267D01*
X-144041Y60266D01*
X-144040Y60265D01*
X-144040Y60263D01*
X-144040Y60262D01*
X-144040Y60261D01*
X-144040Y60260D01*
X-144039Y60258D01*
X-144039Y60257D01*
X-144039Y60255D01*
X-144039Y60255D01*
X-144039Y60255D01*
X-144038Y60248D01*
X-144037Y60234D01*
X-144036Y60220D01*
X-144035Y60206D01*
X-144035Y60198D01*
X-144035Y60198D01*
Y60198D01*
X-144035Y60192D01*
X-144034Y60179D01*
X-144033Y60167D01*
X-144033Y60154D01*
X-144033Y60147D01*
X-144033Y60135D01*
Y57265D01*
X-144035Y56735D01*
X-144242Y55695D01*
X-144645Y54714D01*
X-145230Y53828D01*
X-145973Y53072D01*
X-146848Y52472D01*
X-147822Y52052D01*
X-148858Y51827D01*
X-149389Y51816D01*
X-149389D01*
X-149401Y51815D01*
X-149425Y51814D01*
X-149450Y51813D01*
X-149474Y51813D01*
X-149487Y51813D01*
X-152356D01*
X-152886Y51815D01*
X-153926Y52022D01*
X-154907Y52425D01*
X-155792Y53009D01*
X-156548Y53753D01*
X-157148Y54627D01*
X-157568Y55601D01*
X-157794Y56637D01*
X-157805Y57167D01*
X-157806Y57177D01*
X-157807Y57197D01*
X-157807Y57216D01*
X-157808Y57236D01*
X-157807Y57246D01*
X-157807Y57265D01*
Y59946D01*
X-157814Y59987D01*
X-157817Y60007D01*
X-157820Y60028D01*
X-157822Y60048D01*
X-157824Y60069D01*
X-157825Y60072D01*
X-157825Y60077D01*
X-157826Y60082D01*
X-157826Y60087D01*
X-157826Y60090D01*
X-157827Y60092D01*
X-157827Y60097D01*
X-157827Y60103D01*
X-157828Y60108D01*
X-157828Y60110D01*
X-157828Y60113D01*
X-157828Y60118D01*
X-157828Y60123D01*
X-157829Y60128D01*
X-157829Y60131D01*
X-157829Y60134D01*
X-157829Y60139D01*
X-157829Y60144D01*
X-157829Y60149D01*
Y60152D01*
X-157828Y60152D01*
X-157827Y60244D01*
X-157795Y60426D01*
X-157734Y60599D01*
X-157646Y60761D01*
X-157589Y60834D01*
X-157493Y60966D01*
X-157234Y61165D01*
X-156930Y61284D01*
X-156605Y61314D01*
X-156445Y61283D01*
D02*
G37*
G36*
X-144784Y39691D02*
X-144784Y39691D01*
D01*
X-144784Y39691D01*
D02*
G37*
G36*
X-144907Y48371D02*
X-144812Y48342D01*
Y48342D01*
X-144729Y48315D01*
X-144575Y48235D01*
X-144435Y48132D01*
X-144313Y48008D01*
X-144263Y47937D01*
Y47937D01*
X-144186Y47832D01*
X-144078Y47595D01*
X-144021Y47341D01*
X-144018Y47081D01*
X-144043Y46953D01*
X-144074Y46813D01*
X-144208Y46558D01*
X-144403Y46346D01*
X-144646Y46193D01*
X-144784Y46150D01*
X-147626Y45085D01*
Y40757D01*
X-144784Y39691D01*
Y39691D01*
X-144689Y39661D01*
X-144512Y39567D01*
X-144354Y39445D01*
X-144220Y39297D01*
X-144167Y39213D01*
X-144122Y39138D01*
X-144058Y38976D01*
X-144020Y38806D01*
X-144010Y38632D01*
X-144018Y38545D01*
X-144029Y38415D01*
X-144104Y38165D01*
X-144229Y37936D01*
X-144398Y37737D01*
X-144501Y37657D01*
X-144501Y37657D01*
X-144617Y37571D01*
X-144887Y37467D01*
X-145173Y37437D01*
X-145458Y37483D01*
X-145590Y37542D01*
X-156934Y41796D01*
Y41796D01*
X-156934D01*
X-157107Y41836D01*
X-157413Y42016D01*
X-157651Y42280D01*
X-157797Y42604D01*
X-157818Y42780D01*
X-157818Y42783D01*
X-157818Y42784D01*
X-157818Y42785D01*
X-157819Y42786D01*
X-157819Y42787D01*
X-157819Y42789D01*
X-157819Y42790D01*
X-157819Y42791D01*
X-157819Y42792D01*
X-157821Y42807D01*
X-157822Y42814D01*
X-157823Y42821D01*
X-157824Y42828D01*
X-157825Y42836D01*
X-157825Y42836D01*
X-157825Y42837D01*
X-157825Y42839D01*
X-157825Y42840D01*
X-157825Y42842D01*
X-157825Y42843D01*
X-157825D01*
X-157825Y42844D01*
X-157826Y42846D01*
X-157826Y42848D01*
X-157826Y42850D01*
X-157826Y42850D01*
X-157826Y42852D01*
X-157826Y42853D01*
X-157826Y42855D01*
X-157826Y42857D01*
X-157826Y42858D01*
X-157826Y42859D01*
X-157826Y42861D01*
X-157826Y42863D01*
Y42864D01*
X-157826Y42865D01*
X-157826Y42868D01*
Y42870D01*
X-157826Y42871D01*
Y42873D01*
X-157826Y42874D01*
Y42876D01*
X-157826Y42877D01*
Y42881D01*
X-157828Y42896D01*
X-157827Y42897D01*
X-157827D01*
X-157827Y42901D01*
X-157827Y42910D01*
X-157827Y42919D01*
X-157827Y42928D01*
X-157827Y42932D01*
X-157827Y42936D01*
X-157827Y42943D01*
X-157826Y42950D01*
X-157826Y42958D01*
X-157826Y42961D01*
X-157825Y42968D01*
X-157825Y42971D01*
X-157825Y42973D01*
X-157825Y42974D01*
X-157825Y42976D01*
X-157825Y42977D01*
X-157825Y42978D01*
X-157825Y42980D01*
X-157825Y42981D01*
X-157825Y42983D01*
D01*
X-157816Y43169D01*
X-157681Y43518D01*
X-157441Y43805D01*
X-157122Y44001D01*
X-156940Y44044D01*
X-145590Y48300D01*
X-145498Y48339D01*
X-145304Y48384D01*
X-145105Y48395D01*
X-144907Y48371D01*
D02*
G37*
%LPC*%
G36*
X-146334Y58987D02*
X-155516D01*
Y57266D01*
X-155516D01*
X-155516Y57266D01*
Y57266D01*
X-155516D01*
X-155518Y56954D01*
X-155399Y56343D01*
X-155162Y55767D01*
X-154817Y55248D01*
X-154377Y54808D01*
X-153859Y54463D01*
X-153283Y54226D01*
X-152671Y54107D01*
X-152360Y54109D01*
X-149491D01*
X-149491Y54109D01*
X-149179Y54107D01*
X-148568Y54226D01*
X-147992Y54463D01*
X-147474Y54808D01*
X-147034Y55248D01*
X-146688Y55767D01*
X-146452Y56343D01*
X-146333Y56954D01*
X-146334Y57266D01*
Y58987D01*
D02*
G37*
G36*
X-157825Y42983D02*
X-157825D01*
Y42983D01*
X-157825Y42983D01*
D02*
G37*
G36*
X-149921Y44224D02*
X-153395Y42921D01*
X-149921Y41618D01*
Y44224D01*
D02*
G37*
G36*
X-172877Y72978D02*
X-177037D01*
Y70898D01*
X-177039Y70693D01*
X-176961Y70289D01*
X-176806Y69909D01*
X-176578Y69567D01*
X-176288Y69277D01*
X-175946Y69049D01*
X-175565Y68893D01*
X-175162Y68816D01*
X-174957Y68818D01*
X-174957Y68818D01*
X-174698Y68816D01*
X-174196Y68940D01*
X-173739Y69184D01*
X-173358Y69533D01*
X-173216Y69749D01*
X-173216Y69749D01*
X-173170Y69828D01*
X-173147Y69868D01*
X-173124Y69909D01*
X-173121Y69915D01*
X-173116Y69925D01*
X-173110Y69935D01*
X-173104Y69946D01*
X-173102Y69951D01*
X-173099Y69956D01*
X-173093Y69967D01*
X-173088Y69978D01*
X-173083Y69989D01*
X-173080Y69994D01*
X-173080D01*
X-173077Y70000D01*
X-173072Y70011D01*
X-173066Y70022D01*
X-173061Y70033D01*
X-173059Y70039D01*
X-173053Y70050D01*
X-173043Y70074D01*
X-173033Y70097D01*
X-173023Y70121D01*
X-173018Y70133D01*
X-173018D01*
X-173016Y70139D01*
X-173011Y70152D01*
X-173006Y70165D01*
X-173002Y70177D01*
X-172999Y70184D01*
X-172999Y70184D01*
X-172982Y70235D01*
X-172952Y70338D01*
X-172926Y70443D01*
X-172906Y70549D01*
X-172898Y70602D01*
X-172898Y70602D01*
X-172893Y70639D01*
X-172885Y70712D01*
X-172879Y70787D01*
X-172877Y70861D01*
Y70898D01*
X-172877Y70898D01*
Y72978D01*
D02*
G37*
G36*
X-129405Y48384D02*
X-132998Y42993D01*
X-125810D01*
X-129405Y48384D01*
D02*
G37*
G36*
X-128952Y32449D02*
X-129404Y32447D01*
X-129405D01*
X-129845Y32449D01*
X-130709Y32285D01*
X-131526Y31959D01*
X-132267Y31483D01*
X-132902Y30875D01*
X-133411Y30156D01*
X-133772Y29354D01*
X-133975Y28498D01*
X-133992Y28058D01*
Y28058D01*
Y28058D01*
X-133996Y27963D01*
X-133997Y27923D01*
X-133997Y27887D01*
X-133998Y27852D01*
Y27844D01*
X-133997Y27827D01*
X-133997Y27809D01*
X-133997Y27792D01*
X-133997Y27783D01*
X-133997Y27783D01*
Y27783D01*
X-133996Y27746D01*
X-133994Y27705D01*
X-133992Y27658D01*
X-133992Y27658D01*
X-133975Y27218D01*
X-133774Y26361D01*
X-133413Y25558D01*
X-132905Y24839D01*
X-132269Y24230D01*
X-131528Y23753D01*
X-130710Y23427D01*
X-129845Y23263D01*
X-129405Y23265D01*
X-129405Y23265D01*
X-129404D01*
X-128952Y23263D01*
X-128063Y23437D01*
X-127225Y23782D01*
X-126472Y24284D01*
X-125831Y24925D01*
X-125329Y25678D01*
X-124984Y26515D01*
X-124810Y27404D01*
X-124811Y27857D01*
X-124811Y27857D01*
X-124810Y28309D01*
X-124984Y29198D01*
X-125329Y30035D01*
X-125831Y30788D01*
X-126472Y31428D01*
X-127226Y31931D01*
X-128063Y32275D01*
X-128952Y32449D01*
D02*
G37*
%LPD*%
D10*
X-170928Y-528D02*
X-155700Y14700D01*
X-189028Y-528D02*
X-170928D01*
X-212000Y-23500D02*
X-189028Y-528D01*
X-233477Y23500D02*
X-221500D01*
X-190500Y54500D02*
Y76767D01*
X-221500Y23500D02*
X-190500Y54500D01*
X-162815Y90415D02*
X-155700Y83300D01*
X-190500Y76767D02*
X-176852Y90415D01*
X-162815D01*
X-155700Y83300D02*
X-146300D01*
X-239488Y23500D02*
X-233477D01*
X-155700Y14700D02*
X-146300D01*
X-233477Y-23500D02*
X-212000D01*
X-239488D02*
X-233477D01*
D30*
X-310500Y-12700D02*
D03*
X-335900D02*
D03*
X-310500Y12700D02*
D03*
X-335900D02*
D03*
X-310500Y63500D02*
D03*
X-335900Y38100D02*
D03*
X-310500D02*
D03*
X-335900Y-38100D02*
D03*
Y-63500D02*
D03*
X-310500Y-38100D02*
D03*
Y-63500D02*
D03*
D31*
X-335900Y63500D02*
D03*
D33*
X-289767Y14710D02*
D03*
X-283989Y19494D02*
D03*
X-289504Y-16363D02*
D03*
X-176559Y81063D02*
D03*
X-218400Y38100D02*
D03*
X-188000Y32000D02*
D03*
X-233477Y-23500D02*
D03*
X-233477Y23500D02*
D03*
X-239488D02*
D03*
X-239488Y-23500D02*
D03*
X-291209Y-24457D02*
D03*
X-289904Y31102D02*
D03*
X-264420Y15573D02*
D03*
X-274500Y16500D02*
D03*
X-264250Y-15500D02*
D03*
X-274500Y-16500D02*
D03*
X-261541Y23561D02*
D03*
X-255239Y29741D02*
D03*
X-255361Y-29741D02*
D03*
X-261741Y-23439D02*
D03*
X-290366Y-9939D02*
D03*
X-207733Y24612D02*
D03*
X-146300Y-14700D02*
D03*
X-155700D02*
D03*
X-146300Y83300D02*
D03*
X-155700D02*
D03*
X-155700Y-83300D02*
D03*
X-146300D02*
D03*
X-155700Y14700D02*
D03*
X-146300D02*
D03*
X-35300Y34500D02*
D03*
Y53700D02*
D03*
X-85700Y44300D02*
D03*
Y63500D02*
D03*
X-92168Y68144D02*
D03*
X-36200Y5500D02*
D03*
X-179500Y7500D02*
D03*
X-179500Y-7500D02*
D03*
Y99000D02*
D03*
X-178500Y-19950D02*
D03*
X-136700Y14700D02*
D03*
X-171800Y21000D02*
D03*
X-165500Y14700D02*
D03*
X-35200Y26500D02*
D03*
X-8500Y3000D02*
D03*
X-10750Y-9500D02*
D03*
X-21500Y9500D02*
D03*
X-4000Y-39000D02*
D03*
X-52500Y-800D02*
D03*
X-29000Y9200D02*
D03*
X-35500Y-7500D02*
D03*
X-25000D02*
D03*
X-122500D02*
D03*
X-45000Y-4000D02*
D03*
X-179500Y-99000D02*
D03*
X-136700Y-83300D02*
D03*
X-122500Y-99000D02*
D03*
X-165300Y-83300D02*
D03*
X-136700Y83300D02*
D03*
X-165300D02*
D03*
X18750Y-9500D02*
D03*
Y-38500D02*
D03*
X12000Y-39000D02*
D03*
X-158883Y49000D02*
D03*
X-122500Y7500D02*
D03*
X-98300Y34700D02*
D03*
X-35300Y63300D02*
D03*
X-67000Y65200D02*
D03*
X-68650Y86776D02*
D03*
X-84600Y92500D02*
D03*
X-122500Y99000D02*
D03*
X-130400Y77000D02*
D03*
X-92000Y88800D02*
D03*
X-130400Y-77000D02*
D03*
X-165300Y-14700D02*
D03*
X-171600Y-21000D02*
D03*
X-130400D02*
D03*
X-136700Y-14700D02*
D03*
X-171600Y-77000D02*
D03*
X-158883Y-49000D02*
D03*
X-10750Y-38500D02*
D03*
X-41500Y32800D02*
D03*
X-85700Y53700D02*
D03*
X-35300Y44500D02*
D03*
X-92000Y28200D02*
D03*
X-284750Y75300D02*
D03*
X-273000D02*
D03*
X-261250D02*
D03*
X-284750Y52700D02*
D03*
X-273000D02*
D03*
X-261250D02*
D03*
X-228750Y-75300D02*
D03*
X-217000D02*
D03*
X-205250D02*
D03*
X-228750Y75300D02*
D03*
X-217000D02*
D03*
X-205250D02*
D03*
X-228750Y52700D02*
D03*
X-217000D02*
D03*
X-205250D02*
D03*
X-261250Y-75300D02*
D03*
X-273000D02*
D03*
X-284750D02*
D03*
D34*
X-244750Y0D02*
D03*
X-256250D02*
D03*
X-250500Y-9500D02*
D03*
Y9500D02*
D03*
M02*
