G04*
G04 #@! TF.GenerationSoftware,Altium Limited,Altium Designer,22.4.2 (48)*
G04*
G04 Layer_Physical_Order=1*
G04 Layer_Color=255*
%FSLAX44Y44*%
%MOMM*%
G71*
G04*
G04 #@! TF.SameCoordinates,1FDE6782-7AC4-437E-A2E8-A07863582D05*
G04*
G04*
G04 #@! TF.FilePolarity,Positive*
G04*
G01*
G75*
%ADD10C,0.2500*%
%ADD11C,0.5000*%
%ADD12C,0.2000*%
G04:AMPARAMS|DCode=14|XSize=1.05mm|YSize=2.2mm|CornerRadius=0.1313mm|HoleSize=0mm|Usage=FLASHONLY|Rotation=180.000|XOffset=0mm|YOffset=0mm|HoleType=Round|Shape=RoundedRectangle|*
%AMROUNDEDRECTD14*
21,1,1.0500,1.9375,0,0,180.0*
21,1,0.7875,2.2000,0,0,180.0*
1,1,0.2625,-0.3938,0.9688*
1,1,0.2625,0.3938,0.9688*
1,1,0.2625,0.3938,-0.9688*
1,1,0.2625,-0.3938,-0.9688*
%
%ADD14ROUNDEDRECTD14*%
G04:AMPARAMS|DCode=15|XSize=1mm|YSize=1mm|CornerRadius=0.125mm|HoleSize=0mm|Usage=FLASHONLY|Rotation=180.000|XOffset=0mm|YOffset=0mm|HoleType=Round|Shape=RoundedRectangle|*
%AMROUNDEDRECTD15*
21,1,1.0000,0.7500,0,0,180.0*
21,1,0.7500,1.0000,0,0,180.0*
1,1,0.2500,-0.3750,0.3750*
1,1,0.2500,0.3750,0.3750*
1,1,0.2500,0.3750,-0.3750*
1,1,0.2500,-0.3750,-0.3750*
%
%ADD15ROUNDEDRECTD15*%
G04:AMPARAMS|DCode=16|XSize=3.5mm|YSize=1.6mm|CornerRadius=0.2mm|HoleSize=0mm|Usage=FLASHONLY|Rotation=270.000|XOffset=0mm|YOffset=0mm|HoleType=Round|Shape=RoundedRectangle|*
%AMROUNDEDRECTD16*
21,1,3.5000,1.2000,0,0,270.0*
21,1,3.1000,1.6000,0,0,270.0*
1,1,0.4000,-0.6000,-1.5500*
1,1,0.4000,-0.6000,1.5500*
1,1,0.4000,0.6000,1.5500*
1,1,0.4000,0.6000,-1.5500*
%
%ADD16ROUNDEDRECTD16*%
G04:AMPARAMS|DCode=17|XSize=1.3mm|YSize=1.3mm|CornerRadius=0.1625mm|HoleSize=0mm|Usage=FLASHONLY|Rotation=180.000|XOffset=0mm|YOffset=0mm|HoleType=Round|Shape=RoundedRectangle|*
%AMROUNDEDRECTD17*
21,1,1.3000,0.9750,0,0,180.0*
21,1,0.9750,1.3000,0,0,180.0*
1,1,0.3250,-0.4875,0.4875*
1,1,0.3250,0.4875,0.4875*
1,1,0.3250,0.4875,-0.4875*
1,1,0.3250,-0.4875,-0.4875*
%
%ADD17ROUNDEDRECTD17*%
%ADD18O,0.2000X0.8000*%
%ADD19O,0.8000X0.2000*%
G04:AMPARAMS|DCode=20|XSize=1.55mm|YSize=0.6mm|CornerRadius=0.051mm|HoleSize=0mm|Usage=FLASHONLY|Rotation=90.000|XOffset=0mm|YOffset=0mm|HoleType=Round|Shape=RoundedRectangle|*
%AMROUNDEDRECTD20*
21,1,1.5500,0.4980,0,0,90.0*
21,1,1.4480,0.6000,0,0,90.0*
1,1,0.1020,0.2490,0.7240*
1,1,0.1020,0.2490,-0.7240*
1,1,0.1020,-0.2490,-0.7240*
1,1,0.1020,-0.2490,0.7240*
%
%ADD20ROUNDEDRECTD20*%
G04:AMPARAMS|DCode=21|XSize=3mm|YSize=2.33mm|CornerRadius=0.2913mm|HoleSize=0mm|Usage=FLASHONLY|Rotation=270.000|XOffset=0mm|YOffset=0mm|HoleType=Round|Shape=RoundedRectangle|*
%AMROUNDEDRECTD21*
21,1,3.0000,1.7475,0,0,270.0*
21,1,2.4175,2.3300,0,0,270.0*
1,1,0.5825,-0.8738,-1.2088*
1,1,0.5825,-0.8738,1.2088*
1,1,0.5825,0.8738,1.2088*
1,1,0.5825,0.8738,-1.2088*
%
%ADD21ROUNDEDRECTD21*%
G04:AMPARAMS|DCode=22|XSize=3mm|YSize=2.33mm|CornerRadius=0.2913mm|HoleSize=0mm|Usage=FLASHONLY|Rotation=0.000|XOffset=0mm|YOffset=0mm|HoleType=Round|Shape=RoundedRectangle|*
%AMROUNDEDRECTD22*
21,1,3.0000,1.7475,0,0,0.0*
21,1,2.4175,2.3300,0,0,0.0*
1,1,0.5825,1.2088,-0.8738*
1,1,0.5825,-1.2088,-0.8738*
1,1,0.5825,-1.2088,0.8738*
1,1,0.5825,1.2088,0.8738*
%
%ADD22ROUNDEDRECTD22*%
G04:AMPARAMS|DCode=23|XSize=0.55mm|YSize=0.5mm|CornerRadius=0.0625mm|HoleSize=0mm|Usage=FLASHONLY|Rotation=90.000|XOffset=0mm|YOffset=0mm|HoleType=Round|Shape=RoundedRectangle|*
%AMROUNDEDRECTD23*
21,1,0.5500,0.3750,0,0,90.0*
21,1,0.4250,0.5000,0,0,90.0*
1,1,0.1250,0.1875,0.2125*
1,1,0.1250,0.1875,-0.2125*
1,1,0.1250,-0.1875,-0.2125*
1,1,0.1250,-0.1875,0.2125*
%
%ADD23ROUNDEDRECTD23*%
G04:AMPARAMS|DCode=24|XSize=0.64mm|YSize=0.6mm|CornerRadius=0.075mm|HoleSize=0mm|Usage=FLASHONLY|Rotation=0.000|XOffset=0mm|YOffset=0mm|HoleType=Round|Shape=RoundedRectangle|*
%AMROUNDEDRECTD24*
21,1,0.6400,0.4500,0,0,0.0*
21,1,0.4900,0.6000,0,0,0.0*
1,1,0.1500,0.2450,-0.2250*
1,1,0.1500,-0.2450,-0.2250*
1,1,0.1500,-0.2450,0.2250*
1,1,0.1500,0.2450,0.2250*
%
%ADD24ROUNDEDRECTD24*%
G04:AMPARAMS|DCode=25|XSize=0.64mm|YSize=0.6mm|CornerRadius=0.075mm|HoleSize=0mm|Usage=FLASHONLY|Rotation=90.000|XOffset=0mm|YOffset=0mm|HoleType=Round|Shape=RoundedRectangle|*
%AMROUNDEDRECTD25*
21,1,0.6400,0.4500,0,0,90.0*
21,1,0.4900,0.6000,0,0,90.0*
1,1,0.1500,0.2250,0.2450*
1,1,0.1500,0.2250,-0.2450*
1,1,0.1500,-0.2250,-0.2450*
1,1,0.1500,-0.2250,0.2450*
%
%ADD25ROUNDEDRECTD25*%
G04:AMPARAMS|DCode=26|XSize=0.55mm|YSize=0.5mm|CornerRadius=0.0625mm|HoleSize=0mm|Usage=FLASHONLY|Rotation=180.000|XOffset=0mm|YOffset=0mm|HoleType=Round|Shape=RoundedRectangle|*
%AMROUNDEDRECTD26*
21,1,0.5500,0.3750,0,0,180.0*
21,1,0.4250,0.5000,0,0,180.0*
1,1,0.1250,-0.2125,0.1875*
1,1,0.1250,0.2125,0.1875*
1,1,0.1250,0.2125,-0.1875*
1,1,0.1250,-0.2125,-0.1875*
%
%ADD26ROUNDEDRECTD26*%
G04:AMPARAMS|DCode=27|XSize=0.85mm|YSize=0.6mm|CornerRadius=0.075mm|HoleSize=0mm|Usage=FLASHONLY|Rotation=270.000|XOffset=0mm|YOffset=0mm|HoleType=Round|Shape=RoundedRectangle|*
%AMROUNDEDRECTD27*
21,1,0.8500,0.4500,0,0,270.0*
21,1,0.7000,0.6000,0,0,270.0*
1,1,0.1500,-0.2250,-0.3500*
1,1,0.1500,-0.2250,0.3500*
1,1,0.1500,0.2250,0.3500*
1,1,0.1500,0.2250,-0.3500*
%
%ADD27ROUNDEDRECTD27*%
%ADD28C,1.5000*%
G04:AMPARAMS|DCode=29|XSize=1.5mm|YSize=1.5mm|CornerRadius=0.375mm|HoleSize=0mm|Usage=FLASHONLY|Rotation=270.000|XOffset=0mm|YOffset=0mm|HoleType=Round|Shape=RoundedRectangle|*
%AMROUNDEDRECTD29*
21,1,1.5000,0.7500,0,0,270.0*
21,1,0.7500,1.5000,0,0,270.0*
1,1,0.7500,-0.3750,-0.3750*
1,1,0.7500,-0.3750,0.3750*
1,1,0.7500,0.3750,0.3750*
1,1,0.7500,0.3750,-0.3750*
%
%ADD29ROUNDEDRECTD29*%
%ADD30C,0.1750*%
%ADD31C,0.6000*%
G36*
X-98000Y48745D02*
X-102472Y44272D01*
X-102970Y43528D01*
X-103144Y42650D01*
Y39500D01*
X-131000D01*
Y49084D01*
X-129999Y50019D01*
X-129892Y50008D01*
X-129230Y49566D01*
X-128450Y49411D01*
X-123550D01*
X-122770Y49566D01*
X-122305Y49877D01*
X-121575D01*
X-120545Y49450D01*
X-118855D01*
X-117293Y50097D01*
X-116097Y51293D01*
X-115450Y52855D01*
Y54545D01*
X-116097Y56108D01*
X-117293Y57303D01*
X-118855Y57950D01*
X-120545D01*
X-121575Y57523D01*
X-122305D01*
X-122770Y57834D01*
X-123550Y57989D01*
X-128450D01*
X-129385Y59098D01*
Y67551D01*
X-129550Y68380D01*
X-130019Y69083D01*
X-131000Y70064D01*
Y77980D01*
X-130409Y78315D01*
X-129730Y78500D01*
X-129230Y78166D01*
X-128450Y78011D01*
X-123550D01*
X-122770Y78166D01*
X-122108Y78608D01*
X-121666Y79270D01*
X-121511Y80050D01*
Y84550D01*
X-121666Y85330D01*
X-122108Y85992D01*
X-122177Y86038D01*
Y86925D01*
X-121750Y87955D01*
Y87980D01*
X-120480Y88679D01*
X-119445Y88250D01*
X-117755D01*
X-116725Y88677D01*
X-116038D01*
X-115992Y88608D01*
X-115330Y88166D01*
X-114550Y88011D01*
X-110050D01*
X-109270Y88166D01*
X-108608Y88608D01*
X-108166Y89270D01*
X-108011Y90050D01*
Y94950D01*
X-106963Y96042D01*
X-98000D01*
Y48745D01*
D02*
G37*
G36*
X-154951Y102451D02*
X-154951Y102451D01*
X-153000Y100500D01*
Y67500D01*
X-162000D01*
X-166000Y64000D01*
X-174147D01*
Y86500D01*
X-174543Y87457D01*
X-176043Y88957D01*
X-177000Y89353D01*
X-193000D01*
X-193957Y88957D01*
X-195457Y87457D01*
X-195853Y86500D01*
X-195853Y64000D01*
X-208463D01*
Y64125D01*
X-208609Y64857D01*
X-209023Y65477D01*
X-209643Y65891D01*
X-210375Y66037D01*
X-214625D01*
X-215357Y65891D01*
X-215730Y65642D01*
X-216617Y65932D01*
X-217000Y66204D01*
Y100500D01*
X-215049Y102451D01*
X-154951Y102451D01*
D02*
G37*
G36*
X-175500Y86500D02*
Y60000D01*
X-177000Y58500D01*
X-193000D01*
X-194500Y60000D01*
X-194500Y86500D01*
X-193000Y88000D01*
X-177000D01*
X-175500Y86500D01*
D02*
G37*
G36*
X-14910Y101781D02*
X-11734Y100465D01*
X-8875Y98555D01*
X-6445Y96124D01*
X-4535Y93266D01*
X-3219Y90090D01*
X-2549Y86719D01*
Y85000D01*
Y50500D01*
X-56647D01*
X-56647Y58500D01*
X-57043Y59457D01*
X-57587Y59682D01*
X-58030Y59923D01*
X-58511Y61050D01*
Y65550D01*
X-58666Y66330D01*
X-59108Y66992D01*
X-59770Y67434D01*
X-60550Y67589D01*
X-65450D01*
X-66230Y67434D01*
X-66695Y67123D01*
X-67425D01*
X-68455Y67550D01*
X-70145D01*
X-70216Y67521D01*
X-70384Y67606D01*
X-71221Y68479D01*
X-71166Y68760D01*
Y83240D01*
X-71302Y83927D01*
X-71691Y84509D01*
X-72273Y84898D01*
X-72960Y85035D01*
X-77500D01*
Y102500D01*
X-18527D01*
X-14910Y101781D01*
D02*
G37*
G36*
X-58000Y48620D02*
X-58591Y48285D01*
X-59270Y48100D01*
X-59770Y48434D01*
X-60550Y48589D01*
X-65450D01*
X-66230Y48434D01*
X-66695Y48123D01*
X-66942D01*
X-68455Y48750D01*
X-70145D01*
X-71707Y48103D01*
X-72903Y46907D01*
X-73550Y45345D01*
Y43655D01*
X-72903Y42093D01*
X-71707Y40897D01*
X-70145Y40250D01*
X-68455D01*
X-67908Y40477D01*
X-66695D01*
X-66230Y40166D01*
X-65450Y40011D01*
X-60550D01*
X-59770Y40166D01*
X-59270Y40500D01*
X-58591Y40315D01*
X-58000Y39980D01*
X-58000Y20020D01*
X-58591Y19685D01*
X-59270Y19500D01*
X-59770Y19834D01*
X-60550Y19989D01*
X-65450D01*
X-66230Y19834D01*
X-66892Y19392D01*
X-67334Y18730D01*
X-67489Y17950D01*
Y13450D01*
X-67334Y12670D01*
X-66892Y12008D01*
X-66823Y11962D01*
Y11075D01*
X-67250Y10045D01*
Y8355D01*
X-66603Y6793D01*
X-65595Y5785D01*
X-65226Y4402D01*
X-69500Y500D01*
X-81980D01*
X-82348Y1150D01*
X-82523Y1735D01*
X-82166Y2270D01*
X-82011Y3050D01*
Y7950D01*
X-82166Y8730D01*
X-82608Y9392D01*
X-83270Y9834D01*
X-84050Y9989D01*
X-88550D01*
X-89330Y9834D01*
X-89730Y9567D01*
X-90659Y9880D01*
X-91000Y10129D01*
Y11645D01*
X-89680Y12966D01*
X-85660D01*
X-84973Y13102D01*
X-84391Y13491D01*
X-84002Y14073D01*
X-83866Y14760D01*
Y29240D01*
X-84002Y29927D01*
X-84391Y30509D01*
X-84973Y30898D01*
X-85660Y31035D01*
X-90640D01*
X-91000Y31330D01*
Y49256D01*
X-86528Y53728D01*
X-86031Y54472D01*
X-85856Y55350D01*
Y58500D01*
X-58000D01*
X-58000Y48620D01*
D02*
G37*
G36*
X-175500Y38000D02*
X-175500Y11500D01*
X-177000Y10000D01*
X-193000D01*
X-194500Y11500D01*
Y38000D01*
X-193000Y39500D01*
X-177000D01*
X-175500Y38000D01*
D02*
G37*
G36*
X-162000Y31500D02*
X-159810D01*
X-159625Y31463D01*
X-155875D01*
X-155690Y31500D01*
X-153000D01*
X-153000Y6000D01*
X-155000Y4000D01*
X-215000D01*
X-217000Y6000D01*
X-217000Y32000D01*
X-215000Y34000D01*
X-195853D01*
Y11500D01*
X-195457Y10543D01*
X-193957Y9043D01*
X-193000Y8647D01*
X-177000D01*
X-176043Y9043D01*
X-174543Y10543D01*
X-174147Y11500D01*
X-174147Y34000D01*
X-165500D01*
X-162000Y31500D01*
D02*
G37*
G36*
X-60297Y18559D02*
X-60022Y18375D01*
X-59973Y18365D01*
X-59942Y18326D01*
X-59472Y18266D01*
X-59006Y18173D01*
X-58668Y17855D01*
X-58116Y17096D01*
X-58052Y15448D01*
X-57965Y15260D01*
X-57977Y15053D01*
X-57757Y14807D01*
X-57619Y14507D01*
X-57425Y14435D01*
X-57287Y14281D01*
X-39235Y5593D01*
X-36339Y-14196D01*
X-36120Y-14562D01*
X-35957Y-14957D01*
X-35861Y-14996D01*
X-35808Y-15085D01*
X-35394Y-15190D01*
X-35000Y-15353D01*
X-21738D01*
X-21374Y-15202D01*
X-20986Y-15125D01*
X-20909Y-15010D01*
X-20781Y-14957D01*
X-20630Y-14592D01*
X-20411Y-14264D01*
X-20327Y-13841D01*
X-20059Y-13441D01*
X-19436Y-13024D01*
X-19244Y-12737D01*
X-18982Y-12513D01*
X-18248Y-11072D01*
X-18243Y-11015D01*
X-18203Y-10976D01*
Y-10507D01*
X-18201Y-10476D01*
X-18147Y-10345D01*
Y-8924D01*
X-17706Y-7859D01*
X-16891Y-7044D01*
X-15826Y-6603D01*
X-14674D01*
X-13609Y-7044D01*
X-12794Y-7859D01*
X-12353Y-8924D01*
Y-10345D01*
X-12299Y-10476D01*
X-12297Y-10507D01*
Y-10976D01*
X-12257Y-11015D01*
X-12252Y-11072D01*
X-11518Y-12513D01*
X-11256Y-12737D01*
X-11064Y-13024D01*
X-10440Y-13441D01*
X-10173Y-13841D01*
X-10089Y-14264D01*
X-9870Y-14592D01*
X-9719Y-14957D01*
X-9591Y-15010D01*
X-9514Y-15125D01*
X-9127Y-15202D01*
X-8762Y-15353D01*
X-2549D01*
Y-49000D01*
X-45300D01*
X-56237Y-38063D01*
X-55819Y-36685D01*
X-55688Y-36658D01*
X-54311Y-35738D01*
X-53391Y-34362D01*
X-53068Y-32738D01*
Y-15263D01*
X-53391Y-13638D01*
X-54311Y-12262D01*
X-55688Y-11342D01*
X-57312Y-11018D01*
X-81487D01*
X-82984Y-11316D01*
X-91935Y-2365D01*
Y7649D01*
X-91718Y7893D01*
X-90665Y8454D01*
X-90162Y8285D01*
X-90071Y8291D01*
X-89994Y8240D01*
X-89565Y8325D01*
X-89129Y8355D01*
X-89069Y8424D01*
X-88979Y8442D01*
X-88802Y8559D01*
X-88417Y8636D01*
X-84183D01*
X-83798Y8559D01*
X-83583Y8417D01*
X-83441Y8202D01*
X-83364Y7817D01*
Y3183D01*
X-83441Y2798D01*
X-83648Y2487D01*
X-83661Y2420D01*
X-83714Y2378D01*
X-83761Y1921D01*
X-83850Y1471D01*
X-83813Y1415D01*
X-83820Y1348D01*
X-83645Y763D01*
X-83545Y640D01*
X-83526Y483D01*
X-83158Y-167D01*
X-83009Y-283D01*
X-82937Y-457D01*
X-82615Y-590D01*
X-82341Y-804D01*
X-82154Y-781D01*
X-81980Y-853D01*
X-69500D01*
X-69048Y-666D01*
X-68588Y-499D01*
X-64314Y3403D01*
X-64224Y3595D01*
X-64056Y3724D01*
X-64013Y4046D01*
X-63875Y4341D01*
X-63947Y4540D01*
X-63919Y4751D01*
X-64288Y6134D01*
X-64503Y6415D01*
X-64639Y6742D01*
X-65456Y7559D01*
X-65897Y8624D01*
Y9776D01*
X-65573Y10557D01*
Y10827D01*
X-65470Y11075D01*
Y11962D01*
X-65524Y12090D01*
X-65496Y12226D01*
X-65716Y12555D01*
X-65736Y12603D01*
X-65767Y12760D01*
X-65856Y12893D01*
X-65867Y12919D01*
X-65876Y12923D01*
X-66059Y13198D01*
X-66136Y13583D01*
Y17817D01*
X-66059Y18203D01*
X-65916Y18417D01*
X-65702Y18559D01*
X-65317Y18636D01*
X-60683D01*
X-60297Y18559D01*
D02*
G37*
G36*
X-2549Y-14000D02*
X-8762D01*
X-8899Y-13313D01*
X-9465Y-12465D01*
X-10313Y-11899D01*
X-11047Y-10458D01*
X-11000Y-10345D01*
Y-8655D01*
X-11647Y-7092D01*
X-12843Y-5897D01*
X-14405Y-5250D01*
X-16095D01*
X-17658Y-5897D01*
X-18853Y-7092D01*
X-19500Y-8655D01*
Y-10345D01*
X-19454Y-10458D01*
X-20187Y-11899D01*
X-21035Y-12465D01*
X-21601Y-13313D01*
X-21738Y-14000D01*
X-35000D01*
X-38000Y6500D01*
X-56700Y15500D01*
X-56853Y19457D01*
X-56696Y19659D01*
X-56719Y19846D01*
X-56647Y20020D01*
X-56647Y39980D01*
X-56719Y40154D01*
X-56696Y40341D01*
X-56910Y40616D01*
X-57043Y40937D01*
X-57217Y41009D01*
X-57333Y41157D01*
X-57704Y41368D01*
X-57927Y47108D01*
X-57924Y47108D01*
X-57333Y47443D01*
X-57217Y47591D01*
X-57043Y47663D01*
X-56910Y47985D01*
X-56696Y48259D01*
X-55684Y49000D01*
X-2549D01*
X-2549Y-14000D01*
D02*
G37*
G36*
X-153000Y-6000D02*
Y-24000D01*
X-165500Y-34000D01*
X-174147D01*
Y-11500D01*
X-174543Y-10543D01*
X-176043Y-9043D01*
X-177000Y-8647D01*
X-193000D01*
X-193957Y-9043D01*
X-195457Y-10543D01*
X-195853Y-11500D01*
X-195853Y-34000D01*
X-208463D01*
Y-33875D01*
X-208609Y-33143D01*
X-209023Y-32523D01*
X-209643Y-32109D01*
X-210375Y-31963D01*
X-214625D01*
X-215357Y-32109D01*
X-215730Y-32358D01*
X-216617Y-32068D01*
X-217000Y-31796D01*
Y-6000D01*
X-215000Y-4000D01*
X-155000D01*
X-153000Y-6000D01*
D02*
G37*
G36*
X-175500Y-11500D02*
Y-38000D01*
X-177000Y-39500D01*
X-193000D01*
X-194500Y-38000D01*
X-194500Y-11500D01*
X-193000Y-10000D01*
X-177000D01*
X-175500Y-11500D01*
D02*
G37*
G36*
X-175500Y-60000D02*
X-175500Y-86500D01*
X-177000Y-88000D01*
X-193000D01*
X-194500Y-86500D01*
Y-60000D01*
X-193000Y-58500D01*
X-177000D01*
X-175500Y-60000D01*
D02*
G37*
G36*
X-153000Y-74000D02*
Y-100500D01*
X-155000Y-102500D01*
X-215000D01*
X-217000Y-100500D01*
Y-66000D01*
X-215000Y-64000D01*
X-195853D01*
Y-86500D01*
X-195457Y-87457D01*
X-193957Y-88957D01*
X-193000Y-89353D01*
X-177000D01*
X-176043Y-88957D01*
X-174543Y-87457D01*
X-174147Y-86500D01*
X-174147Y-64000D01*
X-165500D01*
X-153000Y-74000D01*
D02*
G37*
%LPC*%
G36*
X-111060Y85035D02*
X-116040D01*
X-116727Y84898D01*
X-117309Y84509D01*
X-117698Y83927D01*
X-117835Y83240D01*
Y68760D01*
X-117698Y68073D01*
X-117309Y67491D01*
X-116727Y67102D01*
X-116040Y66966D01*
X-111060D01*
X-110373Y67102D01*
X-109791Y67491D01*
X-109402Y68073D01*
X-109266Y68760D01*
Y83240D01*
X-109402Y83927D01*
X-109791Y84509D01*
X-110373Y84898D01*
X-111060Y85035D01*
D02*
G37*
%LPD*%
D10*
X-99750Y5500D02*
Y6500D01*
X-89120Y21030D02*
X-88150Y22000D01*
X-89120Y21030D02*
X-89120Y21030D01*
X-89120Y17130D02*
Y21030D01*
X-94750Y11500D02*
X-89120Y17130D01*
X-94878Y11500D02*
X-94750D01*
X-98100Y8278D02*
X-94878Y11500D01*
X-98100Y8150D02*
Y8278D01*
X-99750Y6500D02*
X-98100Y8150D01*
D11*
X-212500Y71750D02*
Y78716D01*
X-212550Y78765D02*
X-212500Y78716D01*
X-33000Y-92000D02*
X-30000Y-89000D01*
X-51400Y-92000D02*
X-33000D01*
X-69400Y-74000D02*
X-51400Y-92000D01*
X-69400Y-37100D02*
Y-24000D01*
Y-37100D02*
X-49402Y-57098D01*
X-47586D01*
X-31902D01*
X-49402D02*
X-47500Y-59000D01*
X-30000Y74100D02*
Y77054D01*
X-45446Y92500D02*
X-30000Y77054D01*
X-74250Y92500D02*
X-45446D01*
X-30000Y5400D02*
Y23900D01*
Y-9000D02*
Y5400D01*
X-31902Y-57098D02*
X-30000Y-59000D01*
X-47586Y-71164D02*
X-44750Y-74000D01*
X-47586Y-71164D02*
Y-58914D01*
X-69300Y44300D02*
X-63000D01*
X-69300D02*
Y44500D01*
X-27381Y-59000D02*
X-15250Y-71131D01*
X-30000Y-59000D02*
X-27381D01*
X-15250Y-74000D02*
Y-71131D01*
X-192883Y-49000D02*
X-185000D01*
X-86820Y6020D02*
X-86300Y5500D01*
X-86784Y-516D02*
Y5016D01*
X-86300Y5500D01*
X-38000Y-39000D02*
X-30000D01*
X-22000D01*
X-15375Y-38500D02*
X-15125D01*
X-15250D02*
Y-24000D01*
Y-9500D01*
X-44750Y-24000D02*
Y-9500D01*
Y-38500D02*
Y-24000D01*
X-44875Y-38500D02*
X-44625D01*
X-192883Y49000D02*
X-185000D01*
X-89750Y86941D02*
Y92500D01*
Y86941D02*
X-88150Y85341D01*
Y76000D02*
Y85341D01*
X-170700Y77000D02*
Y83300D01*
Y77000D02*
X-164400D01*
X-189700Y-83300D02*
Y-77000D01*
X-205600D02*
X-199300D01*
Y-83300D02*
Y-77000D01*
X-180300Y-83300D02*
Y-77000D01*
X-170700Y-83300D02*
Y-77000D01*
X-205600Y-21000D02*
X-199300D01*
X-212500Y-26250D02*
Y-19950D01*
X-205800Y21000D02*
X-199500D01*
Y14700D02*
Y21000D01*
X-180300Y14700D02*
Y21000D01*
X-199300Y-21000D02*
Y-14700D01*
X-189700Y14700D02*
Y21000D01*
X-189700Y-21000D02*
Y-14700D01*
X-170700Y14700D02*
Y21000D01*
X-199300Y77000D02*
Y83300D01*
X-189700Y77000D02*
Y83300D01*
X-180300Y77000D02*
Y83300D01*
X-170700Y-21000D02*
X-164400D01*
X-180300D02*
Y-14700D01*
X-170700Y-21000D02*
Y-14700D01*
X-170700Y-77000D02*
X-164400D01*
X-126000Y44300D02*
X-119700D01*
X-126000Y68312D02*
Y72700D01*
X-126168Y68144D02*
X-126000Y68312D01*
X-102700Y86826D02*
Y92500D01*
Y86826D02*
X-102650Y86776D01*
X-101000Y65200D02*
Y71500D01*
X-126000Y63500D02*
X-119700D01*
X-69300Y34500D02*
X-63000D01*
X-69300Y53700D02*
X-63000D01*
X-76500Y5500D02*
X-70200D01*
X-75500Y26500D02*
X-69200D01*
X-75500D02*
Y32800D01*
X-259000Y88750D02*
X-252700D01*
X-259000Y77000D02*
X-252700D01*
X-259000Y65250D02*
X-252700D01*
X-275300Y88750D02*
X-269000D01*
X-275300Y77000D02*
X-269000D01*
X-275300Y65250D02*
X-269000D01*
X-259000Y-65250D02*
X-252700D01*
X-259000Y-77000D02*
X-252700D01*
X-259000Y-88750D02*
X-252700D01*
X-275300Y-65250D02*
X-269000D01*
X-275300Y-77000D02*
X-269000D01*
X-275300Y-88750D02*
X-269000D01*
X-259000Y32750D02*
X-252700D01*
X-259000Y21000D02*
X-252700D01*
X-259000Y9250D02*
X-252700D01*
X-275300Y32750D02*
X-269000D01*
X-275300Y21000D02*
X-269000D01*
X-275300Y9250D02*
X-269000D01*
X-275300Y-32750D02*
X-269000D01*
X-275300Y-21000D02*
X-269000D01*
X-275300Y-9250D02*
X-269000D01*
X-259000Y-32750D02*
X-252700D01*
X-259000Y-21000D02*
X-252700D01*
X-259000Y-9250D02*
X-252700D01*
X-126000Y82500D02*
Y88800D01*
X-118600Y92500D02*
X-112300D01*
X-126000Y53700D02*
X-119700D01*
X-126000Y28200D02*
Y34500D01*
X-132300Y34700D02*
X-126000D01*
X-63000Y9200D02*
Y15500D01*
X-69300Y63300D02*
X-63000D01*
D12*
X-247154Y-45750D02*
X-232582Y-31178D01*
X-232386Y42989D02*
X-228000Y47375D01*
X-232386Y-30983D02*
Y42989D01*
X-232582Y-31178D02*
X-232386Y-30983D01*
X-235637Y44335D02*
X-229346Y50625D01*
X-235637Y-29636D02*
Y44335D01*
X-248500Y-42500D02*
X-235637Y-29636D01*
X-293500Y-45750D02*
X-248750D01*
X-313000Y-38100D02*
X-303496D01*
X-295846Y-45750D01*
X-293500D01*
X-308650Y-28350D02*
X-294500Y-42500D01*
X-248500D01*
X-328650Y-28350D02*
X-308650D01*
X-327764Y-52863D02*
X-306783D01*
X-338400Y-63500D02*
X-327764Y-52863D01*
X-245283D02*
X-239866Y-47447D01*
X-306783Y-52863D02*
X-245283D01*
X-239866Y-47447D02*
X-224697D01*
X-221750Y-44500D01*
X-248750Y-45750D02*
X-247154D01*
X-338400Y-38100D02*
X-328650Y-28350D01*
X-229346Y50625D02*
X-224625D01*
X-221750Y53500D01*
X-228000Y47375D02*
X-224625D01*
X-221750Y44500D01*
X-139250Y-57512D02*
Y-53500D01*
Y-57512D02*
X-131824Y-64938D01*
Y-66176D02*
Y-64938D01*
Y-66176D02*
X-124000Y-74000D01*
X-119600D01*
X-130999Y-32137D02*
X-126388D01*
X-139250Y-40389D02*
X-130999Y-32137D01*
X-139250Y-44500D02*
Y-40389D01*
X-161563Y37250D02*
X-159250D01*
X-157750Y35750D01*
Y35500D02*
Y35750D01*
X-165813Y41500D02*
X-161563Y37250D01*
X-169500Y41500D02*
X-165813D01*
X-148250Y35500D02*
Y43878D01*
X-148250Y43878D01*
X-148456Y44084D02*
X-148250Y43878D01*
X-165512Y56500D02*
X-161262Y60750D01*
X-159250D01*
X-157750Y62250D01*
Y62500D01*
X-169500Y56500D02*
X-165512D01*
X-148250Y62500D02*
X-148039Y62289D01*
X-147800D01*
Y53950D02*
Y62289D01*
X-148250Y53500D02*
X-147800Y53950D01*
X-157000Y54300D02*
X-149050D01*
X-148250Y53500D01*
X-157009Y44691D02*
X-148441D01*
X-148250Y44500D01*
X-157500Y44200D02*
X-157009Y44691D01*
X-159500Y51800D02*
X-157000Y54300D01*
X-160777Y46526D02*
X-160450Y46200D01*
X-159500D01*
X-157500Y44200D01*
X-169474Y46526D02*
X-160777D01*
X-160513Y51487D02*
X-160200Y51800D01*
X-159500D01*
X-169487Y51487D02*
X-160513D01*
X-169500Y51500D02*
X-169487Y51487D01*
X-161750Y-61250D02*
X-159250D01*
X-161250Y-36250D02*
X-159250D01*
X-158121Y-35121D01*
X-169500Y-41500D02*
X-166500D01*
X-157700Y-53800D02*
X-157500D01*
X-160000Y-51500D02*
X-157700Y-53800D01*
X-157200Y-53500D02*
X-148750D01*
X-157750Y-63000D02*
Y-62750D01*
X-159250Y-61250D02*
X-157750Y-62750D01*
X-148500Y-44150D02*
Y-34750D01*
X-148250Y-34500D01*
X-157700Y-44200D02*
X-157500D01*
X-169500Y-46500D02*
X-160000D01*
X-157500Y-44200D02*
X-157200Y-44500D01*
X-169500Y-51500D02*
X-160000D01*
X-149050Y-53250D02*
X-148500Y-53800D01*
Y-44150D02*
X-148450Y-44200D01*
X-148500Y-62750D02*
Y-53800D01*
X-166500Y-56500D02*
X-161750Y-61250D01*
X-169500Y-56500D02*
X-166500D01*
X-157500Y-53800D02*
X-157200Y-53500D01*
X-148500Y-62750D02*
X-148250Y-63000D01*
X-158121Y-35121D02*
Y-34379D01*
X-166500Y-41500D02*
X-161250Y-36250D01*
X-157200Y-44500D02*
X-148750D01*
X-160000Y-46500D02*
X-157700Y-44200D01*
X-212250Y-53500D02*
X-210250Y-51500D01*
X-200500D01*
X-212250Y-44500D02*
X-210250Y-46500D01*
X-200500D01*
X-212250Y44500D02*
X-210250Y46500D01*
X-200500D01*
X-212250Y53500D02*
X-210250Y51500D01*
X-200500D01*
X-88150Y55350D02*
Y76000D01*
X-100850Y42650D02*
X-88150Y55350D01*
X-100850Y22000D02*
Y42650D01*
D14*
X-15250Y-24000D02*
D03*
X-44750D02*
D03*
X-15250Y-74000D02*
D03*
X-44750D02*
D03*
D15*
X-30000Y-39000D02*
D03*
Y-9000D02*
D03*
Y-89000D02*
D03*
Y-59000D02*
D03*
D16*
X-264000Y-21000D02*
D03*
Y-77000D02*
D03*
Y77000D02*
D03*
Y21000D02*
D03*
D17*
X-185000Y49000D02*
D03*
Y-49000D02*
D03*
D18*
X-177500Y33500D02*
D03*
X-182500D02*
D03*
X-187500D02*
D03*
X-192500D02*
D03*
Y64500D02*
D03*
X-187500D02*
D03*
X-182500D02*
D03*
X-177500D02*
D03*
Y-64500D02*
D03*
X-182500D02*
D03*
X-187500D02*
D03*
X-192500D02*
D03*
Y-33500D02*
D03*
X-187500D02*
D03*
X-182500D02*
D03*
X-177500D02*
D03*
D19*
X-200500Y41500D02*
D03*
Y46500D02*
D03*
Y51500D02*
D03*
Y56500D02*
D03*
X-169500D02*
D03*
Y51500D02*
D03*
Y46500D02*
D03*
Y41500D02*
D03*
X-200500Y-56500D02*
D03*
Y-51500D02*
D03*
Y-46500D02*
D03*
Y-41500D02*
D03*
X-169500D02*
D03*
Y-46500D02*
D03*
Y-51500D02*
D03*
Y-56500D02*
D03*
D20*
X-113550Y76000D02*
D03*
X-100850D02*
D03*
X-88150D02*
D03*
X-75450D02*
D03*
Y22000D02*
D03*
X-88150D02*
D03*
X-100850D02*
D03*
X-113550D02*
D03*
D21*
X-30000Y74100D02*
D03*
X-30000Y23900D02*
D03*
D22*
X-69400Y-74000D02*
D03*
X-119600D02*
D03*
X-119600Y-24000D02*
D03*
X-69400D02*
D03*
D23*
X-221750Y-53500D02*
D03*
Y-44500D02*
D03*
X-212250D02*
D03*
Y-53500D02*
D03*
Y53500D02*
D03*
X-221750D02*
D03*
X-212250Y44500D02*
D03*
X-221750D02*
D03*
X-148250D02*
D03*
X-138750D02*
D03*
X-157750Y-63000D02*
D03*
X-148250D02*
D03*
X-157750Y-34500D02*
D03*
X-148250D02*
D03*
X-157750Y35500D02*
D03*
X-148250D02*
D03*
X-157750Y62500D02*
D03*
X-148250D02*
D03*
X-148750Y-53500D02*
D03*
X-139250D02*
D03*
X-148750Y-44500D02*
D03*
X-139250D02*
D03*
X-148250Y53500D02*
D03*
X-138750D02*
D03*
D24*
X-157500Y-44200D02*
D03*
Y-53800D02*
D03*
Y53800D02*
D03*
Y44200D02*
D03*
X-63000Y53700D02*
D03*
Y63300D02*
D03*
X-126000D02*
D03*
Y53700D02*
D03*
Y44300D02*
D03*
Y34700D02*
D03*
X-63000D02*
D03*
Y44300D02*
D03*
X-126000Y82300D02*
D03*
Y72700D02*
D03*
X-63000Y15700D02*
D03*
Y25300D02*
D03*
D25*
X-189700Y-77000D02*
D03*
X-199300D02*
D03*
X-180300D02*
D03*
X-170700D02*
D03*
X-189700Y-21000D02*
D03*
X-199300D02*
D03*
X-180300D02*
D03*
X-170700D02*
D03*
X-180300Y21000D02*
D03*
X-170700D02*
D03*
X-199300D02*
D03*
X-189700D02*
D03*
X-170700Y77000D02*
D03*
X-180300D02*
D03*
X-189700D02*
D03*
X-199300D02*
D03*
X-86300Y5500D02*
D03*
X-76700D02*
D03*
X-102700Y92500D02*
D03*
X-112300D02*
D03*
D26*
X-212500Y-35750D02*
D03*
Y-26250D02*
D03*
Y62250D02*
D03*
Y71750D02*
D03*
D27*
X-99750Y5500D02*
D03*
X-115250D02*
D03*
X-74250Y92500D02*
D03*
X-89750D02*
D03*
D28*
X-313000Y-12700D02*
D03*
X-338400D02*
D03*
X-313000Y12700D02*
D03*
X-338400D02*
D03*
X-313000Y63500D02*
D03*
X-338400Y38100D02*
D03*
X-313000D02*
D03*
X-338400Y-38100D02*
D03*
Y-63500D02*
D03*
X-313000Y-38100D02*
D03*
Y-63500D02*
D03*
D29*
X-338400Y63500D02*
D03*
D30*
X-133949Y90389D02*
X-126129Y98209D01*
X-85209D02*
X-83680Y96680D01*
X-126129Y98209D02*
X-85209D01*
X-134625Y93956D02*
X-127372Y101209D01*
X-83301D02*
X-80183Y98090D01*
X-127372Y101209D02*
X-83301D01*
X-131551Y51881D02*
Y67551D01*
X-138750Y44500D02*
Y44683D01*
X-131551Y51881D01*
X-133949Y69949D02*
X-131551Y67551D01*
X-133949Y69949D02*
Y90389D01*
X-136949Y68588D02*
Y91632D01*
Y68588D02*
X-134625Y66264D01*
X-243988Y-55988D02*
X-238572Y-50572D01*
X-224678D02*
X-221750Y-53500D01*
X-238572Y-50572D02*
X-224678D01*
X-305489Y-55988D02*
X-293284D01*
X-313000Y-63500D02*
X-305489Y-55988D01*
X-293284D02*
X-243988D01*
X-139500Y5500D02*
X-115250D01*
X-145000Y0D02*
X-139500Y5500D01*
X-225000Y0D02*
X-145000D01*
X-206420Y-41500D02*
X-200500D01*
X-210545Y-37375D02*
X-206420Y-41500D01*
X-210875Y-37375D02*
X-210545D01*
X-137522Y52273D02*
X-135470D01*
X-138750Y53500D02*
X-137522Y52273D01*
X-74750Y92000D02*
X-74250Y92500D01*
X-78500Y92000D02*
X-74750D01*
X-80183Y93683D02*
X-78500Y92000D01*
X-80183Y93683D02*
Y98090D01*
X-136949Y91632D02*
X-134625Y93956D01*
Y53118D02*
Y66264D01*
X-135470Y52273D02*
X-134625Y53118D01*
X-89750Y92000D02*
X-85500D01*
X-83680Y93820D01*
Y96680D01*
X-313000Y38100D02*
X-274900Y0D01*
X-242500D01*
X-210875Y60125D02*
Y60625D01*
X-212500Y62250D02*
X-210875Y60625D01*
X-203568Y56500D02*
X-200500D01*
X-207193Y60125D02*
X-203568Y56500D01*
X-210875Y60125D02*
X-207193D01*
X-212500Y-35750D02*
X-210875Y-37375D01*
D31*
X-212550Y78765D02*
D03*
X-156500Y99000D02*
D03*
X-213500Y99000D02*
D03*
X-213500Y-99000D02*
D03*
X-156500Y-99000D02*
D03*
Y7500D02*
D03*
X-213500Y7500D02*
D03*
X-213500Y-7500D02*
D03*
X-156500Y-7500D02*
D03*
X-59000D02*
D03*
X-69500D02*
D03*
X-42500Y3000D02*
D03*
X-55500Y9500D02*
D03*
X-79000Y-4000D02*
D03*
X-192883Y-49000D02*
D03*
X-38000Y-39000D02*
D03*
X-22000D02*
D03*
X-15250Y-38500D02*
D03*
Y-9500D02*
D03*
X-44750D02*
D03*
Y-38500D02*
D03*
X-225000Y0D02*
D03*
X-242500D02*
D03*
X-192883Y49000D02*
D03*
X-199300Y-83300D02*
D03*
X-205600Y-77000D02*
D03*
X-212500Y-19950D02*
D03*
X-199300Y-14700D02*
D03*
X-205600Y-21000D02*
D03*
X-199500Y14700D02*
D03*
X-199300Y83300D02*
D03*
X-205800Y21000D02*
D03*
X-189700Y14700D02*
D03*
Y83300D02*
D03*
X-180300Y14700D02*
D03*
Y83300D02*
D03*
X-170700Y14700D02*
D03*
Y83300D02*
D03*
X-164400Y77000D02*
D03*
X-189700Y-83300D02*
D03*
X-170700D02*
D03*
X-164400Y-77000D02*
D03*
X-164400Y-21000D02*
D03*
X-180300Y-83300D02*
D03*
X-180300Y-14700D02*
D03*
X-189700D02*
D03*
X-170700D02*
D03*
X-119700Y44300D02*
D03*
X-126168Y68144D02*
D03*
X-102650Y86776D02*
D03*
X-101000Y65200D02*
D03*
X-119700Y63500D02*
D03*
X-69300Y34500D02*
D03*
Y53700D02*
D03*
X-70200Y5500D02*
D03*
X-69200Y26500D02*
D03*
X-75500Y32800D02*
D03*
X-252700Y88750D02*
D03*
Y77000D02*
D03*
Y65250D02*
D03*
X-275300Y88750D02*
D03*
Y77000D02*
D03*
Y65250D02*
D03*
X-252700Y-65250D02*
D03*
Y-77000D02*
D03*
Y-88750D02*
D03*
X-275300Y-65250D02*
D03*
Y-77000D02*
D03*
Y-88750D02*
D03*
X-252700Y32750D02*
D03*
Y21000D02*
D03*
Y9250D02*
D03*
X-275300Y32750D02*
D03*
Y21000D02*
D03*
Y9250D02*
D03*
Y-32750D02*
D03*
Y-21000D02*
D03*
Y-9250D02*
D03*
X-252700Y-32750D02*
D03*
Y-21000D02*
D03*
Y-9250D02*
D03*
X-126000Y88800D02*
D03*
X-118600Y92500D02*
D03*
X-119700Y53700D02*
D03*
X-126000Y28200D02*
D03*
X-132300Y34700D02*
D03*
X-86500Y-800D02*
D03*
X-63000Y9200D02*
D03*
X-69300Y44500D02*
D03*
Y63300D02*
D03*
M02*
