G04*
G04 #@! TF.GenerationSoftware,Altium Limited,Altium Designer,22.4.2 (48)*
G04*
G04 Layer_Physical_Order=3*
G04 Layer_Color=16440176*
%FSLAX44Y44*%
%MOMM*%
G71*
G04*
G04 #@! TF.SameCoordinates,1FDE6782-7AC4-437E-A2E8-A07863582D05*
G04*
G04*
G04 #@! TF.FilePolarity,Positive*
G04*
G01*
G75*
%ADD28C,1.5000*%
%ADD30C,0.1750*%
%ADD31C,0.6000*%
G36*
X-63000Y68000D02*
X-63000Y13220D01*
X-63547Y11950D01*
X-64558Y11531D01*
X-65331Y10758D01*
X-65750Y9747D01*
Y8653D01*
X-65331Y7642D01*
X-64558Y6869D01*
X-63985Y6631D01*
X-63000Y5942D01*
Y4953D01*
Y-6919D01*
Y-19100D01*
Y-32203D01*
Y-44500D01*
Y-59875D01*
X-63000Y-76453D01*
Y-80969D01*
Y-93266D01*
Y-101181D01*
X-63064Y-101404D01*
X-63980Y-102451D01*
X-154403D01*
X-154674Y-101888D01*
X-154792Y-101181D01*
X-154169Y-100558D01*
X-153750Y-99547D01*
Y-98453D01*
X-154169Y-97442D01*
X-154942Y-96669D01*
X-155953Y-96250D01*
X-157047D01*
X-158058Y-96669D01*
X-158831Y-97442D01*
X-159250Y-98453D01*
Y-99547D01*
X-158831Y-100558D01*
X-158208Y-101181D01*
X-158326Y-101888D01*
X-158597Y-102451D01*
X-211403D01*
X-211674Y-101888D01*
X-211792Y-101181D01*
X-211169Y-100558D01*
X-210750Y-99547D01*
Y-98453D01*
X-211169Y-97442D01*
X-211942Y-96669D01*
X-212953Y-96250D01*
X-214047D01*
X-215058Y-96669D01*
X-215831Y-97442D01*
X-216250Y-98453D01*
Y-99547D01*
X-215831Y-100558D01*
X-215208Y-101181D01*
X-215326Y-101888D01*
X-215597Y-102451D01*
X-341719D01*
X-345090Y-101781D01*
X-348266Y-100465D01*
X-351125Y-98555D01*
X-353555Y-96125D01*
X-355465Y-93266D01*
X-356781Y-90090D01*
X-357451Y-86719D01*
Y-85000D01*
Y-23750D01*
Y85000D01*
Y86719D01*
X-356781Y90090D01*
X-355465Y93266D01*
X-353555Y96125D01*
X-351125Y98555D01*
X-348266Y100465D01*
X-345090Y101781D01*
X-341474Y102500D01*
X-258431D01*
X-258185Y102451D01*
X-257200D01*
X-215597Y102451D01*
X-215326Y101889D01*
X-215208Y101181D01*
X-215831Y100558D01*
X-216250Y99547D01*
Y98453D01*
X-215831Y97442D01*
X-215058Y96669D01*
X-214047Y96250D01*
X-212953D01*
X-211942Y96669D01*
X-211169Y97442D01*
X-210750Y98453D01*
Y99547D01*
X-211169Y100558D01*
X-211792Y101181D01*
X-211674Y101889D01*
X-211403Y102451D01*
X-158597Y102451D01*
X-158327Y101889D01*
X-158208Y101181D01*
X-158831Y100558D01*
X-159250Y99547D01*
Y98453D01*
X-158831Y97442D01*
X-158058Y96669D01*
X-157047Y96250D01*
X-155953D01*
X-154942Y96669D01*
X-154169Y97442D01*
X-153750Y98453D01*
Y99547D01*
X-154169Y100558D01*
X-154792Y101181D01*
X-154674Y101889D01*
X-154403Y102451D01*
X-102800Y102451D01*
X-101815D01*
X-101569Y102500D01*
X-97500D01*
X-63000Y68000D01*
D02*
G37*
%LPC*%
G36*
X-118053Y95250D02*
X-119147D01*
X-120158Y94831D01*
X-120931Y94058D01*
X-121350Y93047D01*
Y91953D01*
X-120931Y90942D01*
X-120158Y90169D01*
X-119147Y89750D01*
X-118053D01*
X-117042Y90169D01*
X-116269Y90942D01*
X-115850Y91953D01*
Y93047D01*
X-116269Y94058D01*
X-117042Y94831D01*
X-118053Y95250D01*
D02*
G37*
G36*
X-125453Y91550D02*
X-126547D01*
X-127558Y91131D01*
X-128331Y90358D01*
X-128750Y89347D01*
Y88253D01*
X-128331Y87242D01*
X-127558Y86469D01*
X-126547Y86050D01*
X-125453D01*
X-124442Y86469D01*
X-123669Y87242D01*
X-123250Y88253D01*
Y89347D01*
X-123669Y90358D01*
X-124442Y91131D01*
X-125453Y91550D01*
D02*
G37*
G36*
X-252153Y91500D02*
X-253247D01*
X-254258Y91081D01*
X-255031Y90308D01*
X-255450Y89297D01*
Y88203D01*
X-255031Y87192D01*
X-254258Y86419D01*
X-253247Y86000D01*
X-252153D01*
X-251142Y86419D01*
X-250369Y87192D01*
X-249950Y88203D01*
Y89297D01*
X-250369Y90308D01*
X-251142Y91081D01*
X-252153Y91500D01*
D02*
G37*
G36*
X-274753D02*
X-275847D01*
X-276858Y91081D01*
X-277631Y90308D01*
X-278050Y89297D01*
Y88203D01*
X-277631Y87192D01*
X-276858Y86419D01*
X-275847Y86000D01*
X-274753D01*
X-273742Y86419D01*
X-272969Y87192D01*
X-272550Y88203D01*
Y89297D01*
X-272969Y90308D01*
X-273742Y91081D01*
X-274753Y91500D01*
D02*
G37*
G36*
X-170153Y86050D02*
X-171247D01*
X-172258Y85631D01*
X-173031Y84858D01*
X-173450Y83847D01*
Y82753D01*
X-173031Y81742D01*
X-172258Y80969D01*
X-171247Y80550D01*
X-170153D01*
X-169142Y80969D01*
X-168369Y81742D01*
X-167950Y82753D01*
Y83847D01*
X-168369Y84858D01*
X-169142Y85631D01*
X-170153Y86050D01*
D02*
G37*
G36*
X-198753D02*
X-199847D01*
X-200858Y85631D01*
X-201631Y84858D01*
X-202050Y83847D01*
Y82753D01*
X-201631Y81742D01*
X-200858Y80969D01*
X-199847Y80550D01*
X-198753D01*
X-197742Y80969D01*
X-196969Y81742D01*
X-196550Y82753D01*
Y83847D01*
X-196969Y84858D01*
X-197742Y85631D01*
X-198753Y86050D01*
D02*
G37*
G36*
X-212003Y81515D02*
X-213097D01*
X-214107Y81097D01*
X-214881Y80323D01*
X-215300Y79312D01*
Y78218D01*
X-214881Y77208D01*
X-214107Y76434D01*
X-213097Y76015D01*
X-212003D01*
X-210992Y76434D01*
X-210218Y77208D01*
X-209800Y78218D01*
Y79312D01*
X-210218Y80323D01*
X-210992Y81097D01*
X-212003Y81515D01*
D02*
G37*
G36*
X-163853Y79750D02*
X-164947D01*
X-165958Y79331D01*
X-166731Y78558D01*
X-167150Y77547D01*
Y76453D01*
X-166731Y75442D01*
X-165958Y74669D01*
X-164947Y74250D01*
X-163853D01*
X-162842Y74669D01*
X-162069Y75442D01*
X-161650Y76453D01*
Y77547D01*
X-162069Y78558D01*
X-162842Y79331D01*
X-163853Y79750D01*
D02*
G37*
G36*
X-252153D02*
X-253247D01*
X-254258Y79331D01*
X-255031Y78558D01*
X-255450Y77547D01*
Y76453D01*
X-255031Y75442D01*
X-254258Y74669D01*
X-253247Y74250D01*
X-252153D01*
X-251142Y74669D01*
X-250369Y75442D01*
X-249950Y76453D01*
Y77547D01*
X-250369Y78558D01*
X-251142Y79331D01*
X-252153Y79750D01*
D02*
G37*
G36*
X-274753D02*
X-275847D01*
X-276858Y79331D01*
X-277631Y78558D01*
X-278050Y77547D01*
Y76453D01*
X-277631Y75442D01*
X-276858Y74669D01*
X-275847Y74250D01*
X-274753D01*
X-273742Y74669D01*
X-272969Y75442D01*
X-272550Y76453D01*
Y77547D01*
X-272969Y78558D01*
X-273742Y79331D01*
X-274753Y79750D01*
D02*
G37*
G36*
X-252153Y68000D02*
X-253247D01*
X-254258Y67581D01*
X-255031Y66808D01*
X-255450Y65797D01*
Y64703D01*
X-255031Y63692D01*
X-254258Y62919D01*
X-253247Y62500D01*
X-252153D01*
X-251142Y62919D01*
X-250369Y63692D01*
X-249950Y64703D01*
Y65797D01*
X-250369Y66808D01*
X-251142Y67581D01*
X-252153Y68000D01*
D02*
G37*
G36*
X-274753D02*
X-275847D01*
X-276858Y67581D01*
X-277631Y66808D01*
X-278050Y65797D01*
Y64703D01*
X-277631Y63692D01*
X-276858Y62919D01*
X-275847Y62500D01*
X-274753D01*
X-273742Y62919D01*
X-272969Y63692D01*
X-272550Y64703D01*
Y65797D01*
X-272969Y66808D01*
X-273742Y67581D01*
X-274753Y68000D01*
D02*
G37*
G36*
X-68753Y66050D02*
X-69847D01*
X-70858Y65631D01*
X-71631Y64858D01*
X-72050Y63847D01*
Y62753D01*
X-71631Y61742D01*
X-70858Y60969D01*
X-69847Y60550D01*
X-68753D01*
X-67742Y60969D01*
X-66969Y61742D01*
X-66550Y62753D01*
Y63847D01*
X-66969Y64858D01*
X-67742Y65631D01*
X-68753Y66050D01*
D02*
G37*
G36*
X-311727Y69900D02*
X-314273D01*
X-316625Y68926D01*
X-318426Y67125D01*
X-319400Y64773D01*
Y62227D01*
X-318426Y59875D01*
X-316625Y58074D01*
X-314273Y57100D01*
X-311727D01*
X-309375Y58074D01*
X-307574Y59875D01*
X-306600Y62227D01*
Y64773D01*
X-307574Y67125D01*
X-309375Y68926D01*
X-311727Y69900D01*
D02*
G37*
G36*
X-337127D02*
X-339673D01*
X-342025Y68926D01*
X-343826Y67125D01*
X-344800Y64773D01*
Y62227D01*
X-343826Y59875D01*
X-342025Y58074D01*
X-339673Y57100D01*
X-337127D01*
X-334775Y58074D01*
X-332974Y59875D01*
X-332000Y62227D01*
Y64773D01*
X-332974Y67125D01*
X-334775Y68926D01*
X-337127Y69900D01*
D02*
G37*
G36*
X-68753Y56450D02*
X-69847D01*
X-70858Y56031D01*
X-71631Y55258D01*
X-72050Y54247D01*
Y53153D01*
X-71631Y52142D01*
X-70858Y51369D01*
X-69847Y50950D01*
X-68753D01*
X-67742Y51369D01*
X-66969Y52142D01*
X-66550Y53153D01*
Y54247D01*
X-66969Y55258D01*
X-67742Y56031D01*
X-68753Y56450D01*
D02*
G37*
G36*
X-119153D02*
X-120247D01*
X-121258Y56031D01*
X-122031Y55258D01*
X-122450Y54247D01*
Y53153D01*
X-122031Y52142D01*
X-121258Y51369D01*
X-120247Y50950D01*
X-119153D01*
X-118142Y51369D01*
X-117369Y52142D01*
X-116950Y53153D01*
Y54247D01*
X-117369Y55258D01*
X-118142Y56031D01*
X-119153Y56450D01*
D02*
G37*
G36*
X-192336Y51750D02*
X-193431D01*
X-194441Y51331D01*
X-195215Y50558D01*
X-195634Y49547D01*
Y48453D01*
X-195215Y47442D01*
X-194441Y46669D01*
X-193431Y46250D01*
X-192336D01*
X-191326Y46669D01*
X-190552Y47442D01*
X-190133Y48453D01*
Y49547D01*
X-190552Y50558D01*
X-191326Y51331D01*
X-192336Y51750D01*
D02*
G37*
G36*
X-68753Y47250D02*
X-69847D01*
X-70858Y46831D01*
X-71631Y46058D01*
X-72050Y45047D01*
Y43953D01*
X-71631Y42942D01*
X-70858Y42169D01*
X-69847Y41750D01*
X-68753D01*
X-67742Y42169D01*
X-66969Y42942D01*
X-66550Y43953D01*
Y45047D01*
X-66969Y46058D01*
X-67742Y46831D01*
X-68753Y47250D01*
D02*
G37*
G36*
Y37250D02*
X-69847D01*
X-70858Y36831D01*
X-71631Y36058D01*
X-72050Y35047D01*
Y34899D01*
X-72607Y34629D01*
X-73320Y34509D01*
X-73942Y35131D01*
X-74953Y35550D01*
X-76047D01*
X-77058Y35131D01*
X-77831Y34358D01*
X-78250Y33347D01*
Y32253D01*
X-77831Y31242D01*
X-77058Y30469D01*
X-76047Y30050D01*
X-74953D01*
X-73942Y30469D01*
X-73169Y31242D01*
X-72750Y32253D01*
Y32402D01*
X-72193Y32671D01*
X-71480Y32791D01*
X-70858Y32169D01*
X-69847Y31750D01*
X-68753D01*
X-67742Y32169D01*
X-66969Y32942D01*
X-66550Y33953D01*
Y35047D01*
X-66969Y36058D01*
X-67742Y36831D01*
X-68753Y37250D01*
D02*
G37*
G36*
X-131753Y37450D02*
X-132847D01*
X-133858Y37031D01*
X-134631Y36258D01*
X-135050Y35247D01*
Y34153D01*
X-134631Y33142D01*
X-133858Y32369D01*
X-132847Y31950D01*
X-131753D01*
X-130742Y32369D01*
X-129969Y33142D01*
X-129550Y34153D01*
Y35247D01*
X-129969Y36258D01*
X-130742Y37031D01*
X-131753Y37450D01*
D02*
G37*
G36*
X-311727Y44500D02*
X-314273D01*
X-316625Y43526D01*
X-318426Y41725D01*
X-319400Y39373D01*
Y36827D01*
X-318426Y34475D01*
X-316625Y32674D01*
X-314273Y31700D01*
X-311727D01*
X-309375Y32674D01*
X-307574Y34475D01*
X-306600Y36827D01*
Y39373D01*
X-307574Y41725D01*
X-309375Y43526D01*
X-311727Y44500D01*
D02*
G37*
G36*
X-337127D02*
X-339673D01*
X-342025Y43526D01*
X-343826Y41725D01*
X-344800Y39373D01*
Y36827D01*
X-343826Y34475D01*
X-342025Y32674D01*
X-339673Y31700D01*
X-337127D01*
X-334775Y32674D01*
X-332974Y34475D01*
X-332000Y36827D01*
Y39373D01*
X-332974Y41725D01*
X-334775Y43526D01*
X-337127Y44500D01*
D02*
G37*
G36*
X-252153Y35500D02*
X-253247D01*
X-254258Y35081D01*
X-255031Y34308D01*
X-255450Y33297D01*
Y32203D01*
X-255031Y31192D01*
X-254258Y30419D01*
X-253247Y30000D01*
X-252153D01*
X-251142Y30419D01*
X-250369Y31192D01*
X-249950Y32203D01*
Y33297D01*
X-250369Y34308D01*
X-251142Y35081D01*
X-252153Y35500D01*
D02*
G37*
G36*
X-274753D02*
X-275847D01*
X-276858Y35081D01*
X-277631Y34308D01*
X-278050Y33297D01*
Y32203D01*
X-277631Y31192D01*
X-276858Y30419D01*
X-275847Y30000D01*
X-274753D01*
X-273742Y30419D01*
X-272969Y31192D01*
X-272550Y32203D01*
Y33297D01*
X-272969Y34308D01*
X-273742Y35081D01*
X-274753Y35500D01*
D02*
G37*
G36*
X-125453Y30950D02*
X-126547D01*
X-127558Y30531D01*
X-128331Y29758D01*
X-128750Y28747D01*
Y27653D01*
X-128331Y26642D01*
X-127558Y25869D01*
X-126547Y25450D01*
X-125453D01*
X-124442Y25869D01*
X-123669Y26642D01*
X-123250Y27653D01*
Y28747D01*
X-123669Y29758D01*
X-124442Y30531D01*
X-125453Y30950D01*
D02*
G37*
G36*
X-68653Y29250D02*
X-69747D01*
X-70758Y28831D01*
X-71531Y28058D01*
X-71950Y27047D01*
Y25953D01*
X-71531Y24942D01*
X-70758Y24169D01*
X-69747Y23750D01*
X-68653D01*
X-67642Y24169D01*
X-66869Y24942D01*
X-66450Y25953D01*
Y27047D01*
X-66869Y28058D01*
X-67642Y28831D01*
X-68653Y29250D01*
D02*
G37*
G36*
X-205253Y23750D02*
X-206347D01*
X-207358Y23331D01*
X-208131Y22558D01*
X-208550Y21547D01*
Y20453D01*
X-208131Y19442D01*
X-207358Y18669D01*
X-206347Y18250D01*
X-205253D01*
X-204242Y18669D01*
X-203469Y19442D01*
X-203050Y20453D01*
Y21547D01*
X-203469Y22558D01*
X-204242Y23331D01*
X-205253Y23750D01*
D02*
G37*
G36*
X-252153D02*
X-253247D01*
X-254258Y23331D01*
X-255031Y22558D01*
X-255450Y21547D01*
Y20453D01*
X-255031Y19442D01*
X-254258Y18669D01*
X-253247Y18250D01*
X-252153D01*
X-251142Y18669D01*
X-250369Y19442D01*
X-249950Y20453D01*
Y21547D01*
X-250369Y22558D01*
X-251142Y23331D01*
X-252153Y23750D01*
D02*
G37*
G36*
X-274753D02*
X-275847D01*
X-276858Y23331D01*
X-277631Y22558D01*
X-278050Y21547D01*
Y20453D01*
X-277631Y19442D01*
X-276858Y18669D01*
X-275847Y18250D01*
X-274753D01*
X-273742Y18669D01*
X-272969Y19442D01*
X-272550Y20453D01*
Y21547D01*
X-272969Y22558D01*
X-273742Y23331D01*
X-274753Y23750D01*
D02*
G37*
G36*
X-311678Y22740D02*
X-311730D01*
Y13970D01*
X-302960D01*
Y14022D01*
X-303644Y16575D01*
X-304966Y18865D01*
X-306835Y20734D01*
X-309125Y22056D01*
X-311678Y22740D01*
D02*
G37*
G36*
X-314270D02*
X-314322D01*
X-316875Y22056D01*
X-319165Y20734D01*
X-321034Y18865D01*
X-322356Y16575D01*
X-323040Y14022D01*
Y13970D01*
X-314270D01*
Y22740D01*
D02*
G37*
G36*
X-170153Y17450D02*
X-171247D01*
X-172258Y17031D01*
X-173031Y16258D01*
X-173450Y15247D01*
Y14153D01*
X-173031Y13142D01*
X-172258Y12369D01*
X-171247Y11950D01*
X-170153D01*
X-169142Y12369D01*
X-168369Y13142D01*
X-167950Y14153D01*
Y15247D01*
X-168369Y16258D01*
X-169142Y17031D01*
X-170153Y17450D01*
D02*
G37*
G36*
X-179753D02*
X-180847D01*
X-181858Y17031D01*
X-182631Y16258D01*
X-183050Y15247D01*
Y14153D01*
X-182631Y13142D01*
X-181858Y12369D01*
X-180847Y11950D01*
X-179753D01*
X-178742Y12369D01*
X-177969Y13142D01*
X-177550Y14153D01*
Y15247D01*
X-177969Y16258D01*
X-178742Y17031D01*
X-179753Y17450D01*
D02*
G37*
G36*
X-189153D02*
X-190247D01*
X-191258Y17031D01*
X-192031Y16258D01*
X-192450Y15247D01*
Y14153D01*
X-192031Y13142D01*
X-191258Y12369D01*
X-190247Y11950D01*
X-189153D01*
X-188142Y12369D01*
X-187369Y13142D01*
X-186950Y14153D01*
Y15247D01*
X-187369Y16258D01*
X-188142Y17031D01*
X-189153Y17450D01*
D02*
G37*
G36*
X-198953D02*
X-200047D01*
X-201058Y17031D01*
X-201831Y16258D01*
X-202250Y15247D01*
Y14153D01*
X-201831Y13142D01*
X-201058Y12369D01*
X-200047Y11950D01*
X-198953D01*
X-197942Y12369D01*
X-197169Y13142D01*
X-196750Y14153D01*
Y15247D01*
X-197169Y16258D01*
X-197942Y17031D01*
X-198953Y17450D01*
D02*
G37*
G36*
X-252153Y12000D02*
X-253247D01*
X-254258Y11581D01*
X-255031Y10808D01*
X-255450Y9797D01*
Y8703D01*
X-255031Y7692D01*
X-254258Y6919D01*
X-253247Y6500D01*
X-252153D01*
X-251142Y6919D01*
X-250369Y7692D01*
X-249950Y8703D01*
Y9797D01*
X-250369Y10808D01*
X-251142Y11581D01*
X-252153Y12000D01*
D02*
G37*
G36*
X-274753D02*
X-275847D01*
X-276858Y11581D01*
X-277631Y10808D01*
X-278050Y9797D01*
Y8703D01*
X-277631Y7692D01*
X-276858Y6919D01*
X-275847Y6500D01*
X-274753D01*
X-273742Y6919D01*
X-272969Y7692D01*
X-272550Y8703D01*
Y9797D01*
X-272969Y10808D01*
X-273742Y11581D01*
X-274753Y12000D01*
D02*
G37*
G36*
X-337127Y19100D02*
X-339673D01*
X-342025Y18126D01*
X-343826Y16325D01*
X-344800Y13973D01*
Y11427D01*
X-343826Y9075D01*
X-342025Y7274D01*
X-339673Y6300D01*
X-337127D01*
X-334775Y7274D01*
X-332974Y9075D01*
X-332000Y11427D01*
Y13973D01*
X-332974Y16325D01*
X-334775Y18126D01*
X-337127Y19100D01*
D02*
G37*
G36*
X-212953Y10250D02*
X-214047D01*
X-215058Y9831D01*
X-215831Y9058D01*
X-216250Y8047D01*
Y6953D01*
X-215831Y5942D01*
X-215058Y5169D01*
X-214047Y4750D01*
X-212953D01*
X-211942Y5169D01*
X-211169Y5942D01*
X-210750Y6953D01*
Y8047D01*
X-211169Y9058D01*
X-211942Y9831D01*
X-212953Y10250D01*
D02*
G37*
G36*
X-155953Y10250D02*
X-157047D01*
X-158058Y9831D01*
X-158831Y9058D01*
X-159250Y8047D01*
Y6953D01*
X-158831Y5942D01*
X-158058Y5169D01*
X-157047Y4750D01*
X-155953D01*
X-154942Y5169D01*
X-154169Y5942D01*
X-153750Y6953D01*
Y8047D01*
X-154169Y9058D01*
X-154942Y9831D01*
X-155953Y10250D01*
D02*
G37*
G36*
X-69653Y8250D02*
X-70747D01*
X-71758Y7831D01*
X-72531Y7058D01*
X-72950Y6047D01*
Y4953D01*
X-72531Y3942D01*
X-71758Y3169D01*
X-70747Y2750D01*
X-69653D01*
X-68642Y3169D01*
X-67869Y3942D01*
X-67450Y4953D01*
Y6047D01*
X-67869Y7058D01*
X-68642Y7831D01*
X-69653Y8250D01*
D02*
G37*
G36*
X-302960Y11430D02*
X-311730D01*
Y2660D01*
X-311678D01*
X-309125Y3344D01*
X-306835Y4666D01*
X-304966Y6535D01*
X-303644Y8825D01*
X-302960Y11378D01*
Y11430D01*
D02*
G37*
G36*
X-314270D02*
X-323040D01*
Y11378D01*
X-322356Y8825D01*
X-321034Y6535D01*
X-319165Y4666D01*
X-316875Y3344D01*
X-314322Y2660D01*
X-314270D01*
Y11430D01*
D02*
G37*
G36*
X-224155Y4250D02*
X-225845D01*
X-227407Y3603D01*
X-228603Y2407D01*
X-228703Y2167D01*
X-238797D01*
X-238897Y2407D01*
X-240093Y3603D01*
X-241655Y4250D01*
X-243345D01*
X-244907Y3603D01*
X-246103Y2407D01*
X-246750Y845D01*
Y-845D01*
X-246103Y-2407D01*
X-244907Y-3603D01*
X-243345Y-4250D01*
X-241655D01*
X-240093Y-3603D01*
X-238897Y-2407D01*
X-238797Y-2167D01*
X-228703D01*
X-228603Y-2407D01*
X-227407Y-3603D01*
X-225845Y-4250D01*
X-224155D01*
X-222593Y-3603D01*
X-221397Y-2407D01*
X-220750Y-845D01*
Y845D01*
X-221397Y2407D01*
X-222593Y3603D01*
X-224155Y4250D01*
D02*
G37*
G36*
X-85953Y1950D02*
X-87047D01*
X-88058Y1531D01*
X-88831Y758D01*
X-89250Y-253D01*
Y-1347D01*
X-88831Y-2358D01*
X-88058Y-3131D01*
X-87047Y-3550D01*
X-85953D01*
X-84942Y-3131D01*
X-84169Y-2358D01*
X-83750Y-1347D01*
Y-253D01*
X-84169Y758D01*
X-84942Y1531D01*
X-85953Y1950D01*
D02*
G37*
G36*
X-78453Y-1250D02*
X-79547D01*
X-80558Y-1669D01*
X-81331Y-2442D01*
X-81750Y-3453D01*
Y-4547D01*
X-81331Y-5558D01*
X-80558Y-6331D01*
X-79547Y-6750D01*
X-78453D01*
X-77442Y-6331D01*
X-76669Y-5558D01*
X-76250Y-4547D01*
Y-3453D01*
X-76669Y-2442D01*
X-77442Y-1669D01*
X-78453Y-1250D01*
D02*
G37*
G36*
X-212953Y-4750D02*
X-214047D01*
X-215058Y-5169D01*
X-215831Y-5942D01*
X-216250Y-6953D01*
Y-8047D01*
X-215831Y-9058D01*
X-215058Y-9831D01*
X-214047Y-10250D01*
X-212953D01*
X-211942Y-9831D01*
X-211169Y-9058D01*
X-210750Y-8047D01*
Y-6953D01*
X-211169Y-5942D01*
X-211942Y-5169D01*
X-212953Y-4750D01*
D02*
G37*
G36*
X-68953Y-4750D02*
X-70047D01*
X-71058Y-5169D01*
X-71831Y-5942D01*
X-72250Y-6953D01*
Y-8047D01*
X-71831Y-9058D01*
X-71058Y-9831D01*
X-70047Y-10250D01*
X-68953D01*
X-67942Y-9831D01*
X-67169Y-9058D01*
X-66750Y-8047D01*
Y-6953D01*
X-67169Y-5942D01*
X-67942Y-5169D01*
X-68953Y-4750D01*
D02*
G37*
G36*
X-155953D02*
X-157047D01*
X-158058Y-5169D01*
X-158831Y-5942D01*
X-159250Y-6953D01*
Y-8047D01*
X-158831Y-9058D01*
X-158058Y-9831D01*
X-157047Y-10250D01*
X-155953D01*
X-154942Y-9831D01*
X-154169Y-9058D01*
X-153750Y-8047D01*
Y-6953D01*
X-154169Y-5942D01*
X-154942Y-5169D01*
X-155953Y-4750D01*
D02*
G37*
G36*
X-252153Y-6500D02*
X-253247D01*
X-254258Y-6919D01*
X-255031Y-7692D01*
X-255450Y-8703D01*
Y-9797D01*
X-255031Y-10808D01*
X-254258Y-11581D01*
X-253247Y-12000D01*
X-252153D01*
X-251142Y-11581D01*
X-250369Y-10808D01*
X-249950Y-9797D01*
Y-8703D01*
X-250369Y-7692D01*
X-251142Y-6919D01*
X-252153Y-6500D01*
D02*
G37*
G36*
X-274753D02*
X-275847D01*
X-276858Y-6919D01*
X-277631Y-7692D01*
X-278050Y-8703D01*
Y-9797D01*
X-277631Y-10808D01*
X-276858Y-11581D01*
X-275847Y-12000D01*
X-274753D01*
X-273742Y-11581D01*
X-272969Y-10808D01*
X-272550Y-9797D01*
Y-8703D01*
X-272969Y-7692D01*
X-273742Y-6919D01*
X-274753Y-6500D01*
D02*
G37*
G36*
X-170153Y-11950D02*
X-171247D01*
X-172258Y-12369D01*
X-173031Y-13142D01*
X-173450Y-14153D01*
Y-15247D01*
X-173031Y-16258D01*
X-172258Y-17031D01*
X-171247Y-17450D01*
X-170153D01*
X-169142Y-17031D01*
X-168369Y-16258D01*
X-167950Y-15247D01*
Y-14153D01*
X-168369Y-13142D01*
X-169142Y-12369D01*
X-170153Y-11950D01*
D02*
G37*
G36*
X-198753D02*
X-199847D01*
X-200858Y-12369D01*
X-201631Y-13142D01*
X-202050Y-14153D01*
Y-15247D01*
X-201631Y-16258D01*
X-200858Y-17031D01*
X-199847Y-17450D01*
X-198753D01*
X-197742Y-17031D01*
X-196969Y-16258D01*
X-196550Y-15247D01*
Y-14153D01*
X-196969Y-13142D01*
X-197742Y-12369D01*
X-198753Y-11950D01*
D02*
G37*
G36*
X-311727Y-6300D02*
X-314273D01*
X-316625Y-7274D01*
X-318426Y-9075D01*
X-319400Y-11427D01*
Y-13973D01*
X-318426Y-16325D01*
X-316625Y-18126D01*
X-314273Y-19100D01*
X-311727D01*
X-309375Y-18126D01*
X-307574Y-16325D01*
X-306600Y-13973D01*
Y-11427D01*
X-307574Y-9075D01*
X-309375Y-7274D01*
X-311727Y-6300D01*
D02*
G37*
G36*
X-337127D02*
X-339673D01*
X-342025Y-7274D01*
X-343826Y-9075D01*
X-344800Y-11427D01*
Y-13973D01*
X-343826Y-16325D01*
X-342025Y-18126D01*
X-339673Y-19100D01*
X-337127D01*
X-334775Y-18126D01*
X-332974Y-16325D01*
X-332000Y-13973D01*
Y-11427D01*
X-332974Y-9075D01*
X-334775Y-7274D01*
X-337127Y-6300D01*
D02*
G37*
G36*
X-211953Y-17200D02*
X-213047D01*
X-214058Y-17619D01*
X-214831Y-18392D01*
X-215250Y-19403D01*
Y-20497D01*
X-214831Y-21508D01*
X-214058Y-22281D01*
X-213047Y-22700D01*
X-211953D01*
X-210942Y-22281D01*
X-210169Y-21508D01*
X-209750Y-20497D01*
Y-19403D01*
X-210169Y-18392D01*
X-210942Y-17619D01*
X-211953Y-17200D01*
D02*
G37*
G36*
X-163853Y-18250D02*
X-164947D01*
X-165958Y-18669D01*
X-166731Y-19442D01*
X-167150Y-20453D01*
Y-21547D01*
X-166731Y-22558D01*
X-165958Y-23331D01*
X-164947Y-23750D01*
X-163853D01*
X-162842Y-23331D01*
X-162069Y-22558D01*
X-161650Y-21547D01*
Y-20453D01*
X-162069Y-19442D01*
X-162842Y-18669D01*
X-163853Y-18250D01*
D02*
G37*
G36*
X-205053D02*
X-206147D01*
X-207158Y-18669D01*
X-207931Y-19442D01*
X-208350Y-20453D01*
Y-21547D01*
X-207931Y-22558D01*
X-207158Y-23331D01*
X-206147Y-23750D01*
X-205053D01*
X-204042Y-23331D01*
X-203269Y-22558D01*
X-202850Y-21547D01*
Y-20453D01*
X-203269Y-19442D01*
X-204042Y-18669D01*
X-205053Y-18250D01*
D02*
G37*
G36*
X-252153D02*
X-253247D01*
X-254258Y-18669D01*
X-255031Y-19442D01*
X-255450Y-20453D01*
Y-21547D01*
X-255031Y-22558D01*
X-254258Y-23331D01*
X-253247Y-23750D01*
X-252153D01*
X-251142Y-23331D01*
X-250369Y-22558D01*
X-249950Y-21547D01*
Y-20453D01*
X-250369Y-19442D01*
X-251142Y-18669D01*
X-252153Y-18250D01*
D02*
G37*
G36*
X-274753D02*
X-275847D01*
X-276858Y-18669D01*
X-277631Y-19442D01*
X-278050Y-20453D01*
Y-21547D01*
X-277631Y-22558D01*
X-276858Y-23331D01*
X-275847Y-23750D01*
X-274753D01*
X-273742Y-23331D01*
X-272969Y-22558D01*
X-272550Y-21547D01*
Y-20453D01*
X-272969Y-19442D01*
X-273742Y-18669D01*
X-274753Y-18250D01*
D02*
G37*
G36*
X-252153Y-30000D02*
X-253247D01*
X-254258Y-30419D01*
X-255031Y-31192D01*
X-255450Y-32203D01*
Y-33297D01*
X-255031Y-34308D01*
X-254258Y-35081D01*
X-253247Y-35500D01*
X-252153D01*
X-251142Y-35081D01*
X-250369Y-34308D01*
X-249950Y-33297D01*
Y-32203D01*
X-250369Y-31192D01*
X-251142Y-30419D01*
X-252153Y-30000D01*
D02*
G37*
G36*
X-274753D02*
X-275847D01*
X-276858Y-30419D01*
X-277631Y-31192D01*
X-278050Y-32203D01*
Y-33297D01*
X-277631Y-34308D01*
X-276858Y-35081D01*
X-275847Y-35500D01*
X-274753D01*
X-273742Y-35081D01*
X-272969Y-34308D01*
X-272550Y-33297D01*
Y-32203D01*
X-272969Y-31192D01*
X-273742Y-30419D01*
X-274753Y-30000D01*
D02*
G37*
G36*
X-311727Y-31700D02*
X-314273D01*
X-316625Y-32674D01*
X-318426Y-34475D01*
X-319400Y-36827D01*
Y-39373D01*
X-318426Y-41725D01*
X-316625Y-43526D01*
X-314273Y-44500D01*
X-311727D01*
X-309375Y-43526D01*
X-307574Y-41725D01*
X-306600Y-39373D01*
Y-36827D01*
X-307574Y-34475D01*
X-309375Y-32674D01*
X-311727Y-31700D01*
D02*
G37*
G36*
X-337127D02*
X-339673D01*
X-342025Y-32674D01*
X-343826Y-34475D01*
X-344800Y-36827D01*
Y-39373D01*
X-343826Y-41725D01*
X-342025Y-43526D01*
X-339673Y-44500D01*
X-337127D01*
X-334775Y-43526D01*
X-332974Y-41725D01*
X-332000Y-39373D01*
Y-36827D01*
X-332974Y-34475D01*
X-334775Y-32674D01*
X-337127Y-31700D01*
D02*
G37*
G36*
X-192336Y-46250D02*
X-193431D01*
X-194441Y-46669D01*
X-195215Y-47442D01*
X-195634Y-48453D01*
Y-49547D01*
X-195215Y-50558D01*
X-194441Y-51331D01*
X-193431Y-51750D01*
X-192336D01*
X-191326Y-51331D01*
X-190552Y-50558D01*
X-190133Y-49547D01*
Y-48453D01*
X-190552Y-47442D01*
X-191326Y-46669D01*
X-192336Y-46250D01*
D02*
G37*
G36*
X-311727Y-57100D02*
X-314273D01*
X-316625Y-58074D01*
X-318426Y-59875D01*
X-319400Y-62227D01*
Y-64773D01*
X-318426Y-67125D01*
X-316625Y-68926D01*
X-314273Y-69900D01*
X-311727D01*
X-309375Y-68926D01*
X-307574Y-67125D01*
X-306600Y-64773D01*
Y-62227D01*
X-307574Y-59875D01*
X-309375Y-58074D01*
X-311727Y-57100D01*
D02*
G37*
G36*
X-337127D02*
X-339673D01*
X-342025Y-58074D01*
X-343826Y-59875D01*
X-344800Y-62227D01*
Y-64773D01*
X-343826Y-67125D01*
X-342025Y-68926D01*
X-339673Y-69900D01*
X-337127D01*
X-334775Y-68926D01*
X-332974Y-67125D01*
X-332000Y-64773D01*
Y-62227D01*
X-332974Y-59875D01*
X-334775Y-58074D01*
X-337127Y-57100D01*
D02*
G37*
G36*
X-163853Y-74250D02*
X-164947D01*
X-165958Y-74669D01*
X-166731Y-75442D01*
X-167150Y-76453D01*
Y-77547D01*
X-166731Y-78558D01*
X-165958Y-79331D01*
X-164947Y-79750D01*
X-163853D01*
X-162842Y-79331D01*
X-162069Y-78558D01*
X-161650Y-77547D01*
Y-76453D01*
X-162069Y-75442D01*
X-162842Y-74669D01*
X-163853Y-74250D01*
D02*
G37*
G36*
X-205053D02*
X-206147D01*
X-207158Y-74669D01*
X-207931Y-75442D01*
X-208350Y-76453D01*
Y-77547D01*
X-207931Y-78558D01*
X-207158Y-79331D01*
X-206147Y-79750D01*
X-205053D01*
X-204042Y-79331D01*
X-203269Y-78558D01*
X-202850Y-77547D01*
Y-76453D01*
X-203269Y-75442D01*
X-204042Y-74669D01*
X-205053Y-74250D01*
D02*
G37*
G36*
X-170153Y-80550D02*
X-171247D01*
X-172258Y-80969D01*
X-173031Y-81742D01*
X-173450Y-82753D01*
Y-83847D01*
X-173031Y-84858D01*
X-172258Y-85631D01*
X-171247Y-86050D01*
X-170153D01*
X-169142Y-85631D01*
X-168369Y-84858D01*
X-167950Y-83847D01*
Y-82753D01*
X-168369Y-81742D01*
X-169142Y-80969D01*
X-170153Y-80550D01*
D02*
G37*
G36*
X-179753D02*
X-180847D01*
X-181858Y-80969D01*
X-182631Y-81742D01*
X-183050Y-82753D01*
Y-83847D01*
X-182631Y-84858D01*
X-181858Y-85631D01*
X-180847Y-86050D01*
X-179753D01*
X-178742Y-85631D01*
X-177969Y-84858D01*
X-177550Y-83847D01*
Y-82753D01*
X-177969Y-81742D01*
X-178742Y-80969D01*
X-179753Y-80550D01*
D02*
G37*
G36*
X-189153D02*
X-190247D01*
X-191258Y-80969D01*
X-192031Y-81742D01*
X-192450Y-82753D01*
Y-83847D01*
X-192031Y-84858D01*
X-191258Y-85631D01*
X-190247Y-86050D01*
X-189153D01*
X-188142Y-85631D01*
X-187369Y-84858D01*
X-186950Y-83847D01*
Y-82753D01*
X-187369Y-81742D01*
X-188142Y-80969D01*
X-189153Y-80550D01*
D02*
G37*
G36*
X-198753D02*
X-199847D01*
X-200858Y-80969D01*
X-201631Y-81742D01*
X-202050Y-82753D01*
Y-83847D01*
X-201631Y-84858D01*
X-200858Y-85631D01*
X-199847Y-86050D01*
X-198753D01*
X-197742Y-85631D01*
X-196969Y-84858D01*
X-196550Y-83847D01*
Y-82753D01*
X-196969Y-81742D01*
X-197742Y-80969D01*
X-198753Y-80550D01*
D02*
G37*
%LPD*%
D28*
X-313000Y12700D02*
D03*
D30*
X-242000Y500D02*
X-241500Y0D01*
X-225000D01*
X-242500D02*
X-242000Y500D01*
D31*
X-225000Y0D02*
D03*
X-242500D02*
D03*
X-189700Y83300D02*
D03*
X-180300D02*
D03*
Y-14700D02*
D03*
X-189700D02*
D03*
X-119700Y44300D02*
D03*
X-126168Y68144D02*
D03*
X-102650Y86776D02*
D03*
X-101000Y65200D02*
D03*
X-119700Y63500D02*
D03*
X-252700Y-65250D02*
D03*
Y-77000D02*
D03*
Y-88750D02*
D03*
X-275300Y-65250D02*
D03*
Y-77000D02*
D03*
Y-88750D02*
D03*
M02*
