G04*
G04 #@! TF.GenerationSoftware,Altium Limited,Altium Designer,22.4.2 (48)*
G04*
G04 Layer_Color=16711935*
%FSLAX44Y44*%
%MOMM*%
G71*
G04*
G04 #@! TF.SameCoordinates,1FDE6782-7AC4-437E-A2E8-A07863582D05*
G04*
G04*
G04 #@! TF.FilePolarity,Negative*
G04*
G01*
G75*
%ADD28C,1.5000*%
G04:AMPARAMS|DCode=29|XSize=1.5mm|YSize=1.5mm|CornerRadius=0.375mm|HoleSize=0mm|Usage=FLASHONLY|Rotation=270.000|XOffset=0mm|YOffset=0mm|HoleType=Round|Shape=RoundedRectangle|*
%AMROUNDEDRECTD29*
21,1,1.5000,0.7500,0,0,270.0*
21,1,0.7500,1.5000,0,0,270.0*
1,1,0.7500,-0.3750,-0.3750*
1,1,0.7500,-0.3750,0.3750*
1,1,0.7500,0.3750,0.3750*
1,1,0.7500,0.3750,-0.3750*
%
%ADD29ROUNDEDRECTD29*%
G36*
X-212185Y75274D02*
X-200707D01*
Y75274D01*
X-200609Y75277D01*
X-200413Y75249D01*
X-200225Y75188D01*
X-200051Y75096D01*
X-199972Y75036D01*
X-199972D01*
X-199905Y74981D01*
X-199790Y74852D01*
X-199697Y74707D01*
X-199627Y74550D01*
X-199605Y74466D01*
X-199605D01*
X-199570Y74342D01*
X-199552Y74084D01*
X-199588Y73828D01*
X-199675Y73585D01*
X-199743Y73474D01*
X-199820Y73355D01*
X-200032Y73163D01*
X-200286Y73032D01*
X-200565Y72972D01*
X-200707Y72978D01*
X-204581D01*
Y70898D01*
X-204581Y70898D01*
X-204581Y70862D01*
X-204582Y70791D01*
X-204584Y70719D01*
X-204588Y70647D01*
X-204590Y70612D01*
X-204592Y70594D01*
X-204594Y70558D01*
X-204597Y70523D01*
X-204600Y70488D01*
X-204602Y70470D01*
X-204604Y70452D01*
X-204607Y70417D01*
X-204611Y70382D01*
X-204615Y70347D01*
X-204617Y70330D01*
X-204619Y70312D01*
X-204623Y70277D01*
X-204628Y70243D01*
X-204633Y70208D01*
X-204635Y70191D01*
X-200340Y68759D01*
Y68759D01*
Y68759D01*
X-200243Y68732D01*
X-200062Y68646D01*
X-199899Y68530D01*
X-199758Y68387D01*
X-199701Y68304D01*
X-199701Y68304D01*
X-199653Y68231D01*
X-199583Y68071D01*
X-199538Y67902D01*
X-199521Y67728D01*
X-199527Y67641D01*
X-199533Y67510D01*
X-199598Y67257D01*
X-199715Y67022D01*
X-199877Y66817D01*
X-199977Y66733D01*
X-199977Y66733D01*
X-199978Y66733D01*
X-200091Y66643D01*
X-200357Y66529D01*
X-200644Y66489D01*
X-200932Y66526D01*
X-201065Y66581D01*
X-205608Y68093D01*
Y68093D01*
X-205907Y67735D01*
X-206644Y67161D01*
X-207485Y66755D01*
X-208393Y66536D01*
X-208860Y66525D01*
X-208872Y66524D01*
X-208897Y66523D01*
X-208921Y66522D01*
X-208946Y66522D01*
X-208958Y66522D01*
X-209385Y66524D01*
X-210223Y66692D01*
X-211012Y67019D01*
X-211724Y67491D01*
X-212332Y68092D01*
X-212812Y68798D01*
X-213147Y69584D01*
X-213325Y70420D01*
X-213332Y70847D01*
X-213332Y70853D01*
X-213333Y70866D01*
X-213333Y70879D01*
X-213333Y70892D01*
Y70898D01*
Y73941D01*
X-213333D01*
X-213334Y73946D01*
X-213335Y73956D01*
X-213337Y73966D01*
X-213338Y73976D01*
X-213338Y73981D01*
X-213339Y73984D01*
X-213339Y73989D01*
X-213340Y73994D01*
X-213340Y73999D01*
X-213340Y74001D01*
Y74001D01*
X-213340Y74004D01*
X-213341Y74009D01*
X-213341Y74014D01*
X-213341Y74019D01*
X-213342Y74022D01*
X-213342Y74024D01*
X-213342Y74029D01*
X-213342Y74034D01*
X-213342Y74040D01*
X-213343Y74042D01*
X-213343Y74062D01*
X-213344Y74083D01*
X-213344Y74103D01*
X-213344Y74123D01*
X-213344Y74144D01*
X-213349D01*
X-213349Y74144D01*
X-213345Y74372D01*
X-213164Y74791D01*
X-212837Y75108D01*
X-212413Y75277D01*
X-212185Y75274D01*
D02*
G37*
G36*
X-163202Y72059D02*
X-162929Y71974D01*
X-162686Y71825D01*
X-162586Y71723D01*
X-162482Y71624D01*
X-162330Y71379D01*
X-162244Y71104D01*
X-162229Y70816D01*
X-162256Y70675D01*
Y51601D01*
X-157665D01*
Y51601D01*
X-157434Y51611D01*
X-157003Y51442D01*
X-156676Y51115D01*
X-156508Y50684D01*
X-156518Y50452D01*
X-156518D01*
X-156517Y50367D01*
X-156540Y50196D01*
X-156587Y50031D01*
X-156656Y49874D01*
X-156701Y49801D01*
X-156701D01*
X-156779Y49681D01*
X-156990Y49490D01*
X-157244Y49359D01*
X-157523Y49299D01*
X-157665Y49305D01*
X-161259D01*
X-156814Y42637D01*
X-156673Y42490D01*
X-156511Y42116D01*
X-156487Y41709D01*
X-156604Y41319D01*
X-156727Y41156D01*
X-156727Y41156D01*
Y41156D01*
X-156820Y41028D01*
X-157070Y40831D01*
X-157364Y40709D01*
X-157680Y40672D01*
X-157837Y40697D01*
X-162257Y40697D01*
Y38617D01*
Y38617D01*
X-162252Y38517D01*
X-162276Y38318D01*
X-162335Y38126D01*
X-162426Y37948D01*
X-162486Y37868D01*
Y37868D01*
X-162486D01*
X-162540Y37799D01*
X-162670Y37682D01*
X-162816Y37587D01*
X-162975Y37515D01*
X-163060Y37493D01*
X-163060Y37493D01*
X-163186Y37457D01*
X-163447Y37439D01*
X-163706Y37476D01*
X-163953Y37565D01*
X-164064Y37633D01*
Y37633D01*
X-164185Y37713D01*
X-164377Y37929D01*
X-164506Y38189D01*
X-164562Y38472D01*
X-164552Y38617D01*
X-164552Y40697D01*
X-168984D01*
Y40697D01*
X-169158Y40672D01*
X-169506Y40727D01*
X-169822Y40885D01*
X-170075Y41129D01*
X-170160Y41284D01*
X-170196Y41350D01*
X-170252Y41490D01*
X-170290Y41637D01*
X-170308Y41787D01*
X-170307Y41862D01*
X-170306Y41966D01*
X-170265Y42169D01*
X-170189Y42362D01*
X-170079Y42538D01*
X-170010Y42614D01*
X-165549Y49305D01*
X-169143D01*
Y49305D01*
Y49305D01*
X-169376Y49302D01*
X-169807Y49477D01*
X-170136Y49806D01*
X-170311Y50238D01*
X-170307Y50471D01*
X-170307D01*
X-170304Y50699D01*
X-170123Y51118D01*
X-169795Y51436D01*
X-169371Y51604D01*
X-169143Y51601D01*
X-164552D01*
Y69750D01*
X-190664D01*
X-190897Y69747D01*
X-191328Y69922D01*
X-191657Y70251D01*
X-191831Y70683D01*
X-191828Y70915D01*
X-191828Y70915D01*
X-191825Y71143D01*
X-191644Y71562D01*
X-191316Y71880D01*
X-190892Y72049D01*
X-190664Y72046D01*
X-163628D01*
X-163488Y72073D01*
X-163202Y72059D01*
D02*
G37*
G36*
X-200576Y61998D02*
X-200576D01*
X-200576Y61998D01*
Y61998D01*
D02*
G37*
G36*
X-200414Y61965D02*
X-200414D01*
X-200414Y61965D01*
Y61965D01*
D02*
G37*
G36*
X-212185Y62006D02*
X-200707Y62006D01*
X-200704Y62006D01*
X-200701Y62005D01*
X-200699Y62005D01*
X-200697Y62005D01*
X-200696Y62005D01*
X-200696D01*
X-200696Y62005D01*
X-200688Y62005D01*
X-200672Y62004D01*
X-200655Y62004D01*
X-200639Y62003D01*
X-200631Y62002D01*
X-200631D01*
X-200627Y62002D01*
X-200621Y62002D01*
X-200614Y62001D01*
X-200607Y62000D01*
X-200604Y62000D01*
X-200599Y62000D01*
X-200594Y61999D01*
X-200588Y61999D01*
X-200583Y61998D01*
X-200576Y61998D01*
X-200574Y61997D01*
X-200568Y61997D01*
X-200563Y61996D01*
X-200557Y61995D01*
X-200554Y61995D01*
X-200549Y61994D01*
X-200544Y61993D01*
X-200539Y61992D01*
X-200534Y61991D01*
X-200528Y61990D01*
X-200522Y61989D01*
X-200522Y61989D01*
X-200519Y61989D01*
X-200514Y61988D01*
X-200508Y61987D01*
X-200503Y61986D01*
X-200500Y61985D01*
X-200495Y61984D01*
X-200490Y61983D01*
X-200485Y61982D01*
X-200480Y61981D01*
X-200474Y61980D01*
X-200468Y61979D01*
Y61979D01*
X-200466Y61978D01*
X-200461Y61977D01*
X-200457Y61976D01*
X-200453Y61975D01*
X-200451Y61975D01*
X-200446Y61974D01*
X-200441Y61972D01*
X-200436Y61971D01*
X-200431Y61969D01*
X-200425Y61968D01*
X-200420Y61967D01*
X-200420Y61966D01*
X-200419Y61966D01*
X-200417Y61966D01*
X-200416Y61965D01*
X-200414Y61965D01*
X-200414Y61965D01*
X-200414Y61965D01*
X-200411Y61965D01*
X-200407Y61963D01*
X-200403Y61962D01*
X-200399Y61961D01*
X-200396Y61960D01*
X-200391Y61959D01*
X-200386Y61957D01*
X-200382Y61955D01*
X-200376Y61954D01*
X-200371Y61952D01*
X-200371D01*
Y61952D01*
X-200371Y61952D01*
X-200369Y61951D01*
X-200368Y61951D01*
X-200366Y61951D01*
X-200366Y61950D01*
Y61950D01*
X-200365Y61950D01*
X-200363Y61950D01*
X-200362Y61949D01*
X-200360Y61949D01*
X-200359Y61949D01*
X-200359D01*
X-200357Y61948D01*
X-200353Y61947D01*
X-200348Y61946D01*
X-200344Y61944D01*
X-200342Y61943D01*
X-200337Y61941D01*
X-200332Y61940D01*
X-200327Y61938D01*
X-200322Y61936D01*
X-200317Y61934D01*
X-200317D01*
X-200317Y61934D01*
X-200316Y61934D01*
X-200315Y61933D01*
X-200313Y61933D01*
X-200312Y61932D01*
X-200311Y61932D01*
X-200311Y61932D01*
X-200310Y61932D01*
X-200309Y61931D01*
X-200307Y61931D01*
X-200306Y61930D01*
X-200305Y61930D01*
X-200305Y61930D01*
X-200303Y61929D01*
X-200299Y61928D01*
X-200294Y61926D01*
X-200290Y61924D01*
X-200288Y61923D01*
X-200288Y61923D01*
X-200287Y61923D01*
X-200286Y61923D01*
X-200285Y61922D01*
X-200283Y61922D01*
X-200283Y61921D01*
X-200278Y61919D01*
X-200268Y61915D01*
X-200268D01*
X-200267Y61914D01*
X-200266Y61914D01*
X-200265Y61913D01*
X-200263Y61913D01*
X-200263Y61912D01*
Y61912D01*
X-200262Y61912D01*
X-200261Y61911D01*
X-200259Y61911D01*
X-200258Y61910D01*
X-200257Y61910D01*
X-200257Y61910D01*
X-200256Y61910D01*
X-200255Y61909D01*
X-200253Y61908D01*
X-200252Y61908D01*
X-200251Y61908D01*
Y61908D01*
X-200249Y61907D01*
X-200244Y61905D01*
X-200240Y61904D01*
X-200236Y61902D01*
X-200233Y61901D01*
X-200233Y61901D01*
X-200232Y61900D01*
X-200230Y61899D01*
X-200229Y61899D01*
X-200229Y61898D01*
X-200224Y61896D01*
X-200219Y61894D01*
X-200214Y61891D01*
X-200214Y61891D01*
X-200213Y61891D01*
X-200212Y61890D01*
X-200210Y61890D01*
X-200209Y61889D01*
X-200208Y61889D01*
X-200208Y61888D01*
X-200206Y61888D01*
X-200205Y61887D01*
X-200203Y61887D01*
X-200203Y61886D01*
Y61886D01*
X-200202Y61886D01*
X-200200Y61885D01*
X-200199Y61885D01*
X-200197Y61884D01*
X-200196Y61884D01*
X-200194Y61883D01*
X-200190Y61881D01*
X-200186Y61879D01*
X-200181Y61877D01*
X-200179Y61876D01*
X-200179Y61875D01*
X-200177Y61875D01*
X-200176Y61874D01*
X-200175Y61873D01*
X-200174Y61873D01*
X-200169Y61870D01*
X-200164Y61868D01*
X-200159Y61865D01*
Y61865D01*
X-200159Y61865D01*
X-200157Y61864D01*
X-200156Y61863D01*
X-200155Y61862D01*
X-200154Y61862D01*
Y61862D01*
X-200153Y61862D01*
X-200152Y61861D01*
X-200150Y61860D01*
X-200149Y61859D01*
X-200148Y61859D01*
X-200147Y61859D01*
X-200146Y61858D01*
X-200144Y61857D01*
X-200143Y61857D01*
X-200142Y61856D01*
Y61856D01*
X-200141Y61856D01*
X-200139Y61854D01*
X-200137Y61853D01*
X-200135Y61851D01*
X-200134Y61851D01*
X-200134Y61850D01*
X-200133Y61850D01*
X-200132Y61849D01*
X-200131Y61848D01*
X-200130Y61848D01*
X-200125Y61845D01*
X-200120Y61842D01*
X-200116Y61839D01*
X-200116D01*
X-200116Y61839D01*
X-200115Y61839D01*
X-200114Y61838D01*
X-200112Y61838D01*
X-200111Y61837D01*
X-200111Y61836D01*
Y61836D01*
X-200110Y61836D01*
X-200109Y61835D01*
X-200108Y61835D01*
X-200107Y61834D01*
X-200106Y61834D01*
X-200106Y61834D01*
Y61834D01*
X-200106Y61833D01*
X-200105Y61832D01*
X-200104Y61832D01*
X-200103Y61831D01*
X-200102Y61831D01*
Y61831D01*
X-200102Y61830D01*
X-200101Y61830D01*
X-200100Y61829D01*
X-200099Y61828D01*
X-200099Y61828D01*
Y61828D01*
X-200099D01*
X-200096Y61827D01*
X-200092Y61824D01*
X-200088Y61822D01*
X-200084Y61819D01*
X-200081Y61818D01*
Y61818D01*
X-200081Y61818D01*
X-200079Y61817D01*
X-200078Y61816D01*
X-200077Y61815D01*
X-200076Y61815D01*
X-200072Y61812D01*
X-200067Y61808D01*
X-200061Y61805D01*
X-200062D01*
X-200061Y61805D01*
X-200060Y61804D01*
X-200058Y61803D01*
X-200057Y61802D01*
X-200056Y61802D01*
Y61802D01*
X-200056Y61801D01*
X-200054Y61800D01*
X-200053Y61800D01*
X-200051Y61799D01*
X-200051Y61798D01*
Y61798D01*
X-200050Y61798D01*
X-200048Y61797D01*
X-200047Y61796D01*
X-200045Y61795D01*
X-200044Y61795D01*
X-200044Y61795D01*
X-200043Y61794D01*
X-200042Y61792D01*
X-200040Y61791D01*
X-200038Y61789D01*
X-200037Y61788D01*
X-200036Y61788D01*
X-200035Y61787D01*
X-200034Y61786D01*
X-200033Y61786D01*
X-200032Y61785D01*
X-200028Y61782D01*
X-200023Y61778D01*
X-200018Y61775D01*
Y61775D01*
X-200017Y61775D01*
X-200016Y61774D01*
X-200015Y61773D01*
X-200014Y61772D01*
X-200013Y61772D01*
X-200012Y61771D01*
X-200011Y61771D01*
X-200010Y61770D01*
X-200009Y61769D01*
X-200009Y61768D01*
X-200008Y61768D01*
X-200007Y61767D01*
X-200006Y61766D01*
X-200005Y61765D01*
X-200004Y61765D01*
X-200005Y61765D01*
X-200004Y61765D01*
X-200003Y61764D01*
X-200002Y61763D01*
X-200001Y61762D01*
X-200001Y61762D01*
X-200001Y61762D01*
X-200000Y61761D01*
X-199998Y61759D01*
X-199996Y61757D01*
X-199994Y61755D01*
X-199993Y61754D01*
X-199993Y61754D01*
X-199993Y61754D01*
X-199993Y61754D01*
X-199992Y61753D01*
X-199991Y61752D01*
X-199989Y61751D01*
X-199989Y61750D01*
X-199984Y61747D01*
X-199979Y61743D01*
X-199974Y61739D01*
X-199974Y61739D01*
X-199974Y61739D01*
X-199972Y61738D01*
X-199971Y61737D01*
X-199970Y61736D01*
X-199970Y61735D01*
X-199970Y61735D01*
X-199970Y61735D01*
X-199969Y61735D01*
X-199968Y61734D01*
X-199967Y61733D01*
X-199966Y61732D01*
X-199965Y61732D01*
X-199965D01*
X-199965Y61731D01*
X-199963Y61730D01*
X-199963Y61729D01*
X-199961Y61728D01*
X-199961Y61728D01*
X-199961Y61728D01*
X-199961Y61727D01*
X-199960Y61726D01*
X-199959Y61725D01*
X-199958Y61724D01*
X-199957Y61724D01*
X-199958D01*
X-199956Y61723D01*
X-199955Y61721D01*
X-199953Y61719D01*
X-199951Y61717D01*
X-199950Y61716D01*
X-199949Y61716D01*
X-199948Y61715D01*
X-199947Y61714D01*
X-199946Y61713D01*
X-199945Y61713D01*
X-199941Y61709D01*
X-199936Y61706D01*
X-199931Y61702D01*
Y61702D01*
X-199931Y61702D01*
X-199931Y61702D01*
X-199930Y61701D01*
X-199929Y61701D01*
X-199928Y61700D01*
X-199927Y61699D01*
X-199926Y61698D01*
X-199926Y61698D01*
X-199924Y61697D01*
X-199923Y61696D01*
X-199922Y61695D01*
X-199922Y61694D01*
Y61694D01*
X-199921Y61694D01*
X-199920Y61693D01*
X-199919Y61692D01*
X-199918Y61691D01*
X-199918Y61691D01*
X-199917Y61690D01*
X-199916Y61689D01*
X-199915Y61688D01*
X-199914Y61687D01*
X-199914Y61687D01*
X-199914Y61687D01*
X-199913Y61686D01*
X-199911Y61684D01*
X-199909Y61682D01*
X-199907Y61680D01*
X-199906Y61679D01*
Y61679D01*
X-199906Y61678D01*
X-199905Y61677D01*
X-199904Y61676D01*
X-199902Y61675D01*
X-199902Y61675D01*
X-199902D01*
X-199901Y61674D01*
X-199900Y61673D01*
X-199899Y61672D01*
X-199898Y61671D01*
X-199897Y61670D01*
X-199892Y61666D01*
X-199887Y61662D01*
X-199887D01*
X-199887Y61662D01*
X-199886Y61660D01*
X-199884Y61659D01*
X-199883Y61658D01*
X-199883Y61658D01*
X-199883Y61658D01*
X-199882Y61657D01*
X-199881Y61656D01*
X-199880Y61655D01*
X-199879Y61654D01*
X-199878Y61654D01*
X-199878D01*
X-199878Y61653D01*
X-199877Y61652D01*
X-199876Y61651D01*
X-199875Y61650D01*
X-199874Y61649D01*
X-199874Y61649D01*
X-199873Y61648D01*
X-199872Y61647D01*
X-199871Y61646D01*
X-199871Y61645D01*
X-199858Y61628D01*
X-199848Y61615D01*
X-199838Y61602D01*
X-199825Y61585D01*
X-199815Y61571D01*
X-199805Y61557D01*
X-199792Y61539D01*
X-199783Y61525D01*
X-199773Y61511D01*
X-199760Y61493D01*
X-199750Y61478D01*
X-199740Y61464D01*
Y61464D01*
X-199736Y61458D01*
X-199728Y61445D01*
X-199720Y61432D01*
X-199712Y61420D01*
X-199708Y61413D01*
X-199707Y61412D01*
X-199706Y61410D01*
X-199705Y61407D01*
X-199704Y61405D01*
X-199704Y61403D01*
X-199702Y61398D01*
X-199700Y61393D01*
X-199698Y61388D01*
X-199698Y61388D01*
X-199697Y61386D01*
X-199697Y61385D01*
X-199696Y61384D01*
X-199696Y61383D01*
X-199696Y61383D01*
X-199695Y61382D01*
X-199695Y61380D01*
X-199694Y61379D01*
X-199694Y61378D01*
X-199694Y61378D01*
X-199693Y61377D01*
X-199693Y61375D01*
X-199692Y61374D01*
X-199692Y61373D01*
X-199691Y61373D01*
X-199691Y61371D01*
X-199690Y61370D01*
X-199689Y61369D01*
X-199689Y61368D01*
X-199689Y61368D01*
X-199688Y61366D01*
X-199687Y61365D01*
X-199686Y61364D01*
X-199686Y61363D01*
X-199686Y61363D01*
X-199685Y61362D01*
X-199684Y61360D01*
X-199683Y61357D01*
X-199682Y61354D01*
X-199682Y61353D01*
X-199680Y61348D01*
X-199678Y61343D01*
X-199676Y61338D01*
X-199676D01*
Y61338D01*
X-199676Y61337D01*
X-199676Y61336D01*
X-199675Y61335D01*
X-199675Y61333D01*
X-199674Y61333D01*
X-199674Y61333D01*
X-199674Y61333D01*
X-199674Y61332D01*
X-199674Y61331D01*
X-199673Y61329D01*
X-199673Y61328D01*
X-199672Y61327D01*
X-199672Y61327D01*
X-199671Y61325D01*
X-199671Y61324D01*
X-199670Y61323D01*
X-199670Y61322D01*
X-199670Y61322D01*
X-199669Y61320D01*
X-199668Y61319D01*
X-199668Y61318D01*
X-199667Y61317D01*
X-199667Y61316D01*
X-199666Y61315D01*
X-199665Y61314D01*
X-199665Y61312D01*
X-199664Y61312D01*
X-199664Y61312D01*
X-199664Y61311D01*
X-199663Y61308D01*
X-199662Y61305D01*
X-199661Y61302D01*
X-199660Y61301D01*
X-199658Y61296D01*
X-199657Y61290D01*
X-199655Y61285D01*
X-199654Y61284D01*
X-199654Y61283D01*
X-199653Y61281D01*
X-199653Y61280D01*
X-199653Y61279D01*
X-199653Y61279D01*
Y61279D01*
Y61279D01*
X-199653Y61279D01*
X-199652Y61277D01*
X-199651Y61276D01*
X-199651Y61274D01*
X-199651Y61274D01*
X-199650Y61273D01*
X-199650Y61272D01*
X-199649Y61270D01*
X-199648Y61269D01*
X-199648Y61268D01*
X-199648D01*
X-199648Y61268D01*
X-199647Y61266D01*
X-199647Y61265D01*
X-199646Y61264D01*
X-199646Y61263D01*
X-199645Y61262D01*
X-199644Y61261D01*
X-199644Y61259D01*
X-199643Y61258D01*
X-199643Y61257D01*
X-199643Y61257D01*
X-199642Y61256D01*
X-199641Y61253D01*
X-199640Y61251D01*
X-199639Y61248D01*
X-199639Y61247D01*
X-199637Y61242D01*
X-199635Y61237D01*
X-199633Y61232D01*
X-199633D01*
X-199633Y61231D01*
X-199632Y61230D01*
X-199632Y61228D01*
X-199631Y61227D01*
X-199631Y61226D01*
X-199631Y61226D01*
X-199630Y61224D01*
X-199630Y61223D01*
X-199629Y61222D01*
X-199629Y61221D01*
X-199629D01*
X-199629Y61220D01*
X-199628Y61219D01*
X-199627Y61218D01*
X-199627Y61217D01*
X-199627Y61216D01*
X-199626Y61215D01*
X-199625Y61214D01*
X-199625Y61213D01*
X-199624Y61211D01*
X-199624Y61211D01*
X-199624D01*
X-199624Y61210D01*
X-199623Y61209D01*
X-199622Y61207D01*
X-199621Y61206D01*
X-199621Y61206D01*
X-199621D01*
X-199620Y61204D01*
X-199619Y61201D01*
X-199618Y61198D01*
X-199617Y61196D01*
X-199617Y61194D01*
X-199615Y61188D01*
X-199613Y61183D01*
X-199611Y61177D01*
X-199611Y61177D01*
X-199611Y61176D01*
X-199611Y61175D01*
X-199610Y61173D01*
X-199610Y61172D01*
X-199609Y61171D01*
X-199609Y61170D01*
X-199608Y61169D01*
X-199608Y61167D01*
X-199607Y61166D01*
X-199607Y61165D01*
X-199607D01*
X-199607Y61164D01*
X-199606Y61163D01*
X-199606Y61162D01*
X-199605Y61160D01*
X-199605Y61159D01*
Y61160D01*
X-199604Y61159D01*
X-199604Y61157D01*
X-199603Y61156D01*
X-199602Y61154D01*
X-199602Y61154D01*
X-199602Y61154D01*
X-199602Y61153D01*
X-199601Y61151D01*
X-199600Y61150D01*
X-199599Y61149D01*
X-199599Y61148D01*
X-199597Y61137D01*
X-199596Y61132D01*
X-199595Y61126D01*
X-199594Y61121D01*
X-199592Y61116D01*
X-199591Y61111D01*
X-199590Y61105D01*
X-199589Y61100D01*
X-199588Y61094D01*
X-199586Y61083D01*
X-199585Y61077D01*
X-199584Y61071D01*
X-199582Y61060D01*
X-199581Y61054D01*
X-199580Y61048D01*
X-199578Y61042D01*
X-199577Y61036D01*
X-199577D01*
X-199577Y61035D01*
X-199577Y61032D01*
X-199576Y61029D01*
X-199576Y61026D01*
X-199576Y61025D01*
X-199575Y61019D01*
X-199575Y61013D01*
X-199574Y61007D01*
X-199573Y61002D01*
X-199573Y60996D01*
X-199572Y60990D01*
X-199572D01*
X-199572Y60990D01*
X-199572Y60989D01*
X-199572Y60988D01*
X-199571Y60986D01*
X-199571Y60985D01*
X-199571Y60984D01*
X-199571Y60984D01*
X-199571Y60984D01*
X-199571Y60982D01*
X-199571Y60981D01*
X-199570Y60979D01*
X-199570Y60978D01*
X-199570Y60978D01*
X-199569Y60972D01*
X-199568Y60958D01*
X-199568Y60944D01*
X-199567Y60931D01*
X-199566Y60924D01*
X-199566Y60917D01*
X-199565Y60904D01*
X-199565Y60891D01*
X-199564Y60878D01*
X-199564Y60871D01*
X-199564Y60858D01*
Y55119D01*
X-199561Y55021D01*
X-199589Y54825D01*
X-199650Y54637D01*
X-199742Y54463D01*
X-199802Y54385D01*
X-199857Y54318D01*
X-199986Y54203D01*
X-200131Y54109D01*
X-200289Y54039D01*
X-200372Y54017D01*
Y54017D01*
X-200496Y53982D01*
X-200754Y53965D01*
X-201010Y54001D01*
X-201254Y54088D01*
X-201364Y54155D01*
Y54155D01*
X-201364Y54155D01*
X-201484Y54233D01*
X-201675Y54444D01*
X-201806Y54698D01*
X-201866Y54977D01*
X-201860Y55119D01*
X-201860Y55119D01*
Y59710D01*
X-205303D01*
Y55119D01*
X-205298Y55019D01*
X-205322Y54820D01*
X-205381Y54629D01*
X-205472Y54450D01*
X-205532Y54370D01*
X-205587Y54302D01*
X-205716Y54184D01*
X-205862Y54089D01*
X-206021Y54018D01*
X-206106Y53995D01*
Y53995D01*
X-206232Y53960D01*
X-206493Y53942D01*
X-206752Y53978D01*
X-206999Y54067D01*
X-207110Y54136D01*
X-207231Y54215D01*
X-207423Y54432D01*
X-207552Y54691D01*
X-207608Y54975D01*
X-207598Y55119D01*
X-207598Y59710D01*
X-211042D01*
Y55119D01*
X-211042D01*
X-211034Y54889D01*
X-211204Y54461D01*
X-211531Y54136D01*
X-211960Y53969D01*
X-212190Y53978D01*
X-212276Y53978D01*
X-212445Y54001D01*
X-212610Y54047D01*
X-212767Y54116D01*
X-212840Y54161D01*
X-212959Y54238D01*
X-213150Y54448D01*
X-213281Y54700D01*
X-213343Y54977D01*
X-213338Y55119D01*
Y60673D01*
X-213338D01*
X-213338Y60678D01*
X-213340Y60688D01*
X-213341Y60698D01*
X-213342Y60708D01*
X-213343Y60713D01*
X-213343Y60715D01*
X-213344Y60721D01*
X-213344Y60726D01*
X-213345Y60731D01*
X-213345Y60733D01*
X-213345D01*
X-213345Y60736D01*
X-213345Y60741D01*
X-213346Y60746D01*
X-213346Y60751D01*
X-213346Y60753D01*
Y60753D01*
X-213346Y60756D01*
X-213347Y60761D01*
X-213347Y60766D01*
X-213347Y60771D01*
X-213347Y60774D01*
X-213348Y60794D01*
X-213348Y60814D01*
X-213348Y60835D01*
X-213348Y60855D01*
Y60875D01*
X-213349D01*
X-213349Y60875D01*
X-213345Y61104D01*
X-213164Y61522D01*
X-212837Y61840D01*
X-212413Y62009D01*
X-212185Y62006D01*
D02*
G37*
G36*
X-178628Y61137D02*
X-178628D01*
Y61137D01*
X-178628Y61137D01*
D02*
G37*
G36*
X-178113Y60562D02*
Y60562D01*
X-178113Y60562D01*
X-178113Y60562D01*
D02*
G37*
G36*
X-190445Y61283D02*
X-179186D01*
X-179181Y61283D01*
X-179179Y61283D01*
X-179177Y61283D01*
X-179175Y61282D01*
X-179173Y61282D01*
X-179165Y61282D01*
X-179153Y61282D01*
Y61282D01*
Y61282D01*
X-179151Y61282D01*
X-179147Y61281D01*
X-179143Y61281D01*
X-179139Y61281D01*
X-179137Y61281D01*
X-179133Y61281D01*
X-179128Y61280D01*
X-179122Y61280D01*
X-179117Y61280D01*
X-179110Y61279D01*
X-179110D01*
X-179107Y61279D01*
X-179100Y61279D01*
X-179093Y61278D01*
X-179087Y61278D01*
X-179083Y61277D01*
X-179078Y61277D01*
X-179073Y61276D01*
X-179068Y61276D01*
X-179062Y61275D01*
X-179056Y61275D01*
X-179056D01*
Y61275D01*
X-179053Y61274D01*
X-179048Y61274D01*
X-179042Y61273D01*
X-179037Y61272D01*
X-179034Y61272D01*
X-179029Y61271D01*
X-179024Y61270D01*
X-179019Y61269D01*
X-179014Y61268D01*
X-179008Y61267D01*
X-179002Y61266D01*
X-178999Y61266D01*
X-178993Y61265D01*
X-178988Y61264D01*
X-178982Y61263D01*
X-178979Y61262D01*
X-178975Y61261D01*
X-178970Y61260D01*
X-178965Y61259D01*
X-178959Y61258D01*
X-178954Y61257D01*
X-178947Y61256D01*
X-178948Y61256D01*
X-178945Y61255D01*
X-178941Y61255D01*
X-178937Y61253D01*
X-178932Y61252D01*
X-178930Y61252D01*
Y61252D01*
X-178925Y61251D01*
X-178920Y61249D01*
X-178915Y61248D01*
X-178910Y61246D01*
X-178905Y61245D01*
X-178899Y61243D01*
X-178899Y61243D01*
X-178897Y61242D01*
X-178895Y61242D01*
X-178894Y61242D01*
X-178893Y61241D01*
X-178891Y61241D01*
X-178887Y61240D01*
X-178882Y61239D01*
X-178878Y61238D01*
X-178876Y61237D01*
X-178871Y61235D01*
X-178866Y61234D01*
X-178861Y61232D01*
X-178856Y61231D01*
X-178851Y61229D01*
X-178845Y61227D01*
X-178844Y61227D01*
X-178843Y61227D01*
X-178841Y61226D01*
X-178840Y61226D01*
X-178839Y61226D01*
Y61226D01*
X-178839D01*
X-178837Y61225D01*
X-178832Y61224D01*
X-178828Y61223D01*
X-178824Y61221D01*
X-178822Y61220D01*
X-178821Y61220D01*
X-178820Y61220D01*
X-178818Y61219D01*
X-178817Y61219D01*
X-178817Y61218D01*
X-178812Y61216D01*
X-178807Y61214D01*
X-178802Y61213D01*
X-178796Y61210D01*
X-178796Y61210D01*
X-178794Y61210D01*
X-178793Y61209D01*
X-178792Y61209D01*
X-178791Y61209D01*
X-178790Y61208D01*
X-178788Y61208D01*
X-178787Y61207D01*
X-178785Y61207D01*
X-178785Y61206D01*
X-178782Y61206D01*
X-178778Y61204D01*
X-178774Y61203D01*
X-178769Y61201D01*
X-178767Y61200D01*
X-178767Y61200D01*
X-178766Y61199D01*
X-178764Y61199D01*
X-178763Y61198D01*
X-178762Y61198D01*
X-178757Y61196D01*
X-178752Y61194D01*
X-178747Y61192D01*
X-178747Y61191D01*
X-178745Y61191D01*
X-178744Y61190D01*
X-178743Y61190D01*
X-178742Y61189D01*
X-178741Y61189D01*
X-178740Y61189D01*
X-178739Y61188D01*
X-178737Y61188D01*
X-178736Y61187D01*
X-178736D01*
X-178736Y61187D01*
X-178734Y61186D01*
X-178733Y61186D01*
X-178731Y61185D01*
X-178730Y61185D01*
Y61185D01*
X-178728Y61184D01*
X-178724Y61182D01*
X-178719Y61181D01*
X-178715Y61178D01*
X-178713Y61178D01*
X-178713Y61178D01*
X-178712Y61177D01*
X-178711Y61177D01*
X-178710Y61176D01*
X-178709Y61175D01*
X-178708Y61175D01*
X-178703Y61172D01*
X-178698Y61170D01*
X-178693Y61167D01*
X-178693D01*
X-178692Y61167D01*
X-178691Y61166D01*
X-178690Y61166D01*
X-178689Y61165D01*
X-178688Y61165D01*
X-178687Y61164D01*
X-178686Y61164D01*
X-178684Y61163D01*
X-178683Y61162D01*
X-178682Y61162D01*
Y61162D01*
X-178681Y61162D01*
X-178680Y61161D01*
X-178678Y61160D01*
X-178677Y61160D01*
X-178676Y61159D01*
X-178674Y61159D01*
X-178669Y61157D01*
X-178665Y61155D01*
X-178661Y61153D01*
X-178659Y61152D01*
X-178659Y61152D01*
X-178658Y61152D01*
X-178657Y61151D01*
X-178656Y61150D01*
X-178654Y61150D01*
X-178654Y61150D01*
X-178649Y61147D01*
X-178644Y61144D01*
X-178639Y61142D01*
X-178638Y61142D01*
X-178637Y61141D01*
X-178636Y61140D01*
X-178634Y61140D01*
X-178633Y61139D01*
X-178634Y61139D01*
X-178633Y61139D01*
X-178631Y61138D01*
X-178630Y61138D01*
X-178629Y61137D01*
X-178628Y61137D01*
Y61137D01*
X-178627Y61136D01*
X-178626Y61136D01*
X-178624Y61135D01*
X-178622Y61134D01*
X-178622Y61134D01*
X-178622D01*
X-178619Y61133D01*
X-178615Y61131D01*
X-178611Y61129D01*
X-178606Y61126D01*
X-178604Y61125D01*
X-178604Y61125D01*
X-178604Y61125D01*
X-178603Y61124D01*
X-178601Y61123D01*
X-178600Y61122D01*
X-178599Y61122D01*
X-178594Y61119D01*
X-178590Y61116D01*
X-178584Y61113D01*
Y61113D01*
X-178584Y61112D01*
X-178583Y61112D01*
X-178581Y61111D01*
X-178580Y61110D01*
X-178579Y61110D01*
X-178578Y61109D01*
X-178577Y61108D01*
X-178576Y61108D01*
X-178574Y61107D01*
X-178573Y61106D01*
X-178573Y61106D01*
X-178571Y61105D01*
X-178570Y61104D01*
X-178568Y61104D01*
X-178567Y61103D01*
Y61103D01*
X-178566Y61102D01*
X-178565Y61101D01*
X-178563Y61099D01*
X-178561Y61098D01*
X-178560Y61097D01*
X-178559Y61097D01*
X-178558Y61096D01*
X-178557Y61095D01*
X-178556Y61094D01*
X-178555Y61094D01*
X-178550Y61091D01*
X-178546Y61088D01*
X-178541Y61085D01*
X-178541D01*
X-178540Y61084D01*
X-178539Y61083D01*
X-178538Y61083D01*
X-178537Y61082D01*
X-178536Y61082D01*
Y61082D01*
X-178535Y61081D01*
X-178534Y61080D01*
X-178533Y61080D01*
X-178532Y61079D01*
X-178531Y61078D01*
X-178531Y61078D01*
X-178530Y61077D01*
X-178529Y61076D01*
X-178528Y61076D01*
X-178527Y61075D01*
X-178528D01*
X-178527Y61075D01*
X-178526Y61074D01*
X-178525Y61073D01*
X-178524Y61072D01*
X-178524Y61072D01*
X-178523Y61071D01*
X-178521Y61069D01*
X-178519Y61068D01*
X-178517Y61066D01*
X-178516Y61065D01*
X-178516D01*
X-178516Y61065D01*
X-178515Y61064D01*
X-178514Y61063D01*
X-178512Y61062D01*
X-178512Y61062D01*
X-178507Y61059D01*
X-178502Y61055D01*
X-178497Y61052D01*
Y61052D01*
X-178497Y61051D01*
X-178496Y61051D01*
X-178494Y61050D01*
X-178493Y61049D01*
X-178493Y61048D01*
X-178493D01*
X-178493Y61048D01*
X-178492Y61048D01*
X-178491Y61047D01*
X-178490Y61046D01*
X-178489Y61045D01*
X-178488Y61045D01*
X-178488Y61045D01*
X-178488Y61044D01*
X-178486Y61044D01*
X-178486Y61043D01*
X-178484Y61042D01*
X-178484Y61041D01*
X-178484D01*
X-178484Y61041D01*
X-178484Y61041D01*
X-178483Y61040D01*
X-178482Y61039D01*
X-178481Y61038D01*
X-178480Y61038D01*
X-178480D01*
X-178479Y61037D01*
X-178478Y61035D01*
X-178476Y61033D01*
X-178474Y61032D01*
X-178473Y61031D01*
X-178473Y61031D01*
X-178472Y61030D01*
X-178471Y61029D01*
X-178470Y61028D01*
X-178469Y61028D01*
X-178468Y61027D01*
X-178464Y61024D01*
X-178459Y61020D01*
X-178454Y61016D01*
X-178454Y61016D01*
X-178453Y61016D01*
X-178452Y61015D01*
X-178451Y61014D01*
X-178450Y61013D01*
X-178449Y61013D01*
X-178449Y61012D01*
X-178447Y61011D01*
X-178446Y61010D01*
X-178445Y61009D01*
X-178445Y61009D01*
X-178445D01*
X-178444Y61009D01*
X-178443Y61008D01*
X-178442Y61007D01*
X-178441Y61006D01*
X-178441Y61005D01*
Y61005D01*
X-178440Y61005D01*
X-178439Y61004D01*
X-178438Y61003D01*
X-178437Y61002D01*
X-178437Y61002D01*
X-178437Y61002D01*
X-178436Y61000D01*
X-178434Y60999D01*
X-178432Y60997D01*
X-178430Y60995D01*
X-178429Y60994D01*
X-178429D01*
X-178429Y60993D01*
X-178428Y60992D01*
X-178427Y60991D01*
X-178426Y60990D01*
X-178425Y60990D01*
X-178425Y60990D01*
X-178424Y60989D01*
X-178423Y60988D01*
X-178422Y60988D01*
X-178421Y60986D01*
X-178420Y60986D01*
X-178415Y60982D01*
X-178410Y60978D01*
X-178410D01*
X-178410Y60978D01*
X-178410Y60978D01*
X-178409Y60977D01*
X-178407Y60976D01*
X-178406Y60975D01*
X-178406Y60974D01*
X-178405Y60974D01*
X-178404Y60973D01*
X-178403Y60972D01*
X-178402Y60971D01*
X-178401Y60970D01*
X-178401D01*
X-178401Y60970D01*
X-178400Y60969D01*
X-178399Y60968D01*
X-178398Y60967D01*
X-178397Y60966D01*
Y60966D01*
X-178397Y60966D01*
X-178396Y60965D01*
X-178395Y60964D01*
X-178394Y60963D01*
X-178393Y60962D01*
X-178394Y60962D01*
X-178393Y60961D01*
X-178391Y60959D01*
X-178389Y60957D01*
X-178387Y60955D01*
X-178386Y60954D01*
X-178386Y60954D01*
X-178385Y60954D01*
X-178384Y60953D01*
X-178383Y60952D01*
X-178382Y60951D01*
X-178381Y60950D01*
X-178377Y60946D01*
X-178372Y60942D01*
X-178367Y60938D01*
X-178366Y60938D01*
X-178365Y60937D01*
X-178364Y60936D01*
X-178363Y60935D01*
X-178362Y60934D01*
X-178362D01*
X-178362Y60934D01*
X-178361Y60933D01*
X-178359Y60932D01*
X-178358Y60931D01*
X-178358Y60930D01*
Y60930D01*
X-178357Y60930D01*
X-178356Y60929D01*
X-178355Y60928D01*
X-178354Y60927D01*
X-178354Y60926D01*
X-178354D01*
X-178353Y60926D01*
X-178352Y60925D01*
X-178351Y60924D01*
X-178351Y60922D01*
X-178350Y60922D01*
X-178350D01*
X-178349Y60921D01*
X-178347Y60919D01*
X-178346Y60917D01*
X-178344Y60914D01*
X-178342Y60914D01*
X-178342Y60913D01*
X-178342Y60913D01*
X-178341Y60912D01*
X-178340Y60911D01*
X-178339Y60910D01*
X-178338Y60909D01*
X-178338D01*
X-178337Y60909D01*
X-178336Y60908D01*
X-178335Y60906D01*
X-178334Y60905D01*
X-178333Y60905D01*
X-178328Y60901D01*
X-178323Y60896D01*
X-178323Y60896D01*
X-178323Y60896D01*
X-178322Y60894D01*
X-178321Y60893D01*
X-178319Y60892D01*
X-178319Y60892D01*
X-178319Y60892D01*
X-178318Y60891D01*
X-178317Y60890D01*
X-178316Y60889D01*
X-178315Y60888D01*
X-178314Y60887D01*
X-178314Y60887D01*
X-178313Y60886D01*
X-178312Y60884D01*
X-178311Y60883D01*
X-178310Y60883D01*
X-178310Y60882D01*
X-178309Y60881D01*
X-178308Y60880D01*
X-178307Y60879D01*
X-178307Y60878D01*
X-178294Y60861D01*
X-178284Y60848D01*
X-178274Y60835D01*
X-178261Y60816D01*
X-178251Y60802D01*
X-178242Y60788D01*
X-178228Y60769D01*
X-178219Y60755D01*
X-178209Y60740D01*
X-178196Y60721D01*
X-178186Y60707D01*
X-178176Y60692D01*
X-178163Y60671D01*
X-178153Y60655D01*
X-178144Y60640D01*
Y60640D01*
X-178143Y60638D01*
X-178142Y60636D01*
X-178141Y60633D01*
X-178140Y60631D01*
X-178140Y60629D01*
X-178138Y60624D01*
X-178136Y60619D01*
X-178134Y60614D01*
X-178134D01*
X-178134Y60614D01*
X-178134Y60613D01*
X-178134Y60612D01*
X-178133Y60611D01*
X-178132Y60610D01*
X-178132Y60609D01*
X-178132Y60609D01*
X-178132Y60608D01*
X-178132Y60607D01*
X-178131Y60606D01*
X-178130Y60605D01*
X-178130Y60604D01*
X-178130Y60604D01*
X-178130Y60603D01*
X-178129Y60602D01*
X-178129Y60601D01*
X-178128Y60599D01*
X-178128Y60599D01*
X-178128Y60599D01*
X-178127Y60598D01*
X-178127Y60597D01*
X-178126Y60596D01*
X-178125Y60594D01*
X-178125Y60594D01*
X-178125Y60594D01*
X-178125Y60593D01*
X-178124Y60592D01*
X-178123Y60591D01*
X-178122Y60589D01*
X-178122Y60589D01*
X-178121Y60587D01*
X-178120Y60585D01*
X-178120Y60582D01*
X-178118Y60579D01*
X-178118Y60578D01*
X-178116Y60573D01*
X-178114Y60567D01*
X-178113Y60562D01*
X-178113Y60562D01*
X-178112Y60561D01*
X-178112Y60560D01*
X-178111Y60559D01*
X-178111Y60557D01*
X-178111Y60557D01*
X-178111Y60557D01*
X-178110Y60556D01*
X-178110Y60554D01*
X-178109Y60553D01*
X-178109Y60552D01*
X-178108Y60551D01*
X-178108Y60551D01*
X-178108Y60550D01*
X-178108Y60549D01*
X-178107Y60548D01*
X-178106Y60546D01*
X-178106Y60546D01*
X-178106Y60545D01*
X-178105Y60544D01*
X-178104Y60542D01*
X-178104Y60541D01*
X-178103Y60540D01*
X-178103Y60540D01*
X-178102Y60538D01*
X-178102Y60537D01*
X-178101Y60535D01*
X-178100Y60535D01*
Y60535D01*
X-178100Y60533D01*
X-178099Y60531D01*
X-178098Y60528D01*
X-178097Y60525D01*
X-178096Y60524D01*
X-178095Y60518D01*
X-178093Y60513D01*
X-178091Y60507D01*
X-178091Y60506D01*
X-178090Y60505D01*
X-178090Y60504D01*
X-178089Y60502D01*
X-178089Y60501D01*
X-178089Y60501D01*
X-178089D01*
X-178089Y60501D01*
X-178088Y60499D01*
X-178088Y60498D01*
X-178087Y60497D01*
X-178087Y60496D01*
X-178086Y60495D01*
X-178086Y60494D01*
X-178085Y60492D01*
X-178085Y60491D01*
X-178084Y60490D01*
X-178084Y60490D01*
X-178083Y60488D01*
X-178083Y60487D01*
X-178082Y60485D01*
X-178082Y60485D01*
X-178082Y60485D01*
X-178081Y60484D01*
X-178081Y60483D01*
X-178080Y60481D01*
X-178079Y60480D01*
X-178079Y60479D01*
X-178076Y60469D01*
X-178075Y60463D01*
X-178074Y60458D01*
X-178073Y60453D01*
X-178072Y60448D01*
X-178071Y60442D01*
X-178070Y60437D01*
X-178069Y60432D01*
X-178068Y60426D01*
X-178066Y60415D01*
X-178064Y60409D01*
X-178063Y60402D01*
X-178062Y60396D01*
X-178061Y60391D01*
X-178060Y60384D01*
X-178059Y60378D01*
X-178058Y60372D01*
X-178057Y60367D01*
X-178055Y60356D01*
X-178054Y60351D01*
X-178053Y60346D01*
X-178051Y60341D01*
X-178050Y60335D01*
X-178049Y60330D01*
X-178048Y60325D01*
X-178047Y60320D01*
X-178046Y60315D01*
X-178046Y60315D01*
X-178046Y60313D01*
X-178045Y60310D01*
X-178045Y60307D01*
X-178045Y60304D01*
X-178044Y60303D01*
X-178044Y60297D01*
X-178043Y60291D01*
X-178043Y60285D01*
X-178042Y60279D01*
X-178041Y60273D01*
X-178041Y60267D01*
X-178041Y60267D01*
X-178041Y60266D01*
X-178040Y60265D01*
X-178040Y60263D01*
X-178040Y60262D01*
X-178040Y60261D01*
X-178040Y60260D01*
X-178039Y60258D01*
X-178039Y60257D01*
X-178039Y60255D01*
X-178039Y60255D01*
X-178039Y60255D01*
X-178038Y60248D01*
X-178037Y60234D01*
X-178036Y60220D01*
X-178035Y60206D01*
X-178035Y60198D01*
X-178035Y60198D01*
Y60198D01*
X-178035Y60192D01*
X-178034Y60179D01*
X-178034Y60167D01*
X-178033Y60154D01*
X-178033Y60147D01*
X-178033Y60135D01*
Y57265D01*
X-178034Y56735D01*
X-178242Y55695D01*
X-178645Y54714D01*
X-179230Y53828D01*
X-179973Y53072D01*
X-180848Y52472D01*
X-181822Y52052D01*
X-182858Y51827D01*
X-183389Y51816D01*
X-183389D01*
X-183401Y51815D01*
X-183425Y51814D01*
X-183450Y51813D01*
X-183474Y51813D01*
X-183486Y51813D01*
X-186356D01*
X-186886Y51815D01*
X-187926Y52022D01*
X-188907Y52425D01*
X-189792Y53009D01*
X-190548Y53753D01*
X-191148Y54627D01*
X-191568Y55601D01*
X-191794Y56637D01*
X-191805Y57167D01*
X-191805Y57177D01*
X-191806Y57197D01*
X-191807Y57216D01*
X-191807Y57236D01*
X-191807Y57246D01*
X-191807Y57265D01*
Y59946D01*
X-191814Y59987D01*
X-191817Y60007D01*
X-191820Y60028D01*
X-191822Y60048D01*
X-191824Y60069D01*
X-191825Y60072D01*
X-191825Y60077D01*
X-191826Y60082D01*
X-191826Y60087D01*
X-191826Y60090D01*
X-191826Y60092D01*
X-191827Y60097D01*
X-191827Y60103D01*
X-191828Y60108D01*
X-191828Y60110D01*
X-191828Y60113D01*
X-191828Y60118D01*
X-191828Y60123D01*
X-191829Y60128D01*
X-191829Y60131D01*
X-191829Y60134D01*
X-191829Y60139D01*
X-191829Y60144D01*
X-191829Y60149D01*
Y60152D01*
X-191828Y60152D01*
X-191827Y60244D01*
X-191795Y60426D01*
X-191734Y60599D01*
X-191646Y60761D01*
X-191589Y60834D01*
X-191493Y60966D01*
X-191234Y61165D01*
X-190930Y61284D01*
X-190605Y61314D01*
X-190445Y61283D01*
D02*
G37*
G36*
X-206145Y48725D02*
X-205899Y48636D01*
X-205788Y48567D01*
X-205788Y48567D01*
X-205667Y48488D01*
X-205474Y48271D01*
X-205346Y48012D01*
X-205289Y47728D01*
X-205299Y47584D01*
X-205299D01*
Y34071D01*
X-200232Y29004D01*
X-170197Y29004D01*
X-170095Y29601D01*
X-169685Y30740D01*
X-169084Y31790D01*
X-168310Y32721D01*
X-167385Y33502D01*
X-166339Y34111D01*
X-165202Y34528D01*
X-164011Y34742D01*
X-163406Y34743D01*
Y34743D01*
X-162954Y34742D01*
X-162060Y34623D01*
X-161189Y34388D01*
X-160356Y34042D01*
X-159574Y33590D01*
X-158859Y33041D01*
X-158221Y32403D01*
X-157671Y31687D01*
X-157219Y30906D01*
X-156873Y30073D01*
X-156638Y29202D01*
X-156518Y28308D01*
X-156517Y27887D01*
X-156517Y27857D01*
X-156517Y27783D01*
X-156518Y27406D01*
X-156638Y26511D01*
X-156873Y25640D01*
X-157219Y24807D01*
X-157671Y24026D01*
X-158221Y23310D01*
X-158859Y22673D01*
X-159574Y22123D01*
X-160355Y21672D01*
X-161189Y21325D01*
X-162060Y21091D01*
X-162954Y20971D01*
X-163405Y20970D01*
X-163405Y20970D01*
X-164010Y20972D01*
X-165202Y21185D01*
X-166338Y21602D01*
X-167385Y22211D01*
X-168309Y22992D01*
X-169084Y23922D01*
X-169685Y24973D01*
X-170095Y26112D01*
X-170197Y26709D01*
Y26709D01*
X-170197Y26709D01*
X-200562D01*
X-200632Y26700D01*
X-200771Y26701D01*
X-200910Y26718D01*
X-201045Y26752D01*
X-201110Y26777D01*
X-201188Y26805D01*
X-201334Y26882D01*
X-201467Y26980D01*
X-201585Y27095D01*
X-201635Y27161D01*
Y27161D01*
X-207115Y32641D01*
X-207190Y32694D01*
X-207320Y32824D01*
X-207427Y32971D01*
X-207510Y33135D01*
X-207538Y33222D01*
X-207554Y33268D01*
X-207579Y33363D01*
X-207595Y33460D01*
X-207603Y33558D01*
X-207603Y33607D01*
X-207605Y33607D01*
X-207605Y33619D01*
X-207605Y33642D01*
X-207604Y33665D01*
X-207602Y33688D01*
X-207602Y33700D01*
X-207602Y33700D01*
X-207601Y33707D01*
X-207599Y33723D01*
X-207598Y33738D01*
X-207596Y33753D01*
X-207595Y33761D01*
X-207595D01*
Y47584D01*
X-207600Y47684D01*
X-207575Y47883D01*
X-207517Y48074D01*
X-207426Y48253D01*
X-207365Y48333D01*
Y48333D01*
X-207311Y48401D01*
X-207182Y48519D01*
X-207036Y48614D01*
X-206876Y48685D01*
X-206792Y48708D01*
X-206792Y48708D01*
X-206666Y48743D01*
X-206405Y48761D01*
X-206145Y48725D01*
D02*
G37*
G36*
X-178907Y48371D02*
X-178812Y48342D01*
Y48342D01*
X-178729Y48315D01*
X-178575Y48235D01*
X-178435Y48132D01*
X-178313Y48008D01*
X-178263Y47937D01*
Y47937D01*
X-178186Y47832D01*
X-178078Y47595D01*
X-178021Y47341D01*
X-178018Y47081D01*
X-178043Y46953D01*
X-178074Y46813D01*
X-178208Y46558D01*
X-178403Y46346D01*
X-178646Y46193D01*
X-178784Y46150D01*
X-181626Y45085D01*
Y40757D01*
X-178784Y39691D01*
Y39691D01*
X-178689Y39661D01*
X-178512Y39567D01*
X-178354Y39445D01*
X-178220Y39297D01*
X-178167Y39213D01*
X-178122Y39138D01*
X-178058Y38976D01*
X-178020Y38806D01*
X-178010Y38632D01*
X-178018Y38545D01*
X-178029Y38415D01*
X-178104Y38165D01*
X-178229Y37936D01*
X-178398Y37737D01*
X-178501Y37657D01*
X-178501Y37657D01*
X-178617Y37571D01*
X-178886Y37467D01*
X-179173Y37437D01*
X-179458Y37483D01*
X-179590Y37542D01*
X-190934Y41796D01*
Y41796D01*
X-190934D01*
X-191107Y41836D01*
X-191413Y42016D01*
X-191651Y42280D01*
X-191797Y42604D01*
X-191818Y42780D01*
X-191818Y42783D01*
X-191818Y42784D01*
X-191819Y42785D01*
X-191819Y42786D01*
X-191819Y42787D01*
X-191819Y42789D01*
X-191819Y42790D01*
X-191819Y42791D01*
X-191819Y42792D01*
X-191821Y42807D01*
X-191822Y42814D01*
X-191823Y42821D01*
X-191824Y42828D01*
X-191825Y42836D01*
X-191825Y42836D01*
X-191825Y42837D01*
X-191825Y42839D01*
X-191825Y42840D01*
X-191825Y42842D01*
X-191825Y42843D01*
X-191825D01*
X-191826Y42844D01*
X-191826Y42846D01*
X-191826Y42848D01*
X-191826Y42850D01*
X-191826Y42850D01*
X-191826Y42852D01*
X-191826Y42853D01*
X-191826Y42855D01*
X-191826Y42857D01*
X-191826Y42858D01*
X-191826Y42859D01*
X-191826Y42861D01*
X-191826Y42863D01*
Y42864D01*
X-191826Y42865D01*
X-191826Y42868D01*
Y42870D01*
X-191826Y42871D01*
Y42873D01*
X-191826Y42874D01*
Y42876D01*
X-191826Y42877D01*
Y42881D01*
X-191828Y42896D01*
X-191827Y42897D01*
X-191827D01*
X-191827Y42901D01*
X-191827Y42910D01*
X-191827Y42919D01*
X-191827Y42928D01*
X-191827Y42932D01*
X-191827Y42936D01*
X-191826Y42943D01*
X-191826Y42950D01*
X-191826Y42958D01*
X-191826Y42961D01*
X-191825Y42968D01*
X-191825Y42971D01*
X-191825Y42973D01*
X-191825Y42974D01*
X-191825Y42976D01*
X-191825Y42977D01*
X-191825Y42978D01*
X-191825Y42980D01*
X-191825Y42981D01*
X-191825Y42983D01*
X-191816Y43169D01*
X-191681Y43518D01*
X-191441Y43805D01*
X-191122Y44001D01*
X-190940Y44044D01*
X-179590Y48300D01*
X-179498Y48339D01*
X-179304Y48384D01*
X-179105Y48395D01*
X-178907Y48371D01*
D02*
G37*
G36*
X-108221Y-17914D02*
X-108054Y-17970D01*
X-107888Y-18137D01*
X-107610Y-18526D01*
X-107388Y-18859D01*
X-107276Y-18970D01*
Y-19025D01*
X-106999Y-19692D01*
X-106777Y-20359D01*
X-106610Y-21025D01*
X-106443Y-21581D01*
X-106388Y-22081D01*
X-106332Y-22414D01*
X-106277Y-22692D01*
Y-22747D01*
X-106221Y-23469D01*
X-106277Y-24081D01*
X-106332Y-24636D01*
X-106388Y-25080D01*
X-106499Y-25469D01*
X-106610Y-25747D01*
X-106665Y-25914D01*
Y-25969D01*
X-106777Y-26191D01*
X-106832Y-26358D01*
X-106888Y-26469D01*
Y-26525D01*
X-106999Y-26802D01*
Y-26858D01*
X-106943D01*
X-106832Y-26802D01*
X-106554Y-26691D01*
X-106110Y-26525D01*
X-105666Y-26358D01*
X-105166Y-26136D01*
X-104777Y-25969D01*
X-104499Y-25858D01*
X-104444Y-25803D01*
X-104388D01*
X-103499Y-25414D01*
X-102666Y-25080D01*
X-101888Y-24803D01*
X-101222Y-24525D01*
X-100666Y-24303D01*
X-100277Y-24136D01*
X-100000Y-24025D01*
X-99888Y-23969D01*
X-99166Y-23636D01*
X-98444Y-23358D01*
X-97833Y-23136D01*
X-97278Y-22970D01*
X-96833Y-22803D01*
X-96500Y-22692D01*
X-96278Y-22636D01*
X-96222D01*
X-95000Y-22414D01*
X-94445Y-22303D01*
X-93945Y-22247D01*
X-93500D01*
X-93111Y-22192D01*
X-92889D01*
X-92834D01*
X-92278D01*
X-91778Y-22136D01*
X-91334D01*
X-90945Y-22192D01*
X-90667D01*
X-90445Y-22247D01*
X-90334D01*
X-90278D01*
X-89501Y-22414D01*
X-88778Y-22692D01*
X-88501Y-22803D01*
X-88279Y-22858D01*
X-88167Y-22970D01*
X-88112D01*
X-87501Y-23358D01*
X-86945Y-23803D01*
X-86445Y-24247D01*
X-86056Y-24692D01*
X-85723Y-25136D01*
X-85501Y-25469D01*
X-85334Y-25691D01*
X-85279Y-25747D01*
X-84890Y-26469D01*
X-84612Y-27191D01*
X-84334Y-27913D01*
X-84168Y-28580D01*
X-84057Y-29191D01*
X-83946Y-29635D01*
X-83890Y-29969D01*
Y-30080D01*
X-83834Y-30302D01*
Y-30524D01*
X-83779Y-30746D01*
X-83723Y-30913D01*
X-83557Y-31024D01*
X-83335Y-31191D01*
X-83168Y-31246D01*
X-83057Y-31302D01*
X-82557Y-31524D01*
X-82113Y-31857D01*
X-81779Y-32135D01*
X-81724Y-32191D01*
X-81668Y-32246D01*
X-81168Y-32746D01*
X-80724Y-33302D01*
X-80557Y-33468D01*
X-80446Y-33635D01*
X-80390Y-33746D01*
X-80335Y-33802D01*
X-79835Y-34579D01*
X-79391Y-35357D01*
X-79224Y-35746D01*
X-79057Y-36024D01*
X-79002Y-36190D01*
X-78946Y-36246D01*
X-78668Y-36801D01*
X-78446Y-37301D01*
X-78224Y-37801D01*
X-78057Y-38190D01*
X-77946Y-38468D01*
X-77835Y-38690D01*
X-77780Y-38857D01*
Y-38912D01*
X-77613Y-39468D01*
X-77502Y-39912D01*
X-77446Y-40134D01*
X-77391Y-40190D01*
X-76613Y-40468D01*
X-76058Y-40745D01*
X-75835Y-40801D01*
X-75669Y-40856D01*
X-75613Y-40912D01*
X-75558D01*
X-74224Y-41468D01*
X-73058Y-41968D01*
X-72002Y-42467D01*
X-71114Y-42912D01*
X-70392Y-43356D01*
X-69892Y-43634D01*
X-69558Y-43856D01*
X-69503Y-43912D01*
X-69447D01*
X-68614Y-44467D01*
X-67947Y-44967D01*
X-67392Y-45467D01*
X-66947Y-45911D01*
X-66614Y-46245D01*
X-66447Y-46523D01*
X-66336Y-46689D01*
X-66281Y-46745D01*
X-66114Y-47078D01*
X-66003Y-47300D01*
X-65947Y-47467D01*
X-65892Y-47523D01*
Y-55633D01*
X-65947Y-56188D01*
Y-57410D01*
X-66003Y-57632D01*
Y-57855D01*
X-66059Y-57966D01*
X-66114Y-58133D01*
Y-58188D01*
X-66225Y-58244D01*
X-66336Y-58299D01*
X-66670Y-58355D01*
X-66947D01*
X-67003D01*
X-67059D01*
X-67392D01*
X-67892Y-58410D01*
X-68392D01*
X-68947D01*
X-69447D01*
X-69892D01*
X-70169D01*
X-70280D01*
X-71225D01*
X-72002D01*
X-72669D01*
X-73225D01*
X-73613D01*
X-73947D01*
X-74113D01*
X-74169D01*
X-74113Y-58688D01*
X-74058Y-58855D01*
Y-59466D01*
X-74002Y-59688D01*
Y-61743D01*
X-73113Y-61910D01*
X-72336Y-62021D01*
X-71669Y-62132D01*
X-71114Y-62243D01*
X-70669Y-62299D01*
X-70392Y-62354D01*
X-70169Y-62410D01*
X-70114D01*
X-69058Y-62632D01*
X-68558Y-62743D01*
X-68169Y-62854D01*
X-67836Y-62965D01*
X-67614Y-63021D01*
X-67447Y-63076D01*
X-67392D01*
X-67003Y-63187D01*
X-66670Y-63243D01*
X-66447Y-63299D01*
X-66281Y-63354D01*
X-66225Y-63410D01*
X-66170Y-63465D01*
X-66114D01*
X-66059Y-63576D01*
X-66003Y-63688D01*
X-65947Y-64021D01*
Y-64854D01*
X-65892Y-65409D01*
Y-72353D01*
X-66059Y-72631D01*
X-66225Y-72798D01*
X-66281Y-72853D01*
X-66336Y-72909D01*
X-66781Y-73298D01*
X-66947Y-73409D01*
X-67003Y-73464D01*
X-67281Y-73686D01*
X-67558Y-73853D01*
X-67725Y-73909D01*
X-67781Y-73964D01*
X-68503Y-74242D01*
X-69281Y-74575D01*
X-70114Y-74797D01*
X-70836Y-75020D01*
X-71558Y-75186D01*
X-72058Y-75353D01*
X-72280Y-75409D01*
X-72447D01*
X-72502Y-75464D01*
X-72558D01*
X-73724Y-75686D01*
X-74891Y-75908D01*
X-76058Y-76075D01*
X-77168Y-76186D01*
X-78113Y-76297D01*
X-78502Y-76353D01*
X-78835D01*
X-79113D01*
X-79335Y-76408D01*
X-79446D01*
X-79502D01*
X-79946Y-76464D01*
X-80279Y-76519D01*
X-80501Y-76575D01*
X-80557D01*
X-80668Y-76631D01*
X-80779Y-76686D01*
Y-76908D01*
X-80890Y-77075D01*
X-81057Y-77464D01*
X-81224Y-77797D01*
X-81335Y-77908D01*
Y-77964D01*
X-81724Y-78519D01*
X-82057Y-78908D01*
X-82279Y-79186D01*
X-82390Y-79297D01*
X-82835Y-79630D01*
X-83279Y-80019D01*
X-84334Y-80575D01*
X-84779Y-80852D01*
X-85168Y-81019D01*
X-85390Y-81130D01*
X-85501Y-81186D01*
X-86112Y-81408D01*
X-86612Y-81574D01*
X-87001Y-81686D01*
X-87334Y-81797D01*
X-87612D01*
X-87779Y-81852D01*
X-87890D01*
X-87945D01*
X-88112D01*
X-88223Y-81797D01*
X-88334Y-81741D01*
X-88556Y-81574D01*
X-88667Y-81352D01*
X-88778Y-81186D01*
Y-80852D01*
X-88667Y-80686D01*
X-88556Y-80575D01*
X-88501Y-80519D01*
X-88223Y-80186D01*
X-88001Y-79797D01*
X-87890Y-79519D01*
X-87834Y-79464D01*
Y-79408D01*
X-87723Y-78908D01*
X-87667Y-78408D01*
Y-77908D01*
X-87779Y-77075D01*
X-87890Y-76742D01*
X-87945Y-76408D01*
X-88056Y-76186D01*
X-88167Y-76020D01*
X-88223Y-75908D01*
Y-75853D01*
X-88390Y-75464D01*
X-88612Y-75131D01*
X-89112Y-74409D01*
X-89334Y-74131D01*
X-89556Y-73909D01*
X-89667Y-73742D01*
X-89723Y-73686D01*
X-90612Y-72575D01*
X-91389Y-71409D01*
X-92111Y-70187D01*
X-92667Y-69020D01*
X-93111Y-67965D01*
X-93278Y-67520D01*
X-93445Y-67132D01*
X-93556Y-66798D01*
X-93667Y-66576D01*
X-93722Y-66409D01*
Y-66354D01*
X-94222Y-64632D01*
X-94611Y-62910D01*
X-94833Y-61354D01*
X-95056Y-59910D01*
X-95111Y-59243D01*
X-95167Y-58688D01*
Y-58188D01*
X-95222Y-57744D01*
Y-56910D01*
X-95278Y-56077D01*
X-95333Y-55300D01*
X-95389Y-54577D01*
X-95444Y-54022D01*
X-95555Y-53522D01*
X-95611Y-53189D01*
X-95667Y-52966D01*
Y-52911D01*
X-95889Y-52300D01*
X-96111Y-51689D01*
X-96389Y-51189D01*
X-96666Y-50689D01*
X-96889Y-50300D01*
X-97111Y-50022D01*
X-97222Y-49800D01*
X-97278Y-49745D01*
X-97500Y-49467D01*
X-97722Y-49133D01*
X-97944Y-48967D01*
X-98000Y-48856D01*
X-98333Y-48522D01*
X-98555Y-48245D01*
X-98722Y-48134D01*
X-98777Y-48078D01*
X-99166Y-47856D01*
X-99500Y-47634D01*
X-99722Y-47578D01*
X-99777Y-47523D01*
X-99944Y-47467D01*
X-100166Y-47411D01*
X-100666Y-47245D01*
X-100888Y-47189D01*
X-101055D01*
X-101166Y-47134D01*
X-101222D01*
X-101666Y-47078D01*
X-102110Y-46967D01*
X-102388Y-46911D01*
X-102444D01*
X-102499D01*
X-102832Y-46800D01*
X-103110Y-46689D01*
X-103221Y-46634D01*
X-103277D01*
X-103666Y-46523D01*
X-103888D01*
X-103999Y-46578D01*
Y-46745D01*
X-103888Y-46967D01*
X-103777Y-47245D01*
X-103721Y-47300D01*
Y-47356D01*
X-103388Y-48134D01*
X-103166Y-48967D01*
X-102999Y-49745D01*
X-102888Y-50411D01*
X-102832Y-51078D01*
X-102777Y-51522D01*
Y-51967D01*
X-102832Y-52911D01*
X-102944Y-53800D01*
X-103110Y-54633D01*
X-103333Y-55355D01*
X-103499Y-55966D01*
X-103666Y-56466D01*
X-103777Y-56744D01*
X-103832Y-56855D01*
X-104055Y-57244D01*
X-104110Y-57355D01*
Y-57410D01*
X-104277Y-57577D01*
X-104388Y-57632D01*
X-104444Y-57688D01*
X-104610D01*
X-104888D01*
X-105388Y-57521D01*
X-105666Y-57410D01*
X-105832Y-57355D01*
X-105999Y-57244D01*
X-106054D01*
X-106888Y-56744D01*
X-107554Y-56299D01*
X-107832Y-56077D01*
X-107999Y-55911D01*
X-108110Y-55855D01*
X-108165Y-55799D01*
X-109165Y-54855D01*
X-109554Y-54411D01*
X-109943Y-53966D01*
X-110221Y-53577D01*
X-110498Y-53244D01*
X-110610Y-53022D01*
X-110665Y-52966D01*
X-111110Y-52411D01*
X-111443Y-51855D01*
X-111721Y-51300D01*
X-111943Y-50855D01*
X-112109Y-50467D01*
X-112220Y-50189D01*
X-112332Y-49967D01*
Y-49911D01*
X-112387Y-49633D01*
X-112443Y-49300D01*
X-112498Y-49078D01*
Y-48967D01*
X-112554Y-48578D01*
X-112609Y-48189D01*
X-112665Y-47967D01*
Y-47856D01*
X-112720Y-47300D01*
Y-46523D01*
X-113609Y-47189D01*
X-114331Y-47800D01*
X-114998Y-48300D01*
X-115498Y-48689D01*
X-115887Y-49022D01*
X-116220Y-49244D01*
X-116387Y-49356D01*
X-116442Y-49411D01*
X-117331Y-50189D01*
X-118109Y-50744D01*
X-118664Y-51244D01*
X-119164Y-51578D01*
X-119442Y-51800D01*
X-119664Y-51967D01*
X-119775Y-52078D01*
X-119831D01*
X-120108Y-52244D01*
X-120331Y-52300D01*
X-120664D01*
X-120886Y-52244D01*
X-120942Y-52189D01*
X-121108Y-51911D01*
X-121220Y-51522D01*
X-121275Y-51078D01*
X-121331Y-50633D01*
X-121386Y-50244D01*
Y-48800D01*
X-121331Y-48134D01*
X-121275Y-47523D01*
X-121220Y-47023D01*
X-121108Y-46578D01*
X-121053Y-46300D01*
X-120997Y-46078D01*
Y-46023D01*
X-120886Y-45745D01*
X-120831Y-45523D01*
X-120775Y-45356D01*
Y-45300D01*
X-120664Y-45078D01*
X-120609Y-44967D01*
Y-44912D01*
X-120664Y-44967D01*
X-120720Y-45023D01*
X-120775Y-45078D01*
X-120831D01*
X-121220Y-45467D01*
X-121331Y-45578D01*
X-121386Y-45634D01*
X-121831Y-45967D01*
X-122108Y-46134D01*
X-122219Y-46245D01*
X-122275D01*
X-122442Y-46300D01*
X-122664Y-46245D01*
X-122830Y-46189D01*
X-122886D01*
X-123108Y-45967D01*
X-123275Y-45689D01*
X-123386Y-45300D01*
X-123497Y-44856D01*
Y-44467D01*
X-123553Y-44134D01*
Y-43301D01*
X-123497Y-42856D01*
X-123441Y-42523D01*
Y-42412D01*
X-123330Y-41190D01*
X-123108Y-40134D01*
X-122886Y-39190D01*
X-122664Y-38357D01*
X-122442Y-37746D01*
X-122219Y-37246D01*
X-122108Y-36968D01*
X-122053Y-36857D01*
X-121553Y-35968D01*
X-120997Y-35135D01*
X-120775Y-34802D01*
X-120553Y-34524D01*
X-120442Y-34302D01*
X-120386Y-34246D01*
X-119442Y-33191D01*
X-118997Y-32691D01*
X-118553Y-32246D01*
X-118164Y-31857D01*
X-117886Y-31524D01*
X-117664Y-31302D01*
X-117609Y-31246D01*
X-117164Y-30746D01*
X-116776Y-30358D01*
X-116498Y-30080D01*
X-116276Y-29802D01*
X-116109Y-29635D01*
X-115998Y-29524D01*
X-115942Y-29413D01*
X-115831Y-29191D01*
X-115776Y-28913D01*
X-115720Y-28691D01*
Y-28580D01*
X-115665Y-27636D01*
X-115609Y-27191D01*
X-115498Y-26802D01*
X-115442Y-26414D01*
X-115331Y-26136D01*
X-115276Y-25969D01*
Y-25914D01*
X-114831Y-24858D01*
X-114609Y-24358D01*
X-114387Y-23969D01*
X-114220Y-23636D01*
X-114054Y-23358D01*
X-113998Y-23192D01*
X-113942Y-23136D01*
X-113720Y-22803D01*
X-113387Y-22358D01*
X-112720Y-21581D01*
X-112387Y-21247D01*
X-112109Y-20970D01*
X-111943Y-20747D01*
X-111887Y-20692D01*
X-111332Y-20136D01*
X-110887Y-19692D01*
X-110443Y-19303D01*
X-110110Y-18970D01*
X-109832Y-18748D01*
X-109610Y-18581D01*
X-109499Y-18526D01*
X-109443Y-18470D01*
X-109165Y-18248D01*
X-108943Y-18137D01*
X-108610Y-17914D01*
X-108387Y-17859D01*
X-108332D01*
X-108221Y-17914D01*
D02*
G37*
%LPC*%
G36*
X-206877Y72978D02*
X-211037D01*
Y70898D01*
X-211039Y70693D01*
X-210961Y70289D01*
X-210806Y69909D01*
X-210578Y69567D01*
X-210288Y69277D01*
X-209946Y69049D01*
X-209565Y68893D01*
X-209162Y68816D01*
X-208957Y68818D01*
X-208957Y68818D01*
X-208698Y68816D01*
X-208196Y68940D01*
X-207740Y69184D01*
X-207358Y69533D01*
X-207216Y69749D01*
X-207215Y69749D01*
X-207170Y69828D01*
X-207147Y69868D01*
X-207124Y69909D01*
X-207121Y69915D01*
X-207116Y69925D01*
X-207110Y69935D01*
X-207104Y69946D01*
X-207102Y69951D01*
X-207099Y69956D01*
X-207093Y69967D01*
X-207088Y69978D01*
X-207083Y69989D01*
X-207080Y69994D01*
X-207080D01*
X-207077Y70000D01*
X-207072Y70011D01*
X-207066Y70022D01*
X-207061Y70033D01*
X-207059Y70039D01*
X-207053Y70050D01*
X-207043Y70074D01*
X-207033Y70097D01*
X-207023Y70121D01*
X-207018Y70133D01*
X-207018D01*
X-207016Y70139D01*
X-207011Y70152D01*
X-207006Y70165D01*
X-207002Y70177D01*
X-206999Y70184D01*
X-206999Y70184D01*
X-206982Y70235D01*
X-206952Y70338D01*
X-206926Y70443D01*
X-206906Y70549D01*
X-206898Y70602D01*
X-206898Y70602D01*
X-206893Y70639D01*
X-206885Y70712D01*
X-206879Y70787D01*
X-206877Y70861D01*
Y70898D01*
X-206877Y70898D01*
Y72978D01*
D02*
G37*
G36*
X-163405Y48384D02*
X-166998Y42993D01*
X-159810D01*
X-163405Y48384D01*
D02*
G37*
G36*
X-180334Y58987D02*
X-189516D01*
Y57266D01*
X-189516D01*
X-189516Y57266D01*
Y57266D01*
X-189516D01*
X-189518Y56954D01*
X-189399Y56343D01*
X-189162Y55767D01*
X-188817Y55248D01*
X-188377Y54808D01*
X-187859Y54463D01*
X-187283Y54226D01*
X-186671Y54107D01*
X-186360Y54109D01*
X-183491D01*
X-183491Y54109D01*
X-183179Y54107D01*
X-182568Y54226D01*
X-181992Y54463D01*
X-181474Y54808D01*
X-181033Y55248D01*
X-180688Y55767D01*
X-180452Y56343D01*
X-180333Y56954D01*
X-180334Y57266D01*
Y58987D01*
D02*
G37*
G36*
X-162952Y32449D02*
X-163404Y32447D01*
X-163405D01*
X-163845Y32449D01*
X-164709Y32285D01*
X-165527Y31959D01*
X-166267Y31483D01*
X-166902Y30875D01*
X-167411Y30156D01*
X-167772Y29354D01*
X-167974Y28498D01*
X-167992Y28058D01*
Y28058D01*
Y28058D01*
X-167996Y27963D01*
X-167997Y27923D01*
X-167997Y27887D01*
X-167998Y27852D01*
Y27844D01*
X-167997Y27827D01*
X-167997Y27809D01*
X-167997Y27792D01*
X-167997Y27783D01*
X-167997Y27783D01*
Y27783D01*
X-167996Y27746D01*
X-167994Y27705D01*
X-167992Y27658D01*
X-167992Y27658D01*
X-167975Y27218D01*
X-167774Y26361D01*
X-167413Y25558D01*
X-166905Y24839D01*
X-166269Y24230D01*
X-165528Y23753D01*
X-164710Y23427D01*
X-163845Y23263D01*
X-163405Y23265D01*
X-163405Y23265D01*
X-163404D01*
X-162952Y23263D01*
X-162063Y23437D01*
X-161225Y23782D01*
X-160472Y24284D01*
X-159831Y24925D01*
X-159329Y25678D01*
X-158984Y26515D01*
X-158810Y27404D01*
X-158811Y27857D01*
X-158811Y27857D01*
X-158810Y28309D01*
X-158984Y29198D01*
X-159329Y30035D01*
X-159831Y30788D01*
X-160472Y31428D01*
X-161225Y31931D01*
X-162063Y32275D01*
X-162952Y32449D01*
D02*
G37*
G36*
X-191825Y42983D02*
X-191825D01*
Y42983D01*
X-191825Y42983D01*
D02*
G37*
G36*
X-183921Y44224D02*
X-187395Y42921D01*
X-183921Y41618D01*
Y44224D01*
D02*
G37*
G36*
X-114942Y-30913D02*
X-115109D01*
X-115220Y-30969D01*
X-115331Y-31024D01*
X-115387Y-31080D01*
X-115665Y-31302D01*
X-115942Y-31580D01*
X-116165Y-31802D01*
X-116220Y-31913D01*
X-116664Y-32413D01*
X-117053Y-32746D01*
X-117275Y-32968D01*
X-117331Y-33024D01*
X-117109Y-33413D01*
X-116942Y-33746D01*
X-116887Y-33913D01*
X-116831Y-33968D01*
X-116553Y-34524D01*
X-116387Y-35079D01*
X-116331Y-35357D01*
X-116276Y-35524D01*
X-116220Y-35635D01*
Y-35690D01*
X-116053Y-36301D01*
X-115942Y-36801D01*
X-115887Y-37079D01*
Y-37690D01*
X-115553Y-37357D01*
X-115331Y-37135D01*
X-115220Y-37024D01*
X-115165Y-36968D01*
X-114776Y-36524D01*
X-114609Y-36357D01*
X-114553Y-36301D01*
X-114331Y-36024D01*
X-114220Y-35857D01*
X-114165Y-35746D01*
Y-35690D01*
X-113998Y-35301D01*
X-113887Y-34857D01*
X-113831Y-34524D01*
X-113776Y-34413D01*
Y-34357D01*
X-113720Y-33802D01*
X-113776Y-33357D01*
X-113831Y-33135D01*
Y-33024D01*
X-113998Y-32635D01*
X-114165Y-32191D01*
X-114331Y-31857D01*
X-114387Y-31802D01*
Y-31746D01*
X-114498Y-31524D01*
X-114665Y-31302D01*
X-114831Y-31080D01*
X-114887Y-30969D01*
X-114942Y-30913D01*
D02*
G37*
G36*
X-108610Y-19970D02*
X-108776D01*
X-109054Y-20081D01*
X-109387Y-20359D01*
X-109721Y-20692D01*
X-110110Y-21025D01*
X-110387Y-21358D01*
X-110610Y-21525D01*
X-110665Y-21636D01*
X-111276Y-22358D01*
X-111832Y-23025D01*
X-112276Y-23581D01*
X-112609Y-24025D01*
X-112887Y-24414D01*
X-113054Y-24692D01*
X-113165Y-24858D01*
X-113220Y-24914D01*
X-113498Y-25580D01*
X-113720Y-26136D01*
X-113887Y-26636D01*
X-113998Y-27080D01*
X-114109Y-27413D01*
Y-27691D01*
X-114165Y-27858D01*
Y-27913D01*
X-114109Y-28358D01*
X-114054Y-28858D01*
X-113942Y-29247D01*
X-113776Y-29635D01*
X-113609Y-29969D01*
X-113498Y-30247D01*
X-113442Y-30413D01*
X-113387Y-30469D01*
X-112943Y-31246D01*
X-112665Y-31857D01*
X-112554Y-32080D01*
X-112498Y-32246D01*
X-112443Y-32302D01*
Y-32357D01*
X-112276Y-33024D01*
Y-34246D01*
X-112332Y-34746D01*
X-112387Y-35135D01*
X-112443Y-35357D01*
Y-35468D01*
X-112554Y-35801D01*
X-112665Y-36135D01*
X-112776Y-36357D01*
X-112831Y-36468D01*
X-112998Y-36913D01*
X-113054Y-37190D01*
X-113109Y-37301D01*
Y-37468D01*
X-113054Y-37579D01*
X-112998Y-37690D01*
X-112943D01*
X-112609Y-37912D01*
X-112332Y-38190D01*
X-112109Y-38357D01*
X-111998Y-38468D01*
X-111665Y-38912D01*
X-111443Y-39301D01*
X-111276Y-39523D01*
X-111221Y-39634D01*
X-111110Y-40023D01*
X-110998Y-40357D01*
X-110943Y-40579D01*
Y-44856D01*
X-110998Y-45689D01*
Y-48633D01*
X-110943Y-49078D01*
X-110832Y-49467D01*
X-110721Y-49800D01*
X-110665Y-49856D01*
Y-49911D01*
X-110387Y-50633D01*
X-109999Y-51300D01*
X-109832Y-51578D01*
X-109665Y-51800D01*
X-109610Y-51911D01*
X-109554Y-51967D01*
X-108943Y-52744D01*
X-108387Y-53355D01*
X-108165Y-53633D01*
X-107999Y-53800D01*
X-107888Y-53911D01*
X-107832Y-53966D01*
X-107332Y-54466D01*
X-106832Y-54855D01*
X-106665Y-55022D01*
X-106499Y-55133D01*
X-106388Y-55244D01*
X-106332D01*
X-106054Y-55466D01*
X-105832Y-55633D01*
X-105443Y-55855D01*
X-105277Y-55911D01*
X-105221D01*
X-105110Y-55799D01*
X-104999Y-55633D01*
X-104943Y-55466D01*
Y-55355D01*
X-104832Y-54855D01*
X-104666Y-54355D01*
X-104610Y-54133D01*
Y-53911D01*
X-104555Y-53800D01*
Y-53744D01*
X-104444Y-52855D01*
X-104388Y-51967D01*
Y-51133D01*
X-104499Y-50467D01*
X-104555Y-49856D01*
X-104666Y-49356D01*
X-104721Y-49078D01*
X-104777Y-48967D01*
X-105110Y-48078D01*
X-105499Y-47300D01*
X-105943Y-46578D01*
X-106388Y-45911D01*
X-106832Y-45412D01*
X-107165Y-45023D01*
X-107388Y-44801D01*
X-107443Y-44689D01*
X-107832Y-44301D01*
X-108054Y-44023D01*
X-108165Y-43801D01*
X-108221Y-43745D01*
X-108276Y-43467D01*
X-108221Y-43245D01*
X-108110Y-43078D01*
X-108054Y-43023D01*
X-107832Y-42912D01*
X-107665Y-42856D01*
X-107443D01*
X-107388D01*
X-106999Y-43023D01*
X-106610Y-43301D01*
X-106277Y-43467D01*
X-106221Y-43578D01*
X-106166D01*
X-105555Y-43967D01*
X-104888Y-44356D01*
X-104610Y-44467D01*
X-104444Y-44578D01*
X-104277Y-44689D01*
X-104221D01*
X-103333Y-45023D01*
X-102610Y-45300D01*
X-102277Y-45356D01*
X-102055Y-45412D01*
X-101888Y-45467D01*
X-101833D01*
X-101333Y-45578D01*
X-100833Y-45689D01*
X-99777Y-45745D01*
X-99277Y-45800D01*
X-98889D01*
X-98666D01*
X-98555D01*
X-97778D01*
X-97111Y-45745D01*
X-96555Y-45689D01*
X-96055Y-45634D01*
X-95667Y-45578D01*
X-95389Y-45523D01*
X-95222Y-45467D01*
X-95167D01*
X-93889Y-45078D01*
X-93278Y-44912D01*
X-92778Y-44689D01*
X-92334Y-44467D01*
X-91945Y-44356D01*
X-91723Y-44245D01*
X-91667Y-44190D01*
X-90445Y-43578D01*
X-89889Y-43245D01*
X-89389Y-42912D01*
X-89001Y-42634D01*
X-88723Y-42467D01*
X-88501Y-42301D01*
X-88445Y-42245D01*
X-88167Y-42079D01*
X-87945Y-41912D01*
X-87779Y-41801D01*
X-87723Y-41745D01*
X-87501Y-41690D01*
X-87334Y-41634D01*
X-87279D01*
X-87168D01*
X-87001Y-41690D01*
X-86890Y-41745D01*
X-86834D01*
X-86501Y-42134D01*
X-86390Y-42245D01*
X-86334Y-42301D01*
X-86001Y-42579D01*
X-85668Y-42912D01*
X-85390Y-43134D01*
X-85334Y-43190D01*
X-85279D01*
X-85001Y-43356D01*
X-84612Y-43523D01*
X-83890Y-43912D01*
X-83557Y-44078D01*
X-83279Y-44245D01*
X-83057Y-44301D01*
X-83001Y-44356D01*
X-82224Y-44745D01*
X-81557Y-45023D01*
X-81335Y-45134D01*
X-81168Y-45245D01*
X-81057Y-45300D01*
X-81002D01*
X-80724Y-45412D01*
X-80557Y-45523D01*
X-80335Y-45578D01*
X-80224Y-45634D01*
Y-45300D01*
X-80279Y-45078D01*
X-80335Y-44801D01*
X-80390Y-44634D01*
Y-44523D01*
X-80557Y-44078D01*
X-80724Y-43634D01*
X-80835Y-43301D01*
X-80890Y-43245D01*
Y-43190D01*
X-81113Y-42634D01*
X-81335Y-42079D01*
X-81390Y-41856D01*
X-81501Y-41690D01*
X-81557Y-41579D01*
Y-41523D01*
X-81835Y-41023D01*
X-82057Y-40579D01*
X-82224Y-40190D01*
X-82335Y-39912D01*
X-82446Y-39634D01*
Y-39468D01*
X-82501Y-39357D01*
Y-39301D01*
X-82557Y-38857D01*
X-82501Y-38579D01*
X-82446Y-38357D01*
X-82390Y-38301D01*
X-82113Y-38190D01*
X-81835Y-38135D01*
X-81613D01*
X-81557D01*
X-81501D01*
X-81002Y-38190D01*
X-80613Y-38246D01*
X-80335Y-38301D01*
X-80224Y-38357D01*
X-79890Y-38579D01*
X-79835Y-38635D01*
X-79779D01*
X-79613D01*
X-79557D01*
X-79502D01*
X-79557Y-38468D01*
X-79668Y-38190D01*
X-79779Y-37912D01*
X-80002Y-37579D01*
X-80168Y-37246D01*
X-80279Y-36968D01*
X-80390Y-36746D01*
X-80446Y-36690D01*
X-80779Y-36079D01*
X-81057Y-35635D01*
X-81279Y-35190D01*
X-81501Y-34913D01*
X-81613Y-34690D01*
X-81724Y-34524D01*
X-81835Y-34468D01*
Y-34413D01*
X-82168Y-33968D01*
X-82557Y-33579D01*
X-82779Y-33357D01*
X-82890Y-33246D01*
X-83279Y-32913D01*
X-83501Y-32746D01*
X-83668Y-32691D01*
X-83723D01*
Y-32746D01*
X-83779Y-32968D01*
Y-33191D01*
X-83834Y-33524D01*
X-83890Y-33913D01*
Y-34746D01*
X-83946Y-35135D01*
X-84001Y-35413D01*
Y-35635D01*
X-84057Y-35801D01*
X-84112Y-35968D01*
Y-36024D01*
X-84279Y-36301D01*
X-84501Y-36412D01*
X-84668Y-36468D01*
X-84723D01*
X-85057Y-36412D01*
X-85223Y-36357D01*
X-85334Y-36246D01*
Y-36190D01*
X-85445Y-35913D01*
X-85501Y-35524D01*
X-85445Y-35246D01*
Y-34746D01*
X-85390Y-34302D01*
X-85334Y-33968D01*
Y-30858D01*
X-85390Y-30524D01*
Y-29969D01*
X-85445Y-29802D01*
Y-29691D01*
X-85501Y-29191D01*
X-85612Y-28802D01*
X-85723Y-28469D01*
X-85779Y-28413D01*
Y-28358D01*
X-85945Y-27802D01*
X-86168Y-27247D01*
X-86334Y-26802D01*
X-86556Y-26469D01*
X-86667Y-26136D01*
X-86834Y-25914D01*
X-86890Y-25803D01*
X-86945Y-25747D01*
X-87612Y-25136D01*
X-88279Y-24636D01*
X-88556Y-24469D01*
X-88778Y-24358D01*
X-88945Y-24247D01*
X-89001D01*
X-89723Y-23969D01*
X-90500Y-23803D01*
X-91278Y-23692D01*
X-91945Y-23636D01*
X-92556D01*
X-93056D01*
X-93389Y-23692D01*
X-93445D01*
X-93500D01*
X-94500Y-23858D01*
X-95500Y-24081D01*
X-96500Y-24358D01*
X-97444Y-24636D01*
X-98222Y-24914D01*
X-98833Y-25192D01*
X-99055Y-25303D01*
X-99222Y-25358D01*
X-99333Y-25414D01*
X-99388D01*
X-100111Y-25691D01*
X-100833Y-26025D01*
X-101110Y-26136D01*
X-101333Y-26247D01*
X-101499Y-26302D01*
X-101555D01*
X-102444Y-26691D01*
X-103221Y-27025D01*
X-103555Y-27136D01*
X-103777Y-27247D01*
X-103944Y-27302D01*
X-103999D01*
X-104832Y-27636D01*
X-105666Y-27969D01*
X-106388Y-28247D01*
X-107054Y-28469D01*
X-107554Y-28691D01*
X-107999Y-28858D01*
X-108221Y-28913D01*
X-108332Y-28969D01*
X-108999Y-29247D01*
X-109499Y-29413D01*
X-109887Y-29580D01*
X-110165Y-29635D01*
X-110332Y-29691D01*
X-110443Y-29746D01*
X-110498D01*
X-110776D01*
X-110943Y-29635D01*
X-111110Y-29580D01*
X-111165Y-29469D01*
X-111221Y-29247D01*
Y-29135D01*
X-111165Y-28913D01*
X-111110Y-28747D01*
X-110832Y-28358D01*
X-110498Y-28136D01*
X-110443Y-28024D01*
X-110387D01*
X-109887Y-27691D01*
X-109499Y-27302D01*
X-109165Y-26969D01*
X-108888Y-26636D01*
X-108665Y-26358D01*
X-108499Y-26136D01*
X-108443Y-25969D01*
X-108387Y-25914D01*
X-108165Y-25414D01*
X-108054Y-24858D01*
X-107943Y-24358D01*
X-107888Y-23914D01*
X-107832Y-23525D01*
Y-22914D01*
X-107943Y-22303D01*
X-108054Y-21692D01*
X-108110Y-21470D01*
Y-21303D01*
X-108165Y-21192D01*
Y-21136D01*
X-108276Y-20803D01*
X-108332Y-20581D01*
X-108387Y-20359D01*
X-108499Y-20192D01*
X-108554Y-20025D01*
X-108610Y-19970D01*
D02*
G37*
G36*
X-117831Y-33579D02*
X-118053Y-33857D01*
X-118220Y-34024D01*
X-118275Y-34135D01*
X-118331Y-34190D01*
X-118498Y-34413D01*
X-118720Y-34635D01*
X-118831Y-34857D01*
X-118886Y-34913D01*
X-119109Y-35190D01*
X-119331Y-35468D01*
X-119442Y-35635D01*
X-119497Y-35690D01*
X-119775Y-36079D01*
X-119997Y-36357D01*
X-120108Y-36524D01*
X-120164Y-36579D01*
X-119942Y-36913D01*
X-119720Y-37135D01*
X-119664Y-37301D01*
X-119609Y-37357D01*
X-119331Y-37801D01*
X-119109Y-38246D01*
X-118942Y-38635D01*
X-118886Y-38690D01*
Y-38746D01*
X-118720Y-39357D01*
X-118609Y-39801D01*
X-118553Y-40023D01*
Y-40523D01*
X-118331Y-40301D01*
X-118109Y-40134D01*
X-118053Y-40023D01*
X-117998Y-39968D01*
X-117831Y-39801D01*
X-117664Y-39634D01*
X-117498Y-39468D01*
X-117442Y-39412D01*
X-117275Y-39190D01*
X-117109Y-39023D01*
X-117053Y-38912D01*
X-116998Y-38857D01*
X-116887Y-38635D01*
X-116776Y-38468D01*
X-116720Y-38357D01*
X-116664Y-38301D01*
X-116553Y-38079D01*
X-116498Y-37912D01*
Y-37801D01*
X-116609Y-37246D01*
X-116664Y-36690D01*
X-116720Y-36524D01*
X-116776Y-36357D01*
Y-36190D01*
X-116942Y-35579D01*
X-117164Y-35079D01*
X-117275Y-34690D01*
X-117331Y-34635D01*
Y-34579D01*
X-117553Y-34135D01*
X-117664Y-33802D01*
X-117775Y-33635D01*
X-117831Y-33579D01*
D02*
G37*
G36*
X-120497Y-37468D02*
X-120553D01*
X-120609Y-37524D01*
X-120720Y-37635D01*
X-120831Y-37801D01*
X-120886Y-38024D01*
X-120942Y-38079D01*
X-121108Y-38523D01*
X-121275Y-39079D01*
X-121553Y-40190D01*
X-121608Y-40690D01*
X-121720Y-41079D01*
X-121775Y-41357D01*
Y-41468D01*
X-121942Y-42245D01*
X-121997Y-42801D01*
X-122053Y-43245D01*
Y-43523D01*
X-121997Y-43689D01*
Y-43745D01*
X-121942Y-43801D01*
X-121886Y-43745D01*
X-121720Y-43634D01*
X-121553Y-43467D01*
X-121497Y-43412D01*
X-121164Y-43078D01*
X-120886Y-42801D01*
X-120664Y-42579D01*
X-120553Y-42467D01*
X-120220Y-42134D01*
X-119942Y-41856D01*
X-119720Y-41579D01*
X-119553Y-41412D01*
X-119386Y-41134D01*
X-119331Y-41079D01*
X-119275Y-40912D01*
Y-40190D01*
X-119331Y-39912D01*
Y-39579D01*
X-119497Y-39135D01*
X-119664Y-38746D01*
X-119775Y-38468D01*
X-119831Y-38412D01*
Y-38357D01*
X-120053Y-37968D01*
X-120220Y-37690D01*
X-120331Y-37579D01*
X-120386Y-37524D01*
X-120497Y-37468D01*
D02*
G37*
G36*
X-114220Y-38746D02*
X-114331D01*
X-114442D01*
X-114553Y-38801D01*
X-114665Y-38912D01*
X-114942Y-39190D01*
X-115220Y-39468D01*
X-115276Y-39523D01*
X-115331Y-39579D01*
X-115720Y-39968D01*
X-116053Y-40190D01*
X-116220Y-40357D01*
X-116276Y-40412D01*
X-115998Y-40745D01*
X-115831Y-40968D01*
X-115720Y-41079D01*
X-115665Y-41134D01*
X-115220Y-41690D01*
X-114887Y-42190D01*
X-114776Y-42412D01*
X-114665Y-42523D01*
X-114609Y-42634D01*
Y-42690D01*
X-114387Y-43356D01*
X-114220Y-43967D01*
Y-44190D01*
X-114165Y-44356D01*
Y-44856D01*
X-114109Y-45078D01*
X-114054Y-45189D01*
Y-45523D01*
X-113998Y-45578D01*
X-113942Y-45523D01*
X-113831Y-45467D01*
X-113720Y-45356D01*
X-113665Y-45300D01*
X-113331Y-45023D01*
X-113165Y-44912D01*
X-113109Y-44856D01*
X-112831Y-44578D01*
X-112609Y-44356D01*
X-112498Y-44245D01*
X-112443Y-44190D01*
X-112387Y-43578D01*
X-112332Y-43190D01*
Y-42301D01*
X-112387Y-41856D01*
Y-41412D01*
X-112498Y-41023D01*
X-112554Y-40745D01*
X-112609Y-40523D01*
X-112665Y-40412D01*
Y-40357D01*
X-112831Y-39968D01*
X-113054Y-39634D01*
X-113276Y-39412D01*
X-113498Y-39190D01*
X-113831Y-38912D01*
X-113942Y-38857D01*
X-113998D01*
X-114220Y-38746D01*
D02*
G37*
G36*
X-116776Y-41134D02*
X-117053Y-41523D01*
X-117275Y-41856D01*
X-117387Y-42023D01*
X-117442Y-42079D01*
X-117664Y-42412D01*
X-117831Y-42690D01*
X-117942Y-42912D01*
X-117998Y-43023D01*
X-118220Y-43412D01*
X-118386Y-43689D01*
X-118442Y-43856D01*
X-118498Y-43912D01*
X-118664Y-44245D01*
X-118775Y-44523D01*
X-118886Y-44634D01*
Y-44689D01*
X-118664Y-44912D01*
X-118498Y-45023D01*
X-118442Y-45134D01*
X-118386D01*
X-118164Y-45467D01*
X-117942Y-45800D01*
X-117775Y-46078D01*
X-117720Y-46134D01*
Y-46189D01*
X-117498Y-46689D01*
X-117387Y-47023D01*
X-117331Y-47245D01*
Y-47523D01*
X-117220Y-47689D01*
X-117164Y-47745D01*
X-117053Y-47800D01*
X-116942D01*
X-116887Y-47745D01*
X-116831D01*
X-116609Y-47578D01*
X-116276Y-47300D01*
X-115998Y-47134D01*
X-115942Y-47023D01*
X-115887D01*
X-115387Y-46689D01*
X-115054Y-46411D01*
X-114831Y-46245D01*
X-114776Y-46189D01*
Y-45245D01*
X-114831Y-44467D01*
X-114998Y-43801D01*
X-115054Y-43523D01*
X-115109Y-43356D01*
X-115165Y-43245D01*
Y-43190D01*
X-115498Y-42579D01*
X-115887Y-42079D01*
X-116165Y-41745D01*
X-116220Y-41690D01*
X-116276Y-41634D01*
X-116498Y-41412D01*
X-116664Y-41245D01*
X-116720Y-41190D01*
X-116776Y-41134D01*
D02*
G37*
G36*
X-80557Y-39912D02*
X-80613Y-39968D01*
Y-40079D01*
X-80557Y-40190D01*
X-80390Y-40523D01*
X-80335Y-40579D01*
Y-40634D01*
X-80224Y-40801D01*
X-80057Y-41079D01*
X-80002Y-41245D01*
X-79946Y-41357D01*
X-79779Y-41745D01*
X-79613Y-42134D01*
X-79502Y-42356D01*
X-79446Y-42467D01*
X-79224Y-42967D01*
X-79057Y-43356D01*
X-79002Y-43578D01*
X-78946Y-43634D01*
X-78335Y-43967D01*
X-77780Y-44190D01*
X-77335Y-44412D01*
X-76946Y-44634D01*
X-76669Y-44745D01*
X-76446Y-44856D01*
X-76335Y-44912D01*
X-76280D01*
X-75335Y-45356D01*
X-74391Y-45800D01*
X-73613Y-46189D01*
X-72891Y-46523D01*
X-72336Y-46856D01*
X-71891Y-47078D01*
X-71613Y-47245D01*
X-71502Y-47300D01*
X-70780Y-47745D01*
X-70114Y-48134D01*
X-69558Y-48467D01*
X-69114Y-48800D01*
X-68725Y-49078D01*
X-68447Y-49244D01*
X-68281Y-49356D01*
X-68225Y-49411D01*
X-67947Y-49633D01*
X-67892Y-49745D01*
X-67836D01*
X-67725Y-49800D01*
X-67670D01*
X-67614D01*
X-67558Y-49745D01*
Y-49411D01*
X-67503Y-49133D01*
X-67447Y-48856D01*
Y-47189D01*
X-67892Y-46800D01*
X-68225Y-46523D01*
X-68447Y-46411D01*
X-68503Y-46356D01*
X-68947Y-45967D01*
X-69336Y-45634D01*
X-69614Y-45412D01*
X-69669Y-45300D01*
X-69725D01*
X-70003Y-45134D01*
X-70392Y-44967D01*
X-71114Y-44578D01*
X-71447Y-44412D01*
X-71725Y-44245D01*
X-71891Y-44190D01*
X-71947Y-44134D01*
X-72780Y-43745D01*
X-73613Y-43356D01*
X-73891Y-43245D01*
X-74169Y-43134D01*
X-74335Y-43023D01*
X-74391D01*
X-75280Y-42634D01*
X-75669Y-42523D01*
X-76002Y-42356D01*
X-76280Y-42245D01*
X-76446Y-42190D01*
X-76557Y-42134D01*
X-76613D01*
X-77280Y-41856D01*
X-77780Y-41634D01*
X-78002Y-41579D01*
X-78168Y-41523D01*
X-78224Y-41468D01*
X-78280D01*
X-78668Y-41245D01*
X-78946Y-41079D01*
X-79057Y-41023D01*
X-79113Y-40968D01*
X-79502Y-40634D01*
X-79835Y-40412D01*
X-80057Y-40245D01*
X-80168Y-40190D01*
X-80446Y-39968D01*
X-80557Y-39912D01*
D02*
G37*
G36*
X-119053Y-45412D02*
X-119109D01*
X-119164Y-45467D01*
X-119220Y-45523D01*
X-119275Y-45578D01*
Y-45634D01*
X-119331Y-45800D01*
X-119386Y-46023D01*
X-119442Y-46189D01*
Y-46245D01*
X-119664Y-46911D01*
X-119775Y-47523D01*
Y-47800D01*
X-119831Y-48022D01*
Y-48245D01*
X-119886Y-48633D01*
Y-48967D01*
X-119942Y-49189D01*
Y-49411D01*
X-119886Y-49689D01*
Y-49745D01*
X-119831Y-50078D01*
X-119775Y-50133D01*
Y-50189D01*
X-119331Y-49800D01*
X-119053Y-49578D01*
X-118886Y-49411D01*
X-118831Y-49356D01*
X-118553Y-49133D01*
X-118331Y-48911D01*
X-118164Y-48745D01*
X-118109Y-48689D01*
X-117942Y-48578D01*
X-117831Y-48467D01*
X-117775Y-48411D01*
X-117886Y-47800D01*
X-118053Y-47245D01*
X-118164Y-46967D01*
X-118275Y-46745D01*
X-118331Y-46634D01*
Y-46578D01*
X-118553Y-46189D01*
X-118664Y-45911D01*
X-118831Y-45689D01*
X-118942Y-45578D01*
X-119053Y-45412D01*
D02*
G37*
G36*
X-87390Y-43523D02*
X-87834Y-43801D01*
X-88112Y-43967D01*
X-88279Y-44078D01*
X-88334Y-44134D01*
X-89612Y-44912D01*
X-90223Y-45245D01*
X-90778Y-45523D01*
X-91278Y-45745D01*
X-91667Y-45911D01*
X-91889Y-45967D01*
X-92000Y-46023D01*
X-92778Y-46300D01*
X-93445Y-46578D01*
X-94111Y-46745D01*
X-94667Y-46911D01*
X-95111Y-47023D01*
X-95500Y-47078D01*
X-95722Y-47134D01*
X-95778D01*
X-96167Y-47189D01*
X-96444Y-47245D01*
X-96666Y-47300D01*
X-96722D01*
X-96944Y-47356D01*
X-97055D01*
X-97111D01*
Y-47467D01*
X-97055Y-47578D01*
X-97000Y-47634D01*
X-96944Y-47689D01*
X-96666Y-48078D01*
X-96555Y-48189D01*
X-96500Y-48245D01*
X-95944Y-48911D01*
X-95500Y-49578D01*
X-95333Y-49911D01*
X-95167Y-50133D01*
X-95111Y-50300D01*
X-95056Y-50356D01*
X-94667Y-51300D01*
X-94500Y-51744D01*
X-94389Y-52133D01*
X-94333Y-52466D01*
X-94278Y-52689D01*
X-94222Y-52855D01*
Y-52911D01*
X-94111Y-53411D01*
X-94000Y-53966D01*
X-93945Y-54188D01*
Y-54355D01*
X-93889Y-54466D01*
Y-54522D01*
X-93834Y-55355D01*
X-93778Y-56077D01*
X-93722Y-56410D01*
Y-56855D01*
X-93667Y-57688D01*
Y-58466D01*
X-93611Y-59132D01*
X-93556Y-59743D01*
X-93500Y-60243D01*
X-93445Y-60577D01*
X-93389Y-60854D01*
Y-60910D01*
X-93167Y-62243D01*
X-93056Y-62854D01*
X-93000Y-63410D01*
X-92889Y-63910D01*
X-92778Y-64243D01*
X-92723Y-64521D01*
Y-64576D01*
X-92445Y-65521D01*
X-92167Y-66465D01*
X-91834Y-67243D01*
X-91556Y-67965D01*
X-91334Y-68520D01*
X-91111Y-68965D01*
X-91000Y-69187D01*
X-90945Y-69298D01*
X-90556Y-70020D01*
X-90167Y-70687D01*
X-89778Y-71298D01*
X-89389Y-71742D01*
X-89112Y-72131D01*
X-88834Y-72464D01*
X-88667Y-72631D01*
X-88612Y-72687D01*
X-88056Y-73186D01*
X-87501Y-73631D01*
X-87001Y-73964D01*
X-86556Y-74186D01*
X-86168Y-74353D01*
X-85890Y-74520D01*
X-85668Y-74575D01*
X-85612D01*
X-85279Y-74631D01*
X-84945Y-74686D01*
X-84112Y-74797D01*
X-83223Y-74853D01*
X-82279Y-74908D01*
X-81446D01*
X-81057D01*
X-80724D01*
X-80446D01*
X-80224D01*
X-80113D01*
X-80057D01*
X-79057Y-74853D01*
X-78168Y-74797D01*
X-77335Y-74742D01*
X-76613Y-74686D01*
X-76002Y-74631D01*
X-75558Y-74575D01*
X-75280Y-74520D01*
X-75169D01*
X-73613Y-74297D01*
X-72947Y-74131D01*
X-72280Y-74020D01*
X-71780Y-73853D01*
X-71336Y-73797D01*
X-71114Y-73686D01*
X-71002D01*
X-70169Y-73464D01*
X-69447Y-73186D01*
X-69114Y-73075D01*
X-68892Y-73020D01*
X-68780Y-72909D01*
X-68725D01*
X-68392Y-72742D01*
X-68114Y-72575D01*
X-67892Y-72464D01*
X-67781Y-72353D01*
X-67614Y-72187D01*
Y-72076D01*
X-67558Y-71964D01*
Y-71353D01*
X-67503Y-70853D01*
X-67447Y-70353D01*
Y-67798D01*
X-68225D01*
X-68836Y-67743D01*
X-69392D01*
X-69836D01*
X-70169D01*
X-70447D01*
X-70558D01*
X-70614D01*
X-71447Y-67687D01*
X-72169D01*
X-72780Y-67632D01*
X-73336D01*
X-73836D01*
X-74280Y-67576D01*
X-74669D01*
X-74946Y-67520D01*
X-75447D01*
X-75724Y-67465D01*
X-75835D01*
X-75891D01*
X-76335Y-67354D01*
X-76613Y-67243D01*
X-76724Y-67076D01*
X-76780Y-67021D01*
Y-66854D01*
X-76724Y-66687D01*
X-76669Y-66576D01*
Y-66521D01*
X-76557Y-66132D01*
X-76502Y-65965D01*
X-76446Y-65910D01*
X-76224Y-65409D01*
X-76058Y-64798D01*
X-75891Y-64132D01*
X-75780Y-63521D01*
X-75669Y-62965D01*
X-75613Y-62521D01*
X-75558Y-62243D01*
Y-60521D01*
X-75613Y-59854D01*
X-75669Y-59299D01*
X-75724Y-58855D01*
X-75780Y-58521D01*
X-75835Y-58299D01*
Y-58244D01*
X-76058Y-57521D01*
X-76335Y-56910D01*
X-76446Y-56688D01*
X-76557Y-56522D01*
X-76613Y-56410D01*
Y-56355D01*
X-77002Y-55688D01*
X-77391Y-55244D01*
X-77613Y-54911D01*
X-77724Y-54855D01*
Y-54799D01*
X-78113Y-54300D01*
X-78335Y-53966D01*
X-78446Y-53744D01*
Y-53689D01*
X-78391Y-53355D01*
X-78224Y-53133D01*
X-78057Y-53022D01*
X-78002Y-52966D01*
X-77724Y-52911D01*
X-77668D01*
X-77613D01*
X-77335Y-52966D01*
X-77280Y-53022D01*
X-77224D01*
X-76891Y-53355D01*
X-76502Y-53744D01*
X-76224Y-54077D01*
X-76169Y-54188D01*
X-76113Y-54244D01*
X-75724Y-54855D01*
X-75391Y-55355D01*
X-75335Y-55577D01*
X-75224Y-55744D01*
X-75169Y-55855D01*
Y-55911D01*
X-75002Y-56299D01*
X-74835Y-56633D01*
X-74780Y-56799D01*
X-74724Y-56855D01*
X-74058D01*
X-73447D01*
X-73225D01*
X-73058D01*
X-72947D01*
X-72891D01*
X-72280D01*
X-71669D01*
X-71447D01*
X-71225D01*
X-71114D01*
X-71058D01*
X-70225D01*
X-69503D01*
X-68892D01*
X-68392D01*
X-68003D01*
X-67670D01*
X-67503D01*
X-67447D01*
Y-52022D01*
X-67781Y-51689D01*
X-68003Y-51466D01*
X-68114Y-51355D01*
X-68169Y-51300D01*
X-68503Y-50967D01*
X-68947Y-50633D01*
X-69892Y-49967D01*
X-70336Y-49689D01*
X-70669Y-49467D01*
X-70891Y-49300D01*
X-71002Y-49244D01*
X-71836Y-48800D01*
X-72669Y-48300D01*
X-73502Y-47856D01*
X-74280Y-47467D01*
X-74946Y-47134D01*
X-75502Y-46856D01*
X-75724Y-46745D01*
X-75891Y-46689D01*
X-75946Y-46634D01*
X-76002D01*
X-76724Y-46300D01*
X-77280Y-46078D01*
X-77724Y-45911D01*
X-78057Y-45800D01*
X-78224Y-45689D01*
X-78391Y-45634D01*
X-78446D01*
X-78557Y-45689D01*
X-78613Y-45745D01*
X-78724Y-46023D01*
X-78835Y-46245D01*
Y-46356D01*
X-78891Y-46800D01*
X-79002Y-47189D01*
X-79057Y-47411D01*
X-79113Y-47523D01*
X-79335Y-47745D01*
X-79502Y-47856D01*
X-79613Y-47911D01*
X-79668D01*
X-79835D01*
X-80002Y-47856D01*
X-80168Y-47800D01*
X-80224Y-47745D01*
X-80501Y-47578D01*
X-80724Y-47411D01*
X-80890Y-47245D01*
X-80946Y-47189D01*
X-81446Y-46856D01*
X-81890Y-46634D01*
X-82168Y-46411D01*
X-82279Y-46356D01*
X-82557Y-46189D01*
X-82946Y-46023D01*
X-83723Y-45689D01*
X-84112Y-45523D01*
X-84446Y-45356D01*
X-84668Y-45300D01*
X-84723Y-45245D01*
X-85057Y-45078D01*
X-85390Y-44912D01*
X-85668Y-44745D01*
X-85779Y-44689D01*
X-86168Y-44467D01*
X-86390Y-44301D01*
X-86556Y-44190D01*
X-86612Y-44134D01*
X-86945Y-43856D01*
X-87223Y-43689D01*
X-87334Y-43578D01*
X-87390Y-43523D01*
D02*
G37*
G36*
X-73780Y-63299D02*
X-73836D01*
X-73947Y-63354D01*
X-74002Y-63465D01*
X-74058Y-63576D01*
Y-63632D01*
X-74169Y-63854D01*
X-74280Y-64132D01*
X-74391Y-64354D01*
Y-64465D01*
X-74502Y-64798D01*
X-74558Y-65076D01*
X-74613Y-65298D01*
Y-65354D01*
X-74669Y-65576D01*
X-74724Y-65743D01*
Y-65854D01*
X-74669D01*
X-74391Y-65910D01*
X-74169Y-65965D01*
X-74113D01*
X-74058D01*
X-73780Y-66021D01*
X-73447D01*
X-72669Y-66076D01*
X-72336D01*
X-72058D01*
X-71836D01*
X-71780D01*
X-70947Y-66132D01*
X-70225D01*
X-69892D01*
X-69669D01*
X-69558D01*
X-69503D01*
X-69114Y-66187D01*
X-68836D01*
X-68614Y-66243D01*
X-68447D01*
X-68225D01*
X-68169D01*
X-67836Y-66298D01*
X-67614D01*
X-67503D01*
X-67447D01*
Y-65132D01*
X-67503Y-64965D01*
X-67558Y-64854D01*
Y-64798D01*
X-67614Y-64576D01*
X-67670Y-64465D01*
X-67725D01*
X-67892Y-64410D01*
X-68281Y-64354D01*
X-68780Y-64243D01*
X-69336Y-64132D01*
X-69892Y-64021D01*
X-70336Y-63965D01*
X-70669Y-63854D01*
X-70725D01*
X-70780D01*
X-71280Y-63743D01*
X-71725Y-63688D01*
X-72113Y-63576D01*
X-72502Y-63521D01*
X-73002Y-63410D01*
X-73391Y-63354D01*
X-73613D01*
X-73780Y-63299D01*
D02*
G37*
G36*
X-86056Y-76075D02*
X-86223D01*
X-86279D01*
X-86334D01*
Y-76186D01*
X-86279Y-76353D01*
X-86223Y-76519D01*
Y-77019D01*
X-86168Y-77242D01*
Y-79797D01*
X-85945Y-79686D01*
X-85723Y-79630D01*
X-85668Y-79575D01*
X-85612D01*
X-85057Y-79297D01*
X-84501Y-79019D01*
X-84334Y-78908D01*
X-84168Y-78797D01*
X-84057Y-78741D01*
X-84001Y-78686D01*
X-83501Y-78297D01*
X-83168Y-77908D01*
X-82946Y-77686D01*
X-82890Y-77575D01*
X-82612Y-77242D01*
X-82557Y-77130D01*
X-82501Y-77075D01*
X-82446Y-76908D01*
X-82390Y-76797D01*
Y-76686D01*
X-82446Y-76631D01*
X-82612D01*
X-82779Y-76575D01*
X-82835D01*
X-83223Y-76519D01*
X-83612Y-76464D01*
X-83946Y-76408D01*
X-84057D01*
X-84112D01*
X-84612Y-76353D01*
X-85057Y-76297D01*
X-85334Y-76242D01*
X-85445D01*
X-85779Y-76186D01*
X-85945Y-76131D01*
X-86056Y-76075D01*
D02*
G37*
%LPD*%
G36*
X-101944Y-27302D02*
X-101721Y-27358D01*
X-101333Y-27580D01*
X-101110Y-27802D01*
X-101055Y-27913D01*
X-100944Y-28247D01*
X-100888Y-28524D01*
Y-28802D01*
X-100999Y-29080D01*
X-101166Y-29302D01*
X-101333Y-29469D01*
X-101388Y-29524D01*
X-101666Y-29746D01*
X-101944Y-29858D01*
X-102166Y-29913D01*
X-102221D01*
X-102555Y-29858D01*
X-102832Y-29746D01*
X-103055Y-29635D01*
X-103110Y-29580D01*
X-103333Y-29358D01*
X-103499Y-29080D01*
X-103555Y-28913D01*
Y-28802D01*
X-103610Y-28524D01*
X-103555Y-28247D01*
X-103499Y-28080D01*
X-103444Y-28024D01*
X-103277Y-27802D01*
X-103055Y-27580D01*
X-102666Y-27358D01*
X-102333Y-27247D01*
X-102277D01*
X-102221D01*
X-101944Y-27302D01*
D02*
G37*
G36*
X-91334Y-26580D02*
X-91278Y-26636D01*
X-91223Y-26691D01*
X-91167Y-26747D01*
X-91111Y-26858D01*
X-91056Y-26913D01*
Y-26969D01*
X-90889Y-27469D01*
X-90667Y-27913D01*
X-90445Y-28247D01*
X-90389Y-28302D01*
Y-28358D01*
X-90000Y-28802D01*
X-89612Y-29080D01*
X-89389Y-29247D01*
X-89278Y-29302D01*
X-89001Y-29413D01*
X-88890Y-29524D01*
X-88834D01*
X-88723Y-29580D01*
X-88667Y-29635D01*
X-88612Y-29691D01*
X-88501Y-29746D01*
Y-29969D01*
X-88612Y-30135D01*
X-88723Y-30191D01*
X-88834Y-30247D01*
X-89056D01*
X-89334Y-30135D01*
X-89778Y-29913D01*
X-90167Y-29691D01*
X-90223Y-29635D01*
X-90278Y-29580D01*
X-90723Y-29080D01*
X-91056Y-28580D01*
X-91167Y-28413D01*
X-91278Y-28247D01*
X-91334Y-28136D01*
Y-28080D01*
X-91611Y-27580D01*
X-91723Y-27191D01*
X-91778Y-26969D01*
Y-26913D01*
X-91723Y-26691D01*
X-91611Y-26580D01*
X-91500Y-26525D01*
X-91445D01*
X-91334Y-26580D01*
D02*
G37*
G36*
X-87945Y-32357D02*
X-87890Y-32413D01*
X-87834Y-32524D01*
X-87945Y-32691D01*
X-88056Y-32857D01*
X-88167Y-32968D01*
X-88223Y-33024D01*
X-88612Y-33413D01*
X-88834Y-33802D01*
X-89001Y-34135D01*
X-89056Y-34190D01*
Y-34246D01*
X-89278Y-34857D01*
X-89334Y-35413D01*
X-89389Y-35635D01*
Y-36246D01*
X-89445Y-36468D01*
Y-36635D01*
X-89501Y-36746D01*
X-89612Y-36801D01*
X-89667D01*
X-89723D01*
X-89834Y-36746D01*
X-89945Y-36635D01*
X-90056Y-36357D01*
X-90112Y-36024D01*
Y-35857D01*
X-90056Y-35079D01*
X-89945Y-34468D01*
X-89834Y-34190D01*
X-89778Y-34024D01*
X-89723Y-33913D01*
Y-33857D01*
X-89445Y-33413D01*
X-89167Y-33024D01*
X-88945Y-32802D01*
X-88834Y-32691D01*
X-88667Y-32524D01*
X-88501Y-32413D01*
X-88223Y-32302D01*
X-88112D01*
X-88056D01*
X-87945Y-32357D01*
D02*
G37*
G36*
X-100388Y-39746D02*
X-100222Y-39912D01*
X-100111Y-39968D01*
X-99944Y-40134D01*
X-99833Y-40301D01*
X-99722Y-40579D01*
Y-40912D01*
X-99777Y-41245D01*
X-99944Y-41579D01*
X-100111Y-41801D01*
X-100166Y-41856D01*
X-100499Y-42023D01*
X-100611Y-42079D01*
X-100666D01*
X-100833Y-42190D01*
X-100944Y-42245D01*
X-101055D01*
X-101333Y-42190D01*
X-101666Y-42023D01*
X-101888Y-41801D01*
X-101944Y-41745D01*
X-102221Y-41412D01*
X-102333Y-41190D01*
X-102388Y-40968D01*
Y-40745D01*
X-102333Y-40579D01*
X-102277Y-40468D01*
X-102221Y-40412D01*
X-102166Y-40245D01*
X-102055Y-40134D01*
X-101999Y-40023D01*
X-101944Y-39968D01*
X-101610Y-39746D01*
X-101277Y-39634D01*
X-101055Y-39579D01*
X-100999D01*
X-100833D01*
X-100722D01*
X-100388Y-39746D01*
D02*
G37*
%LPC*%
G36*
X-102166Y-28469D02*
X-102221D01*
X-102333D01*
X-102388Y-28580D01*
Y-28691D01*
X-102333Y-28747D01*
X-102277Y-28802D01*
X-102221D01*
X-102166D01*
Y-28747D01*
X-102110Y-28636D01*
X-102166Y-28524D01*
Y-28469D01*
D02*
G37*
G36*
X-101055Y-40634D02*
X-101166Y-40745D01*
X-101222D01*
Y-40912D01*
X-101166Y-41023D01*
X-101110Y-41079D01*
X-101055D01*
X-100999D01*
X-100944Y-41023D01*
X-100888Y-40968D01*
Y-40801D01*
X-100944Y-40745D01*
X-100999D01*
X-101055Y-40634D01*
D02*
G37*
%LPD*%
D28*
X-313000Y-12700D02*
D03*
X-338400D02*
D03*
X-313000Y12700D02*
D03*
X-338400D02*
D03*
X-313000Y63500D02*
D03*
X-338400Y38100D02*
D03*
X-313000D02*
D03*
X-338400Y-38100D02*
D03*
Y-63500D02*
D03*
X-313000Y-38100D02*
D03*
Y-63500D02*
D03*
D29*
X-338400Y63500D02*
D03*
M02*
