G04*
G04 #@! TF.GenerationSoftware,Altium Limited,Altium Designer,22.4.2 (48)*
G04*
G04 Layer_Color=65535*
%FSLAX44Y44*%
%MOMM*%
G71*
G04*
G04 #@! TF.SameCoordinates,1FDE6782-7AC4-437E-A2E8-A07863582D05*
G04*
G04*
G04 #@! TF.FilePolarity,Positive*
G04*
G01*
G75*
%ADD10C,0.2500*%
%ADD11C,0.5000*%
%ADD12C,0.2000*%
%ADD13C,0.1000*%
D10*
X-28750Y-79000D02*
G03*
X-28750Y-79000I-1250J0D01*
G01*
X-337250Y76300D02*
G03*
X-337250Y76300I-1250J0D01*
G01*
X-28750Y-19000D02*
G03*
X-28750Y-19000I-1250J0D01*
G01*
D11*
X-109250Y41750D02*
G03*
X-109250Y41750I-2500J0D01*
G01*
D12*
X-92000Y-24000D02*
X-87000D01*
X-89500Y-26500D02*
Y-21500D01*
X-172500Y65500D02*
X-168500D01*
Y61500D02*
Y65500D01*
X-201500D02*
X-197500D01*
X-201500Y61500D02*
Y65500D01*
Y32500D02*
Y36500D01*
Y32500D02*
X-197500D01*
X-172500D02*
X-168500D01*
X-172500Y-32500D02*
X-168500D01*
Y-36500D02*
Y-32500D01*
X-201500D02*
X-197500D01*
X-201500Y-36500D02*
Y-32500D01*
Y-65500D02*
Y-61500D01*
Y-65500D02*
X-197500D01*
X-172500D02*
X-168500D01*
X-89500Y-76500D02*
Y-71500D01*
X-92000Y-74000D02*
X-87000D01*
X-119500Y34000D02*
X-69500D01*
Y64000D01*
X-119500D02*
X-69500D01*
X-119500Y34000D02*
Y64000D01*
X-32500Y44250D02*
X-27500D01*
X-30000Y41750D02*
Y46750D01*
X-282500Y-83000D02*
X-275000D01*
X-253000D02*
X-245500D01*
X-298000Y-15000D02*
X-275000D01*
X-253000D02*
X-230000D01*
X-298000Y-67500D02*
Y-15000D01*
Y-67500D02*
X-282500Y-83000D01*
X-245500D02*
X-230000Y-67500D01*
Y-15000D01*
X-282500Y15000D02*
X-275000D01*
X-253000D02*
X-245500D01*
X-298000Y83000D02*
X-275000D01*
X-253000D02*
X-230000D01*
X-298000Y30500D02*
Y83000D01*
Y30500D02*
X-282500Y15000D01*
X-245500D02*
X-230000Y30500D01*
Y83000D01*
D13*
X-108500Y2250D02*
X-106500D01*
X-108500Y8750D02*
X-106500D01*
X-83000Y89250D02*
X-81000D01*
X-83000Y95750D02*
X-81000D01*
M02*
