M48
;Layer_Color=9474304
;FILE_FORMAT=4:4
METRIC,LZ
;TYPE=PLATED
T1F00S00C0.2500
T2F00S00C0.3000
T3F00S00C1.0300
%
T01
X-00092168Y00068144
X-002505Y000095
X-0024475Y0
X-0025625
X-002505Y-000095
T02
X-00092Y000282
X-000983Y000347
X-000857Y000443
Y000537
Y000635
X-00067Y000652
X-0006865Y00086776
X-000846Y000925
X-00092Y000888
X-000353Y000633
Y000537
Y000445
Y000345
X-000415Y000328
X-000352Y000265
X-000362Y000055
X-00029Y000092
X-000215Y000095
X-000085Y00003
X-0001075Y-000095
X-00025Y-000075
X-000355
X-00045Y-00004
X-000525Y-000008
X-0001075Y-000385
X-00004Y-00039
X00012
X0001875Y-000385
Y-000095
X-001225Y-000075
X-001225Y000075
X-001367Y000147
X-001463
X-001557
X-001655
X-001718Y00021
X-001795Y000075
X-001795Y-000075
X-001785Y-0001995
X-001716Y-00021
X-001653Y-000147
X-001557
X-001463
X-001367
X-001304Y-00021
X-001304Y-00077
X-001367Y-000833
X-001463
X-001557
X-001653
X-001716Y-00077
X-001795Y-00099
X-0020525Y-000753
X-00217
X-0022875
X-0026125
X-00273
X-0028475
X-00291209Y-00024457
X-00289504Y-00016363
X-00290366Y-00009939
X-002745Y-000165
X-0026425Y-000155
X-00261741Y-00023439
X-00255361Y-00029741
X-00239488Y-000235
X-00233477
X-00233477Y000235
X-00239488
X-00255239Y00029741
X-00261541Y00023561
X-0026442Y00015573
X-002745Y000165
X-00283989Y00019494
X-00289767Y0001471
X-00289904Y00031102
X-0028475Y000527
X-00273
X-0026125
Y000753
X-00273
X-0028475
X-0022875
X-00217
X-0020525
Y000527
X-00217
X-0022875
X-002184Y000381
X-00207733Y00024612
X-00188Y00032
X-00158883Y00049
X-001557Y000833
X-001463
X-001367
X-001304Y00077
X-001225Y00099
X-001795Y00099
X-00176559Y00081063
X-001653Y000833
X-00158883Y-00049
X-001225Y-00099
T03
X-003359Y-000635
Y-000381
Y-000127
X-003105
Y000127
X-003359
Y000381
Y000635
X-003105
Y000381
Y-000381
Y-000635
M30
