G04*
G04 #@! TF.GenerationSoftware,Altium Limited,Altium Designer,22.4.2 (48)*
G04*
G04 Layer_Color=32896*
%FSLAX44Y44*%
%MOMM*%
G71*
G04*
G04 #@! TF.SameCoordinates,0052537D-BEB4-46D3-A19B-1C4CA2F22292*
G04*
G04*
G04 #@! TF.FilePolarity,Positive*
G04*
G01*
G75*
G36*
X-284886Y38866D02*
X-290225D01*
Y38034D01*
X-290198Y37771D01*
X-290184Y37549D01*
X-290156Y37368D01*
X-290128Y37230D01*
X-290101Y37133D01*
X-290087Y37063D01*
X-290073Y37049D01*
X-290017Y36897D01*
X-289934Y36758D01*
X-289851Y36620D01*
X-289754Y36509D01*
X-289671Y36411D01*
X-289615Y36328D01*
X-289560Y36287D01*
X-289546Y36273D01*
X-289463Y36190D01*
X-289352Y36106D01*
X-289227Y36009D01*
X-289088Y35898D01*
X-288783Y35676D01*
X-288464Y35441D01*
X-288159Y35233D01*
X-288034Y35136D01*
X-287909Y35066D01*
X-287812Y34997D01*
X-287743Y34941D01*
X-287687Y34914D01*
X-287674Y34900D01*
X-284886Y33028D01*
Y29935D01*
X-287369Y31502D01*
X-287646Y31669D01*
X-287882Y31835D01*
X-288117Y31987D01*
X-288325Y32126D01*
X-288520Y32251D01*
X-288686Y32376D01*
X-288839Y32487D01*
X-288977Y32584D01*
X-289088Y32667D01*
X-289185Y32750D01*
X-289268Y32819D01*
X-289338Y32875D01*
X-289379Y32917D01*
X-289421Y32944D01*
X-289449Y32972D01*
X-289657Y33180D01*
X-289865Y33416D01*
X-290045Y33652D01*
X-290198Y33874D01*
X-290336Y34068D01*
X-290433Y34220D01*
X-290475Y34276D01*
X-290489Y34317D01*
X-290517Y34345D01*
Y34359D01*
X-290572Y34054D01*
X-290641Y33763D01*
X-290725Y33499D01*
X-290808Y33249D01*
X-290905Y33014D01*
X-291002Y32806D01*
X-291099Y32625D01*
X-291210Y32459D01*
X-291307Y32306D01*
X-291404Y32182D01*
X-291487Y32071D01*
X-291557Y31974D01*
X-291626Y31904D01*
X-291668Y31863D01*
X-291695Y31835D01*
X-291709Y31821D01*
X-291890Y31669D01*
X-292084Y31544D01*
X-292278Y31433D01*
X-292486Y31336D01*
X-292680Y31252D01*
X-292874Y31183D01*
X-293263Y31086D01*
X-293429Y31044D01*
X-293595Y31017D01*
X-293734Y31003D01*
X-293859Y30989D01*
X-293956Y30975D01*
X-294025D01*
X-294081D01*
X-294095D01*
X-294511Y31003D01*
X-294885Y31058D01*
X-295232Y31155D01*
X-295523Y31252D01*
X-295648Y31308D01*
X-295773Y31363D01*
X-295870Y31405D01*
X-295953Y31460D01*
X-296022Y31488D01*
X-296064Y31516D01*
X-296092Y31544D01*
X-296106D01*
X-296411Y31765D01*
X-296674Y32015D01*
X-296882Y32251D01*
X-297062Y32487D01*
X-297187Y32709D01*
X-297229Y32792D01*
X-297271Y32875D01*
X-297298Y32944D01*
X-297326Y32986D01*
X-297340Y33014D01*
Y33028D01*
X-297395Y33208D01*
X-297451Y33416D01*
X-297506Y33652D01*
X-297534Y33887D01*
X-297603Y34373D01*
X-297645Y34872D01*
X-297659Y35094D01*
X-297673Y35316D01*
Y35510D01*
X-297687Y35676D01*
Y41446D01*
X-284886D01*
Y38866D01*
D02*
G37*
G36*
X-289102Y29255D02*
X-288755Y29228D01*
X-288436Y29186D01*
X-288131Y29130D01*
X-287854Y29061D01*
X-287590Y28978D01*
X-287341Y28895D01*
X-287119Y28812D01*
X-286925Y28728D01*
X-286744Y28645D01*
X-286606Y28562D01*
X-286481Y28493D01*
X-286370Y28437D01*
X-286301Y28396D01*
X-286259Y28368D01*
X-286245Y28354D01*
X-285968Y28118D01*
X-285732Y27868D01*
X-285524Y27591D01*
X-285344Y27314D01*
X-285191Y27009D01*
X-285066Y26717D01*
X-284955Y26426D01*
X-284872Y26135D01*
X-284803Y25858D01*
X-284761Y25608D01*
X-284720Y25372D01*
X-284706Y25178D01*
X-284692Y25012D01*
X-284678Y24887D01*
Y24776D01*
X-284692Y24499D01*
X-284706Y24235D01*
X-284747Y23972D01*
X-284789Y23736D01*
X-284844Y23514D01*
X-284900Y23306D01*
X-284955Y23112D01*
X-285025Y22931D01*
X-285094Y22779D01*
X-285149Y22640D01*
X-285205Y22515D01*
X-285261Y22418D01*
X-285302Y22335D01*
X-285344Y22280D01*
X-285358Y22252D01*
X-285371Y22238D01*
X-285510Y22058D01*
X-285663Y21877D01*
X-285996Y21572D01*
X-286328Y21309D01*
X-286661Y21101D01*
X-286814Y21017D01*
X-286966Y20948D01*
X-287091Y20879D01*
X-287202Y20823D01*
X-287299Y20796D01*
X-287369Y20768D01*
X-287410Y20740D01*
X-287424D01*
X-287840Y23181D01*
X-287590Y23264D01*
X-287382Y23361D01*
X-287202Y23458D01*
X-287063Y23569D01*
X-286952Y23653D01*
X-286869Y23722D01*
X-286828Y23777D01*
X-286814Y23791D01*
X-286717Y23944D01*
X-286633Y24110D01*
X-286578Y24263D01*
X-286550Y24415D01*
X-286523Y24554D01*
X-286509Y24651D01*
Y24748D01*
X-286523Y24901D01*
X-286536Y25053D01*
X-286606Y25331D01*
X-286703Y25580D01*
X-286814Y25788D01*
X-286911Y25955D01*
X-287008Y26079D01*
X-287077Y26149D01*
X-287105Y26163D01*
Y26177D01*
X-287355Y26371D01*
X-287632Y26509D01*
X-287923Y26607D01*
X-288201Y26676D01*
X-288436Y26717D01*
X-288547Y26731D01*
X-288644Y26745D01*
X-288714Y26759D01*
X-288783D01*
X-288811D01*
X-288825D01*
Y20615D01*
X-289338D01*
X-289809Y20657D01*
X-290253Y20712D01*
X-290669Y20782D01*
X-291044Y20865D01*
X-291376Y20962D01*
X-291695Y21059D01*
X-291973Y21170D01*
X-292209Y21281D01*
X-292417Y21392D01*
X-292597Y21489D01*
X-292749Y21586D01*
X-292860Y21655D01*
X-292930Y21711D01*
X-292985Y21753D01*
X-292999Y21766D01*
X-293235Y22002D01*
X-293457Y22252D01*
X-293637Y22515D01*
X-293790Y22779D01*
X-293928Y23056D01*
X-294039Y23320D01*
X-294122Y23583D01*
X-294206Y23847D01*
X-294261Y24083D01*
X-294303Y24304D01*
X-294330Y24512D01*
X-294344Y24679D01*
X-294358Y24831D01*
X-294372Y24928D01*
Y25025D01*
X-294358Y25358D01*
X-294317Y25691D01*
X-294247Y25996D01*
X-294164Y26274D01*
X-294067Y26551D01*
X-293956Y26801D01*
X-293831Y27036D01*
X-293720Y27244D01*
X-293595Y27425D01*
X-293471Y27591D01*
X-293360Y27744D01*
X-293263Y27855D01*
X-293179Y27952D01*
X-293110Y28021D01*
X-293068Y28063D01*
X-293055Y28077D01*
X-292805Y28285D01*
X-292528Y28465D01*
X-292236Y28631D01*
X-291945Y28770D01*
X-291640Y28881D01*
X-291335Y28978D01*
X-291044Y29061D01*
X-290766Y29117D01*
X-290489Y29172D01*
X-290253Y29200D01*
X-290017Y29228D01*
X-289823Y29255D01*
X-289671D01*
X-289546Y29269D01*
X-289477D01*
X-289449D01*
X-289102Y29255D01*
D02*
G37*
G36*
X-289144Y19145D02*
X-288741Y19104D01*
X-288367Y19048D01*
X-288020Y18979D01*
X-287701Y18896D01*
X-287396Y18799D01*
X-287133Y18701D01*
X-286883Y18591D01*
X-286675Y18480D01*
X-286481Y18383D01*
X-286328Y18285D01*
X-286190Y18202D01*
X-286093Y18133D01*
X-286009Y18064D01*
X-285968Y18036D01*
X-285954Y18022D01*
X-285732Y17800D01*
X-285538Y17578D01*
X-285358Y17342D01*
X-285219Y17120D01*
X-285094Y16885D01*
X-284983Y16663D01*
X-284900Y16441D01*
X-284844Y16233D01*
X-284789Y16039D01*
X-284747Y15859D01*
X-284720Y15692D01*
X-284692Y15553D01*
Y15442D01*
X-284678Y15359D01*
Y15290D01*
X-284692Y14999D01*
X-284734Y14721D01*
X-284803Y14458D01*
X-284872Y14222D01*
X-284928Y14028D01*
X-284997Y13875D01*
X-285025Y13820D01*
X-285039Y13764D01*
X-285053Y13750D01*
Y13737D01*
X-285219Y13459D01*
X-285399Y13196D01*
X-285607Y12974D01*
X-285801Y12766D01*
X-285968Y12613D01*
X-286120Y12488D01*
X-286162Y12447D01*
X-286203Y12419D01*
X-286231Y12391D01*
X-284886D01*
Y10117D01*
X-297687D01*
Y12572D01*
X-293068D01*
X-293304Y12794D01*
X-293498Y13016D01*
X-293679Y13237D01*
X-293817Y13473D01*
X-293942Y13695D01*
X-294053Y13917D01*
X-294136Y14139D01*
X-294206Y14347D01*
X-294261Y14541D01*
X-294303Y14707D01*
X-294330Y14860D01*
X-294358Y14999D01*
Y15110D01*
X-294372Y15193D01*
Y15262D01*
X-294358Y15567D01*
X-294317Y15872D01*
X-294261Y16150D01*
X-294178Y16413D01*
X-294081Y16663D01*
X-293984Y16885D01*
X-293873Y17107D01*
X-293762Y17301D01*
X-293637Y17467D01*
X-293526Y17620D01*
X-293429Y17759D01*
X-293332Y17869D01*
X-293249Y17953D01*
X-293193Y18008D01*
X-293152Y18050D01*
X-293138Y18064D01*
X-292902Y18258D01*
X-292638Y18424D01*
X-292361Y18577D01*
X-292070Y18701D01*
X-291765Y18799D01*
X-291474Y18896D01*
X-291182Y18965D01*
X-290891Y19021D01*
X-290628Y19062D01*
X-290364Y19104D01*
X-290142Y19131D01*
X-289948Y19145D01*
X-289782D01*
X-289671Y19159D01*
X-289587D01*
X-289560D01*
X-289144Y19145D01*
D02*
G37*
G36*
X-287188Y8328D02*
X-286980Y8300D01*
X-286786Y8273D01*
X-286606Y8217D01*
X-286259Y8078D01*
X-286120Y8009D01*
X-285982Y7926D01*
X-285857Y7856D01*
X-285746Y7787D01*
X-285663Y7718D01*
X-285579Y7648D01*
X-285524Y7593D01*
X-285482Y7565D01*
X-285455Y7537D01*
X-285441Y7524D01*
X-285302Y7357D01*
X-285191Y7191D01*
X-285094Y7010D01*
X-284997Y6816D01*
X-284858Y6442D01*
X-284775Y6081D01*
X-284747Y5915D01*
X-284720Y5762D01*
X-284706Y5624D01*
X-284692Y5499D01*
X-284678Y5402D01*
Y5263D01*
X-284692Y4958D01*
X-284720Y4681D01*
X-284775Y4417D01*
X-284831Y4195D01*
X-284886Y4001D01*
X-284942Y3862D01*
X-284955Y3807D01*
X-284969Y3765D01*
X-284983Y3751D01*
Y3738D01*
X-285108Y3474D01*
X-285261Y3224D01*
X-285413Y2989D01*
X-285552Y2794D01*
X-285690Y2628D01*
X-285801Y2503D01*
X-285871Y2420D01*
X-285898Y2392D01*
X-285871Y2378D01*
X-285829Y2365D01*
X-285732Y2337D01*
X-285649Y2323D01*
X-285621Y2309D01*
X-285607D01*
X-285441Y2254D01*
X-285288Y2212D01*
X-285163Y2157D01*
X-285066Y2129D01*
X-284983Y2101D01*
X-284928Y2073D01*
X-284900Y2059D01*
X-284886D01*
Y-367D01*
X-285122Y-257D01*
X-285358Y-159D01*
X-285566Y-76D01*
X-285746Y-21D01*
X-285898Y21D01*
X-286023Y49D01*
X-286093Y76D01*
X-286120D01*
X-286231Y90D01*
X-286370Y118D01*
X-286647Y146D01*
X-286952Y159D01*
X-287244Y173D01*
X-287507Y187D01*
X-287618D01*
X-287729D01*
X-287812D01*
X-287868D01*
X-287909D01*
X-287923D01*
X-290794Y146D01*
X-291085D01*
X-291349Y159D01*
X-291584Y173D01*
X-291806Y201D01*
X-292014Y229D01*
X-292195Y257D01*
X-292347Y284D01*
X-292486Y312D01*
X-292611Y340D01*
X-292708Y367D01*
X-292805Y395D01*
X-292874Y423D01*
X-292916Y451D01*
X-292957Y465D01*
X-292985Y478D01*
X-293193Y617D01*
X-293387Y797D01*
X-293554Y978D01*
X-293706Y1172D01*
X-293817Y1338D01*
X-293901Y1491D01*
X-293928Y1532D01*
X-293956Y1574D01*
X-293970Y1602D01*
Y1616D01*
X-294039Y1782D01*
X-294109Y1948D01*
X-294206Y2337D01*
X-294275Y2739D01*
X-294317Y3141D01*
X-294344Y3335D01*
X-294358Y3502D01*
Y3668D01*
X-294372Y3793D01*
Y4403D01*
X-294344Y4708D01*
X-294317Y4999D01*
X-294275Y5263D01*
X-294219Y5513D01*
X-294164Y5735D01*
X-294109Y5929D01*
X-294053Y6123D01*
X-293984Y6275D01*
X-293928Y6414D01*
X-293873Y6539D01*
X-293817Y6636D01*
X-293776Y6705D01*
X-293748Y6761D01*
X-293734Y6789D01*
X-293720Y6802D01*
X-293595Y6969D01*
X-293443Y7121D01*
X-293138Y7385D01*
X-292805Y7607D01*
X-292472Y7787D01*
X-292181Y7926D01*
X-292056Y7981D01*
X-291945Y8023D01*
X-291848Y8051D01*
X-291779Y8078D01*
X-291737Y8092D01*
X-291723D01*
X-291321Y5887D01*
X-291543Y5804D01*
X-291737Y5707D01*
X-291903Y5610D01*
X-292028Y5513D01*
X-292125Y5429D01*
X-292181Y5360D01*
X-292222Y5318D01*
X-292236Y5305D01*
X-292320Y5152D01*
X-292389Y4986D01*
X-292430Y4805D01*
X-292472Y4639D01*
X-292486Y4500D01*
X-292500Y4376D01*
Y4084D01*
X-292486Y3918D01*
X-292472Y3779D01*
X-292458Y3640D01*
X-292403Y3405D01*
X-292347Y3224D01*
X-292292Y3100D01*
X-292236Y3002D01*
X-292209Y2947D01*
X-292195Y2933D01*
X-292070Y2808D01*
X-291903Y2725D01*
X-291737Y2656D01*
X-291571Y2614D01*
X-291418Y2586D01*
X-291293Y2573D01*
X-291196D01*
X-291182D01*
X-291168D01*
X-290933D01*
X-290877Y2711D01*
X-290822Y2864D01*
X-290766Y3044D01*
X-290711Y3224D01*
X-290614Y3627D01*
X-290517Y4015D01*
X-290475Y4209D01*
X-290433Y4389D01*
X-290406Y4556D01*
X-290378Y4694D01*
X-290350Y4805D01*
X-290336Y4902D01*
X-290322Y4958D01*
Y4972D01*
X-290281Y5208D01*
X-290225Y5416D01*
X-290170Y5624D01*
X-290128Y5818D01*
X-290073Y5984D01*
X-290031Y6151D01*
X-289976Y6303D01*
X-289934Y6428D01*
X-289893Y6539D01*
X-289865Y6650D01*
X-289823Y6733D01*
X-289795Y6802D01*
X-289768Y6858D01*
X-289754Y6899D01*
X-289740Y6913D01*
Y6927D01*
X-289615Y7163D01*
X-289463Y7371D01*
X-289310Y7551D01*
X-289158Y7690D01*
X-289019Y7815D01*
X-288908Y7898D01*
X-288839Y7954D01*
X-288825Y7967D01*
X-288811D01*
X-288575Y8092D01*
X-288339Y8189D01*
X-288104Y8245D01*
X-287882Y8300D01*
X-287687Y8328D01*
X-287549Y8342D01*
X-287493D01*
X-287452D01*
X-287424D01*
X-287410D01*
X-287188Y8328D01*
D02*
G37*
G36*
X-284886Y-4611D02*
X-287854D01*
X-289047Y-5749D01*
X-284886Y-8078D01*
Y-10727D01*
X-290766Y-7329D01*
X-294164Y-10505D01*
Y-7482D01*
X-290891Y-4611D01*
X-297687D01*
Y-2157D01*
X-284886D01*
Y-4611D01*
D02*
G37*
G36*
X-289352Y-11643D02*
X-289074Y-11656D01*
X-288797Y-11684D01*
X-288547Y-11726D01*
X-288312Y-11767D01*
X-288090Y-11823D01*
X-287882Y-11878D01*
X-287687Y-11934D01*
X-287521Y-11989D01*
X-287369Y-12031D01*
X-287244Y-12086D01*
X-287133Y-12128D01*
X-287050Y-12170D01*
X-286994Y-12197D01*
X-286952Y-12225D01*
X-286939D01*
X-286550Y-12475D01*
X-286203Y-12752D01*
X-285912Y-13043D01*
X-285676Y-13321D01*
X-285496Y-13584D01*
X-285413Y-13681D01*
X-285358Y-13778D01*
X-285302Y-13862D01*
X-285274Y-13917D01*
X-285261Y-13959D01*
X-285247Y-13972D01*
X-285053Y-14402D01*
X-284914Y-14832D01*
X-284817Y-15248D01*
X-284747Y-15623D01*
X-284720Y-15789D01*
X-284706Y-15942D01*
X-284692Y-16067D01*
Y-16178D01*
X-284678Y-16275D01*
Y-16399D01*
X-284692Y-16774D01*
X-284734Y-17134D01*
X-284803Y-17481D01*
X-284900Y-17800D01*
X-284997Y-18105D01*
X-285108Y-18383D01*
X-285233Y-18646D01*
X-285371Y-18882D01*
X-285496Y-19090D01*
X-285621Y-19270D01*
X-285732Y-19437D01*
X-285843Y-19561D01*
X-285926Y-19672D01*
X-285996Y-19756D01*
X-286037Y-19797D01*
X-286051Y-19811D01*
X-286315Y-20047D01*
X-286606Y-20255D01*
X-286883Y-20435D01*
X-287188Y-20601D01*
X-287479Y-20726D01*
X-287771Y-20837D01*
X-288048Y-20934D01*
X-288325Y-21004D01*
X-288575Y-21059D01*
X-288811Y-21101D01*
X-289019Y-21128D01*
X-289199Y-21156D01*
X-289338D01*
X-289449Y-21170D01*
X-289518D01*
X-289546D01*
X-289934Y-21156D01*
X-290295Y-21115D01*
X-290641Y-21045D01*
X-290960Y-20962D01*
X-291266Y-20865D01*
X-291557Y-20740D01*
X-291820Y-20629D01*
X-292056Y-20505D01*
X-292264Y-20366D01*
X-292458Y-20255D01*
X-292611Y-20144D01*
X-292749Y-20033D01*
X-292860Y-19950D01*
X-292930Y-19880D01*
X-292985Y-19839D01*
X-292999Y-19825D01*
X-293235Y-19561D01*
X-293457Y-19298D01*
X-293637Y-19007D01*
X-293790Y-18715D01*
X-293928Y-18438D01*
X-294039Y-18147D01*
X-294122Y-17869D01*
X-294206Y-17606D01*
X-294261Y-17356D01*
X-294303Y-17121D01*
X-294330Y-16912D01*
X-294344Y-16732D01*
X-294358Y-16594D01*
X-294372Y-16483D01*
Y-16136D01*
X-294344Y-15886D01*
X-294275Y-15429D01*
X-294178Y-15013D01*
X-294122Y-14818D01*
X-294067Y-14638D01*
X-294011Y-14486D01*
X-293956Y-14347D01*
X-293901Y-14222D01*
X-293859Y-14111D01*
X-293817Y-14028D01*
X-293790Y-13972D01*
X-293776Y-13931D01*
X-293762Y-13917D01*
X-293512Y-13529D01*
X-293235Y-13196D01*
X-292944Y-12905D01*
X-292666Y-12655D01*
X-292417Y-12475D01*
X-292306Y-12391D01*
X-292209Y-12336D01*
X-292125Y-12294D01*
X-292070Y-12253D01*
X-292028Y-12239D01*
X-292014Y-12225D01*
X-291806Y-12114D01*
X-291584Y-12031D01*
X-291168Y-11878D01*
X-290766Y-11781D01*
X-290406Y-11698D01*
X-290239Y-11684D01*
X-290101Y-11656D01*
X-289962Y-11643D01*
X-289851D01*
X-289768Y-11629D01*
X-289698D01*
X-289657D01*
X-289643D01*
X-289352Y-11643D01*
D02*
G37*
G36*
X-284886Y-25553D02*
X-287341D01*
Y-23098D01*
X-284886D01*
Y-25553D01*
D02*
G37*
G36*
Y-30504D02*
X-289088D01*
X-289366D01*
X-289629Y-30517D01*
X-289865D01*
X-290073Y-30531D01*
X-290267Y-30545D01*
X-290447Y-30559D01*
X-290600Y-30573D01*
X-290739Y-30601D01*
X-290849Y-30615D01*
X-290947Y-30628D01*
X-291030Y-30642D01*
X-291099Y-30656D01*
X-291155Y-30670D01*
X-291182D01*
X-291210Y-30684D01*
X-291418Y-30767D01*
X-291598Y-30864D01*
X-291765Y-30975D01*
X-291890Y-31086D01*
X-292001Y-31197D01*
X-292070Y-31280D01*
X-292125Y-31336D01*
X-292139Y-31363D01*
X-292264Y-31558D01*
X-292347Y-31766D01*
X-292417Y-31960D01*
X-292458Y-32126D01*
X-292486Y-32293D01*
X-292500Y-32404D01*
Y-32515D01*
X-292486Y-32695D01*
X-292458Y-32847D01*
X-292417Y-32986D01*
X-292375Y-33111D01*
X-292333Y-33208D01*
X-292292Y-33291D01*
X-292264Y-33333D01*
X-292250Y-33347D01*
X-292153Y-33471D01*
X-292042Y-33582D01*
X-291917Y-33666D01*
X-291806Y-33735D01*
X-291709Y-33790D01*
X-291626Y-33832D01*
X-291571Y-33860D01*
X-291557D01*
X-291460Y-33888D01*
X-291349Y-33915D01*
X-291224Y-33943D01*
X-291071Y-33957D01*
X-290752Y-33984D01*
X-290420Y-34012D01*
X-290114D01*
X-289976Y-34026D01*
X-289865D01*
X-289754D01*
X-289685D01*
X-289629D01*
X-289615D01*
X-284886D01*
Y-36481D01*
X-290641D01*
X-291030D01*
X-291363Y-36453D01*
X-291640Y-36439D01*
X-291876Y-36411D01*
X-292056Y-36384D01*
X-292181Y-36370D01*
X-292264Y-36342D01*
X-292292D01*
X-292500Y-36287D01*
X-292694Y-36203D01*
X-292874Y-36134D01*
X-293027Y-36051D01*
X-293152Y-35968D01*
X-293235Y-35912D01*
X-293304Y-35871D01*
X-293318Y-35857D01*
X-293484Y-35718D01*
X-293623Y-35552D01*
X-293762Y-35385D01*
X-293859Y-35219D01*
X-293956Y-35080D01*
X-294011Y-34955D01*
X-294053Y-34872D01*
X-294067Y-34858D01*
Y-34844D01*
X-294164Y-34595D01*
X-294247Y-34331D01*
X-294303Y-34082D01*
X-294330Y-33860D01*
X-294358Y-33652D01*
X-294372Y-33499D01*
Y-33361D01*
X-294358Y-33028D01*
X-294303Y-32709D01*
X-294233Y-32404D01*
X-294122Y-32112D01*
X-294011Y-31849D01*
X-293873Y-31599D01*
X-293734Y-31363D01*
X-293582Y-31155D01*
X-293429Y-30961D01*
X-293290Y-30809D01*
X-293152Y-30656D01*
X-293041Y-30545D01*
X-292944Y-30448D01*
X-292860Y-30379D01*
X-292805Y-30337D01*
X-292791Y-30323D01*
X-294164D01*
Y-28049D01*
X-284886D01*
Y-30504D01*
D02*
G37*
G36*
Y-41446D02*
X-297687D01*
Y-38991D01*
X-284886D01*
Y-41446D01*
D02*
G37*
G36*
X22792Y75819D02*
X17966D01*
Y73822D01*
X17952Y73516D01*
Y73239D01*
X17938Y72976D01*
X17924Y72740D01*
X17910Y72518D01*
X17896Y72310D01*
X17869Y72130D01*
X17855Y71977D01*
X17841Y71838D01*
X17827Y71714D01*
X17813Y71616D01*
X17799Y71547D01*
Y71492D01*
X17786Y71464D01*
Y71450D01*
X17716Y71200D01*
X17633Y70951D01*
X17536Y70729D01*
X17439Y70535D01*
X17342Y70354D01*
X17258Y70230D01*
X17203Y70146D01*
X17189Y70132D01*
Y70119D01*
X16995Y69883D01*
X16787Y69661D01*
X16579Y69481D01*
X16385Y69314D01*
X16205Y69190D01*
X16052Y69106D01*
X15996Y69065D01*
X15955Y69037D01*
X15941Y69023D01*
X15927D01*
X15608Y68884D01*
X15275Y68773D01*
X14942Y68704D01*
X14637Y68649D01*
X14485Y68635D01*
X14360Y68621D01*
X14235Y68607D01*
X14138Y68593D01*
X14055D01*
X13999D01*
X13958D01*
X13944D01*
X13666Y68607D01*
X13389Y68621D01*
X13139Y68663D01*
X12904Y68704D01*
X12682Y68760D01*
X12474Y68829D01*
X12294Y68898D01*
X12113Y68968D01*
X11961Y69037D01*
X11836Y69106D01*
X11711Y69162D01*
X11614Y69231D01*
X11545Y69273D01*
X11489Y69314D01*
X11461Y69328D01*
X11448Y69342D01*
X11267Y69481D01*
X11115Y69633D01*
X10976Y69786D01*
X10837Y69952D01*
X10616Y70257D01*
X10449Y70549D01*
X10324Y70798D01*
X10283Y70909D01*
X10241Y71006D01*
X10213Y71076D01*
X10199Y71131D01*
X10186Y71173D01*
Y71186D01*
X10158Y71339D01*
X10116Y71519D01*
X10088Y71727D01*
X10075Y71963D01*
X10061Y72213D01*
X10033Y72462D01*
X10019Y72989D01*
X10005Y73239D01*
Y73461D01*
X9991Y73683D01*
Y78398D01*
X22792D01*
Y75819D01*
D02*
G37*
G36*
Y61354D02*
X22778Y61104D01*
X22764Y60868D01*
X22750Y60660D01*
X22736Y60452D01*
X22709Y60258D01*
X22681Y60092D01*
X22653Y59939D01*
X22639Y59801D01*
X22612Y59676D01*
X22584Y59565D01*
X22570Y59482D01*
X22556Y59412D01*
X22542Y59371D01*
X22529Y59343D01*
Y59329D01*
X22376Y58927D01*
X22209Y58566D01*
X22043Y58261D01*
X21877Y57998D01*
X21807Y57887D01*
X21738Y57790D01*
X21669Y57720D01*
X21613Y57651D01*
X21572Y57596D01*
X21530Y57554D01*
X21516Y57540D01*
X21502Y57526D01*
X21156Y57207D01*
X20781Y56930D01*
X20407Y56694D01*
X20046Y56500D01*
X19880Y56417D01*
X19727Y56347D01*
X19588Y56292D01*
X19477Y56236D01*
X19380Y56209D01*
X19297Y56181D01*
X19255Y56153D01*
X19242D01*
X18798Y56014D01*
X18340Y55917D01*
X17882Y55848D01*
X17453Y55806D01*
X17258Y55779D01*
X17078Y55765D01*
X16926D01*
X16787Y55751D01*
X16676D01*
X16593D01*
X16537D01*
X16523D01*
X16191D01*
X15872Y55765D01*
X15580Y55793D01*
X15289Y55820D01*
X15026Y55848D01*
X14776Y55890D01*
X14540Y55931D01*
X14332Y55959D01*
X14152Y56001D01*
X13986Y56042D01*
X13833Y56084D01*
X13722Y56112D01*
X13625Y56139D01*
X13556Y56167D01*
X13514Y56181D01*
X13500D01*
X13056Y56347D01*
X12654Y56542D01*
X12294Y56750D01*
X12141Y56847D01*
X12002Y56944D01*
X11864Y57041D01*
X11753Y57124D01*
X11656Y57207D01*
X11572Y57263D01*
X11503Y57318D01*
X11461Y57360D01*
X11434Y57387D01*
X11420Y57401D01*
X11129Y57720D01*
X10879Y58039D01*
X10671Y58358D01*
X10518Y58663D01*
X10394Y58927D01*
X10338Y59038D01*
X10310Y59135D01*
X10283Y59218D01*
X10255Y59274D01*
X10241Y59315D01*
Y59329D01*
X10199Y59496D01*
X10158Y59676D01*
X10102Y60064D01*
X10047Y60466D01*
X10019Y60855D01*
X10005Y61035D01*
Y61354D01*
X9991Y61493D01*
Y66471D01*
X22792D01*
Y61354D01*
D02*
G37*
G36*
Y51147D02*
X14388D01*
X22792Y45960D01*
Y43380D01*
X9991D01*
Y45766D01*
X18590D01*
X9991Y51036D01*
Y53532D01*
X22792D01*
Y51147D01*
D02*
G37*
G36*
Y34255D02*
X19880Y33187D01*
Y28070D01*
X22792Y26946D01*
Y24131D01*
X9991Y29262D01*
Y32008D01*
X22792Y36987D01*
Y34255D01*
D02*
G37*
G36*
Y20359D02*
X18590D01*
X18312D01*
X18049Y20345D01*
X17813D01*
X17605Y20331D01*
X17411Y20317D01*
X17231Y20303D01*
X17078Y20289D01*
X16940Y20262D01*
X16829Y20248D01*
X16731Y20234D01*
X16648Y20220D01*
X16579Y20206D01*
X16523Y20192D01*
X16496D01*
X16468Y20178D01*
X16260Y20095D01*
X16080Y19998D01*
X15913Y19887D01*
X15788Y19776D01*
X15677Y19665D01*
X15608Y19582D01*
X15553Y19527D01*
X15539Y19499D01*
X15414Y19305D01*
X15331Y19097D01*
X15261Y18903D01*
X15220Y18736D01*
X15192Y18570D01*
X15178Y18459D01*
Y18348D01*
X15192Y18168D01*
X15220Y18015D01*
X15261Y17876D01*
X15303Y17752D01*
X15345Y17655D01*
X15386Y17571D01*
X15414Y17530D01*
X15428Y17516D01*
X15525Y17391D01*
X15636Y17280D01*
X15761Y17197D01*
X15872Y17127D01*
X15969Y17072D01*
X16052Y17030D01*
X16107Y17003D01*
X16121D01*
X16218Y16975D01*
X16329Y16947D01*
X16454Y16919D01*
X16607Y16906D01*
X16926Y16878D01*
X17258Y16850D01*
X17564D01*
X17702Y16836D01*
X17813D01*
X17924D01*
X17994D01*
X18049D01*
X18063D01*
X22792D01*
Y14382D01*
X17037D01*
X16648D01*
X16315Y14409D01*
X16038Y14423D01*
X15802Y14451D01*
X15622Y14479D01*
X15497Y14492D01*
X15414Y14520D01*
X15386D01*
X15178Y14576D01*
X14984Y14659D01*
X14804Y14728D01*
X14651Y14812D01*
X14526Y14895D01*
X14443Y14950D01*
X14374Y14992D01*
X14360Y15006D01*
X14194Y15144D01*
X14055Y15311D01*
X13916Y15477D01*
X13819Y15644D01*
X13722Y15782D01*
X13666Y15907D01*
X13625Y15990D01*
X13611Y16004D01*
Y16018D01*
X13514Y16268D01*
X13431Y16531D01*
X13375Y16781D01*
X13348Y17003D01*
X13320Y17211D01*
X13306Y17363D01*
Y17502D01*
X13320Y17835D01*
X13375Y18154D01*
X13445Y18459D01*
X13556Y18750D01*
X13666Y19014D01*
X13805Y19263D01*
X13944Y19499D01*
X14096Y19707D01*
X14249Y19901D01*
X14388Y20054D01*
X14526Y20206D01*
X14637Y20317D01*
X14734Y20414D01*
X14818Y20484D01*
X14873Y20525D01*
X14887Y20539D01*
X13514D01*
Y22813D01*
X22792D01*
Y20359D01*
D02*
G37*
G36*
X20490Y12509D02*
X20698Y12482D01*
X20892Y12454D01*
X21072Y12398D01*
X21419Y12260D01*
X21558Y12190D01*
X21696Y12107D01*
X21821Y12038D01*
X21932Y11968D01*
X22015Y11899D01*
X22099Y11830D01*
X22154Y11774D01*
X22196Y11747D01*
X22223Y11719D01*
X22237Y11705D01*
X22376Y11538D01*
X22487Y11372D01*
X22584Y11192D01*
X22681Y10998D01*
X22820Y10623D01*
X22903Y10263D01*
X22931Y10096D01*
X22958Y9944D01*
X22972Y9805D01*
X22986Y9680D01*
X23000Y9583D01*
Y9444D01*
X22986Y9139D01*
X22958Y8862D01*
X22903Y8598D01*
X22847Y8377D01*
X22792Y8182D01*
X22736Y8044D01*
X22723Y7988D01*
X22709Y7947D01*
X22695Y7933D01*
Y7919D01*
X22570Y7655D01*
X22418Y7406D01*
X22265Y7170D01*
X22126Y6976D01*
X21988Y6809D01*
X21877Y6685D01*
X21807Y6601D01*
X21780Y6574D01*
X21807Y6560D01*
X21849Y6546D01*
X21946Y6518D01*
X22029Y6504D01*
X22057Y6490D01*
X22071D01*
X22237Y6435D01*
X22390Y6393D01*
X22515Y6338D01*
X22612Y6310D01*
X22695Y6282D01*
X22750Y6255D01*
X22778Y6241D01*
X22792D01*
Y3814D01*
X22556Y3925D01*
X22320Y4022D01*
X22112Y4105D01*
X21932Y4160D01*
X21780Y4202D01*
X21655Y4230D01*
X21585Y4258D01*
X21558D01*
X21447Y4272D01*
X21308Y4299D01*
X21031Y4327D01*
X20726Y4341D01*
X20434Y4355D01*
X20171Y4369D01*
X20060D01*
X19949D01*
X19866D01*
X19810D01*
X19769D01*
X19755D01*
X16884Y4327D01*
X16593D01*
X16329Y4341D01*
X16093Y4355D01*
X15872Y4382D01*
X15664Y4410D01*
X15483Y4438D01*
X15331Y4466D01*
X15192Y4493D01*
X15067Y4521D01*
X14970Y4549D01*
X14873Y4577D01*
X14804Y4604D01*
X14762Y4632D01*
X14720Y4646D01*
X14693Y4660D01*
X14485Y4798D01*
X14291Y4979D01*
X14124Y5159D01*
X13972Y5353D01*
X13861Y5520D01*
X13778Y5672D01*
X13750Y5714D01*
X13722Y5755D01*
X13708Y5783D01*
Y5797D01*
X13639Y5963D01*
X13570Y6130D01*
X13472Y6518D01*
X13403Y6920D01*
X13361Y7322D01*
X13334Y7517D01*
X13320Y7683D01*
Y7850D01*
X13306Y7974D01*
Y8585D01*
X13334Y8890D01*
X13361Y9181D01*
X13403Y9444D01*
X13458Y9694D01*
X13514Y9916D01*
X13570Y10110D01*
X13625Y10304D01*
X13694Y10457D01*
X13750Y10596D01*
X13805Y10720D01*
X13861Y10817D01*
X13902Y10887D01*
X13930Y10942D01*
X13944Y10970D01*
X13958Y10984D01*
X14083Y11150D01*
X14235Y11303D01*
X14540Y11566D01*
X14873Y11788D01*
X15206Y11968D01*
X15497Y12107D01*
X15622Y12163D01*
X15733Y12204D01*
X15830Y12232D01*
X15899Y12260D01*
X15941Y12274D01*
X15955D01*
X16357Y10069D01*
X16135Y9985D01*
X15941Y9888D01*
X15775Y9791D01*
X15650Y9694D01*
X15553Y9611D01*
X15497Y9542D01*
X15456Y9500D01*
X15442Y9486D01*
X15359Y9334D01*
X15289Y9167D01*
X15247Y8987D01*
X15206Y8820D01*
X15192Y8682D01*
X15178Y8557D01*
Y8266D01*
X15192Y8099D01*
X15206Y7961D01*
X15220Y7822D01*
X15275Y7586D01*
X15331Y7406D01*
X15386Y7281D01*
X15442Y7184D01*
X15469Y7128D01*
X15483Y7114D01*
X15608Y6990D01*
X15775Y6906D01*
X15941Y6837D01*
X16107Y6795D01*
X16260Y6768D01*
X16385Y6754D01*
X16482D01*
X16496D01*
X16510D01*
X16745D01*
X16801Y6893D01*
X16856Y7045D01*
X16912Y7225D01*
X16967Y7406D01*
X17064Y7808D01*
X17161Y8196D01*
X17203Y8390D01*
X17245Y8571D01*
X17272Y8737D01*
X17300Y8876D01*
X17328Y8987D01*
X17342Y9084D01*
X17356Y9139D01*
Y9153D01*
X17397Y9389D01*
X17453Y9597D01*
X17508Y9805D01*
X17550Y9999D01*
X17605Y10166D01*
X17647Y10332D01*
X17702Y10484D01*
X17744Y10609D01*
X17786Y10720D01*
X17813Y10831D01*
X17855Y10914D01*
X17882Y10984D01*
X17910Y11039D01*
X17924Y11081D01*
X17938Y11095D01*
Y11109D01*
X18063Y11344D01*
X18215Y11552D01*
X18368Y11733D01*
X18520Y11871D01*
X18659Y11996D01*
X18770Y12079D01*
X18839Y12135D01*
X18853Y12149D01*
X18867D01*
X19103Y12274D01*
X19339Y12371D01*
X19575Y12426D01*
X19796Y12482D01*
X19991Y12509D01*
X20129Y12523D01*
X20185D01*
X20226D01*
X20254D01*
X20268D01*
X20490Y12509D01*
D02*
G37*
G36*
X22792Y-527D02*
X9991D01*
Y1928D01*
X22792D01*
Y-527D01*
D02*
G37*
G36*
X22820Y-5381D02*
X23097Y-5298D01*
X23333Y-5201D01*
X23555Y-5090D01*
X23735Y-4993D01*
X23888Y-4895D01*
X23985Y-4826D01*
X24054Y-4771D01*
X24082Y-4757D01*
X24248Y-4590D01*
X24373Y-4396D01*
X24470Y-4174D01*
X24525Y-3980D01*
X24567Y-3786D01*
X24581Y-3634D01*
X24595Y-3578D01*
Y-3495D01*
X24581Y-3148D01*
X24553Y-2968D01*
X24525Y-2815D01*
X24512Y-2677D01*
X24484Y-2566D01*
X24470Y-2496D01*
Y-2468D01*
X26398Y-2690D01*
X26453Y-2940D01*
X26481Y-3190D01*
X26509Y-3412D01*
X26536Y-3634D01*
Y-3800D01*
X26550Y-3939D01*
Y-4063D01*
X26536Y-4327D01*
X26523Y-4563D01*
X26495Y-4771D01*
X26467Y-4951D01*
X26439Y-5103D01*
X26425Y-5214D01*
X26398Y-5284D01*
Y-5312D01*
X26342Y-5506D01*
X26273Y-5686D01*
X26204Y-5852D01*
X26134Y-5991D01*
X26079Y-6088D01*
X26023Y-6171D01*
X25996Y-6227D01*
X25982Y-6241D01*
X25871Y-6379D01*
X25760Y-6518D01*
X25649Y-6629D01*
X25538Y-6726D01*
X25441Y-6809D01*
X25358Y-6865D01*
X25302Y-6906D01*
X25288Y-6920D01*
X25108Y-7031D01*
X24914Y-7142D01*
X24706Y-7239D01*
X24512Y-7336D01*
X24331Y-7420D01*
X24193Y-7475D01*
X24137Y-7503D01*
X24096Y-7517D01*
X24068Y-7531D01*
X24054D01*
X22445Y-8127D01*
X13514Y-11400D01*
Y-8862D01*
X20115Y-6684D01*
X13514Y-4480D01*
Y-1872D01*
X22820Y-5381D01*
D02*
G37*
G36*
X22792Y-20262D02*
X20642D01*
Y-16337D01*
X20656Y-16157D01*
Y-15949D01*
X20670Y-15741D01*
X20684Y-15533D01*
Y-15366D01*
X20698Y-15297D01*
Y-15200D01*
X19353Y-16434D01*
X15247Y-19984D01*
X13514D01*
Y-12329D01*
X15553D01*
X15539Y-15588D01*
Y-15838D01*
X15525Y-16060D01*
Y-16254D01*
X15511Y-16420D01*
Y-16559D01*
X15497Y-16642D01*
Y-16725D01*
X15677Y-16545D01*
X15885Y-16351D01*
X16121Y-16143D01*
X16357Y-15935D01*
X16565Y-15741D01*
X16662Y-15657D01*
X16731Y-15588D01*
X16801Y-15533D01*
X16856Y-15491D01*
X16884Y-15463D01*
X16898Y-15449D01*
X20878Y-11982D01*
X22792D01*
Y-20262D01*
D02*
G37*
G36*
X18576Y-21219D02*
X18923Y-21246D01*
X19242Y-21288D01*
X19547Y-21343D01*
X19824Y-21413D01*
X20088Y-21496D01*
X20337Y-21579D01*
X20559Y-21662D01*
X20753Y-21746D01*
X20934Y-21829D01*
X21072Y-21912D01*
X21197Y-21981D01*
X21308Y-22037D01*
X21377Y-22078D01*
X21419Y-22106D01*
X21433Y-22120D01*
X21710Y-22356D01*
X21946Y-22606D01*
X22154Y-22883D01*
X22334Y-23160D01*
X22487Y-23465D01*
X22612Y-23756D01*
X22723Y-24048D01*
X22806Y-24339D01*
X22875Y-24616D01*
X22917Y-24866D01*
X22958Y-25102D01*
X22972Y-25296D01*
X22986Y-25462D01*
X23000Y-25587D01*
Y-25698D01*
X22986Y-25975D01*
X22972Y-26239D01*
X22931Y-26502D01*
X22889Y-26738D01*
X22834Y-26960D01*
X22778Y-27168D01*
X22723Y-27362D01*
X22653Y-27543D01*
X22584Y-27695D01*
X22529Y-27834D01*
X22473Y-27959D01*
X22418Y-28056D01*
X22376Y-28139D01*
X22334Y-28194D01*
X22320Y-28222D01*
X22307Y-28236D01*
X22168Y-28416D01*
X22015Y-28597D01*
X21683Y-28902D01*
X21350Y-29165D01*
X21017Y-29373D01*
X20864Y-29457D01*
X20712Y-29526D01*
X20587Y-29595D01*
X20476Y-29651D01*
X20379Y-29678D01*
X20310Y-29706D01*
X20268Y-29734D01*
X20254D01*
X19838Y-27293D01*
X20088Y-27210D01*
X20296Y-27113D01*
X20476Y-27016D01*
X20615Y-26905D01*
X20726Y-26821D01*
X20809Y-26752D01*
X20850Y-26697D01*
X20864Y-26683D01*
X20961Y-26530D01*
X21044Y-26364D01*
X21100Y-26211D01*
X21128Y-26059D01*
X21156Y-25920D01*
X21169Y-25823D01*
Y-25726D01*
X21156Y-25573D01*
X21142Y-25421D01*
X21072Y-25143D01*
X20975Y-24894D01*
X20864Y-24686D01*
X20767Y-24519D01*
X20670Y-24395D01*
X20601Y-24325D01*
X20573Y-24311D01*
Y-24297D01*
X20323Y-24103D01*
X20046Y-23965D01*
X19755Y-23867D01*
X19477Y-23798D01*
X19242Y-23756D01*
X19131Y-23743D01*
X19034Y-23729D01*
X18964Y-23715D01*
X18895D01*
X18867D01*
X18853D01*
Y-29859D01*
X18340D01*
X17869Y-29817D01*
X17425Y-29762D01*
X17009Y-29692D01*
X16634Y-29609D01*
X16301Y-29512D01*
X15983Y-29415D01*
X15705Y-29304D01*
X15469Y-29193D01*
X15261Y-29082D01*
X15081Y-28985D01*
X14929Y-28888D01*
X14818Y-28819D01*
X14748Y-28763D01*
X14693Y-28721D01*
X14679Y-28708D01*
X14443Y-28472D01*
X14221Y-28222D01*
X14041Y-27959D01*
X13888Y-27695D01*
X13750Y-27418D01*
X13639Y-27154D01*
X13556Y-26891D01*
X13472Y-26627D01*
X13417Y-26391D01*
X13375Y-26170D01*
X13348Y-25962D01*
X13334Y-25795D01*
X13320Y-25643D01*
X13306Y-25546D01*
Y-25449D01*
X13320Y-25116D01*
X13361Y-24783D01*
X13431Y-24478D01*
X13514Y-24200D01*
X13611Y-23923D01*
X13722Y-23673D01*
X13847Y-23438D01*
X13958Y-23229D01*
X14083Y-23049D01*
X14207Y-22883D01*
X14318Y-22730D01*
X14415Y-22619D01*
X14499Y-22522D01*
X14568Y-22453D01*
X14610Y-22411D01*
X14624Y-22397D01*
X14873Y-22189D01*
X15151Y-22009D01*
X15442Y-21843D01*
X15733Y-21704D01*
X16038Y-21593D01*
X16343Y-21496D01*
X16634Y-21413D01*
X16912Y-21357D01*
X17189Y-21302D01*
X17425Y-21274D01*
X17661Y-21246D01*
X17855Y-21219D01*
X18007D01*
X18132Y-21205D01*
X18202D01*
X18229D01*
X18576Y-21219D01*
D02*
G37*
G36*
X22792Y-34213D02*
X19935D01*
X19505D01*
X19117Y-34227D01*
X18770D01*
X18451Y-34241D01*
X18160Y-34255D01*
X17910Y-34269D01*
X17688Y-34297D01*
X17494Y-34310D01*
X17328Y-34324D01*
X17189Y-34352D01*
X17064Y-34366D01*
X16981Y-34380D01*
X16912Y-34394D01*
X16870D01*
X16842Y-34407D01*
X16829D01*
X16565Y-34491D01*
X16357Y-34588D01*
X16177Y-34685D01*
X16038Y-34768D01*
X15927Y-34851D01*
X15858Y-34921D01*
X15816Y-34962D01*
X15802Y-34976D01*
X15705Y-35115D01*
X15636Y-35267D01*
X15580Y-35406D01*
X15553Y-35545D01*
X15525Y-35670D01*
X15511Y-35767D01*
Y-35850D01*
X15525Y-36058D01*
X15567Y-36252D01*
X15636Y-36446D01*
X15705Y-36626D01*
X15788Y-36779D01*
X15844Y-36890D01*
X15899Y-36973D01*
X15913Y-37001D01*
X13778Y-37764D01*
X13625Y-37472D01*
X13500Y-37181D01*
X13417Y-36904D01*
X13361Y-36654D01*
X13334Y-36446D01*
X13320Y-36363D01*
X13306Y-36280D01*
Y-36141D01*
X13320Y-35919D01*
X13348Y-35725D01*
X13403Y-35545D01*
X13458Y-35378D01*
X13514Y-35253D01*
X13570Y-35156D01*
X13597Y-35101D01*
X13611Y-35073D01*
X13666Y-34990D01*
X13750Y-34893D01*
X13930Y-34713D01*
X14124Y-34546D01*
X14332Y-34380D01*
X14526Y-34241D01*
X14693Y-34130D01*
X14762Y-34088D01*
X14804Y-34061D01*
X14832Y-34047D01*
X14845Y-34033D01*
X13514D01*
Y-31759D01*
X22792D01*
Y-34213D01*
D02*
G37*
G36*
Y-47069D02*
Y-49843D01*
X9991Y-54420D01*
Y-51674D01*
X19463Y-48539D01*
X9991Y-45294D01*
Y-42507D01*
X22792Y-47069D01*
D02*
G37*
G36*
X15303Y-56181D02*
X15178Y-56500D01*
X15039Y-56819D01*
X14887Y-57110D01*
X14734Y-57387D01*
X14582Y-57651D01*
X14429Y-57887D01*
X14277Y-58109D01*
X14138Y-58317D01*
X13999Y-58483D01*
X13875Y-58649D01*
X13778Y-58774D01*
X13694Y-58871D01*
X13625Y-58955D01*
X13583Y-58996D01*
X13570Y-59010D01*
X22792D01*
Y-61465D01*
X9950D01*
Y-59468D01*
X10172Y-59384D01*
X10380Y-59287D01*
X10768Y-59052D01*
X11115Y-58802D01*
X11420Y-58538D01*
X11559Y-58414D01*
X11669Y-58303D01*
X11780Y-58206D01*
X11864Y-58109D01*
X11933Y-58039D01*
X11975Y-57984D01*
X12002Y-57942D01*
X12016Y-57928D01*
X12321Y-57512D01*
X12571Y-57124D01*
X12779Y-56777D01*
X12931Y-56472D01*
X13001Y-56333D01*
X13056Y-56209D01*
X13098Y-56111D01*
X13139Y-56014D01*
X13167Y-55945D01*
X13181Y-55890D01*
X13195Y-55862D01*
Y-55848D01*
X15428D01*
X15303Y-56181D01*
D02*
G37*
G36*
X22792Y-68108D02*
X20337D01*
Y-65653D01*
X22792D01*
Y-68108D01*
D02*
G37*
G36*
X17134Y-70105D02*
X17744Y-70146D01*
X18312Y-70202D01*
X18826Y-70271D01*
X19297Y-70354D01*
X19713Y-70451D01*
X20088Y-70549D01*
X20420Y-70659D01*
X20698Y-70770D01*
X20947Y-70868D01*
X21156Y-70965D01*
X21322Y-71048D01*
X21447Y-71117D01*
X21530Y-71186D01*
X21585Y-71214D01*
X21599Y-71228D01*
X21849Y-71450D01*
X22071Y-71686D01*
X22265Y-71935D01*
X22431Y-72185D01*
X22556Y-72435D01*
X22681Y-72684D01*
X22778Y-72920D01*
X22847Y-73156D01*
X22903Y-73378D01*
X22958Y-73586D01*
X22986Y-73766D01*
X23000Y-73932D01*
X23014Y-74057D01*
X23028Y-74154D01*
Y-74237D01*
X23014Y-74570D01*
X22972Y-74889D01*
X22903Y-75194D01*
X22820Y-75472D01*
X22723Y-75735D01*
X22612Y-75971D01*
X22501Y-76193D01*
X22376Y-76387D01*
X22251Y-76554D01*
X22140Y-76706D01*
X22029Y-76845D01*
X21932Y-76942D01*
X21849Y-77025D01*
X21780Y-77094D01*
X21738Y-77122D01*
X21724Y-77136D01*
X21405Y-77358D01*
X21044Y-77552D01*
X20642Y-77719D01*
X20240Y-77871D01*
X19810Y-77982D01*
X19367Y-78093D01*
X18937Y-78176D01*
X18507Y-78246D01*
X18104Y-78287D01*
X17730Y-78329D01*
X17383Y-78356D01*
X17092Y-78384D01*
X16953D01*
X16842D01*
X16745Y-78398D01*
X16648D01*
X16593D01*
X16537D01*
X16510D01*
X16496D01*
X15844Y-78384D01*
X15234Y-78343D01*
X14665Y-78287D01*
X14152Y-78204D01*
X13680Y-78107D01*
X13250Y-78010D01*
X12862Y-77885D01*
X12529Y-77774D01*
X12224Y-77663D01*
X11975Y-77552D01*
X11753Y-77441D01*
X11586Y-77344D01*
X11448Y-77261D01*
X11351Y-77205D01*
X11295Y-77164D01*
X11281Y-77150D01*
X11045Y-76942D01*
X10837Y-76720D01*
X10657Y-76484D01*
X10505Y-76248D01*
X10380Y-76013D01*
X10269Y-75763D01*
X10186Y-75527D01*
X10116Y-75305D01*
X10061Y-75083D01*
X10019Y-74875D01*
X9991Y-74695D01*
X9964Y-74543D01*
Y-74418D01*
X9950Y-74321D01*
Y-74237D01*
X9964Y-73905D01*
X10005Y-73586D01*
X10075Y-73281D01*
X10158Y-73003D01*
X10255Y-72740D01*
X10366Y-72504D01*
X10491Y-72282D01*
X10602Y-72088D01*
X10726Y-71922D01*
X10851Y-71769D01*
X10962Y-71644D01*
X11059Y-71533D01*
X11142Y-71450D01*
X11212Y-71395D01*
X11253Y-71353D01*
X11267Y-71339D01*
X11586Y-71117D01*
X11947Y-70923D01*
X12335Y-70757D01*
X12751Y-70618D01*
X13181Y-70493D01*
X13611Y-70396D01*
X14041Y-70313D01*
X14471Y-70243D01*
X14873Y-70202D01*
X15247Y-70160D01*
X15580Y-70132D01*
X15885Y-70105D01*
X16010D01*
X16121D01*
X16218Y-70091D01*
X16315D01*
X16371D01*
X16426D01*
X16454D01*
X16468D01*
X17134Y-70105D01*
D02*
G37*
%LPC*%
G36*
X-292264Y38866D02*
X-295523D01*
Y36093D01*
X-295509Y35898D01*
Y35566D01*
X-295495Y35427D01*
Y35219D01*
X-295481Y35149D01*
Y35038D01*
X-295468Y34983D01*
Y34969D01*
X-295412Y34747D01*
X-295343Y34539D01*
X-295273Y34373D01*
X-295176Y34234D01*
X-295107Y34123D01*
X-295038Y34054D01*
X-294982Y33998D01*
X-294968Y33984D01*
X-294802Y33874D01*
X-294636Y33790D01*
X-294469Y33721D01*
X-294303Y33679D01*
X-294150Y33652D01*
X-294039Y33638D01*
X-293956D01*
X-293942D01*
X-293928D01*
X-293720Y33652D01*
X-293526Y33679D01*
X-293360Y33721D01*
X-293221Y33763D01*
X-293110Y33818D01*
X-293027Y33860D01*
X-292971Y33887D01*
X-292957Y33901D01*
X-292819Y34012D01*
X-292708Y34123D01*
X-292611Y34248D01*
X-292541Y34373D01*
X-292486Y34470D01*
X-292444Y34553D01*
X-292430Y34609D01*
X-292417Y34636D01*
X-292389Y34733D01*
X-292361Y34872D01*
X-292347Y35025D01*
X-292333Y35191D01*
X-292306Y35566D01*
X-292278Y35968D01*
Y36342D01*
X-292264Y36509D01*
Y38866D01*
D02*
G37*
G36*
X-290322Y26717D02*
X-290683Y26704D01*
X-290988Y26648D01*
X-291266Y26565D01*
X-291487Y26468D01*
X-291668Y26371D01*
X-291793Y26288D01*
X-291876Y26232D01*
X-291903Y26204D01*
X-292014Y26107D01*
X-292098Y25996D01*
X-292250Y25788D01*
X-292361Y25566D01*
X-292430Y25358D01*
X-292472Y25164D01*
X-292486Y25025D01*
X-292500Y24970D01*
Y24887D01*
X-292472Y24623D01*
X-292417Y24374D01*
X-292320Y24152D01*
X-292222Y23972D01*
X-292111Y23819D01*
X-292014Y23708D01*
X-291959Y23639D01*
X-291931Y23611D01*
X-291709Y23431D01*
X-291446Y23306D01*
X-291182Y23209D01*
X-290919Y23139D01*
X-290683Y23098D01*
X-290586Y23084D01*
X-290503Y23070D01*
X-290420Y23056D01*
X-290364D01*
X-290336D01*
X-290322D01*
Y26717D01*
D02*
G37*
G36*
X-289490Y16649D02*
X-289587D01*
X-289657D01*
X-289712D01*
X-289726D01*
X-289976Y16635D01*
X-290212Y16621D01*
X-290433Y16594D01*
X-290628Y16552D01*
X-290808Y16510D01*
X-290988Y16469D01*
X-291141Y16413D01*
X-291279Y16358D01*
X-291390Y16302D01*
X-291501Y16247D01*
X-291584Y16205D01*
X-291668Y16164D01*
X-291723Y16122D01*
X-291765Y16094D01*
X-291779Y16066D01*
X-291793D01*
X-291917Y15956D01*
X-292028Y15831D01*
X-292125Y15720D01*
X-292209Y15595D01*
X-292333Y15345D01*
X-292417Y15123D01*
X-292458Y14915D01*
X-292486Y14749D01*
X-292500Y14693D01*
Y14610D01*
X-292486Y14444D01*
X-292472Y14291D01*
X-292389Y14000D01*
X-292278Y13750D01*
X-292153Y13542D01*
X-292014Y13362D01*
X-291903Y13237D01*
X-291820Y13168D01*
X-291806Y13140D01*
X-291793D01*
X-291654Y13043D01*
X-291487Y12946D01*
X-291141Y12807D01*
X-290752Y12696D01*
X-290378Y12627D01*
X-290198Y12599D01*
X-290031Y12586D01*
X-289879Y12572D01*
X-289754D01*
X-289643Y12558D01*
X-289560D01*
X-289504D01*
X-289490D01*
X-289227D01*
X-288977Y12586D01*
X-288755Y12613D01*
X-288547Y12655D01*
X-288353Y12696D01*
X-288173Y12752D01*
X-288006Y12794D01*
X-287868Y12849D01*
X-287743Y12904D01*
X-287632Y12960D01*
X-287535Y13016D01*
X-287466Y13057D01*
X-287410Y13099D01*
X-287355Y13126D01*
X-287341Y13140D01*
X-287327Y13154D01*
X-287202Y13265D01*
X-287091Y13390D01*
X-286994Y13515D01*
X-286925Y13626D01*
X-286786Y13875D01*
X-286703Y14097D01*
X-286661Y14291D01*
X-286633Y14458D01*
X-286620Y14513D01*
Y14597D01*
X-286633Y14791D01*
X-286661Y14971D01*
X-286703Y15137D01*
X-286772Y15304D01*
X-286925Y15581D01*
X-287105Y15817D01*
X-287271Y15997D01*
X-287424Y16136D01*
X-287493Y16178D01*
X-287535Y16219D01*
X-287563Y16233D01*
X-287577Y16247D01*
X-287715Y16316D01*
X-287854Y16386D01*
X-288201Y16483D01*
X-288547Y16552D01*
X-288908Y16594D01*
X-289060Y16621D01*
X-289227D01*
X-289366Y16635D01*
X-289490Y16649D01*
D02*
G37*
G36*
X-287590Y5887D02*
X-287646D01*
X-287674D01*
X-287854Y5873D01*
X-288020Y5818D01*
X-288173Y5735D01*
X-288298Y5651D01*
X-288395Y5568D01*
X-288478Y5485D01*
X-288520Y5429D01*
X-288533Y5416D01*
X-288575Y5346D01*
X-288617Y5263D01*
X-288686Y5069D01*
X-288755Y4847D01*
X-288825Y4625D01*
X-288866Y4417D01*
X-288908Y4251D01*
X-288936Y4181D01*
Y4126D01*
X-288950Y4098D01*
Y4084D01*
X-289033Y3724D01*
X-289102Y3419D01*
X-289171Y3155D01*
X-289227Y2947D01*
X-289268Y2781D01*
X-289310Y2670D01*
X-289324Y2600D01*
X-289338Y2573D01*
X-288839D01*
X-288533D01*
X-288284Y2586D01*
X-288076Y2600D01*
X-287909Y2614D01*
X-287798Y2642D01*
X-287715Y2656D01*
X-287660Y2670D01*
X-287646D01*
X-287479Y2739D01*
X-287327Y2822D01*
X-287188Y2919D01*
X-287063Y3030D01*
X-286966Y3113D01*
X-286897Y3197D01*
X-286855Y3252D01*
X-286842Y3266D01*
X-286703Y3488D01*
X-286592Y3710D01*
X-286523Y3932D01*
X-286467Y4126D01*
X-286439Y4292D01*
X-286425Y4417D01*
X-286412Y4500D01*
Y4528D01*
X-286425Y4736D01*
X-286467Y4930D01*
X-286536Y5097D01*
X-286606Y5249D01*
X-286661Y5360D01*
X-286730Y5443D01*
X-286772Y5499D01*
X-286786Y5513D01*
X-286939Y5638D01*
X-287077Y5735D01*
X-287230Y5790D01*
X-287369Y5846D01*
X-287493Y5873D01*
X-287590Y5887D01*
D02*
G37*
G36*
X-289379Y-14139D02*
X-289463D01*
X-289504D01*
X-289518D01*
X-289768Y-14153D01*
X-290004Y-14167D01*
X-290225Y-14194D01*
X-290433Y-14236D01*
X-290628Y-14291D01*
X-290794Y-14347D01*
X-290960Y-14402D01*
X-291099Y-14458D01*
X-291224Y-14513D01*
X-291335Y-14569D01*
X-291432Y-14624D01*
X-291501Y-14680D01*
X-291557Y-14721D01*
X-291612Y-14749D01*
X-291626Y-14777D01*
X-291640D01*
X-291765Y-14902D01*
X-291890Y-15040D01*
X-291987Y-15165D01*
X-292070Y-15304D01*
X-292195Y-15567D01*
X-292278Y-15831D01*
X-292333Y-16053D01*
X-292347Y-16150D01*
X-292361Y-16233D01*
X-292375Y-16288D01*
Y-16386D01*
X-292361Y-16566D01*
X-292347Y-16732D01*
X-292264Y-17037D01*
X-292139Y-17315D01*
X-292014Y-17550D01*
X-291876Y-17745D01*
X-291751Y-17883D01*
X-291709Y-17925D01*
X-291668Y-17967D01*
X-291654Y-17980D01*
X-291640Y-17994D01*
X-291501Y-18105D01*
X-291335Y-18216D01*
X-291002Y-18369D01*
X-290655Y-18493D01*
X-290309Y-18563D01*
X-290156Y-18591D01*
X-290004Y-18618D01*
X-289879Y-18632D01*
X-289754D01*
X-289671Y-18646D01*
X-289587D01*
X-289546D01*
X-289532D01*
X-289282D01*
X-289033Y-18618D01*
X-288811Y-18591D01*
X-288603Y-18549D01*
X-288423Y-18493D01*
X-288242Y-18438D01*
X-288076Y-18383D01*
X-287937Y-18327D01*
X-287812Y-18258D01*
X-287701Y-18202D01*
X-287604Y-18147D01*
X-287535Y-18091D01*
X-287479Y-18050D01*
X-287438Y-18022D01*
X-287410Y-18008D01*
X-287396Y-17994D01*
X-287271Y-17869D01*
X-287160Y-17745D01*
X-287063Y-17606D01*
X-286980Y-17467D01*
X-286855Y-17204D01*
X-286772Y-16940D01*
X-286717Y-16718D01*
X-286703Y-16621D01*
X-286689Y-16552D01*
X-286675Y-16483D01*
Y-16386D01*
X-286689Y-16205D01*
X-286703Y-16039D01*
X-286786Y-15734D01*
X-286897Y-15456D01*
X-287036Y-15221D01*
X-287174Y-15040D01*
X-287285Y-14888D01*
X-287327Y-14846D01*
X-287369Y-14805D01*
X-287382Y-14791D01*
X-287396Y-14777D01*
X-287535Y-14666D01*
X-287701Y-14569D01*
X-288034Y-14402D01*
X-288395Y-14291D01*
X-288728Y-14222D01*
X-288894Y-14194D01*
X-289047Y-14167D01*
X-289171Y-14153D01*
X-289296D01*
X-289379Y-14139D01*
D02*
G37*
G36*
X15802Y75819D02*
X12155D01*
Y74085D01*
X12169Y73877D01*
Y73697D01*
X12183Y73530D01*
Y73378D01*
X12197Y73239D01*
Y73114D01*
X12210Y73017D01*
X12224Y72934D01*
Y72865D01*
X12238Y72809D01*
X12252Y72740D01*
Y72712D01*
X12307Y72490D01*
X12391Y72282D01*
X12474Y72102D01*
X12571Y71963D01*
X12668Y71838D01*
X12751Y71741D01*
X12807Y71686D01*
X12821Y71672D01*
X13001Y71533D01*
X13195Y71436D01*
X13389Y71353D01*
X13570Y71311D01*
X13722Y71284D01*
X13861Y71256D01*
X13944D01*
X13958D01*
X13972D01*
X14180Y71270D01*
X14374Y71297D01*
X14540Y71353D01*
X14679Y71408D01*
X14804Y71464D01*
X14887Y71519D01*
X14956Y71547D01*
X14970Y71561D01*
X15123Y71672D01*
X15247Y71811D01*
X15359Y71949D01*
X15456Y72074D01*
X15525Y72185D01*
X15567Y72282D01*
X15594Y72338D01*
X15608Y72365D01*
X15636Y72476D01*
X15677Y72601D01*
X15691Y72740D01*
X15719Y72906D01*
X15761Y73239D01*
X15775Y73572D01*
X15788Y73891D01*
X15802Y74029D01*
Y75819D01*
D02*
G37*
G36*
X20628Y63892D02*
X12155D01*
Y62200D01*
X12169Y61964D01*
Y61742D01*
X12183Y61548D01*
X12197Y61368D01*
X12210Y61215D01*
Y61090D01*
X12224Y60965D01*
X12238Y60868D01*
X12252Y60785D01*
X12266Y60730D01*
Y60674D01*
X12280Y60647D01*
Y60619D01*
X12349Y60355D01*
X12446Y60120D01*
X12543Y59911D01*
X12640Y59745D01*
X12737Y59606D01*
X12821Y59496D01*
X12876Y59440D01*
X12890Y59412D01*
X13070Y59246D01*
X13264Y59093D01*
X13472Y58969D01*
X13666Y58871D01*
X13847Y58788D01*
X13999Y58719D01*
X14041Y58705D01*
X14083Y58691D01*
X14110Y58677D01*
X14124D01*
X14277Y58636D01*
X14443Y58594D01*
X14818Y58525D01*
X15192Y58483D01*
X15553Y58442D01*
X15733D01*
X15885Y58428D01*
X16024D01*
X16149Y58414D01*
X16260D01*
X16329D01*
X16385D01*
X16399D01*
X16662D01*
X16926Y58428D01*
X17161Y58442D01*
X17397Y58455D01*
X17605Y58469D01*
X17786Y58497D01*
X17966Y58525D01*
X18132Y58538D01*
X18271Y58566D01*
X18396Y58594D01*
X18493Y58622D01*
X18590Y58636D01*
X18659Y58650D01*
X18701Y58663D01*
X18728Y58677D01*
X18742D01*
X19047Y58788D01*
X19297Y58899D01*
X19505Y59010D01*
X19685Y59121D01*
X19810Y59204D01*
X19907Y59287D01*
X19963Y59343D01*
X19977Y59357D01*
X20101Y59523D01*
X20212Y59690D01*
X20310Y59870D01*
X20393Y60036D01*
X20448Y60175D01*
X20490Y60286D01*
X20504Y60369D01*
X20517Y60383D01*
Y60397D01*
X20531Y60494D01*
X20559Y60605D01*
X20587Y60841D01*
X20601Y61104D01*
X20615Y61368D01*
X20628Y61590D01*
Y63892D01*
D02*
G37*
G36*
X17716Y32397D02*
X12973Y30663D01*
X17716Y28888D01*
Y32397D01*
D02*
G37*
G36*
X20088Y10069D02*
X20032D01*
X20004D01*
X19824Y10055D01*
X19658Y9999D01*
X19505Y9916D01*
X19380Y9833D01*
X19283Y9750D01*
X19200Y9666D01*
X19158Y9611D01*
X19145Y9597D01*
X19103Y9528D01*
X19061Y9444D01*
X18992Y9250D01*
X18923Y9028D01*
X18853Y8806D01*
X18812Y8598D01*
X18770Y8432D01*
X18742Y8363D01*
Y8307D01*
X18728Y8280D01*
Y8266D01*
X18645Y7905D01*
X18576Y7600D01*
X18507Y7336D01*
X18451Y7128D01*
X18410Y6962D01*
X18368Y6851D01*
X18354Y6782D01*
X18340Y6754D01*
X18839D01*
X19145D01*
X19394Y6768D01*
X19602Y6782D01*
X19769Y6795D01*
X19880Y6823D01*
X19963Y6837D01*
X20018Y6851D01*
X20032D01*
X20199Y6920D01*
X20351Y7004D01*
X20490Y7101D01*
X20615Y7212D01*
X20712Y7295D01*
X20781Y7378D01*
X20823Y7434D01*
X20837Y7447D01*
X20975Y7669D01*
X21086Y7891D01*
X21156Y8113D01*
X21211Y8307D01*
X21239Y8474D01*
X21253Y8598D01*
X21266Y8682D01*
Y8709D01*
X21253Y8917D01*
X21211Y9112D01*
X21142Y9278D01*
X21072Y9431D01*
X21017Y9542D01*
X20947Y9625D01*
X20906Y9680D01*
X20892Y9694D01*
X20739Y9819D01*
X20601Y9916D01*
X20448Y9971D01*
X20310Y10027D01*
X20185Y10055D01*
X20088Y10069D01*
D02*
G37*
G36*
X17356Y-23756D02*
X16995Y-23770D01*
X16690Y-23826D01*
X16413Y-23909D01*
X16191Y-24006D01*
X16010Y-24103D01*
X15885Y-24186D01*
X15802Y-24242D01*
X15775Y-24270D01*
X15664Y-24367D01*
X15580Y-24478D01*
X15428Y-24686D01*
X15317Y-24908D01*
X15247Y-25116D01*
X15206Y-25310D01*
X15192Y-25449D01*
X15178Y-25504D01*
Y-25587D01*
X15206Y-25851D01*
X15261Y-26100D01*
X15359Y-26322D01*
X15456Y-26502D01*
X15567Y-26655D01*
X15664Y-26766D01*
X15719Y-26835D01*
X15747Y-26863D01*
X15969Y-27043D01*
X16232Y-27168D01*
X16496Y-27265D01*
X16759Y-27335D01*
X16995Y-27376D01*
X17092Y-27390D01*
X17175Y-27404D01*
X17258Y-27418D01*
X17314D01*
X17342D01*
X17356D01*
Y-23756D01*
D02*
G37*
G36*
X16856Y-72656D02*
X16704D01*
X16593D01*
X16523D01*
X16496D01*
X16093D01*
X15719Y-72670D01*
X15359Y-72684D01*
X15053Y-72698D01*
X14762Y-72712D01*
X14499Y-72740D01*
X14263Y-72754D01*
X14055Y-72781D01*
X13875Y-72809D01*
X13708Y-72823D01*
X13583Y-72851D01*
X13472Y-72864D01*
X13389Y-72878D01*
X13334Y-72892D01*
X13306Y-72906D01*
X13292D01*
X13043Y-72989D01*
X12821Y-73073D01*
X12654Y-73170D01*
X12515Y-73253D01*
X12405Y-73322D01*
X12335Y-73391D01*
X12294Y-73433D01*
X12280Y-73447D01*
X12183Y-73586D01*
X12113Y-73710D01*
X12058Y-73849D01*
X12030Y-73974D01*
X12002Y-74085D01*
X11989Y-74168D01*
Y-74237D01*
X12002Y-74404D01*
X12030Y-74543D01*
X12085Y-74681D01*
X12127Y-74806D01*
X12183Y-74889D01*
X12238Y-74973D01*
X12266Y-75014D01*
X12280Y-75028D01*
X12405Y-75153D01*
X12571Y-75264D01*
X12751Y-75361D01*
X12945Y-75444D01*
X13126Y-75513D01*
X13264Y-75555D01*
X13320Y-75569D01*
X13361Y-75583D01*
X13389Y-75597D01*
X13403D01*
X13583Y-75638D01*
X13778Y-75680D01*
X13999Y-75708D01*
X14249Y-75735D01*
X14748Y-75777D01*
X15261Y-75805D01*
X15511Y-75819D01*
X15733D01*
X15955Y-75832D01*
X16135D01*
X16288D01*
X16399D01*
X16468D01*
X16496D01*
X16898D01*
X17286Y-75819D01*
X17633Y-75805D01*
X17952Y-75791D01*
X18243Y-75777D01*
X18507Y-75749D01*
X18742Y-75721D01*
X18950Y-75708D01*
X19131Y-75680D01*
X19283Y-75652D01*
X19408Y-75624D01*
X19519Y-75610D01*
X19602Y-75597D01*
X19658Y-75583D01*
X19685Y-75569D01*
X19699D01*
X19949Y-75486D01*
X20171Y-75402D01*
X20337Y-75319D01*
X20476Y-75222D01*
X20587Y-75153D01*
X20656Y-75083D01*
X20698Y-75042D01*
X20712Y-75028D01*
X20809Y-74889D01*
X20878Y-74764D01*
X20920Y-74626D01*
X20947Y-74501D01*
X20975Y-74390D01*
X20989Y-74307D01*
Y-74237D01*
X20975Y-74071D01*
X20947Y-73932D01*
X20906Y-73794D01*
X20850Y-73683D01*
X20795Y-73586D01*
X20753Y-73502D01*
X20726Y-73461D01*
X20712Y-73447D01*
X20587Y-73322D01*
X20420Y-73211D01*
X20240Y-73114D01*
X20046Y-73031D01*
X19880Y-72962D01*
X19741Y-72920D01*
X19685Y-72906D01*
X19644Y-72892D01*
X19616Y-72878D01*
X19602D01*
X19422Y-72837D01*
X19228Y-72809D01*
X19006Y-72781D01*
X18756Y-72754D01*
X18243Y-72712D01*
X17730Y-72684D01*
X17480Y-72670D01*
X17258D01*
X17050D01*
X16856Y-72656D01*
D02*
G37*
%LPD*%
M02*
