M48
;Layer_Color=9474304
;FILE_FORMAT=4:4
METRIC,LZ
;TYPE=PLATED
T1F00S00C0.2500
T2F00S00C0.3000
T3F00S00C1.0300
%
T01
X-00126168Y00068144
T02
X-000865Y-000008
X-00079Y-00004
X-000695Y-000075
X-00059
X-0004475Y-000095
X-000425Y00003
X-000555Y000095
X-00063Y000092
X-000702Y000055
X-000692Y000265
X-000693Y000345
X-000755Y000328
X-000693Y000445
Y000537
Y000633
X-00101Y000652
X-0010265Y00086776
X-0004475Y-000385
X-00038Y-00039
X-00022
X-0001525Y-000385
Y-000095
X-001565Y-000075
X-001565Y000075
X-001707Y000147
X-001803
X-001897
X-001995
X-002058Y00021
X-002135Y000075
X-002135Y-000075
X-002125Y-0001995
X-002056Y-00021
X-001993Y-000147
X-001897
X-001803
X-001707
X-001644Y-00021
X-001644Y-00077
X-001707Y-000833
X-001803
X-001897
X-001993
X-002056Y-00077
X-002135Y-00099
X-002527Y-0008875
Y-00077
Y-0006525
X-002753
Y-00077
Y-0008875
Y-0003275
Y-00021
Y-0000925
Y0000925
Y00021
Y0003275
X-002527
Y00021
Y0000925
Y-0000925
Y-00021
Y-0003275
X-002425Y0
X-00225
X-00192883Y00049
X-001897Y000833
X-001803
X-001707
X-001644Y00077
X-001565Y00099
X-00126Y000888
X-001186Y000925
X-001197Y000635
Y000537
Y000443
X-001323Y000347
X-00126Y000282
X-001993Y000833
X-0021255Y00078765
X-002135Y00099
X-002527Y0008875
Y00077
Y0006525
X-002753
Y00077
Y0008875
X-00192883Y-00049
X-001565Y-00099
T03
X-003384Y-000635
Y-000381
Y-000127
X-00313
Y000127
X-003384
Y000381
Y000635
X-00313
Y000381
Y-000381
Y-000635
M30
