G04*
G04 #@! TF.GenerationSoftware,Altium Limited,Altium Designer,22.4.2 (48)*
G04*
G04 Layer_Physical_Order=3*
G04 Layer_Color=16440176*
%FSLAX44Y44*%
%MOMM*%
G71*
G04*
G04 #@! TF.SameCoordinates,0052537D-BEB4-46D3-A19B-1C4CA2F22292*
G04*
G04*
G04 #@! TF.FilePolarity,Positive*
G04*
G01*
G75*
%ADD10C,0.5000*%
%ADD30C,1.5000*%
%ADD32C,0.1750*%
%ADD33C,0.6000*%
G36*
X-29000Y68000D02*
X-29000Y13220D01*
X-29547Y11950D01*
X-30558Y11531D01*
X-31331Y10758D01*
X-31750Y9747D01*
Y8653D01*
X-31331Y7642D01*
X-30558Y6869D01*
X-29985Y6631D01*
X-29000Y5942D01*
Y-6331D01*
Y-18669D01*
Y-31299D01*
Y-43526D01*
Y-57100D01*
X-29000Y-69900D01*
Y-80969D01*
Y-93266D01*
Y-101181D01*
X-29063Y-101404D01*
X-29980Y-102451D01*
X-120403D01*
X-120674Y-101888D01*
X-120792Y-101181D01*
X-120169Y-100558D01*
X-119750Y-99547D01*
Y-98453D01*
X-120169Y-97442D01*
X-120942Y-96669D01*
X-121953Y-96250D01*
X-123047D01*
X-124058Y-96669D01*
X-124831Y-97442D01*
X-125250Y-98453D01*
Y-99547D01*
X-124831Y-100558D01*
X-124208Y-101181D01*
X-124326Y-101888D01*
X-124597Y-102451D01*
X-177403D01*
X-177674Y-101888D01*
X-177792Y-101181D01*
X-177169Y-100558D01*
X-176750Y-99547D01*
Y-98453D01*
X-177169Y-97442D01*
X-177942Y-96669D01*
X-178953Y-96250D01*
X-180047D01*
X-181058Y-96669D01*
X-181831Y-97442D01*
X-182250Y-98453D01*
Y-99547D01*
X-181831Y-100558D01*
X-181208Y-101181D01*
X-181326Y-101888D01*
X-181597Y-102451D01*
X-339219D01*
X-342590Y-101781D01*
X-345766Y-100465D01*
X-348625Y-98555D01*
X-351055Y-96125D01*
X-352965Y-93266D01*
X-354281Y-90090D01*
X-354951Y-86719D01*
Y-85000D01*
Y-23750D01*
Y85000D01*
Y86719D01*
X-354281Y90090D01*
X-352965Y93266D01*
X-351055Y96125D01*
X-348625Y98555D01*
X-345766Y100465D01*
X-342590Y101781D01*
X-338974Y102500D01*
X-181549D01*
X-181212Y101699D01*
X-181159Y101230D01*
X-181831Y100558D01*
X-182250Y99547D01*
Y98453D01*
X-181831Y97442D01*
X-181058Y96669D01*
X-180047Y96250D01*
X-178953D01*
X-177942Y96669D01*
X-177169Y97442D01*
X-176750Y98453D01*
Y99547D01*
X-177169Y100558D01*
X-177841Y101230D01*
X-177788Y101699D01*
X-177451Y102500D01*
X-124548D01*
X-124212Y101699D01*
X-124159Y101230D01*
X-124831Y100558D01*
X-125250Y99547D01*
Y98453D01*
X-124831Y97442D01*
X-124058Y96669D01*
X-123047Y96250D01*
X-121953D01*
X-120942Y96669D01*
X-120169Y97442D01*
X-119750Y98453D01*
Y99547D01*
X-120169Y100558D01*
X-120841Y101230D01*
X-120788Y101699D01*
X-120451Y102500D01*
X-63500D01*
X-29000Y68000D01*
D02*
G37*
%LPC*%
G36*
X-84053Y95250D02*
X-85147D01*
X-86158Y94831D01*
X-86931Y94058D01*
X-87350Y93047D01*
Y91953D01*
X-86931Y90942D01*
X-86158Y90169D01*
X-85147Y89750D01*
X-84053D01*
X-83042Y90169D01*
X-82269Y90942D01*
X-81850Y91953D01*
Y93047D01*
X-82269Y94058D01*
X-83042Y94831D01*
X-84053Y95250D01*
D02*
G37*
G36*
X-91453Y91550D02*
X-92547D01*
X-93558Y91131D01*
X-94331Y90358D01*
X-94750Y89347D01*
Y88253D01*
X-94331Y87242D01*
X-93558Y86469D01*
X-92547Y86050D01*
X-91453D01*
X-90442Y86469D01*
X-89669Y87242D01*
X-89250Y88253D01*
Y89347D01*
X-89669Y90358D01*
X-90442Y91131D01*
X-91453Y91550D01*
D02*
G37*
G36*
X-136153Y86050D02*
X-137247D01*
X-138258Y85631D01*
X-139031Y84858D01*
X-139450Y83847D01*
Y82753D01*
X-139031Y81742D01*
X-138258Y80969D01*
X-137247Y80550D01*
X-136153D01*
X-135142Y80969D01*
X-134369Y81742D01*
X-133950Y82753D01*
Y83847D01*
X-134369Y84858D01*
X-135142Y85631D01*
X-136153Y86050D01*
D02*
G37*
G36*
X-145753D02*
X-146847D01*
X-147858Y85631D01*
X-148631Y84858D01*
X-149050Y83847D01*
Y82753D01*
X-148631Y81742D01*
X-147858Y80969D01*
X-146847Y80550D01*
X-145753D01*
X-144742Y80969D01*
X-143969Y81742D01*
X-143550Y82753D01*
Y83847D01*
X-143969Y84858D01*
X-144742Y85631D01*
X-145753Y86050D01*
D02*
G37*
G36*
X-155153D02*
X-156247D01*
X-157258Y85631D01*
X-158031Y84858D01*
X-158450Y83847D01*
Y82753D01*
X-158031Y81742D01*
X-157258Y80969D01*
X-156247Y80550D01*
X-155153D01*
X-154142Y80969D01*
X-153369Y81742D01*
X-152950Y82753D01*
Y83847D01*
X-153369Y84858D01*
X-154142Y85631D01*
X-155153Y86050D01*
D02*
G37*
G36*
X-164753D02*
X-165847D01*
X-166858Y85631D01*
X-167631Y84858D01*
X-168050Y83847D01*
Y82753D01*
X-167631Y81742D01*
X-166858Y80969D01*
X-165847Y80550D01*
X-164753D01*
X-163742Y80969D01*
X-162969Y81742D01*
X-162550Y82753D01*
Y83847D01*
X-162969Y84858D01*
X-163742Y85631D01*
X-164753Y86050D01*
D02*
G37*
G36*
X-176012Y83813D02*
X-177106D01*
X-178117Y83394D01*
X-178890Y82621D01*
X-179309Y81610D01*
Y80516D01*
X-178890Y79505D01*
X-178117Y78732D01*
X-177106Y78313D01*
X-176012D01*
X-175001Y78732D01*
X-174228Y79505D01*
X-173809Y80516D01*
Y81610D01*
X-174228Y82621D01*
X-175001Y83394D01*
X-176012Y83813D01*
D02*
G37*
G36*
X-129853Y79750D02*
X-130947D01*
X-131958Y79331D01*
X-132731Y78558D01*
X-133150Y77547D01*
Y76453D01*
X-132731Y75442D01*
X-131958Y74669D01*
X-130947Y74250D01*
X-129853D01*
X-128842Y74669D01*
X-128069Y75442D01*
X-127650Y76453D01*
Y77547D01*
X-128069Y78558D01*
X-128842Y79331D01*
X-129853Y79750D01*
D02*
G37*
G36*
X-204703Y78050D02*
X-205797D01*
X-206808Y77631D01*
X-207581Y76858D01*
X-208000Y75847D01*
Y74753D01*
X-207581Y73742D01*
X-206808Y72969D01*
X-205797Y72550D01*
X-204703D01*
X-203692Y72969D01*
X-202919Y73742D01*
X-202500Y74753D01*
Y75847D01*
X-202919Y76858D01*
X-203692Y77631D01*
X-204703Y78050D01*
D02*
G37*
G36*
X-216453D02*
X-217547D01*
X-218558Y77631D01*
X-219331Y76858D01*
X-219750Y75847D01*
Y74753D01*
X-219331Y73742D01*
X-218558Y72969D01*
X-217547Y72550D01*
X-216453D01*
X-215442Y72969D01*
X-214669Y73742D01*
X-214250Y74753D01*
Y75847D01*
X-214669Y76858D01*
X-215442Y77631D01*
X-216453Y78050D01*
D02*
G37*
G36*
X-228203D02*
X-229297D01*
X-230308Y77631D01*
X-231081Y76858D01*
X-231500Y75847D01*
Y74753D01*
X-231081Y73742D01*
X-230308Y72969D01*
X-229297Y72550D01*
X-228203D01*
X-227192Y72969D01*
X-226419Y73742D01*
X-226000Y74753D01*
Y75847D01*
X-226419Y76858D01*
X-227192Y77631D01*
X-228203Y78050D01*
D02*
G37*
G36*
X-260703D02*
X-261797D01*
X-262808Y77631D01*
X-263581Y76858D01*
X-264000Y75847D01*
Y74753D01*
X-263581Y73742D01*
X-262808Y72969D01*
X-261797Y72550D01*
X-260703D01*
X-259692Y72969D01*
X-258919Y73742D01*
X-258500Y74753D01*
Y75847D01*
X-258919Y76858D01*
X-259692Y77631D01*
X-260703Y78050D01*
D02*
G37*
G36*
X-272453D02*
X-273547D01*
X-274558Y77631D01*
X-275331Y76858D01*
X-275750Y75847D01*
Y74753D01*
X-275331Y73742D01*
X-274558Y72969D01*
X-273547Y72550D01*
X-272453D01*
X-271442Y72969D01*
X-270669Y73742D01*
X-270250Y74753D01*
Y75847D01*
X-270669Y76858D01*
X-271442Y77631D01*
X-272453Y78050D01*
D02*
G37*
G36*
X-284203D02*
X-285297D01*
X-286308Y77631D01*
X-287081Y76858D01*
X-287500Y75847D01*
Y74753D01*
X-287081Y73742D01*
X-286308Y72969D01*
X-285297Y72550D01*
X-284203D01*
X-283192Y72969D01*
X-282419Y73742D01*
X-282000Y74753D01*
Y75847D01*
X-282419Y76858D01*
X-283192Y77631D01*
X-284203Y78050D01*
D02*
G37*
G36*
X-34753Y66050D02*
X-35847D01*
X-36858Y65631D01*
X-37631Y64858D01*
X-38050Y63847D01*
Y62753D01*
X-37631Y61742D01*
X-36858Y60969D01*
X-35847Y60550D01*
X-34753D01*
X-33742Y60969D01*
X-32969Y61742D01*
X-32550Y62753D01*
Y63847D01*
X-32969Y64858D01*
X-33742Y65631D01*
X-34753Y66050D01*
D02*
G37*
G36*
X-309227Y69900D02*
X-311773D01*
X-314125Y68926D01*
X-315926Y67125D01*
X-316900Y64773D01*
Y62227D01*
X-315926Y59875D01*
X-314125Y58074D01*
X-311773Y57100D01*
X-309227D01*
X-306875Y58074D01*
X-305074Y59875D01*
X-304100Y62227D01*
Y64773D01*
X-305074Y67125D01*
X-306875Y68926D01*
X-309227Y69900D01*
D02*
G37*
G36*
X-334627D02*
X-337173D01*
X-339525Y68926D01*
X-341326Y67125D01*
X-342300Y64773D01*
Y62227D01*
X-341326Y59875D01*
X-339525Y58074D01*
X-337173Y57100D01*
X-334627D01*
X-332275Y58074D01*
X-330474Y59875D01*
X-329500Y62227D01*
Y64773D01*
X-330474Y67125D01*
X-332275Y68926D01*
X-334627Y69900D01*
D02*
G37*
G36*
X-34753Y56450D02*
X-35847D01*
X-36858Y56031D01*
X-37631Y55258D01*
X-38050Y54247D01*
Y53153D01*
X-37631Y52142D01*
X-36858Y51369D01*
X-35847Y50950D01*
X-34753D01*
X-33742Y51369D01*
X-32969Y52142D01*
X-32550Y53153D01*
Y54247D01*
X-32969Y55258D01*
X-33742Y56031D01*
X-34753Y56450D01*
D02*
G37*
G36*
X-85153D02*
X-86247D01*
X-87258Y56031D01*
X-88031Y55258D01*
X-88450Y54247D01*
Y53153D01*
X-88031Y52142D01*
X-87258Y51369D01*
X-86247Y50950D01*
X-85153D01*
X-84142Y51369D01*
X-83369Y52142D01*
X-82950Y53153D01*
Y54247D01*
X-83369Y55258D01*
X-84142Y56031D01*
X-85153Y56450D01*
D02*
G37*
G36*
X-204703Y55450D02*
X-205797D01*
X-206808Y55031D01*
X-207581Y54258D01*
X-208000Y53247D01*
Y52153D01*
X-207581Y51142D01*
X-206808Y50369D01*
X-205797Y49950D01*
X-204703D01*
X-203692Y50369D01*
X-202919Y51142D01*
X-202500Y52153D01*
Y53247D01*
X-202919Y54258D01*
X-203692Y55031D01*
X-204703Y55450D01*
D02*
G37*
G36*
X-216453D02*
X-217547D01*
X-218558Y55031D01*
X-219331Y54258D01*
X-219750Y53247D01*
Y52153D01*
X-219331Y51142D01*
X-218558Y50369D01*
X-217547Y49950D01*
X-216453D01*
X-215442Y50369D01*
X-214669Y51142D01*
X-214250Y52153D01*
Y53247D01*
X-214669Y54258D01*
X-215442Y55031D01*
X-216453Y55450D01*
D02*
G37*
G36*
X-228203D02*
X-229297D01*
X-230308Y55031D01*
X-231081Y54258D01*
X-231500Y53247D01*
Y52153D01*
X-231081Y51142D01*
X-230308Y50369D01*
X-229297Y49950D01*
X-228203D01*
X-227192Y50369D01*
X-226419Y51142D01*
X-226000Y52153D01*
Y53247D01*
X-226419Y54258D01*
X-227192Y55031D01*
X-228203Y55450D01*
D02*
G37*
G36*
X-260703D02*
X-261797D01*
X-262808Y55031D01*
X-263581Y54258D01*
X-264000Y53247D01*
Y52153D01*
X-263581Y51142D01*
X-262808Y50369D01*
X-261797Y49950D01*
X-260703D01*
X-259692Y50369D01*
X-258919Y51142D01*
X-258500Y52153D01*
Y53247D01*
X-258919Y54258D01*
X-259692Y55031D01*
X-260703Y55450D01*
D02*
G37*
G36*
X-272453D02*
X-273547D01*
X-274558Y55031D01*
X-275331Y54258D01*
X-275750Y53247D01*
Y52153D01*
X-275331Y51142D01*
X-274558Y50369D01*
X-273547Y49950D01*
X-272453D01*
X-271442Y50369D01*
X-270669Y51142D01*
X-270250Y52153D01*
Y53247D01*
X-270669Y54258D01*
X-271442Y55031D01*
X-272453Y55450D01*
D02*
G37*
G36*
X-284203D02*
X-285297D01*
X-286308Y55031D01*
X-287081Y54258D01*
X-287500Y53247D01*
Y52153D01*
X-287081Y51142D01*
X-286308Y50369D01*
X-285297Y49950D01*
X-284203D01*
X-283192Y50369D01*
X-282419Y51142D01*
X-282000Y52153D01*
Y53247D01*
X-282419Y54258D01*
X-283192Y55031D01*
X-284203Y55450D01*
D02*
G37*
G36*
X-158336Y51750D02*
X-159431D01*
X-160441Y51331D01*
X-161215Y50558D01*
X-161633Y49547D01*
Y48453D01*
X-161215Y47442D01*
X-160441Y46669D01*
X-159431Y46250D01*
X-158336D01*
X-157326Y46669D01*
X-156552Y47442D01*
X-156133Y48453D01*
Y49547D01*
X-156552Y50558D01*
X-157326Y51331D01*
X-158336Y51750D01*
D02*
G37*
G36*
X-34753Y47250D02*
X-35847D01*
X-36858Y46831D01*
X-37631Y46058D01*
X-38050Y45047D01*
Y43953D01*
X-37631Y42942D01*
X-36858Y42169D01*
X-35847Y41750D01*
X-34753D01*
X-33742Y42169D01*
X-32969Y42942D01*
X-32550Y43953D01*
Y45047D01*
X-32969Y46058D01*
X-33742Y46831D01*
X-34753Y47250D01*
D02*
G37*
G36*
Y37250D02*
X-35847D01*
X-36858Y36831D01*
X-37631Y36058D01*
X-38050Y35047D01*
Y34899D01*
X-38607Y34629D01*
X-39320Y34509D01*
X-39942Y35131D01*
X-40953Y35550D01*
X-42047D01*
X-43058Y35131D01*
X-43831Y34358D01*
X-44250Y33347D01*
Y32253D01*
X-43831Y31242D01*
X-43058Y30469D01*
X-42047Y30050D01*
X-40953D01*
X-39942Y30469D01*
X-39169Y31242D01*
X-38750Y32253D01*
Y32402D01*
X-38193Y32671D01*
X-37480Y32791D01*
X-36858Y32169D01*
X-35847Y31750D01*
X-34753D01*
X-33742Y32169D01*
X-32969Y32942D01*
X-32550Y33953D01*
Y35047D01*
X-32969Y36058D01*
X-33742Y36831D01*
X-34753Y37250D01*
D02*
G37*
G36*
X-97753Y37450D02*
X-98847D01*
X-99858Y37031D01*
X-100631Y36258D01*
X-101050Y35247D01*
Y34153D01*
X-100631Y33142D01*
X-99858Y32369D01*
X-98847Y31950D01*
X-97753D01*
X-96742Y32369D01*
X-95969Y33142D01*
X-95550Y34153D01*
Y35247D01*
X-95969Y36258D01*
X-96742Y37031D01*
X-97753Y37450D01*
D02*
G37*
G36*
X-309227Y44500D02*
X-311773D01*
X-314125Y43526D01*
X-315926Y41725D01*
X-316900Y39373D01*
Y36827D01*
X-315926Y34475D01*
X-314125Y32674D01*
X-311773Y31700D01*
X-309227D01*
X-306875Y32674D01*
X-305074Y34475D01*
X-304100Y36827D01*
Y39373D01*
X-305074Y41725D01*
X-306875Y43526D01*
X-309227Y44500D01*
D02*
G37*
G36*
X-334627D02*
X-337173D01*
X-339525Y43526D01*
X-341326Y41725D01*
X-342300Y39373D01*
Y36827D01*
X-341326Y34475D01*
X-339525Y32674D01*
X-337173Y31700D01*
X-334627D01*
X-332275Y32674D01*
X-330474Y34475D01*
X-329500Y36827D01*
Y39373D01*
X-330474Y41725D01*
X-332275Y43526D01*
X-334627Y44500D01*
D02*
G37*
G36*
X-289357Y33852D02*
X-290451D01*
X-291462Y33433D01*
X-292236Y32659D01*
X-292654Y31649D01*
Y30554D01*
X-292236Y29544D01*
X-291462Y28770D01*
X-290451Y28352D01*
X-289357D01*
X-288347Y28770D01*
X-287573Y29544D01*
X-287154Y30554D01*
Y31649D01*
X-287573Y32659D01*
X-288347Y33433D01*
X-289357Y33852D01*
D02*
G37*
G36*
X-217555Y42350D02*
X-219245D01*
X-220807Y41703D01*
X-222003Y40507D01*
X-222650Y38945D01*
Y37255D01*
X-222003Y35693D01*
X-220807Y34497D01*
X-219245Y33850D01*
X-217555D01*
X-215993Y34497D01*
X-214797Y35693D01*
X-214739Y35833D01*
X-194897D01*
X-192150Y33086D01*
X-192250Y32845D01*
Y31155D01*
X-191603Y29593D01*
X-190407Y28397D01*
X-188845Y27750D01*
X-187155D01*
X-185593Y28397D01*
X-184397Y29593D01*
X-183750Y31155D01*
Y32845D01*
X-184397Y34407D01*
X-185593Y35603D01*
X-187155Y36250D01*
X-188845D01*
X-189086Y36150D01*
X-192468Y39532D01*
X-193171Y40002D01*
X-194000Y40167D01*
X-214656D01*
X-214797Y40507D01*
X-215993Y41703D01*
X-217555Y42350D01*
D02*
G37*
G36*
X-232631Y27750D02*
X-234322D01*
X-235352Y27324D01*
X-237613D01*
X-238643Y27750D01*
X-240334D01*
X-241896Y27103D01*
X-243091Y25907D01*
X-243738Y24345D01*
Y22655D01*
X-243091Y21093D01*
X-241896Y19897D01*
X-240334Y19250D01*
X-238643D01*
X-237613Y19677D01*
X-235352D01*
X-234322Y19250D01*
X-232631D01*
X-231602Y19677D01*
X-222084D01*
X-200163Y-2244D01*
X-198923Y-3073D01*
X-197460Y-3364D01*
X-172443D01*
X-165127Y-10680D01*
X-165653Y-11950D01*
X-165847D01*
X-166858Y-12369D01*
X-167631Y-13142D01*
X-168050Y-14153D01*
Y-15247D01*
X-167631Y-16258D01*
X-166858Y-17031D01*
X-165847Y-17450D01*
X-164753D01*
X-163742Y-17031D01*
X-162969Y-16258D01*
X-162550Y-15247D01*
Y-15053D01*
X-161280Y-14527D01*
X-159729Y-16078D01*
X-159303Y-17107D01*
X-158107Y-18303D01*
X-156545Y-18950D01*
X-154855D01*
X-153825Y-18523D01*
X-148175D01*
X-147145Y-18950D01*
X-145455D01*
X-143893Y-18303D01*
X-142697Y-17107D01*
X-142050Y-15545D01*
Y-13855D01*
X-142697Y-12293D01*
X-143893Y-11097D01*
X-145455Y-10450D01*
X-147145D01*
X-148175Y-10876D01*
X-153825D01*
X-154322Y-10670D01*
X-168156Y3163D01*
X-169396Y3992D01*
X-170860Y4283D01*
X-177032D01*
X-177558Y5553D01*
X-177169Y5942D01*
X-176750Y6953D01*
Y8047D01*
X-177169Y9058D01*
X-177942Y9831D01*
X-178953Y10250D01*
X-180047D01*
X-181058Y9831D01*
X-181831Y9058D01*
X-182250Y8047D01*
Y6953D01*
X-181831Y5942D01*
X-181442Y5553D01*
X-181968Y4283D01*
X-195876D01*
X-217796Y26204D01*
X-219037Y27032D01*
X-220500Y27324D01*
X-231602D01*
X-232631Y27750D01*
D02*
G37*
G36*
X-254692Y32491D02*
X-255786D01*
X-256797Y32072D01*
X-257570Y31299D01*
X-257989Y30288D01*
Y29194D01*
X-257570Y28183D01*
X-256797Y27410D01*
X-255786Y26991D01*
X-254692D01*
X-253681Y27410D01*
X-252908Y28183D01*
X-252489Y29194D01*
Y30288D01*
X-252908Y31299D01*
X-253681Y32072D01*
X-254692Y32491D01*
D02*
G37*
G36*
X-91453Y30950D02*
X-92547D01*
X-93558Y30531D01*
X-94331Y29758D01*
X-94750Y28747D01*
Y27653D01*
X-94331Y26642D01*
X-93558Y25869D01*
X-92547Y25450D01*
X-91453D01*
X-90442Y25869D01*
X-89669Y26642D01*
X-89250Y27653D01*
Y28747D01*
X-89669Y29758D01*
X-90442Y30531D01*
X-91453Y30950D01*
D02*
G37*
G36*
X-34653Y29250D02*
X-35747D01*
X-36758Y28831D01*
X-37531Y28058D01*
X-37950Y27047D01*
Y25953D01*
X-37531Y24942D01*
X-36758Y24169D01*
X-35747Y23750D01*
X-34653D01*
X-33642Y24169D01*
X-32869Y24942D01*
X-32450Y25953D01*
Y27047D01*
X-32869Y28058D01*
X-33642Y28831D01*
X-34653Y29250D01*
D02*
G37*
G36*
X-207185Y27362D02*
X-208279D01*
X-209290Y26943D01*
X-210064Y26170D01*
X-210483Y25159D01*
Y24065D01*
X-210064Y23054D01*
X-209290Y22280D01*
X-208279Y21862D01*
X-207185D01*
X-206175Y22280D01*
X-205401Y23054D01*
X-204982Y24065D01*
Y25159D01*
X-205401Y26170D01*
X-206175Y26943D01*
X-207185Y27362D01*
D02*
G37*
G36*
X-260994Y26311D02*
X-262088D01*
X-263099Y25893D01*
X-263872Y25119D01*
X-264291Y24108D01*
Y23014D01*
X-263872Y22003D01*
X-263099Y21230D01*
X-262088Y20811D01*
X-260994D01*
X-259983Y21230D01*
X-259209Y22003D01*
X-258791Y23014D01*
Y24108D01*
X-259209Y25119D01*
X-259983Y25893D01*
X-260994Y26311D01*
D02*
G37*
G36*
X-171253Y23750D02*
X-172347D01*
X-173358Y23331D01*
X-174131Y22558D01*
X-174550Y21547D01*
Y20453D01*
X-174131Y19442D01*
X-173358Y18669D01*
X-172347Y18250D01*
X-171253D01*
X-170242Y18669D01*
X-169469Y19442D01*
X-169050Y20453D01*
Y21547D01*
X-169469Y22558D01*
X-170242Y23331D01*
X-171253Y23750D01*
D02*
G37*
G36*
X-283442Y22244D02*
X-284536D01*
X-285547Y21825D01*
X-286320Y21052D01*
X-286739Y20041D01*
Y18947D01*
X-286320Y17936D01*
X-285547Y17163D01*
X-284536Y16744D01*
X-283442D01*
X-282431Y17163D01*
X-281658Y17936D01*
X-281239Y18947D01*
Y20041D01*
X-281658Y21052D01*
X-282431Y21825D01*
X-283442Y22244D01*
D02*
G37*
G36*
X-309178Y22740D02*
X-309230D01*
Y13970D01*
X-300460D01*
Y14022D01*
X-301144Y16575D01*
X-302466Y18865D01*
X-304335Y20734D01*
X-306625Y22056D01*
X-309178Y22740D01*
D02*
G37*
G36*
X-311770D02*
X-311822D01*
X-314375Y22056D01*
X-316665Y20734D01*
X-318534Y18865D01*
X-319856Y16575D01*
X-320540Y14022D01*
Y13970D01*
X-311770D01*
Y22740D01*
D02*
G37*
G36*
X-289220Y17460D02*
X-290314D01*
X-291325Y17041D01*
X-292099Y16268D01*
X-292517Y15257D01*
Y14163D01*
X-292099Y13152D01*
X-291325Y12379D01*
X-290314Y11960D01*
X-289220D01*
X-288210Y12379D01*
X-287436Y13152D01*
X-287017Y14163D01*
Y15257D01*
X-287436Y16268D01*
X-288210Y17041D01*
X-289220Y17460D01*
D02*
G37*
G36*
X-136153Y17450D02*
X-137247D01*
X-138258Y17031D01*
X-139031Y16258D01*
X-139450Y15247D01*
Y14153D01*
X-139031Y13142D01*
X-138258Y12369D01*
X-137247Y11950D01*
X-136153D01*
X-135142Y12369D01*
X-134369Y13142D01*
X-133950Y14153D01*
Y15247D01*
X-134369Y16258D01*
X-135142Y17031D01*
X-136153Y17450D01*
D02*
G37*
G36*
X-145753D02*
X-146847D01*
X-147858Y17031D01*
X-148631Y16258D01*
X-149050Y15247D01*
Y14153D01*
X-148631Y13142D01*
X-147858Y12369D01*
X-146847Y11950D01*
X-145753D01*
X-144742Y12369D01*
X-143969Y13142D01*
X-143550Y14153D01*
Y15247D01*
X-143969Y16258D01*
X-144742Y17031D01*
X-145753Y17450D01*
D02*
G37*
G36*
X-155153D02*
X-156247D01*
X-157258Y17031D01*
X-158031Y16258D01*
X-158450Y15247D01*
Y14153D01*
X-158031Y13142D01*
X-157258Y12369D01*
X-156247Y11950D01*
X-155153D01*
X-154142Y12369D01*
X-153369Y13142D01*
X-152950Y14153D01*
Y15247D01*
X-153369Y16258D01*
X-154142Y17031D01*
X-155153Y17450D01*
D02*
G37*
G36*
X-164953D02*
X-166047D01*
X-167058Y17031D01*
X-167831Y16258D01*
X-168250Y15247D01*
Y14153D01*
X-167831Y13142D01*
X-167058Y12369D01*
X-166047Y11950D01*
X-164953D01*
X-163942Y12369D01*
X-163169Y13142D01*
X-162750Y14153D01*
Y15247D01*
X-163169Y16258D01*
X-163942Y17031D01*
X-164953Y17450D01*
D02*
G37*
G36*
X-250003Y12000D02*
X-250997D01*
X-251916Y11619D01*
X-252619Y10916D01*
X-253000Y9997D01*
Y9003D01*
X-252619Y8084D01*
X-251916Y7381D01*
X-250997Y7000D01*
X-250003D01*
X-249084Y7381D01*
X-248381Y8084D01*
X-248000Y9003D01*
Y9997D01*
X-248381Y10916D01*
X-249084Y11619D01*
X-250003Y12000D01*
D02*
G37*
G36*
X-334627Y19100D02*
X-337173D01*
X-339525Y18126D01*
X-341326Y16325D01*
X-342300Y13973D01*
Y11427D01*
X-341326Y9075D01*
X-339525Y7274D01*
X-337173Y6300D01*
X-334627D01*
X-332275Y7274D01*
X-330474Y9075D01*
X-329500Y11427D01*
Y13973D01*
X-330474Y16325D01*
X-332275Y18126D01*
X-334627Y19100D01*
D02*
G37*
G36*
X-121953Y10250D02*
X-123047D01*
X-124058Y9831D01*
X-124831Y9058D01*
X-125250Y8047D01*
Y6953D01*
X-124831Y5942D01*
X-124058Y5169D01*
X-123047Y4750D01*
X-121953D01*
X-120942Y5169D01*
X-120169Y5942D01*
X-119750Y6953D01*
Y8047D01*
X-120169Y9058D01*
X-120942Y9831D01*
X-121953Y10250D01*
D02*
G37*
G36*
X-35653Y8250D02*
X-36747D01*
X-37758Y7831D01*
X-38531Y7058D01*
X-38950Y6047D01*
Y4953D01*
X-38531Y3942D01*
X-37758Y3169D01*
X-36747Y2750D01*
X-35653D01*
X-34642Y3169D01*
X-33869Y3942D01*
X-33450Y4953D01*
Y6047D01*
X-33869Y7058D01*
X-34642Y7831D01*
X-35653Y8250D01*
D02*
G37*
G36*
X-300460Y11430D02*
X-309230D01*
Y2660D01*
X-309178D01*
X-306625Y3344D01*
X-304335Y4666D01*
X-302466Y6535D01*
X-301144Y8825D01*
X-300460Y11378D01*
Y11430D01*
D02*
G37*
G36*
X-311770D02*
X-320540D01*
Y11378D01*
X-319856Y8825D01*
X-318534Y6535D01*
X-316665Y4666D01*
X-314375Y3344D01*
X-311822Y2660D01*
X-311770D01*
Y11430D01*
D02*
G37*
G36*
X-244253Y2500D02*
X-245247D01*
X-246166Y2119D01*
X-246869Y1416D01*
X-247250Y497D01*
Y-497D01*
X-246869Y-1416D01*
X-246166Y-2119D01*
X-245247Y-2500D01*
X-244253D01*
X-243334Y-2119D01*
X-242631Y-1416D01*
X-242250Y-497D01*
Y497D01*
X-242631Y1416D01*
X-243334Y2119D01*
X-244253Y2500D01*
D02*
G37*
G36*
X-255753D02*
X-256747D01*
X-257666Y2119D01*
X-258369Y1416D01*
X-258750Y497D01*
Y-497D01*
X-258369Y-1416D01*
X-257666Y-2119D01*
X-256747Y-2500D01*
X-255753D01*
X-254834Y-2119D01*
X-254131Y-1416D01*
X-253750Y-497D01*
Y497D01*
X-254131Y1416D01*
X-254834Y2119D01*
X-255753Y2500D01*
D02*
G37*
G36*
X-51953Y1950D02*
X-53047D01*
X-54058Y1531D01*
X-54831Y758D01*
X-55250Y-253D01*
Y-1347D01*
X-54831Y-2358D01*
X-54058Y-3131D01*
X-53047Y-3550D01*
X-51953D01*
X-50942Y-3131D01*
X-50169Y-2358D01*
X-49750Y-1347D01*
Y-253D01*
X-50169Y758D01*
X-50942Y1531D01*
X-51953Y1950D01*
D02*
G37*
G36*
X-44453Y-1250D02*
X-45547D01*
X-46558Y-1669D01*
X-47331Y-2442D01*
X-47750Y-3453D01*
Y-4547D01*
X-47331Y-5558D01*
X-46558Y-6331D01*
X-45547Y-6750D01*
X-44453D01*
X-43442Y-6331D01*
X-42669Y-5558D01*
X-42250Y-4547D01*
Y-3453D01*
X-42669Y-2442D01*
X-43442Y-1669D01*
X-44453Y-1250D01*
D02*
G37*
G36*
X-178953Y-4750D02*
X-180047D01*
X-181058Y-5169D01*
X-181831Y-5942D01*
X-182250Y-6953D01*
Y-8047D01*
X-181831Y-9058D01*
X-181058Y-9831D01*
X-180047Y-10250D01*
X-178953D01*
X-177942Y-9831D01*
X-177169Y-9058D01*
X-176750Y-8047D01*
Y-6953D01*
X-177169Y-5942D01*
X-177942Y-5169D01*
X-178953Y-4750D01*
D02*
G37*
G36*
X-34953Y-4750D02*
X-36047D01*
X-37058Y-5169D01*
X-37831Y-5942D01*
X-38250Y-6953D01*
Y-8047D01*
X-37831Y-9058D01*
X-37058Y-9831D01*
X-36047Y-10250D01*
X-34953D01*
X-33942Y-9831D01*
X-33169Y-9058D01*
X-32750Y-8047D01*
Y-6953D01*
X-33169Y-5942D01*
X-33942Y-5169D01*
X-34953Y-4750D01*
D02*
G37*
G36*
X-121953D02*
X-123047D01*
X-124058Y-5169D01*
X-124831Y-5942D01*
X-125250Y-6953D01*
Y-8047D01*
X-124831Y-9058D01*
X-124058Y-9831D01*
X-123047Y-10250D01*
X-121953D01*
X-120942Y-9831D01*
X-120169Y-9058D01*
X-119750Y-8047D01*
Y-6953D01*
X-120169Y-5942D01*
X-120942Y-5169D01*
X-121953Y-4750D01*
D02*
G37*
G36*
X-250003Y-7000D02*
X-250997D01*
X-251916Y-7381D01*
X-252619Y-8084D01*
X-253000Y-9003D01*
Y-9997D01*
X-252619Y-10916D01*
X-251916Y-11619D01*
X-250997Y-12000D01*
X-250003D01*
X-249084Y-11619D01*
X-248381Y-10916D01*
X-248000Y-9997D01*
Y-9003D01*
X-248381Y-8084D01*
X-249084Y-7381D01*
X-250003Y-7000D01*
D02*
G37*
G36*
X-136153Y-11950D02*
X-137247D01*
X-138258Y-12369D01*
X-139031Y-13142D01*
X-139450Y-14153D01*
Y-15247D01*
X-139031Y-16258D01*
X-138258Y-17031D01*
X-137247Y-17450D01*
X-136153D01*
X-135142Y-17031D01*
X-134369Y-16258D01*
X-133950Y-15247D01*
Y-14153D01*
X-134369Y-13142D01*
X-135142Y-12369D01*
X-136153Y-11950D01*
D02*
G37*
G36*
X-263703Y-12750D02*
X-264797D01*
X-265808Y-13169D01*
X-266581Y-13942D01*
X-267000Y-14953D01*
Y-16047D01*
X-266581Y-17058D01*
X-265808Y-17831D01*
X-264797Y-18250D01*
X-263703D01*
X-262692Y-17831D01*
X-261919Y-17058D01*
X-261500Y-16047D01*
Y-14953D01*
X-261919Y-13942D01*
X-262692Y-13169D01*
X-263703Y-12750D01*
D02*
G37*
G36*
X-309227Y-6300D02*
X-311773D01*
X-314125Y-7274D01*
X-315926Y-9075D01*
X-316900Y-11427D01*
Y-13973D01*
X-315926Y-16325D01*
X-314125Y-18126D01*
X-311773Y-19100D01*
X-309227D01*
X-306875Y-18126D01*
X-305074Y-16325D01*
X-304100Y-13973D01*
Y-11427D01*
X-305074Y-9075D01*
X-306875Y-7274D01*
X-309227Y-6300D01*
D02*
G37*
G36*
X-334627D02*
X-337173D01*
X-339525Y-7274D01*
X-341326Y-9075D01*
X-342300Y-11427D01*
Y-13973D01*
X-341326Y-16325D01*
X-339525Y-18126D01*
X-337173Y-19100D01*
X-334627D01*
X-332275Y-18126D01*
X-330474Y-16325D01*
X-329500Y-13973D01*
Y-11427D01*
X-330474Y-9075D01*
X-332275Y-7274D01*
X-334627Y-6300D01*
D02*
G37*
G36*
X-289819Y-7189D02*
X-290913D01*
X-291924Y-7607D01*
X-292697Y-8381D01*
X-293116Y-9392D01*
Y-10486D01*
X-292697Y-11497D01*
X-291924Y-12270D01*
X-291026Y-12642D01*
X-290906Y-13036D01*
X-290887Y-13959D01*
X-291062Y-14031D01*
X-291835Y-14805D01*
X-292254Y-15816D01*
Y-16910D01*
X-291835Y-17921D01*
X-291062Y-18694D01*
X-290051Y-19113D01*
X-288957D01*
X-287946Y-18694D01*
X-287173Y-17921D01*
X-286754Y-16910D01*
Y-15816D01*
X-287173Y-14805D01*
X-287946Y-14031D01*
X-288844Y-13660D01*
X-288964Y-13265D01*
X-288983Y-12343D01*
X-288808Y-12270D01*
X-288034Y-11497D01*
X-287616Y-10486D01*
Y-9392D01*
X-288034Y-8381D01*
X-288808Y-7607D01*
X-289819Y-7189D01*
D02*
G37*
G36*
X-273953Y-13750D02*
X-275047D01*
X-276058Y-14169D01*
X-276831Y-14942D01*
X-277250Y-15953D01*
Y-17047D01*
X-276831Y-18058D01*
X-276058Y-18831D01*
X-275047Y-19250D01*
X-273953D01*
X-272942Y-18831D01*
X-272169Y-18058D01*
X-271750Y-17047D01*
Y-15953D01*
X-272169Y-14942D01*
X-272942Y-14169D01*
X-273953Y-13750D01*
D02*
G37*
G36*
X-232631Y-19250D02*
X-234322D01*
X-235352Y-19677D01*
X-237613D01*
X-238643Y-19250D01*
X-240334D01*
X-241896Y-19897D01*
X-243091Y-21093D01*
X-243738Y-22655D01*
Y-24345D01*
X-243091Y-25907D01*
X-241896Y-27103D01*
X-240334Y-27750D01*
X-238643D01*
X-237613Y-27324D01*
X-235352D01*
X-234322Y-27750D01*
X-232631D01*
X-231602Y-27324D01*
X-217084D01*
X-171427Y-72980D01*
X-171953Y-74250D01*
X-172147D01*
X-173158Y-74669D01*
X-173931Y-75442D01*
X-174350Y-76453D01*
Y-77547D01*
X-173931Y-78558D01*
X-173158Y-79331D01*
X-172147Y-79750D01*
X-171053D01*
X-170042Y-79331D01*
X-169269Y-78558D01*
X-168850Y-77547D01*
Y-77353D01*
X-167580Y-76827D01*
X-165127Y-79280D01*
X-165653Y-80550D01*
X-165847D01*
X-166858Y-80969D01*
X-167631Y-81742D01*
X-168050Y-82753D01*
Y-83847D01*
X-167631Y-84858D01*
X-166858Y-85631D01*
X-165847Y-86050D01*
X-164753D01*
X-163742Y-85631D01*
X-162969Y-84858D01*
X-162550Y-83847D01*
Y-83653D01*
X-161280Y-83127D01*
X-159729Y-84678D01*
X-159303Y-85707D01*
X-158107Y-86903D01*
X-156545Y-87550D01*
X-154855D01*
X-153825Y-87123D01*
X-148175D01*
X-147146Y-87550D01*
X-145455D01*
X-143893Y-86903D01*
X-142697Y-85707D01*
X-142050Y-84145D01*
Y-82455D01*
X-142697Y-80892D01*
X-143893Y-79697D01*
X-145455Y-79050D01*
X-147146D01*
X-148175Y-79476D01*
X-153825D01*
X-154322Y-79270D01*
X-212796Y-20796D01*
X-214037Y-19968D01*
X-215500Y-19677D01*
X-231602D01*
X-232631Y-19250D01*
D02*
G37*
G36*
X-177953Y-17200D02*
X-179047D01*
X-180058Y-17619D01*
X-180831Y-18392D01*
X-181250Y-19403D01*
Y-20497D01*
X-180831Y-21508D01*
X-180058Y-22281D01*
X-179047Y-22700D01*
X-177953D01*
X-176942Y-22281D01*
X-176169Y-21508D01*
X-175750Y-20497D01*
Y-19403D01*
X-176169Y-18392D01*
X-176942Y-17619D01*
X-177953Y-17200D01*
D02*
G37*
G36*
X-129853Y-18250D02*
X-130947D01*
X-131958Y-18669D01*
X-132731Y-19442D01*
X-133150Y-20453D01*
Y-21547D01*
X-132731Y-22558D01*
X-131958Y-23331D01*
X-130947Y-23750D01*
X-129853D01*
X-128842Y-23331D01*
X-128069Y-22558D01*
X-127650Y-21547D01*
Y-20453D01*
X-128069Y-19442D01*
X-128842Y-18669D01*
X-129853Y-18250D01*
D02*
G37*
G36*
X-171053D02*
X-172147D01*
X-173158Y-18669D01*
X-173931Y-19442D01*
X-174350Y-20453D01*
Y-21547D01*
X-173931Y-22558D01*
X-173158Y-23331D01*
X-172147Y-23750D01*
X-171053D01*
X-170042Y-23331D01*
X-169269Y-22558D01*
X-168850Y-21547D01*
Y-20453D01*
X-169269Y-19442D01*
X-170042Y-18669D01*
X-171053Y-18250D01*
D02*
G37*
G36*
X-261194Y-20689D02*
X-262288D01*
X-263299Y-21107D01*
X-264072Y-21881D01*
X-264491Y-22892D01*
Y-23986D01*
X-264072Y-24997D01*
X-263299Y-25770D01*
X-262288Y-26189D01*
X-261194D01*
X-260183Y-25770D01*
X-259410Y-24997D01*
X-258991Y-23986D01*
Y-22892D01*
X-259410Y-21881D01*
X-260183Y-21107D01*
X-261194Y-20689D01*
D02*
G37*
G36*
X-290662Y-21707D02*
X-291756D01*
X-292766Y-22126D01*
X-293540Y-22899D01*
X-293959Y-23910D01*
Y-25004D01*
X-293540Y-26015D01*
X-292766Y-26788D01*
X-291756Y-27207D01*
X-290662D01*
X-289651Y-26788D01*
X-288877Y-26015D01*
X-288459Y-25004D01*
Y-23910D01*
X-288877Y-22899D01*
X-289651Y-22126D01*
X-290662Y-21707D01*
D02*
G37*
G36*
X-254814Y-26991D02*
X-255908D01*
X-256919Y-27410D01*
X-257693Y-28183D01*
X-258111Y-29194D01*
Y-30288D01*
X-257693Y-31299D01*
X-256919Y-32072D01*
X-255908Y-32491D01*
X-254814D01*
X-253803Y-32072D01*
X-253030Y-31299D01*
X-252611Y-30288D01*
Y-29194D01*
X-253030Y-28183D01*
X-253803Y-27410D01*
X-254814Y-26991D01*
D02*
G37*
G36*
X-309227Y-31700D02*
X-311773D01*
X-314125Y-32674D01*
X-315926Y-34475D01*
X-316900Y-36827D01*
Y-39373D01*
X-315926Y-41725D01*
X-314125Y-43526D01*
X-311773Y-44500D01*
X-309227D01*
X-306875Y-43526D01*
X-305074Y-41725D01*
X-304100Y-39373D01*
Y-36827D01*
X-305074Y-34475D01*
X-306875Y-32674D01*
X-309227Y-31700D01*
D02*
G37*
G36*
X-334627D02*
X-337173D01*
X-339525Y-32674D01*
X-341326Y-34475D01*
X-342300Y-36827D01*
Y-39373D01*
X-341326Y-41725D01*
X-339525Y-43526D01*
X-337173Y-44500D01*
X-334627D01*
X-332275Y-43526D01*
X-330474Y-41725D01*
X-329500Y-39373D01*
Y-36827D01*
X-330474Y-34475D01*
X-332275Y-32674D01*
X-334627Y-31700D01*
D02*
G37*
G36*
X-158336Y-46250D02*
X-159431D01*
X-160441Y-46669D01*
X-161215Y-47442D01*
X-161633Y-48453D01*
Y-49547D01*
X-161215Y-50558D01*
X-160441Y-51331D01*
X-159431Y-51750D01*
X-158336D01*
X-157326Y-51331D01*
X-156552Y-50558D01*
X-156133Y-49547D01*
Y-48453D01*
X-156552Y-47442D01*
X-157326Y-46669D01*
X-158336Y-46250D01*
D02*
G37*
G36*
X-309227Y-57100D02*
X-311773D01*
X-314125Y-58074D01*
X-315926Y-59875D01*
X-316900Y-62227D01*
Y-64773D01*
X-315926Y-67125D01*
X-314125Y-68926D01*
X-311773Y-69900D01*
X-309227D01*
X-306875Y-68926D01*
X-305074Y-67125D01*
X-304100Y-64773D01*
Y-62227D01*
X-305074Y-59875D01*
X-306875Y-58074D01*
X-309227Y-57100D01*
D02*
G37*
G36*
X-334627D02*
X-337173D01*
X-339525Y-58074D01*
X-341326Y-59875D01*
X-342300Y-62227D01*
Y-64773D01*
X-341326Y-67125D01*
X-339525Y-68926D01*
X-337173Y-69900D01*
X-334627D01*
X-332275Y-68926D01*
X-330474Y-67125D01*
X-329500Y-64773D01*
Y-62227D01*
X-330474Y-59875D01*
X-332275Y-58074D01*
X-334627Y-57100D01*
D02*
G37*
G36*
X-260703Y-72550D02*
X-261797D01*
X-262808Y-72969D01*
X-263581Y-73742D01*
X-264000Y-74753D01*
Y-75847D01*
X-263581Y-76858D01*
X-262808Y-77631D01*
X-261797Y-78050D01*
X-260703D01*
X-259692Y-77631D01*
X-258919Y-76858D01*
X-258500Y-75847D01*
Y-74753D01*
X-258919Y-73742D01*
X-259692Y-72969D01*
X-260703Y-72550D01*
D02*
G37*
G36*
X-272453D02*
X-273547D01*
X-274558Y-72969D01*
X-275331Y-73742D01*
X-275750Y-74753D01*
Y-75847D01*
X-275331Y-76858D01*
X-274558Y-77631D01*
X-273547Y-78050D01*
X-272453D01*
X-271442Y-77631D01*
X-270669Y-76858D01*
X-270250Y-75847D01*
Y-74753D01*
X-270669Y-73742D01*
X-271442Y-72969D01*
X-272453Y-72550D01*
D02*
G37*
G36*
X-284203D02*
X-285297D01*
X-286308Y-72969D01*
X-287081Y-73742D01*
X-287500Y-74753D01*
Y-75847D01*
X-287081Y-76858D01*
X-286308Y-77631D01*
X-285297Y-78050D01*
X-284203D01*
X-283192Y-77631D01*
X-282419Y-76858D01*
X-282000Y-75847D01*
Y-74753D01*
X-282419Y-73742D01*
X-283192Y-72969D01*
X-284203Y-72550D01*
D02*
G37*
G36*
X-129853Y-74250D02*
X-130947D01*
X-131958Y-74669D01*
X-132731Y-75442D01*
X-133150Y-76453D01*
Y-77547D01*
X-132731Y-78558D01*
X-131958Y-79331D01*
X-130947Y-79750D01*
X-129853D01*
X-128842Y-79331D01*
X-128069Y-78558D01*
X-127650Y-77547D01*
Y-76453D01*
X-128069Y-75442D01*
X-128842Y-74669D01*
X-129853Y-74250D01*
D02*
G37*
G36*
X-136153Y-80550D02*
X-137247D01*
X-138258Y-80969D01*
X-139031Y-81742D01*
X-139450Y-82753D01*
Y-83847D01*
X-139031Y-84858D01*
X-138258Y-85631D01*
X-137247Y-86050D01*
X-136153D01*
X-135142Y-85631D01*
X-134369Y-84858D01*
X-133950Y-83847D01*
Y-82753D01*
X-134369Y-81742D01*
X-135142Y-80969D01*
X-136153Y-80550D01*
D02*
G37*
%LPD*%
D10*
X-233477Y23500D02*
X-220500D01*
X-155700Y-14700D02*
X-146300D01*
X-197460Y460D02*
X-170860D01*
X-155700Y-14700D01*
X-239488Y23500D02*
X-233477D01*
X-220500D02*
X-197460Y460D01*
X-239488Y-23500D02*
X-233477D01*
X-215500D02*
X-155700Y-83300D01*
X-146300D01*
X-233477Y-23500D02*
X-215500D01*
D30*
X-310500Y12700D02*
D03*
D32*
X-218300Y38000D02*
X-194000D01*
X-218400Y38100D02*
X-218300Y38000D01*
X-194000D02*
X-188000Y32000D01*
D33*
X-218400Y38100D02*
D03*
X-188000Y32000D02*
D03*
X-233477Y-23500D02*
D03*
X-233477Y23500D02*
D03*
X-239488D02*
D03*
X-239488Y-23500D02*
D03*
X-264420Y15573D02*
D03*
X-274500Y16500D02*
D03*
X-146300Y-14700D02*
D03*
X-155700D02*
D03*
Y-83300D02*
D03*
X-146300D02*
D03*
X-85700Y44300D02*
D03*
Y63500D02*
D03*
X-92168Y68144D02*
D03*
X-67000Y65200D02*
D03*
X-68650Y86776D02*
D03*
X-228750Y-75300D02*
D03*
X-217000D02*
D03*
X-205250D02*
D03*
M02*
